<svg width="422" height="408" viewBox="0 0 422 408" fill="none" xmlns="http://www.w3.org/2000/svg">
<path fill-rule="evenodd" clip-rule="evenodd" d="M58.8784 305.061V266.063L31.681 305.061H58.8784ZM0.677734 305.061L58.882 226H91.8113V305.061H102.876V323.981H91.8113V350.866H58.8784V323.981H0.677734V305.061Z" fill="#46CAD7"/>
<path fill-rule="evenodd" clip-rule="evenodd" d="M376.861 306.061V267.063L349.662 306.061H376.861ZM318.66 306.061L376.862 227H409.793V306.061H421.516V324.981H409.793V351.866H376.861V324.981H318.66V306.061Z" fill="#46CAD7"/>
<path fill-rule="evenodd" clip-rule="evenodd" d="M320 300.001C320 359.649 271.422 408 211.5 408C151.578 408 103 359.649 103 300.001C103 240.353 151.578 192 211.5 192C271.422 192 320 240.353 320 300.001Z" fill="#E7AB19"/>
<path fill-rule="evenodd" clip-rule="evenodd" d="M159.631 265.447H199.3V311.342H159.631V265.447Z" fill="#054767"/>
<path d="M199.633 311.719H159.276V265.11H199.701L199.633 311.719ZM159.95 311.045H199.027V265.783H159.95V311.045Z" fill="#373435"/>
<path fill-rule="evenodd" clip-rule="evenodd" d="M231.13 264.572H269.748V310.466H231.13V264.572Z" fill="#30B6CA"/>
<path d="M270.121 310.803H230.788V264.234H270.121V310.803ZM231.502 310.129H269.447V264.908H231.462L231.502 310.129Z" fill="#373435"/>
<path fill-rule="evenodd" clip-rule="evenodd" d="M175.639 215.779L188.238 220.725L194.072 231.1L175.827 235.668L175.639 215.779Z" fill="#47D7DA"/>
<path fill-rule="evenodd" clip-rule="evenodd" d="M139.244 151.64L153.217 150.091L165.641 173.671L150.886 194.422L144.58 177.161L139.244 151.64Z" fill="#F5324F"/>
<path fill-rule="evenodd" clip-rule="evenodd" d="M140.32 160.574L138.757 131.846L148.189 142.909L158.282 157.178C150.79 153.19 140.994 148.15 140.32 160.574Z" fill="#6F0930"/>
<path fill-rule="evenodd" clip-rule="evenodd" d="M171.648 188.223L172.43 169.79L173.98 186.566L179.127 208.489L183.398 231.787L181.943 232.946L180.097 231.1L171.648 188.223Z" fill="#E8FAF8"/>
<path fill-rule="evenodd" clip-rule="evenodd" d="M138.863 174.83L141.477 171.245L147.689 186.067L154.966 202.075L179.894 234.415L176.498 236.072C159.426 217.814 140.602 192.778 138.863 174.83Z" fill="#30B6CA"/>
<path fill-rule="evenodd" clip-rule="evenodd" d="M136.815 178.711L138.864 174.83L176.498 236.153L171.755 233.822L150.991 211.023L142.542 199.96L136.815 178.711Z" fill="#97E1E0"/>
<path fill-rule="evenodd" clip-rule="evenodd" d="M147.69 186.081L164.574 169.884L179.895 230.426L177.564 232.367L166.609 220.037L157.096 207.519L147.69 186.081Z" fill="#C7023B"/>
<path fill-rule="evenodd" clip-rule="evenodd" d="M138.081 124.38L180.095 165.707L172.132 167.553L138.081 124.38Z" fill="#054767"/>
<path d="M171.999 167.931L137.813 124.583L138.326 124.138L180.771 165.91L171.999 167.931ZM141.667 128.369L172.268 167.177L179.423 165.519L141.667 128.369Z" fill="#054767"/>
<path fill-rule="evenodd" clip-rule="evenodd" d="M190.47 210.43L187.654 164.926L133.041 114.099L134.779 118.56L141.773 127.871L180.095 165.708L171.848 167.837L172.428 169.683L182.224 167.257L185.336 209.46L190.47 210.43Z" fill="#46CAD7"/>
<path d="M190.837 210.847L185.016 209.742L181.917 167.688L172.202 170.086L171.42 167.607L179.505 165.532L141.533 128.112L134.472 118.68L132.182 112.845L187.994 164.844V164.979L190.837 210.847ZM185.649 209.176L190.109 210.025L187.334 165.087L133.893 115.352L135.079 118.397L142.113 127.668L180.825 165.882L172.35 168.078L172.727 169.278L182.537 166.839L185.649 209.176Z" fill="#46CAD7"/>
<path fill-rule="evenodd" clip-rule="evenodd" d="M177.674 168.336L182.228 167.258L185.624 209.461H183.293L177.674 168.336Z" fill="#052747"/>
<path fill-rule="evenodd" clip-rule="evenodd" d="M172.339 169.885L177.729 168.335L183.456 208.301L181.704 222.18C183.444 222.764 184.998 223.798 186.207 225.178C187.417 226.559 188.239 228.235 188.589 230.036L183.456 231.788L179.184 208.49L174.037 186.567L172.339 169.885Z" fill="#054767"/>
<path fill-rule="evenodd" clip-rule="evenodd" d="M132.653 132.236L134.014 115.069L134.782 118.559L148.944 140.577L155.641 152.704L138.757 131.845L132.653 132.236Z" fill="#E8FAF8"/>
<path fill-rule="evenodd" clip-rule="evenodd" d="M149.63 141.938L134.781 118.559L171.554 167.459L172.43 169.79L171.554 190.838L163.307 166.974L149.63 141.938Z" fill="#39CAD8"/>
<path fill-rule="evenodd" clip-rule="evenodd" d="M134.593 132.142L137.018 131.94L141.478 171.245L137.018 177.349L133.717 155.332L134.593 132.142Z" fill="#6DAEB4"/>
<path d="M176.268 241.449L174.92 240.102L169.746 234.712C160.031 224.714 150.882 215.268 140.87 201.119C140.193 199.907 139.736 198.584 139.522 197.212C139.428 196.834 139.347 196.511 139.28 196.269C132.542 176.717 129.578 146.708 131.047 114.073L131.208 109.599L189.621 163.956L193.866 231.923L192.141 232.273C186.064 233.499 181.442 236.949 177.723 240.156L176.268 241.449ZM134.887 118.573C133.917 148.676 136.949 176.973 143.093 195.042C143.201 195.393 143.309 195.783 143.417 196.242C143.604 197.105 143.86 197.953 144.185 198.775C153.994 212.681 163.049 222.019 172.67 231.896L176.551 235.938C180.345 232.652 184.796 230.212 189.608 228.783L185.687 165.897L134.887 118.573Z" fill="#05091E"/>
<path fill-rule="evenodd" clip-rule="evenodd" d="M145.657 155.036C159.334 156.383 169.71 192.293 165.344 195.985C151.856 201.416 147.395 188.803 145.657 155.036Z" fill="#E5273A"/>
<path fill-rule="evenodd" clip-rule="evenodd" d="M140.025 133.301C163.121 155.911 174.278 191.026 178.927 233.243C171.947 195.392 160.305 161.153 140.025 133.301Z" fill="#E5273A"/>
<path d="M181.832 238.067L178.989 235.493C147.768 207.156 135.263 162.649 136.719 131.158L136.853 128.167L139.009 130.256C169.395 159.779 174.758 193.587 180.97 232.812L181.832 238.067ZM139.333 134.311C138.821 163.983 150.422 203.922 177.951 230.871C172.117 194.072 166.579 162.15 139.333 134.311Z" fill="#05091E"/>
<path fill-rule="evenodd" clip-rule="evenodd" d="M145.063 150.373L144.39 147.678C148.432 156.41 151.127 166.408 153.512 176.487C156.126 187.833 163.672 198.99 167.714 209.757L165.289 206.455C149.052 182.201 149.631 167.648 145.063 150.373Z" fill="#F8F7E5"/>
<path fill-rule="evenodd" clip-rule="evenodd" d="M150.211 300.953L153.795 292.707L184.369 292.518L217.841 291.939L255.772 288.543L274.017 291.346L293.218 303.001L280.215 300.953L275.364 302.22L284.096 310.952L286.535 331.137L274.017 321.624L275.472 334.627L253.05 349.274L227.057 359.663L224.241 365.093L208.813 378.19L195.809 380.225L179.99 373.73L167.863 363.341L169.035 343.938L159.145 338.79L148.944 328.509L146.142 316.288L150.211 300.953Z" fill="#AEB0AC"/>
<path fill-rule="evenodd" clip-rule="evenodd" d="M256.162 289.796C270.714 286.886 284.095 295.038 294.767 304.618C287.49 301.411 279.15 299.377 272.358 301.317C279.096 302.382 285.173 309.173 287.598 320.923L276.441 307.718C283.718 315.102 286.52 324.318 286.722 334.667C285.686 331.459 283.995 328.501 281.757 325.98C279.518 323.459 276.782 321.429 273.719 320.02L276.333 333.212C262.077 346.12 246.366 353.1 228.512 360.282L227.636 357.668L223.755 366.103C209.687 382.206 193.1 388.903 167.862 363.287C168.549 354.556 171.365 347.576 167.862 343.008C152.245 336.998 141.29 326.232 148.27 304.78L160.976 293.192L256.162 289.796Z" fill="#AEB0AC"/>
<path d="M198.707 382.448C188.695 382.448 178.117 376.654 166.367 364.756L165.72 364.109L165.788 363.193C165.99 360.579 166.381 358.099 166.731 355.903C167.486 351.119 168.079 347.293 166.488 344.719C146.856 336.944 140.051 323.321 146.276 304.214L146.452 303.702L160.101 291.197L255.853 287.788C268.654 285.295 281.805 290.321 296.061 303.136L305.413 311.558L293.892 306.491C289.485 304.457 284.773 303.164 279.946 302.664C284.446 306.275 287.842 312.487 289.513 320.532L291.116 328.32L287.397 323.927C288.201 327.466 288.63 331.079 288.677 334.707L288.906 347.185L284.743 335.421C283.263 330.87 280.381 326.903 276.51 324.089L278.477 334.02L277.628 334.788C262.968 348.047 247.027 355.067 229.2 362.236L227.394 362.964L225.4 367.289L225.211 367.518C216.534 377.449 208.341 382.206 199.434 382.462L198.707 382.448ZM169.938 362.586C180.853 373.487 190.5 378.594 199.353 378.392C206.994 378.163 214.176 373.919 222.018 365.039L227.906 352.224L229.712 357.614C246.03 350.998 260.704 344.328 274.111 332.484L270.931 316.489L274.556 318.201C278.002 319.772 281.068 322.071 283.543 324.938C282.588 320.638 280.788 316.571 278.248 312.972L274.866 308.93L277.844 306.235C279.165 307.567 280.381 309 281.482 310.52L281.819 310.924C279.285 306.585 275.89 303.864 272.023 303.244L262.968 301.829L271.78 299.309C276.029 298.233 280.473 298.187 284.743 299.174C274.785 292.343 265.501 289.89 256.527 291.682H256.203L161.772 295.051L150.009 305.831C144.619 322.903 150.534 334.128 168.564 341.04L169.103 341.242L169.453 341.701C172.458 345.635 171.676 350.621 170.8 356.401C170.477 358.477 170.167 360.484 169.965 362.586H169.938Z" fill="#05091E"/>
<path fill-rule="evenodd" clip-rule="evenodd" d="M158.066 304.74C152.676 308.23 149.82 318.322 151.666 320.909C152.932 322.742 154.765 326.73 157.877 327.013C159.333 327.108 162.634 324.79 165.154 323.038C166.609 321.974 168.159 321.974 168.253 320.613C168.644 316.571 168.644 314.698 169.035 315.088L158.066 304.74Z" fill="#F5FCF3"/>
<path fill-rule="evenodd" clip-rule="evenodd" d="M164.278 298.042L164.952 293.097L193.249 292.032L187.657 294.202C190.249 295.674 192.633 297.487 194.745 299.592C195.041 299.875 194.65 301.424 194.933 301.721C196.011 302.597 197.359 301.141 198.235 302.206C198.72 302.785 198.235 305.413 198.814 305.898C199.393 306.383 201.145 305.413 201.63 305.992C202.115 306.572 201.347 307.34 201.927 307.933C202.991 308.809 209.001 307.542 211.723 307.731C211.883 307.761 212.035 307.823 212.171 307.913C212.306 308.003 212.423 308.119 212.513 308.255C212.603 308.39 212.666 308.542 212.697 308.702C212.728 308.862 212.726 309.026 212.693 309.186C212.504 311.611 207.303 315.788 200.862 318.51C192.225 322 178.548 322.674 173.01 316.368L172.619 313.067L185.528 298.137L164.278 298.042Z" fill="#F5FCF3"/>
<path fill-rule="evenodd" clip-rule="evenodd" d="M222.963 308.336C226.264 305.803 230.441 303.97 233.837 301.599C238.782 298.203 243.148 294.605 250.128 294.12C247.202 293.695 244.395 292.672 241.881 291.116C255.949 290.442 267.214 291.506 273.129 296.748C267.012 298.877 259.453 299.443 251.395 299.564C261.285 304.119 267.012 310.425 268.669 318.429L262.457 314.171C260.706 316.974 261.002 319.79 259.345 322.256C252.176 332.348 242.569 338.843 233.635 345.54C228.878 349.138 224.62 353.207 220.349 356.805C216.881 359.837 213.183 362.594 209.286 365.051C203.465 368.447 197.348 370.441 192.308 370.185C189.303 369.997 175.33 366.507 173.578 363.879C172.81 362.532 169.536 366.695 169.792 365.334C170.183 363.488 166.396 360.686 167.663 358.152C169.792 354.272 171.449 352.143 173.969 350.782C174.656 355.929 177.176 357.182 180.275 358.934C196.445 368.245 219.958 350.593 225.294 336.525C231.412 324.007 237.906 313.43 245.277 306.059C239.955 302.892 232.193 304.253 222.963 308.336Z" fill="#F5FCF3"/>
<path fill-rule="evenodd" clip-rule="evenodd" d="M156.71 331.515C159.405 333.361 161.669 330.167 164.795 327.257C166.735 325.411 169.551 324.562 171.532 322.595C171.626 319.293 170.764 317.205 168.042 313.674L174.645 312.893C175.224 312.798 173.378 313.863 172.893 315.318C172.597 316.1 173.473 317.353 173.473 317.932C173.451 318.608 173.565 319.282 173.807 319.913C174.049 320.545 174.415 321.122 174.883 321.61C175.351 322.098 175.912 322.488 176.533 322.757C177.154 323.025 177.822 323.167 178.499 323.174C179.752 323.268 181.786 323.861 183.727 323.955C189.117 324.238 196.15 324.629 198.387 323.753C201.448 322.775 204.457 321.642 207.402 320.358C212.94 317.744 218.855 314.739 223.989 312.017C230.983 308.23 237.1 305.28 243.406 305.913C239.714 307.462 237.1 307.26 234.378 312.111C230.498 319.199 228.746 330.167 224.865 336.177C221.186 341.998 217.791 348.021 213.91 351.902C205.273 360.526 192.661 363.827 183.835 361.402C180.924 360.634 176.747 358.976 174.901 356.16C173.931 354.705 174.133 352.67 173.931 350.77L170.535 352.805L168.891 343.494L162.962 338.643C165.981 338.252 166.56 336.123 164.135 335.247C162.691 335.025 161.227 334.962 159.769 335.059C157.882 335.018 158.758 332.391 156.71 331.515Z" fill="#05091E"/>
<path fill-rule="evenodd" clip-rule="evenodd" d="M224.143 328.995C223.847 329.48 224.036 330.45 223.362 331.029C222.688 331.609 221.125 331.231 221.031 331.716C220.936 332.202 222.877 332.202 223.268 332.875C223.658 333.549 222.688 335.112 222.392 335.786C220.64 338.696 218.12 341.809 216.476 344.234C213.471 348.6 209.106 351.309 205.117 354.219C197.841 359.609 187.277 361.886 183.396 358.396C178.828 350.056 192.828 338.898 205.899 332.875C214.873 328.712 223.753 327.741 224.143 328.995Z" fill="#D80545"/>
<path fill-rule="evenodd" clip-rule="evenodd" d="M202.507 341.364C202.507 347.091 205.606 349.705 202.803 351.942C198.761 355.136 188.049 356.214 184.747 353.882C183.777 352.427 187.954 350.096 193.196 346.997C196.106 345.299 198.707 342.294 202.507 341.364Z" fill="#FA5165"/>
<path fill-rule="evenodd" clip-rule="evenodd" d="M157.49 299.013L176.988 296.884L185.531 298.15L175.25 302.611L161.667 306.68L157.49 299.013Z" fill="#F4F5EA"/>
<path fill-rule="evenodd" clip-rule="evenodd" d="M158.456 300.764C164.088 302.704 169.424 302.704 174.464 299.888C176.31 298.824 179.032 299.497 181.067 298.635L183.007 297.287L186.686 299.134L182.037 303.634L177.145 305.224L174.235 311.961L170.88 314.414L163.603 309.657L158.456 300.764Z" fill="#D80545"/>
<path fill-rule="evenodd" clip-rule="evenodd" d="M150.021 262.24L151.854 259.235H162.243L158.551 255.449L170.678 243.712L185.231 233.822L194.07 231.1L202.896 229.254L177.86 212.087L179.504 210.43L195.903 213.354L214.242 223.244L199.406 208.395L196.981 199.569L197.749 195.689L216.667 209.082L229.765 228.675L230.937 217.235L263.829 222.759L249.074 239.347L265.379 249.924L273.046 275.54L153.121 275.728L150.021 262.24Z" fill="#46CAD7"/>
<path fill-rule="evenodd" clip-rule="evenodd" d="M155.844 265.744C168.065 270.595 171.65 269.139 166.893 261.567C172.525 263.022 175.342 268.169 180.004 266.957C184.168 265.892 191.444 258.036 196.106 256.379L192.616 263.116L201.051 260.987L228.998 250.598L236.557 250.8C235.398 253.226 223.366 259.236 236.274 257.982L237.245 268.358L208.031 271.295L163.214 275.85L155.844 265.744Z" fill="#30B6CA"/>
<path fill-rule="evenodd" clip-rule="evenodd" d="M280.607 111.768L289.729 159.213L281.092 202.777L248.012 239.347L272.751 196.363L280.701 168.039L280.607 111.768Z" fill="#2EAAB7"/>
<path fill-rule="evenodd" clip-rule="evenodd" d="M276.634 110.218L279.154 103.319C281.641 115.846 282.878 128.588 282.846 141.358C283.331 162.029 283.035 183.13 276.109 199.758C275.529 201.105 273.198 201.51 272.525 202.776C265.846 216.057 256.156 227.593 244.228 236.463C243.069 237.245 242.193 237.635 241.034 238.403C280.812 190.932 283.816 166.004 276.634 110.218Z" fill="#054767"/>
<path fill-rule="evenodd" clip-rule="evenodd" d="M279.539 100.799L277.895 110.986L266.832 122.83L244.518 163.281L243.548 167.647L239.56 169.102L235.49 232.46L232.876 231.396L230.545 228.97L232.768 163.672L255.864 126.024L279.539 100.799Z" fill="#F5FCF3"/>
<path fill-rule="evenodd" clip-rule="evenodd" d="M276.627 110.219C288.269 155.817 282.017 197.723 248.33 234.402L235.718 231.006L238.817 169.494C243.183 167.459 245.325 165.613 241.512 164.252C242.765 160.857 245.285 158.337 246.646 155.238C255.189 135.632 264.203 119.813 276.627 110.219Z" fill="#47D7DA"/>
<path fill-rule="evenodd" clip-rule="evenodd" d="M275.171 118.168L275.845 123.989L276.236 132.424L251.496 162.608L253.733 155.035L263.718 132.909L275.171 118.168Z" fill="#920735"/>
<path fill-rule="evenodd" clip-rule="evenodd" d="M249.37 169.978C257.617 150.373 266.537 136.022 275.956 126.859L277.6 153.633L275.754 175.665L271.388 190.446L264.206 204.81L243.455 218.285L245.773 191.12L249.37 169.978Z" fill="#D80545"/>
<path fill-rule="evenodd" clip-rule="evenodd" d="M241.119 232.758L243.342 219.553C247.385 208.975 251.697 202.871 256.548 200.149L259.836 196.848C267.92 192.482 262.746 202.238 264.201 204.811L254.985 218.744L246.253 229.322L241.119 232.758Z" fill="#D80545"/>
<path fill-rule="evenodd" clip-rule="evenodd" d="M253.834 205.27L258.199 185.57C255.312 190.772 251.966 195.705 248.201 200.311C248.794 196.43 250.532 193.237 251.314 189.639C257.041 163.161 265.772 144.432 270.623 145.59C271.391 171.044 273.722 184.532 253.834 205.27Z" fill="#FD4956"/>
<path fill-rule="evenodd" clip-rule="evenodd" d="M262.272 172.929C263.242 173.225 260.331 183.897 258.876 183.601C257.421 183.304 261.409 172.929 262.272 172.929Z" fill="#F4CCB1"/>
<path fill-rule="evenodd" clip-rule="evenodd" d="M243.253 230.616C246.813 221.321 251.131 212.335 256.162 203.747C254.989 208.207 253.736 212.762 252.564 217.222C251.985 219.54 254.504 218.677 256.835 216.252L246.258 229.349L243.253 230.616Z" fill="#05091E"/>
<path d="M235.408 242.5L238.534 235.681C241.782 228.607 242.065 220.536 242.334 212.774C242.455 209.311 242.59 205.727 242.981 202.358C248.034 159.455 257.372 133.974 274.161 117.212L275.954 115.446L276.439 117.899C277.019 121.39 277.294 124.924 277.261 128.463C277.261 130.983 277.342 133.354 277.571 135.349C278.729 147.233 279.646 158.741 278.258 169.251C274.754 193.761 263.18 214.701 240.717 237.164L235.408 242.5ZM274.242 121.065C259.043 137.397 250.446 162.042 245.662 202.641C245.272 205.889 245.164 209.257 245.029 212.828C245.039 218.896 244.379 224.947 243.062 230.871C262.304 210.484 272.396 191.161 275.59 168.887C276.937 158.673 276.034 147.328 274.903 135.632C274.671 133.267 274.559 130.893 274.566 128.517C274.525 126.024 274.485 123.437 274.242 121.065Z" fill="#05091E"/>
<path d="M171.179 315.762C167.891 315.762 160.736 307.973 158.432 304.982C155.427 301.155 155.387 299.713 155.737 298.81L155.899 298.514C156.653 297.477 158.23 297.45 161.087 297.382C163.903 297.43 166.716 297.15 169.468 296.547C174.022 295.361 182.943 294.97 186.379 297.059C186.794 297.278 187.16 297.581 187.454 297.947C187.748 298.313 187.965 298.735 188.09 299.188V299.498C188.09 300.212 188.09 300.212 184.667 303.001L182.538 304.807C181.863 305.372 181.126 305.86 180.342 306.262C179.848 306.483 179.393 306.784 178.995 307.151C178.103 308.219 177.322 309.375 176.663 310.601C175.316 312.945 173.901 315.357 171.435 315.681L171.179 315.762ZM158.446 300.252C159.793 303.432 168.902 312.838 171.152 313.067C172.244 312.905 173.268 311.153 174.346 309.307C175.103 307.892 176.006 306.56 177.041 305.332C177.61 304.781 178.266 304.326 178.981 303.985C179.615 303.661 180.212 303.268 180.76 302.812L182.983 300.993L184.91 299.417C182.336 297.948 174.548 298.069 170.088 299.242C167.128 299.891 164.103 300.198 161.073 300.158C160.224 300.104 159.133 300.118 158.446 300.198V300.252Z" fill="#05091E"/>
<path fill-rule="evenodd" clip-rule="evenodd" d="M158.456 256.621L168.347 245.369L180.582 236.435L198.099 229.456L209.741 231.585C202.074 233.336 194.919 240.801 187.036 249.102C184.031 252.214 179.571 254.734 176.458 258.224C178.095 251.635 181.251 245.521 185.675 240.37C177.428 245.127 172.672 250.557 164.115 259.396L158.456 256.621Z" fill="#F5FCF3"/>
<path fill-rule="evenodd" clip-rule="evenodd" d="M195.039 250.504C194.932 249.157 187.561 249.83 187.857 251.852C187.925 252.431 194.932 250.989 195.039 250.504Z" fill="#F5FCF3"/>
<path fill-rule="evenodd" clip-rule="evenodd" d="M224.633 233.916C225.307 232.272 215.605 237.015 215.901 237.702C215.996 238.093 224.916 234.307 224.633 233.916Z" fill="#F5FCF3"/>
<path fill-rule="evenodd" clip-rule="evenodd" d="M233.553 250.598C223.07 251.945 213.853 257.012 204.744 261.081C200.176 263.21 192.415 265.447 191.93 264.868C191.256 263.412 192.9 260.825 195.81 259.626C198.721 258.427 202.898 258.845 206.199 257.686C208.25 256.816 210.256 255.845 212.209 254.775C222.005 250.315 230.157 248.954 233.553 250.598Z" fill="#F5FCF3"/>
<path fill-rule="evenodd" clip-rule="evenodd" d="M149.148 260.016L163.701 260.299C166.706 261.647 169.226 265.689 167.285 266.713C166.221 267.198 165.345 264.571 162.529 263.601C160.4 262.833 156.128 263.695 155.36 264.086C154.013 264.665 157.974 270.823 156.519 271.564L151.857 271.173L149.148 260.016Z" fill="#F5FCF3"/>
<path d="M213.784 296.614L212.221 296.466C207.775 296.089 203.651 293.488 199.286 290.74C195.094 287.84 190.499 285.57 185.649 284.002C179.612 282.331 167.66 284.002 166.03 285.161C160.249 289.203 156.827 291.036 154.078 289.783C151.086 288.435 150.655 284.326 149.874 276.888C149.469 273.088 148.971 268.345 148.028 262.699C147.874 261.984 147.896 261.242 148.093 260.537C148.291 259.833 148.657 259.187 149.16 258.656C150.723 257.053 153.35 256.689 156.328 256.824C156.245 256.374 156.277 255.91 156.422 255.476C157.959 250.154 182.146 228.648 197.655 227.934C195.971 226.842 194.03 225.616 192.265 224.511C176.661 214.648 174.223 212.654 174.856 210.228C175.01 209.689 175.341 209.218 175.796 208.89C176.25 208.563 176.802 208.398 177.362 208.422C186.073 208.051 194.728 209.969 202.466 213.988C198.234 208.355 194.125 201.51 193.128 195.123L192.629 192.01L195.674 192.873C211.44 197.373 218.837 208.517 225.319 218.353C226.437 220.051 227.542 221.709 228.647 223.272L230.709 163.107L230.951 162.676C243.388 140.86 257.712 118.074 278.113 99.3446L280.659 97L281.454 100.369C287.06 124.138 290.334 143.38 291.789 160.911V161.274C290.24 175.976 286.979 190.447 282.074 204.394L281.953 204.771L281.683 205.067C279.137 207.978 276.698 210.834 274.259 213.691C267.67 221.399 260.878 229.335 252.106 238.094C260.272 240.411 264.517 246.771 268.438 253.684L268.532 253.859C273.841 265.784 276.186 277.17 275.485 287.708L275.337 290.066L265.352 287.789C256.594 285.255 216.021 290.106 214.256 295.132L213.784 296.614ZM178.75 279.246C181.43 279.186 184.106 279.471 186.714 280.094C191.936 281.771 196.884 284.205 201.401 287.317C205.066 289.621 208.273 291.642 211.386 292.276C214.283 288.961 222.799 286.374 236.772 284.568C247.552 283.221 261.539 282.48 266.417 283.881L271.604 285.067C271.793 275.877 269.543 265.986 264.934 255.584C260.676 248.119 256.701 242.325 247.795 241.355L243.523 240.897L246.595 237.905C256.593 228.19 263.708 219.862 271.241 211.063C273.612 208.369 275.97 205.525 278.436 202.709C283.175 189.231 286.34 175.25 287.868 161.045C286.521 144.606 283.489 126.617 278.436 104.681C259.922 122.481 246.541 143.757 234.845 164.239L232.393 234.227L229.011 230.278C226.483 227.195 224.148 223.96 222.017 220.59C216.102 211.683 210.011 202.507 197.965 197.885C201.185 207.668 211.116 218.246 214.62 221.978C216.142 223.608 217.247 224.781 215.967 226.209C214.687 227.637 213.272 226.559 211.925 225.508L208.664 222.813C200.851 216.577 191.269 212.965 181.283 212.492C184.652 214.985 190.5 218.663 194.435 221.156C205.214 227.961 206.09 228.513 205.511 230.494C205.377 230.95 205.095 231.348 204.709 231.626C204.324 231.904 203.857 232.047 203.382 232.03H198.45C185.393 232.03 164.561 250.383 160.829 255.746L163.753 257.47C164.255 257.686 164.658 258.083 164.881 258.583C165.103 259.082 165.129 259.648 164.952 260.165C164.359 261.877 162.809 261.661 160.667 261.351C155.722 260.65 152.825 260.691 152.057 261.486C151.976 261.58 151.962 261.769 152.057 262.079C153.04 267.873 153.539 272.67 153.943 276.537C154.374 280.58 154.913 285.767 155.803 286.172C156.153 286.32 157.608 286.172 163.753 281.914C165.814 280.337 172.592 279.246 178.777 279.246H178.75Z" fill="#05091E"/>
<path fill-rule="evenodd" clip-rule="evenodd" d="M154.964 265.259C157.295 264.868 158.548 268.938 162.429 270.487C164.854 271.458 170.002 270.689 171.861 269.719C173.114 269.14 168.951 263.211 170.109 263.507C173.114 264.087 175.499 270.784 177.103 270.689C179.6 270.4 182.046 269.779 184.379 268.843C185.242 268.547 186.414 265.151 187.869 263.454C190.389 260.341 193.394 258.306 194.606 258.064C195.577 257.862 190.039 263.198 188.691 266.795C188.098 268.251 190.631 268.924 191.009 268.83C195.186 268.048 199.255 266.216 203.338 265.138C207 263.997 210.542 262.503 213.916 260.678C217.109 259.128 220.02 256.999 223.227 255.827C226.356 254.58 229.662 253.83 233.023 253.604C227.983 255.921 222.647 257.282 220.411 262.618L220.505 265.919L158.279 274.759L154.964 265.259Z" fill="#05091E"/>
<path fill-rule="evenodd" clip-rule="evenodd" d="M240.339 246.623C242.987 245.914 245.775 245.914 248.424 246.623L244.381 243.713C253.302 245.855 261.252 250.8 265.429 265.744L257.182 262.241C255.471 253.617 250.041 248.173 240.339 246.623Z" fill="#052747"/>
<path fill-rule="evenodd" clip-rule="evenodd" d="M122.172 277.183L173.888 269.813L177.566 270.594L245.493 257.2L244.9 277.776L245.196 286.4L240.642 286.885L234.915 285.336L234.335 291.844L231.519 292.127L232.772 300.09L202.414 305.13L201.727 302.799L231.802 297.854L231.425 296.398L200.271 302.125L198.627 299.888L196.108 300.185L196.013 293.973L194.356 293.488L194.45 294.943L191.742 295.913L191.931 292.706L184.56 292.518L182.916 284.945L177.283 285.726L176.596 292.315L167.487 294.269L167.191 290.672H173.982L174.952 289.405L170.587 288.933L170.304 287.37L165.345 290.375L164.28 298.042L158.661 298.824L157.974 305.804L136.334 308.916L136.536 306.397L156.815 303.863L156.91 302.799L135.957 305.13V303.486L133.908 303.284L133.423 299.403L127.508 299.7L127.319 292.612L122.172 292.814V277.183Z" fill="#05091E"/>
<path fill-rule="evenodd" clip-rule="evenodd" d="M125.959 280.001L173.983 272.333L173.889 280.001L184.372 279.421L183.779 271.471L243.162 260.503L243.351 271.848L240.346 272.819L240.831 271.66L241.505 271.471L241.612 262.349L185.342 272.63L186.501 283.396L188.832 284.178L189.021 287.856L190.867 288.544L190.382 289.406L186.204 290.093V289.406L187.565 288.827L187.768 285.525L185.827 285.431L185.046 280.688L174.185 281.456L174.279 286.495L169.711 285.633L169.617 285.337L173.013 285.431L172.339 274.368L127.414 281.456L127.118 290.282L125.959 290.187V280.001Z" fill="#F5FCF3"/>
<path fill-rule="evenodd" clip-rule="evenodd" d="M132.168 284.178L140.697 282.52L141.088 287.668L144.874 286.792L145.063 281.847L150.21 280.782L150.022 286.401L145.656 287.183L145.939 293.192L150.695 292.317L150.21 286.307L155.843 285.054L156.22 291.158L160.882 291.454L161.179 297.37H156.031L155.937 292.222L151.854 293.004L151.571 298.636L146.909 299.216L145.359 293.583L141.573 294.068L140.994 299.014L135.954 300.092V293.974L140.118 293.287V288.436L135.954 288.247L135.846 289.999H132.841L132.747 295.524L131.683 295.914L132.168 284.178Z" fill="#F5FCF3"/>
<path fill-rule="evenodd" clip-rule="evenodd" d="M190.474 275.635L195.136 274.867L195.621 282.426L200.472 281.658L200.566 274.368L205.902 273.506L205.997 280.876L211.05 280L211.427 272.63L216.48 271.848L217.154 279.421L211.723 280.391L211.629 287.182L217.45 286.495L217.248 280.297L222.975 279.03L223.365 285.633L229.375 284.851V291.737L223.46 292.424L223.365 285.633L217.639 286.495L217.935 293.489L212.303 294.459L211.629 287.088L206.684 288.247L205.997 280.876L200.378 281.658L201.051 289.029L206.576 288.934L206.482 294.647L201.348 295.914L201.051 289.029L195.715 289.406L195.621 282.426L190.474 282.628V275.635Z" fill="#F5FCF3"/>
<path fill-rule="evenodd" clip-rule="evenodd" d="M245.005 274.569L246.649 259.235L287.787 278.935L287.006 290.187L245.005 274.569Z" fill="#0E4F70"/>
<path fill-rule="evenodd" clip-rule="evenodd" d="M246.462 271.956L283.612 286.023L283.72 288.341L245.681 273.788L246.462 271.956Z" fill="#4CB6CA"/>
<path fill-rule="evenodd" clip-rule="evenodd" d="M250.433 265.743L253.047 266.619L253.343 271.268L251.214 270.5L250.433 265.743Z" fill="#FAFCFC"/>
<path fill-rule="evenodd" clip-rule="evenodd" d="M246.069 260.111L250.529 261.863L249.168 269.813L245.772 271.269L246.069 260.111Z" fill="#72EFE8"/>
<path fill-rule="evenodd" clip-rule="evenodd" d="M250.342 263.117L285.066 279.125L284.877 287.573L284.096 286.603L283.611 280.58L250.436 264.181L250.342 263.117Z" fill="#D8FCF9"/>
<path d="M288.231 292.073L243.549 275.459L245.516 257.2L289.188 278.113L288.231 292.073ZM246.459 273.666L285.806 288.3L286.398 279.757L247.793 261.283L246.459 273.666Z" fill="#05091E"/>
<path fill-rule="evenodd" clip-rule="evenodd" d="M170.288 327.89C171.555 327.014 174.465 325.37 174.951 326.34C175.826 328.375 176.985 334.869 178.643 339.047C179.033 340.111 171.258 342.537 170.679 342.442C169.709 342.254 169.615 340.596 169.035 339.141C167.883 336.417 166.88 333.633 166.03 330.8L170.288 327.89Z" fill="#B7BCC4"/>
<path fill-rule="evenodd" clip-rule="evenodd" d="M171.257 330.584C172.523 329.613 173.952 329.128 174.369 330.206C175.434 332.901 175.434 334.087 176.795 338.453C177.091 339.517 171.257 342.495 170.677 342.428C169.707 342.239 169.613 340.582 169.033 339.127C168.338 337.73 167.783 336.267 167.376 334.761L171.257 330.584Z" fill="#FBFBEB"/>
<path fill-rule="evenodd" clip-rule="evenodd" d="M193.774 327.74C194.071 329.573 193.383 332.483 193.289 336.661C193.195 337.819 184.072 339.356 183.399 339.275C182.428 339.086 181.458 339.382 180.865 337.927C178.925 333.171 176.985 327.74 177.766 326.285C178.063 325.894 179.316 326.177 180.582 326.379C186.889 327.444 193.68 327.147 193.774 327.74Z" fill="#B7BCC4"/>
<path fill-rule="evenodd" clip-rule="evenodd" d="M190.085 330.261C190.381 331.999 190.193 330.84 189.991 335.112C189.896 336.27 183.253 338.79 182.62 338.696C181.556 338.507 181.461 339.383 180.868 337.928C178.928 333.171 177.473 330.84 178.349 329.479C178.551 328.994 180.491 328.711 181.65 328.9C187.929 329.964 189.991 329.574 190.085 330.261Z" fill="#FBFBEB"/>
<path fill-rule="evenodd" clip-rule="evenodd" d="M214.878 334.91C215.74 336.176 211.967 345.393 205.364 349.961C201.672 352.386 194.207 352.279 193.048 351.605C192.078 350.729 194.504 349.179 195.366 347.724C196.229 346.269 194.207 346.377 195.663 344.908C201.403 339.666 213.53 332.969 214.878 334.91Z" fill="#E5273A"/>
<path fill-rule="evenodd" clip-rule="evenodd" d="M260.688 336.365L273.987 330.261L275.928 332.592L262.143 343.264L243.278 348.883C245.421 348.209 248.035 346.943 251.04 345.69C254.045 344.437 256.672 342.092 259.488 340.933C262.305 339.774 264.622 337.632 265.983 336.891C268.287 335.88 263.719 336.567 260.688 336.365Z" fill="#05091E"/>
<path fill-rule="evenodd" clip-rule="evenodd" d="M208.931 112.163C213.732 71.8154 260.364 80.2524 295.941 79.5254C324.698 78.9384 340.057 75.8804 338.061 44.9044C337.358 33.9884 347.177 -4.54057 289.167 0.596431C231.159 5.73343 169.998 -0.984569 133.061 0.126431C96.123 1.23843 82.761 8.94443 82.057 42.3354C81.353 75.7274 86.417 81.8994 140.49 78.9384C210.864 75.0854 208.931 112.163 208.931 112.163Z" fill="white"/>
<path d="M115.086 39.75V39.7C115.086 28.05 124.036 20.3 134.436 20.3C145.486 20.3 153.836 28.85 153.836 39.5C153.836 50.15 145.486 58.7 134.386 58.7C123.236 58.7 115.086 49.95 115.086 39.75ZM120.936 39.45V39.5C120.936 47.2 126.636 53.5 134.536 53.5C142.586 53.5 147.936 46.75 147.936 39.55C147.936 32.3 142.586 25.5 134.486 25.5C126.436 25.5 120.936 32 120.936 39.45ZM157.565 44.4V44.35C157.565 37.1 162.915 30 172.065 30C181.215 30 186.565 37.1 186.565 44.4C186.565 51.7 181.215 58.75 172.065 58.75C162.915 58.75 157.565 51.7 157.565 44.4ZM162.765 44.4V44.45C162.765 49.85 166.865 53.9 172.065 53.9C177.265 53.9 181.365 49.85 181.365 44.4C181.365 38.95 177.265 34.9 172.065 34.9C166.865 34.9 162.765 38.95 162.765 44.4ZM190.379 39.75V39.7C190.379 28.05 199.329 20.3 209.729 20.3C220.779 20.3 229.129 28.85 229.129 39.5C229.129 50.15 220.779 58.7 209.679 58.7C198.529 58.7 190.379 49.95 190.379 39.75ZM196.229 39.45V39.5C196.229 47.2 201.929 53.5 209.829 53.5C217.879 53.5 223.229 46.75 223.229 39.55C223.229 32.3 217.879 25.5 209.779 25.5C201.729 25.5 196.229 32 196.229 39.45ZM234.408 67.9V30.8H239.358V35.55C241.408 32.3 244.908 30 249.758 30C259.108 30 263.508 37.8 263.508 44.55C263.508 52.25 257.958 58.8 249.808 58.8C244.158 58.8 240.808 55.7 239.608 53.5V58V67.9H234.408ZM258.258 44.4V44.35C258.258 39.9 255.108 34.85 248.758 34.85C246.058 34.85 243.708 35.9 242.008 37.65C240.358 39.35 239.358 41.75 239.358 44.45C239.358 47.15 240.358 49.5 242.058 51.2C243.758 52.9 246.158 53.95 248.808 53.95C254.308 53.95 258.258 49.7 258.258 44.4ZM267.132 47.05H272.982C273.382 52.6 277.282 53.7 279.232 53.7C282.532 53.7 285.382 51.1 285.382 47.8C285.382 43.7 281.882 42.75 277.132 41C274.232 40.05 267.782 37.9 267.782 30.95C267.732 24.05 273.632 20.3 279.432 20.3C284.182 20.3 290.132 22.9 290.582 30.5H284.782C284.382 28.5 283.482 25.3 279.232 25.3C276.232 25.3 273.632 27.35 273.632 30.5C273.632 34.1 276.382 35 282.332 37.2C286.932 39.15 291.232 41.5 291.232 47.5C291.232 53.5 287.182 58.7 279.282 58.7C271.932 58.7 267.232 54.2 267.132 47.05ZM303.024 21V47.55H297.624V21H303.024ZM303.024 51.5V58H297.624V51.5H303.024Z" fill="#313421"/>
</svg>
