<svg width="510" height="869" viewBox="0 0 510 869" fill="none" xmlns="http://www.w3.org/2000/svg">
<g style="mix-blend-mode:luminosity" opacity="0.05">
<path fill-rule="evenodd" clip-rule="evenodd" d="M0.873444 165.181C136.669 309.063 328.266 304.652 369.365 511.758C396.496 286.448 161.629 214.507 0.873444 165.181Z" fill="white"/>
<path fill-rule="evenodd" clip-rule="evenodd" d="M0.135742 164.708C-0.0799255 165.055 -0.03479 165.504 0.245667 165.801C51.6404 220.257 111.06 253.539 167.181 284.974C185.322 295.135 203.119 305.103 220.188 315.531C290.091 358.236 348.029 408.73 368.509 511.936C368.595 512.37 368.984 512.677 369.426 512.66C369.869 512.643 370.233 512.307 370.286 511.868C377.089 455.371 367.47 408.443 346.663 369.071C325.863 329.709 293.908 297.952 256.117 271.738C180.663 219.399 81.7788 189.058 1.48843 164.422L1.16446 164.323C0.773804 164.203 0.35141 164.361 0.135742 164.708ZM369.125 506.024C347.55 405.856 289.983 356.06 221.127 313.995C203.949 303.5 186.082 293.492 167.898 283.306C112.689 252.38 54.5585 219.818 3.92163 167.052C83.7214 191.542 180.829 221.706 255.091 273.218C292.719 299.318 324.442 330.875 345.072 369.912C365.003 407.628 374.605 452.375 369.125 506.024Z" fill="#1D1D1B"/>
<path fill-rule="evenodd" clip-rule="evenodd" d="M367.615 532.952L369.821 511.667L368.925 511.574L366.72 532.859L367.615 532.952Z" fill="#1D1D1B"/>
<path fill-rule="evenodd" clip-rule="evenodd" d="M423.494 568.894C659.132 322.999 258.958 49.9388 199.445 4.42871C252.306 241.536 466.624 286.311 399.829 536.547C393.248 530.701 384.426 531.436 374.869 524.819C365.18 515.894 352.781 510.471 339.651 509.416C347.738 515.997 347.002 518.203 355.054 524.819C342.977 514.562 308.389 510.081 290.045 512.356C306.218 513.827 337.025 518.238 342.171 529.86C334.085 521.773 305.483 520.303 295.926 524.714C302.543 523.979 326.768 525.449 330.409 532.031C328.938 540.853 317.946 553.351 298.902 578.276C294.456 583.597 295.191 586.503 286.964 583.597C282.588 584.332 275.972 623.226 266.415 648.187C256.892 677.558 252.411 692.226 236.343 717.187C282.588 781.776 362.581 748.029 452.866 686.38C441.243 628.337 442.714 598.231 423.494 568.894Z" fill="#C6C6C6"/>
<path fill-rule="evenodd" clip-rule="evenodd" d="M196.636 0L197.712 4.82482C219.632 103.145 269.257 168.606 314.998 228.942C324.626 241.642 334.082 254.115 343.071 266.62C368.946 302.615 390.976 338.87 402.417 381.648C413.69 423.797 414.716 472.408 398.803 533.477C395.744 531.445 392.385 530.351 389.047 529.264L388.932 529.227C384.766 527.871 380.478 526.476 376.019 523.413C366.048 514.267 353.309 508.71 339.82 507.625L334.048 507.161L338.539 510.817C341.909 513.559 343.677 515.495 345.251 517.358C344.516 517.073 343.764 516.797 343 516.529C337.653 514.661 331.522 513.189 325.226 512.117C312.656 509.979 299.24 509.409 289.848 510.574L273.218 512.637L289.906 514.154C297.955 514.886 309.584 516.345 319.808 519.046C323.395 519.994 326.772 521.086 329.743 522.335C326.581 521.617 323.184 521.112 319.783 520.811C315.012 520.39 310.183 520.365 305.917 520.731C301.691 521.093 297.867 521.851 295.196 523.084L285.122 527.733L296.15 526.508C299.252 526.163 306.797 526.329 314.041 527.414C317.652 527.954 321.096 528.71 323.824 529.704C326.23 530.581 327.764 531.534 328.523 532.428C327.665 536.261 324.841 541.112 319.811 548.064C316.568 552.547 312.515 557.767 307.664 564.014C304.6 567.961 301.217 572.317 297.519 577.157C296.534 578.339 295.784 579.417 295.178 580.288C295.07 580.442 294.968 580.59 294.869 580.731C294.166 581.731 293.738 582.26 293.31 582.575C292.732 582.999 291.72 583.363 287.588 581.904L287.149 581.749L286.69 581.826C285.814 581.973 285.186 582.534 284.789 582.985C284.364 583.469 283.987 584.078 283.646 584.73C282.96 586.042 282.269 587.827 281.568 589.923C280.161 594.129 278.61 599.899 276.915 606.355C276.642 607.395 276.365 608.454 276.084 609.528C272.86 621.852 269.113 636.173 264.758 647.547L264.741 647.591L264.726 647.636C264.419 648.585 264.116 649.519 263.818 650.438C254.909 677.947 250.269 692.27 234.854 716.217L234.192 717.245L234.904 718.239C246.663 734.664 260.639 744.922 276.462 750.01C292.259 755.089 309.752 754.967 328.497 750.886C365.926 742.738 408.741 718.711 453.906 687.871L454.89 687.199L454.656 686.031C451.758 671.557 449.675 658.821 447.879 647.387C447.551 645.294 447.232 643.243 446.919 641.232C445.524 632.271 444.253 624.105 442.823 616.542C439.409 598.484 435.06 583.676 425.802 569.115C484.273 507.619 503.412 444.313 498.084 383.207C492.733 321.852 462.734 262.927 423.619 210.446C353.79 116.755 254.502 43.0925 212.902 12.23C207.907 8.52395 203.744 5.43507 200.563 3.00279L196.636 0ZM355.824 523.103C355.967 523.218 356.107 523.334 356.244 523.451L353.936 526.215C353.801 526.104 353.669 525.995 353.539 525.887C350.766 523.652 346.721 521.644 341.811 519.929C336.702 518.143 330.775 516.714 324.622 515.667C321.9 515.204 319.143 514.817 316.402 514.508C317.86 514.837 319.307 515.189 320.728 515.565C325.979 516.953 330.967 518.682 335.005 520.846C339.002 522.988 342.315 525.686 343.842 529.136L347.753 537.968L340.923 531.138C339.212 529.427 336.245 527.927 332.379 526.751C328.559 525.59 324.054 524.804 319.466 524.398C318.549 524.317 317.63 524.252 316.715 524.201C319.702 524.729 322.596 525.424 325.056 526.32C327.988 527.389 330.756 528.9 332.009 531.164L332.313 531.713L332.209 532.331C331.395 537.215 328.018 542.864 322.729 550.174C319.454 554.7 315.336 560.005 310.447 566.302C307.381 570.251 304.011 574.591 300.357 579.374L300.333 579.405L300.308 579.435C299.42 580.498 298.759 581.448 298.148 582.325C298.036 582.486 297.925 582.644 297.816 582.8C297.149 583.75 296.413 584.764 295.441 585.477C293.388 586.985 290.898 586.79 287.303 585.611C287.172 585.799 287.016 586.056 286.837 586.399C286.286 587.452 285.667 589.021 284.983 591.065C283.621 595.138 282.1 600.789 280.398 607.269C280.123 608.316 279.844 609.385 279.56 610.471C276.352 622.735 272.561 637.227 268.137 648.791C267.828 649.746 267.523 650.686 267.223 651.612C258.442 678.726 253.689 693.401 238.546 717.129C249.753 732.418 262.873 741.858 277.564 746.582C292.593 751.414 309.411 751.356 327.731 747.368C364.164 739.436 406.14 716.05 450.892 685.568C448.1 671.503 446.072 659.089 444.322 647.945C443.991 645.839 443.671 643.779 443.357 641.762C441.962 632.805 440.702 624.711 439.284 617.211C435.817 598.868 431.437 584.27 422.013 569.885L421.228 568.687L422.219 567.653C480.798 506.523 499.757 443.853 494.496 383.52C489.227 323.097 459.645 264.807 420.732 212.598C351.254 119.378 252.436 46.0512 210.782 15.1421C207.622 12.7973 204.791 10.6966 202.327 8.84984C224.583 103.669 272.8 167.29 317.754 226.606C327.415 239.353 336.925 251.902 345.995 264.518C371.958 300.635 394.287 337.312 405.896 380.718C417.513 424.153 418.362 474.194 401.593 537.016L400.841 539.836L398.658 537.897C395.689 535.26 392.199 534.077 387.932 532.688L387.706 532.615C383.548 531.262 378.8 529.718 373.868 526.304L373.765 526.233L373.673 526.148C365.689 518.792 355.805 513.891 345.201 511.958C346.665 513.429 347.728 514.701 348.774 515.956L348.815 516.006C350.541 518.078 352.23 520.106 355.824 523.103Z" fill="#1D1D1B"/>
<path fill-rule="evenodd" clip-rule="evenodd" d="M397.235 660.613C389.183 704.653 395.765 684.839 395.765 694.361C382.567 697.862 374.48 699.507 360.547 703.918C349.554 695.831 344.408 692.155 345.143 678.222C364.958 649.586 375.215 625.361 397.235 660.718V660.613Z" fill="white"/>
<path fill-rule="evenodd" clip-rule="evenodd" d="M351.198 668.44C349.153 671.512 347.018 674.719 344.77 677.968C344.723 678.036 344.695 678.117 344.691 678.2C344.32 685.229 345.431 689.742 348.075 693.522C350.649 697.2 354.654 700.146 359.98 704.064L360.277 704.282C360.393 704.367 360.543 704.392 360.68 704.349C370.351 701.287 377.193 699.562 384.901 697.618C388.288 696.764 391.842 695.868 395.877 694.798C396.074 694.745 396.212 694.567 396.212 694.362C396.212 693.159 396.109 692.363 395.918 691.832C395.82 691.561 395.694 691.343 395.532 691.175C395.368 691.003 395.185 690.902 395.006 690.84C394.838 690.782 394.671 690.758 394.548 690.741L394.544 690.741C394.407 690.721 394.32 690.709 394.241 690.683C394.173 690.662 394.123 690.633 394.077 690.587C394.028 690.539 393.963 690.45 393.9 690.278C393.769 689.921 393.671 689.282 393.679 688.139C393.686 687.005 393.796 685.415 394.053 683.18C394.563 678.742 395.647 671.801 397.633 660.924C397.665 660.863 397.682 660.793 397.682 660.72V660.615C397.682 660.447 397.59 660.299 397.452 660.222C392.005 651.525 387.232 646.4 382.796 644.111C380.544 642.95 378.375 642.516 376.254 642.722C374.138 642.927 372.102 643.766 370.109 645.1C366.137 647.758 362.269 652.428 358.176 658.175C355.952 661.297 353.639 664.772 351.198 668.44ZM396.743 660.787C391.293 652.069 386.611 647.093 382.383 644.911C380.267 643.819 378.269 643.431 376.341 643.618C374.409 643.805 372.513 644.574 370.61 645.848C366.787 648.406 363 652.953 358.909 658.697C356.683 661.822 354.391 665.267 351.963 668.915C349.943 671.95 347.83 675.126 345.583 678.375C345.239 685.205 346.336 689.466 348.813 693.006C351.3 696.561 355.199 699.429 360.617 703.414L360.626 703.421C370.209 700.394 377.042 698.671 384.705 696.739C387.992 695.91 391.433 695.042 395.308 694.017C395.29 693.052 395.194 692.479 395.071 692.138C395.005 691.953 394.936 691.854 394.882 691.798C394.832 691.745 394.778 691.714 394.712 691.691C394.636 691.665 394.55 691.651 394.418 691.632L394.397 691.629C394.28 691.613 394.122 691.591 393.967 691.541C393.791 691.484 393.608 691.391 393.441 691.226C393.278 691.063 393.152 690.851 393.055 690.588C392.866 690.074 392.771 689.302 392.778 688.133C392.786 686.953 392.9 685.326 393.158 683.077C393.671 678.612 394.759 671.654 396.743 660.787Z" fill="#1D1D1B"/>
<path fill-rule="evenodd" clip-rule="evenodd" d="M293.032 695.133C286.415 731.821 290.091 724.505 290.091 731.821C279.099 734.762 272.587 736.232 260.755 739.908C251.933 733.292 253.403 719.358 254.138 707.631C269.542 695.133 273.953 676.789 293.032 695.133Z" fill="white"/>
<path fill-rule="evenodd" clip-rule="evenodd" d="M263.323 697.225C260.442 700.42 257.321 703.86 253.532 706.934C253.337 707.093 253.216 707.326 253.201 707.577C253.159 708.24 253.115 708.912 253.071 709.59C252.724 714.875 252.349 720.583 252.929 725.788C253.584 731.674 255.477 737.107 260.175 740.631C260.407 740.804 260.707 740.856 260.983 740.77C269.59 738.097 275.363 736.596 282.126 734.837C284.643 734.183 287.297 733.493 290.285 732.693C290.679 732.588 290.952 732.231 290.952 731.824C290.952 729.892 290.705 728.896 290.452 727.935C290.445 727.91 290.439 727.886 290.433 727.862C290.205 727 289.983 726.158 289.941 724.471C289.852 720.907 290.568 713.654 293.879 695.295C293.932 694.999 293.834 694.695 293.617 694.487C288.8 689.855 284.795 687.423 281.209 686.709C277.562 685.983 274.491 687.059 271.645 689.085C268.901 691.04 266.293 693.933 263.507 697.022C263.446 697.09 263.384 697.158 263.323 697.225ZM292.021 695.453C287.464 691.139 283.869 689.075 280.857 688.475C277.829 687.872 275.257 688.724 272.69 690.552C270.108 692.391 267.613 695.157 264.751 698.33L264.66 698.431C261.861 701.534 258.747 704.972 254.973 708.082C254.939 708.622 254.903 709.164 254.867 709.71C254.52 715.017 254.157 720.554 254.718 725.589C255.331 731.089 257.028 735.811 260.897 738.912C269.301 736.311 275.041 734.819 281.7 733.087C284.018 732.485 286.447 731.853 289.139 731.136C289.091 729.859 288.907 729.14 288.711 728.393L288.695 728.333C288.451 727.406 288.189 726.413 288.141 724.516C288.048 720.771 288.788 713.435 292.021 695.453Z" fill="#1D1D1B"/>
<path fill-rule="evenodd" clip-rule="evenodd" d="M364.894 701.814C358.278 701.079 353.132 692.292 355.337 677.589C356.808 662.921 361.954 662.921 368.535 663.586C381.033 662.116 378.828 672.373 377.357 680.46C376.622 689.282 375.887 706.89 364.894 701.744V701.814Z" fill="#1D1D1B"/>
<path fill-rule="evenodd" clip-rule="evenodd" d="M354.408 677.481C353.293 684.939 354.025 690.987 355.95 695.309C357.878 699.638 361.047 702.3 364.76 702.713C364.779 702.715 364.799 702.716 364.818 702.717C367.612 703.934 369.952 703.819 371.834 702.587C373.714 701.355 374.944 699.125 375.789 696.633C377.299 692.185 377.759 686.343 378.098 682.046C378.138 681.534 378.177 681.044 378.215 680.581C378.251 680.384 378.288 680.185 378.324 679.984C378.659 678.156 379.017 676.197 379.216 674.302C379.439 672.19 379.473 670.074 379.023 668.229C378.567 666.358 377.599 664.722 375.807 663.689C374.064 662.683 371.669 662.323 368.493 662.684C365.291 662.362 362.029 662.148 359.438 664.125C356.827 666.118 355.148 670.125 354.408 677.481ZM364.626 700.878C361.848 700.437 359.275 698.351 357.595 694.577C355.846 690.65 355.107 684.961 356.192 677.726L356.199 677.682L356.198 677.682C356.929 670.383 358.558 667.062 360.53 665.556C362.499 664.053 365.061 664.147 368.409 664.485C368.474 664.492 368.54 664.491 368.605 664.483C371.629 664.128 373.613 664.502 374.908 665.248C376.172 665.977 376.903 667.135 377.274 668.656C377.651 670.202 377.64 672.075 377.426 674.114C377.234 675.936 376.889 677.824 376.553 679.662C376.514 679.876 376.475 680.09 376.436 680.302C376.431 680.331 376.427 680.359 376.425 680.388C376.384 680.873 376.344 681.382 376.302 681.909C375.959 686.243 375.515 691.838 374.084 696.054C373.28 698.423 372.219 700.182 370.847 701.081C369.553 701.928 367.792 702.127 365.241 700.933C365.046 700.841 364.828 700.824 364.626 700.878Z" fill="#1D1D1B"/>
<path fill-rule="evenodd" clip-rule="evenodd" d="M268.684 728.177C263.538 727.442 260.597 721.56 261.332 714.174C262.068 707.592 269.419 690.683 274.53 691.419C290.704 682.632 282.617 703.181 281.147 709.763C280.412 717.114 278.206 732.518 268.684 728.142V728.177Z" fill="#1D1D1B"/>
<path fill-rule="evenodd" clip-rule="evenodd" d="M274.277 690.5C273.484 690.466 272.715 690.726 272.007 691.141C271.206 691.609 270.426 692.308 269.68 693.14C268.189 694.805 266.728 697.13 265.427 699.64C262.833 704.647 260.758 710.631 260.373 714.076L260.372 714.087L260.372 714.087C259.992 717.91 260.555 721.411 261.939 724.086C263.329 726.771 265.57 728.65 268.484 729.069C270.983 730.15 273.147 730.013 274.947 728.922C276.739 727.837 278.026 725.89 278.972 723.711C280.859 719.366 281.604 713.583 281.973 709.909C282.181 708.988 282.51 707.821 282.888 706.483C283.179 705.45 283.499 704.316 283.814 703.115C284.528 700.394 285.194 697.401 285.29 694.864C285.338 693.595 285.247 692.382 284.911 691.349C284.57 690.303 283.959 689.395 282.952 688.86C281.96 688.332 280.723 688.243 279.277 688.534C277.888 688.813 276.235 689.456 274.277 690.5ZM268.513 727.25C266.393 726.868 264.678 725.461 263.538 723.258C262.35 720.963 261.81 717.831 262.163 714.271C262.515 711.133 264.483 705.376 267.025 700.469C268.293 698.022 269.674 695.846 271.022 694.341C271.696 693.589 272.334 693.035 272.916 692.695C273.498 692.354 273.965 692.258 274.338 692.312C274.53 692.34 274.725 692.304 274.896 692.212C276.875 691.136 278.43 690.541 279.632 690.299C280.833 690.057 281.607 690.184 282.107 690.45C282.594 690.708 282.959 691.172 283.199 691.907C283.443 692.656 283.535 693.633 283.491 694.796C283.403 697.121 282.783 699.95 282.073 702.658C281.781 703.77 281.469 704.876 281.179 705.908C280.779 707.329 280.418 708.609 280.204 709.569C280.196 709.604 280.19 709.639 280.187 709.675C279.819 713.356 279.092 718.915 277.32 722.994C276.433 725.037 275.337 726.581 274.014 727.382C272.757 728.144 271.156 728.319 268.996 727.326C268.843 727.256 268.676 727.231 268.513 727.25Z" fill="#1D1D1B"/>
<path fill-rule="evenodd" clip-rule="evenodd" d="M336.01 866.674C368.812 866.674 430.531 853.056 465.924 815.457C474.548 806.602 481.338 796.13 485.904 784.644C490.469 773.157 492.721 760.882 492.53 748.523C492.985 750.028 493.475 752.023 494.035 754.929C494.089 755.234 494.226 755.52 494.429 755.754C494.632 755.988 494.896 756.163 495.19 756.259C495.375 756.296 495.566 756.296 495.751 756.259C496.163 756.265 496.563 756.115 496.871 755.839C499.952 753.249 498.936 745.897 497.536 740.226C496.249 735.098 494.418 730.122 492.075 725.382L497.431 730.809C497.773 731.132 498.221 731.319 498.691 731.334C498.934 731.382 499.184 731.382 499.426 731.334C499.75 731.175 500.019 730.924 500.2 730.613C500.38 730.301 500.465 729.943 500.442 729.583C499.952 723.912 491.235 713.13 482.938 705.708C484.723 706.793 486.439 707.984 487.979 709.209C488.289 709.422 488.653 709.544 489.029 709.559C489.502 709.558 489.955 709.369 490.289 709.034C490.561 708.717 490.71 708.313 490.71 707.896C490.71 707.479 490.561 707.075 490.289 706.758C483.008 697.026 463.823 687.609 453.391 684.808C444.736 682.179 435.726 680.904 426.68 681.028C390.272 681.028 344.517 698.531 306.919 726.853C296.416 718.486 271.911 714.74 252.096 714.74C237.043 714.74 224.615 716.735 217.964 720.201C212.245 723.555 207.431 728.255 203.941 733.892C200.451 739.529 198.391 745.934 197.939 752.548C197.945 752.935 198.074 753.309 198.307 753.618C198.54 753.926 198.865 754.152 199.235 754.264H199.69C200.001 754.268 200.308 754.189 200.579 754.035C200.85 753.882 201.075 753.658 201.23 753.389C198.43 760.39 196.399 767.847 197.204 771.418C197.28 771.777 197.472 772.102 197.75 772.343C198.028 772.583 198.378 772.725 198.745 772.748C199.099 772.746 199.445 772.638 199.738 772.438C200.031 772.239 200.258 771.957 200.39 771.628L200.845 770.507C200.495 776.984 201.615 784.511 204.136 786.891C204.292 787.059 204.482 787.193 204.693 787.283C204.904 787.374 205.132 787.419 205.361 787.416C205.627 787.408 205.888 787.348 206.131 787.241C206.457 787.079 206.726 786.821 206.901 786.502C207.076 786.183 207.15 785.818 207.111 785.456V784.686C228.116 826.135 281.888 858.692 322.637 865.939C327.063 866.596 331.539 866.842 336.01 866.674Z" fill="white"/>
<path d="M426.767 682.565C389.868 682.565 343.763 700.874 306.935 728.915C297.623 720.443 273.503 716.312 252.183 716.312C238.18 716.312 225.542 718.097 218.89 721.563C213.451 724.779 208.872 729.264 205.543 734.635C202.215 740.006 200.236 746.103 199.776 752.405C202.211 747.609 205.932 743.584 210.524 740.782C206.673 743.163 197.606 764.273 199.041 770.749C201.807 763.748 203.907 758.917 206.568 758.917H207.128C201.247 761.857 201.982 781.672 205.658 785.347C204.922 779.466 204.922 777.261 205.658 776.525C222.531 818.535 277.598 855.818 323.109 864.045C327.328 864.771 331.606 865.099 335.886 865.025C383.497 865.025 495.767 835.198 490.446 742.953H490.866C492.826 742.953 494.367 747.889 495.592 754.751C500.738 750.375 490.446 718.062 480.924 715.857C481.034 715.749 481.166 715.666 481.311 715.612C481.455 715.557 481.61 715.534 481.764 715.542C484.845 715.542 492.581 723.874 498.533 729.825C497.832 721.353 476.128 700.033 470.526 699.648H469.896H470.351H471.086C476.233 699.648 483.549 703.709 488.975 707.805C482.394 698.983 464.015 689.426 453.022 686.52C444.519 683.908 435.662 682.633 426.767 682.74M426.767 679.239C436.016 679.131 445.227 680.454 454.073 683.16C464.575 685.96 484.249 695.657 491.776 705.705C492.276 706.376 492.519 707.204 492.462 708.039C492.404 708.873 492.049 709.66 491.461 710.256C491.182 710.55 490.849 710.788 490.481 710.956C495.172 716.032 501.543 723.874 501.998 729.51C502.067 730.228 501.912 730.95 501.555 731.576C501.198 732.203 500.656 732.704 500.003 733.011C499.542 733.226 499.041 733.345 498.533 733.361C497.958 733.358 497.393 733.214 496.887 732.941C497.732 735.235 498.456 737.572 499.058 739.942C501.263 748.904 500.878 754.751 497.867 757.446C497.233 757.988 496.426 758.286 495.592 758.286C495.209 758.35 494.819 758.35 494.437 758.286L493.807 757.971C492.071 780.179 482.607 801.076 467.061 817.029C431.178 855.013 369.039 868.806 335.886 868.806C331.384 868.862 326.886 868.522 322.443 867.791C282.395 860.789 229.778 829.282 207.443 788.813H207.198C206.718 789.046 206.191 789.165 205.658 789.163C205.197 789.166 204.74 789.078 204.314 788.903C203.887 788.729 203.499 788.472 203.172 788.148C200.651 785.592 199.671 779.921 199.356 774.46H198.761C198.019 774.396 197.316 774.096 196.756 773.605C196.196 773.114 195.806 772.457 195.645 771.729C195.351 766.303 196.334 760.883 198.516 755.906C197.858 755.652 197.292 755.205 196.892 754.624C196.493 754.043 196.277 753.355 196.275 752.65C196.745 745.712 198.904 738.993 202.565 733.08C206.226 727.168 211.278 722.24 217.28 718.728C224.282 715.227 236.884 713.056 252.288 713.056C270.527 713.056 295.032 716.172 307.11 724.714C344.778 696.708 390.429 679.204 426.872 679.204L426.767 679.239Z" fill="#1D1D1B"/>
<path fill-rule="evenodd" clip-rule="evenodd" d="M342.2 725.97C395.062 715.678 420.723 717.149 436.161 718.619C411.936 751.666 357.604 779.532 326.062 782.473C276.141 786.149 260.002 753.101 233.571 743.579C248.239 742.844 256.326 736.228 276.876 742.109C293.749 759.613 360.544 748.726 342.2 725.97Z" fill="white"/>
<path fill-rule="evenodd" clip-rule="evenodd" d="M436.251 717.278C420.683 715.796 394.892 714.332 341.904 724.649C341.439 724.739 341.056 725.067 340.893 725.511C340.731 725.956 340.813 726.453 341.111 726.822C343.265 729.494 344.051 731.841 343.965 733.862C343.879 735.877 342.916 737.798 341.112 739.603C337.448 743.267 330.609 746.146 322.436 747.818C314.315 749.479 305.108 749.901 296.917 748.837C288.672 747.765 281.708 745.22 277.81 741.176C277.645 741.005 277.437 740.88 277.209 740.815C266.726 737.815 259.367 737.995 252.77 739.033C250.48 739.393 248.262 739.861 246.071 740.323C245.154 740.517 244.242 740.709 243.331 740.892C240.217 741.519 237.036 742.056 233.465 742.235C232.823 742.267 232.292 742.748 232.197 743.384C232.102 744.021 232.47 744.636 233.075 744.854C239.498 747.168 245.337 750.926 251.32 755.286C253.312 756.738 255.33 758.265 257.391 759.824C261.462 762.904 265.698 766.108 270.224 769.105C283.984 778.218 300.791 785.689 326.123 783.824L326.149 783.822L326.149 783.821C342.177 782.327 363.832 774.534 384.475 763.019C405.125 751.5 424.944 736.157 437.212 719.421C437.499 719.029 437.554 718.513 437.355 718.07C437.156 717.627 436.734 717.325 436.251 717.278ZM433.586 719.747C421.541 735.321 402.81 749.699 383.159 760.661C362.7 772.073 341.424 779.682 325.911 781.131C301.329 782.938 285.11 775.724 271.715 766.853C267.254 763.899 263.146 760.791 259.118 757.743C257.04 756.17 254.983 754.614 252.91 753.103C248.377 749.8 243.815 746.754 238.948 744.405C240.65 744.16 242.277 743.859 243.864 743.54C244.828 743.346 245.771 743.147 246.704 742.951C248.863 742.495 250.972 742.05 253.19 741.701C259.369 740.728 266.242 740.534 276.126 743.315C280.695 747.858 288.276 750.437 296.569 751.515C305.074 752.62 314.583 752.181 322.977 750.464C331.319 748.757 338.793 745.742 343.022 741.512C345.163 739.37 346.541 736.843 346.663 733.976C346.761 731.676 346.044 729.306 344.497 726.899C393.192 717.576 418.245 718.408 433.586 719.747Z" fill="#1D1D1B"/>
<path fill-rule="evenodd" clip-rule="evenodd" d="M434.849 718.27C434.655 718.99 435.081 719.731 435.801 719.925L454.88 725.071C455.6 725.266 456.341 724.839 456.536 724.119C456.73 723.399 456.304 722.658 455.583 722.464L436.504 717.318C435.784 717.124 435.043 717.55 434.849 718.27Z" fill="#1D1D1B"/>
<path fill-rule="evenodd" clip-rule="evenodd" d="M234.849 743.121C234.594 742.42 233.819 742.059 233.118 742.313L225.031 745.254C224.33 745.509 223.969 746.284 224.224 746.985C224.478 747.686 225.253 748.047 225.954 747.792L234.041 744.852C234.742 744.597 235.103 743.822 234.849 743.121Z" fill="#1D1D1B"/>
<path fill-rule="evenodd" clip-rule="evenodd" d="M405.079 716.588C404.361 715.9 403.221 715.926 402.534 716.644C386.643 733.259 361.24 748.545 332.877 756.52C331.92 756.789 331.362 757.783 331.631 758.74C331.9 759.698 332.894 760.255 333.851 759.986C362.761 751.858 388.749 736.266 405.136 719.133C405.823 718.415 405.798 717.275 405.079 716.588ZM254.129 738.71C253.466 739.452 253.531 740.59 254.273 741.252C268.464 753.918 281.991 760.014 293.51 760.785C294.502 760.851 295.36 760.1 295.427 759.108C295.493 758.116 294.743 757.258 293.75 757.192C283.285 756.492 270.486 750.896 256.671 738.566C255.929 737.903 254.791 737.968 254.129 738.71Z" fill="#1D1D1B"/>
<path fill-rule="evenodd" clip-rule="evenodd" d="M287.872 764.132L307.721 809.642L329.006 824.311L348.82 812.548L342.204 763.397L309.156 751.634L287.872 764.132Z" fill="white"/>
<path fill-rule="evenodd" clip-rule="evenodd" d="M309.604 750.362C309.228 750.228 308.812 750.268 308.468 750.47L287.183 762.968C286.593 763.314 286.356 764.045 286.629 764.672L306.478 810.182C306.579 810.413 306.742 810.611 306.95 810.754L328.234 825.422C328.668 825.721 329.237 825.741 329.69 825.472L349.504 813.709C349.97 813.432 350.226 812.904 350.153 812.368L343.537 763.217C343.469 762.716 343.128 762.294 342.651 762.125L309.604 750.362ZM340.97 764.393L347.358 811.843L329.055 822.708L308.8 808.749L289.583 764.69L309.292 753.118L340.97 764.393Z" fill="#1D1D1B"/>
<path fill-rule="evenodd" clip-rule="evenodd" d="M276.893 742.113C276.893 747.994 277.628 757.516 282.774 761.192C295.972 770.749 309.905 764.693 310.78 757.691C318.867 784.857 372.464 757.691 342.287 726.184L276.963 742.323L276.893 742.113Z" fill="white"/>
<path fill-rule="evenodd" clip-rule="evenodd" d="M341.004 724.671C340.285 725.358 340.259 726.498 340.946 727.217C348.188 734.796 350.193 741.877 349.37 747.764C348.54 753.707 344.777 758.805 339.768 762.26C334.747 765.724 328.681 767.39 323.525 766.679C318.489 765.986 314.256 763.039 312.468 756.971C312.224 756.145 311.43 755.607 310.573 755.687C309.715 755.768 309.035 756.444 308.949 757.301C308.691 759.879 305.933 762.792 301.071 763.88C296.363 764.933 290.071 764.105 283.796 759.526L283.747 759.492C281.753 758.136 280.418 755.405 279.619 751.93C278.836 748.527 278.654 744.788 278.654 741.902C278.654 740.907 277.848 740.101 276.853 740.101C275.859 740.101 275.053 740.907 275.053 741.902C275.053 744.896 275.238 748.947 276.109 752.737C276.962 756.446 278.561 760.304 281.696 762.452C288.753 767.591 296.086 768.685 301.857 767.394C305.564 766.564 308.816 764.672 310.738 762.111C313.481 766.957 317.986 769.551 323.034 770.247C329.242 771.102 336.197 769.098 341.813 765.224C347.443 761.34 351.935 755.431 352.937 748.262C353.946 741.038 351.361 732.904 343.55 724.729C342.863 724.01 341.723 723.984 341.004 724.671Z" fill="#1D1D1B"/>
<path fill-rule="evenodd" clip-rule="evenodd" d="M308.864 750.325C308.141 750.505 307.701 751.239 307.882 751.962L309.352 757.843C309.533 758.567 310.266 759.007 310.99 758.826C311.713 758.645 312.153 757.912 311.972 757.188L310.502 751.307C310.321 750.584 309.588 750.144 308.864 750.325Z" fill="#1D1D1B"/>
<path fill-rule="evenodd" clip-rule="evenodd" d="M349.87 724.924C396.919 710.521 449.216 705.156 488.808 715.516C489.53 715.705 490.268 715.273 490.457 714.551C490.645 713.83 490.213 713.092 489.492 712.903C447.189 701.834 390.981 708.455 341.882 724.628C341.247 724.689 340.732 725.192 340.668 725.841C340.6 726.547 341.089 727.186 341.789 727.304C351.935 729.008 361.792 731.157 371.339 733.802L374.542 740.488C374.864 741.161 375.671 741.445 376.343 741.123C377.016 740.801 377.3 739.994 376.978 739.322L374.807 734.789C380.948 736.583 386.958 738.589 392.833 740.822L400.344 751.7C400.768 752.314 401.609 752.468 402.223 752.044C402.837 751.62 402.991 750.779 402.567 750.165L397.334 742.587C425.947 754.169 451.231 771.342 472.588 795.859C473.078 796.422 473.931 796.48 474.494 795.991C475.056 795.501 475.115 794.648 474.625 794.085C452.014 768.13 425.08 750.315 394.58 738.598L389.56 731.327C403.641 733.195 418.07 735.664 432.018 738.665C462.672 745.261 490.841 754.394 507.924 765.27C508.553 765.67 509.388 765.485 509.789 764.856C510.189 764.227 510.004 763.392 509.375 762.991C491.87 751.847 463.309 742.636 432.586 736.025C412.172 731.632 390.73 728.373 370.818 726.462L368.191 720.978C367.869 720.305 367.062 720.021 366.39 720.343C365.717 720.665 365.433 721.472 365.755 722.144L367.684 726.171C361.56 725.622 355.597 725.204 349.87 724.924ZM360.642 728.301C363.404 728.508 366.206 728.743 369.042 729.007L369.798 730.584C366.775 729.775 363.723 729.014 360.642 728.301ZM373.246 731.532L372.181 729.308C377.101 729.797 382.111 730.367 387.171 731.016C386.838 731.467 386.81 732.098 387.147 732.586L390.162 736.952C384.635 734.957 378.995 733.154 373.246 731.532ZM277.439 740.924C247.623 724.697 213.374 717.878 187.373 729.108C186.688 729.404 186.373 730.199 186.669 730.883C186.964 731.568 187.759 731.883 188.444 731.588C210.97 721.858 240.385 726.18 267.621 738.976C267.415 739.193 267.28 739.48 267.255 739.802L267.136 741.345C263.641 741.679 260.036 742.148 256.361 742.744L256.74 740.096C256.846 739.358 256.333 738.674 255.595 738.568C254.856 738.463 254.172 738.975 254.067 739.714L253.564 743.221C243.146 745.078 232.262 747.935 221.815 751.66C203.203 758.297 185.82 767.744 174.95 779.346C174.44 779.89 174.468 780.745 175.012 781.254C175.557 781.764 176.411 781.737 176.921 781.192C187.371 770.039 204.296 760.774 222.722 754.204C232.748 750.629 243.17 747.869 253.161 746.038L252.593 750.008C230.817 761.47 211.552 780.959 196.06 810.483C195.713 811.144 195.968 811.96 196.628 812.307C197.288 812.653 198.105 812.399 198.451 811.738C213.301 783.438 231.577 764.63 252.117 753.332L251.861 755.117C251.755 755.855 252.268 756.54 253.006 756.645C253.745 756.751 254.429 756.238 254.535 755.5L255.069 751.767C258.883 749.822 262.771 748.127 266.726 746.67L266.52 749.359C266.462 750.102 267.019 750.751 267.762 750.809C268.506 750.866 269.155 750.309 269.212 749.566L269.511 745.688C272.026 744.838 274.567 744.083 277.132 743.418C277.669 743.279 278.066 742.826 278.133 742.275C278.201 741.725 277.925 741.19 277.439 740.924ZM265.566 744.219C262.17 745.479 258.825 746.908 255.534 748.516L255.96 745.548C259.227 745.001 262.439 744.557 265.566 744.219ZM271.73 740.979C271.135 740.678 270.539 740.382 269.941 740.089L269.863 741.11C270.489 741.062 271.112 741.018 271.73 740.979ZM361.415 746.009C360.726 746.295 360.399 747.085 360.684 747.774L369.506 769.058C369.792 769.747 370.582 770.074 371.271 769.789C371.96 769.503 372.287 768.713 372.001 768.024L363.179 746.74C362.894 746.051 362.104 745.724 361.415 746.009ZM275.346 752.494C274.603 752.423 273.944 752.968 273.873 753.71L272.403 769.149C272.332 769.891 272.877 770.55 273.619 770.621C274.362 770.692 275.021 770.147 275.092 769.405L276.562 753.966C276.633 753.224 276.088 752.565 275.346 752.494ZM307.597 758.052C306.888 758.286 306.504 759.05 306.738 759.758L327.392 822.317C327.626 823.025 328.39 823.409 329.098 823.176C329.806 822.942 330.191 822.178 329.957 821.47L309.302 758.911C309.068 758.203 308.305 757.818 307.597 758.052Z" fill="#1D1D1B"/>
<path fill-rule="evenodd" clip-rule="evenodd" d="M345.156 678.118C351.002 634.954 360.524 599.701 377.433 572.57C383.298 584.715 390.698 596.057 399.453 606.317C401.92 629.156 400.511 652.248 395.287 674.618C395.077 675.388 393.956 676.963 394.657 676.823C378.448 680.604 364.06 676.823 345.156 678.328V678.118Z" fill="#C6C6C6"/>
<path fill-rule="evenodd" clip-rule="evenodd" d="M377.56 570.707L376.696 572.093C359.687 599.384 350.143 634.785 344.29 677.997L344.282 678.057V679.303L345.254 679.225C353.086 678.602 360.13 678.892 366.907 679.171C368.251 679.226 369.584 679.281 370.912 679.328C378.913 679.613 386.662 679.618 394.888 677.699L394.507 675.94C394.507 675.94 394.806 675.873 395.091 676.119C395.379 676.369 395.357 676.683 395.355 676.708C395.354 676.719 395.354 676.725 395.355 676.725C395.358 676.726 395.379 676.645 395.474 676.439C395.538 676.302 395.604 676.169 395.678 676.022C395.728 675.923 395.78 675.818 395.837 675.701C395.959 675.45 396.105 675.138 396.182 674.854L396.191 674.822C401.438 652.354 402.852 629.16 400.375 606.22L400.345 605.944L400.164 605.733C391.46 595.531 384.102 584.254 378.27 572.178L377.56 570.707ZM377.369 574.434C383.108 586.01 390.242 596.843 398.614 606.689C401.028 629.331 399.618 652.218 394.441 674.393C394.411 674.496 394.339 674.665 394.219 674.912C394.181 674.99 394.136 675.079 394.089 675.174C394.004 675.343 393.912 675.527 393.84 675.683C393.786 675.799 393.715 675.958 393.656 676.132C385.977 677.808 378.673 677.803 370.976 677.529C369.666 677.482 368.344 677.428 367.007 677.373C360.537 677.106 353.715 676.824 346.196 677.35C351.945 635.372 361.205 601.03 377.369 574.434Z" fill="#1D1D1B"/>
<path fill-rule="evenodd" clip-rule="evenodd" d="M254.088 707.629C258.499 673.847 279.784 632.608 292.981 611.603C298.128 621.125 286.365 646.086 294.452 655.643C296.657 671.782 297.392 682.074 292.981 695.272C273.167 693.066 264.345 701.153 254.088 707.769V707.629Z" fill="#C6C6C6"/>
<path fill-rule="evenodd" clip-rule="evenodd" d="M293.067 609.82L292.246 611.126C279.03 632.159 257.659 673.534 253.222 707.515L253.215 707.573V709.423L254.603 708.528C255.877 707.706 257.117 706.87 258.35 706.039C262.159 703.474 265.898 700.955 270.334 699.041C276.152 696.531 283.153 695.082 292.909 696.168L293.632 696.249L293.862 695.559C298.343 682.154 297.58 671.686 295.371 655.523L295.335 655.263L295.166 655.063C293.339 652.904 292.573 649.798 292.461 646.044C292.349 642.3 292.888 638.059 293.531 633.744C293.648 632.961 293.769 632.174 293.889 631.388C294.426 627.88 294.961 624.386 295.17 621.219C295.425 617.366 295.216 613.797 293.8 611.177L293.067 609.82ZM292.847 613.566C293.459 615.564 293.57 618.123 293.374 621.1C293.17 624.182 292.65 627.579 292.114 631.083C291.993 631.877 291.87 632.676 291.75 633.479C291.107 637.79 290.544 642.175 290.661 646.098C290.775 649.907 291.535 653.42 293.621 656.02C295.758 671.703 296.449 681.706 292.38 694.302C282.695 693.332 275.584 694.815 269.621 697.388C265.016 699.374 261.086 702.022 257.247 704.61C256.582 705.058 255.92 705.504 255.258 705.945C260.031 673.485 279.864 634.56 292.847 613.566Z" fill="#1D1D1B"/>
<path fill-rule="evenodd" clip-rule="evenodd" d="M374.015 565.386L376.955 572.738L377.791 572.403L374.851 565.052L374.015 565.386ZM406.31 611.864L399.728 605.982L399.128 606.654L405.71 612.535L406.31 611.864Z" fill="#1D1D1B"/>
<path d="M287.002 583.597C288.828 584.289 290.477 585.377 291.833 586.782C293.089 588.143 294.259 589.581 295.334 591.088C297.659 594.397 300.221 597.533 303 600.47C302.369 596.278 300.682 592.315 298.099 588.953C296.777 587.205 295.138 585.72 293.268 584.577C292.347 583.992 291.315 583.603 290.237 583.435C289.159 583.266 288.058 583.321 287.002 583.597Z" fill="#1D1D1B"/>
<path d="M335.617 552.088C336.816 552.13 338.009 551.9 339.106 551.415C340.204 550.93 341.177 550.203 341.953 549.288C343.481 547.366 344.32 544.986 344.334 542.531C344.812 539.596 345.82 536.773 347.309 534.199C348.802 531.746 351.165 529.946 353.926 529.158C356.676 528.552 359.541 528.74 362.188 529.701C364.835 530.661 367.154 532.355 368.874 534.584C374.72 540.536 380.637 546.382 386.098 552.683C391.559 558.985 397.02 565.251 401.992 571.903C407.095 578.494 411.773 585.404 415.995 592.592C418.049 596.206 419.919 599.921 421.596 603.725C423.304 607.525 424.482 611.542 425.097 615.662C424.931 611.44 424.104 607.27 422.646 603.305C422.051 601.274 421.176 599.349 420.441 597.353C419.705 595.358 418.725 593.503 417.745 591.647C413.927 584.123 409.538 576.901 404.617 570.047C399.705 563.195 394.422 556.615 388.794 550.338C383.192 544.037 377.241 538.085 371.29 532.309V532.484C369.192 529.807 366.338 527.822 363.098 526.786C359.859 525.749 356.383 525.71 353.121 526.673C349.891 527.735 347.187 529.989 345.559 532.974C344.066 535.901 343.207 539.11 343.038 542.391C343.213 544.617 342.633 546.836 341.393 548.693C340.739 549.648 339.882 550.448 338.884 551.035C337.886 551.622 336.77 551.982 335.617 552.088Z" fill="#1D1D1B"/>
<path d="M330.415 712.744C323.711 707.896 315.616 705.353 307.344 705.497C303.035 705.576 298.849 706.955 295.337 709.453C293.655 710.686 292.25 712.257 291.212 714.066C290.175 715.875 289.529 717.881 289.315 719.956C290.896 716.453 293.526 713.529 296.842 711.589C300.078 709.861 303.677 708.926 307.344 708.858C311.173 708.722 315.003 709.039 318.757 709.803C322.713 710.678 326.494 711.729 330.415 712.744Z" fill="#1D1D1B"/>
<path d="M332.5 704.689C328.383 700.358 322.862 697.629 316.922 696.987C313.961 696.616 310.956 696.846 308.086 697.664C305.217 698.482 302.542 699.871 300.223 701.748C305.547 700.387 311.067 699.96 316.536 700.488C322.014 701.207 327.378 702.619 332.5 704.689Z" fill="#1D1D1B"/>
<path d="M334.838 693.659C331.355 690.014 326.81 687.563 321.85 686.657C319.309 686.222 316.703 686.353 314.219 687.042C311.78 687.649 309.531 688.852 307.672 690.543C309.985 690.079 312.323 689.751 314.674 689.563C316.886 689.433 319.105 689.55 321.29 689.913C325.701 690.753 329.972 692.538 334.838 693.659Z" fill="#1D1D1B"/>
<path fill-rule="evenodd" clip-rule="evenodd" d="M225.463 60.2344C293.728 227.572 466.946 306.129 423.502 530.739C536.682 334.73 353.906 168.863 225.463 60.2344Z" fill="white"/>
<path fill-rule="evenodd" clip-rule="evenodd" d="M224.96 59.5005C224.625 59.7441 224.499 60.1852 224.656 60.569C241.762 102.502 265.437 138.856 290.615 173.286C300.186 186.375 309.963 199.171 319.68 211.889C335.553 232.664 351.265 253.227 365.654 274.508C411.975 343.014 444.307 418.564 422.644 530.562C422.561 530.994 422.801 531.423 423.213 531.577C423.625 531.731 424.088 531.564 424.308 531.184C481.103 432.823 463.611 341.998 415.89 262.252C368.201 182.56 290.283 113.849 226.07 59.5416C225.754 59.2739 225.296 59.257 224.96 59.5005ZM425.404 525.591C445.161 415.891 412.904 341.172 367.146 273.5C352.735 252.188 336.958 231.538 321.056 210.723C311.346 198.014 301.589 185.243 292.068 172.223C267.616 138.785 244.644 103.611 227.739 63.313C291.409 117.249 367.526 184.938 414.345 263.176C461.066 341.251 478.57 429.748 425.404 525.591Z" fill="#1D1D1B"/>
<path d="M397.687 659.599C397.687 661.559 397.687 663.52 397.687 665.48C397.687 666.25 397.477 666.425 396.812 666.425H332.538H217.012C215.612 666.425 215.647 666.425 215.612 664.885C215.577 663.345 215.612 660.929 215.612 658.934H209.555C209.135 658.934 208.89 658.934 208.89 659.564C208.89 666.565 208.89 673.649 208.89 680.814C208.89 681.304 208.89 681.409 209.485 681.409C211.341 681.409 213.196 681.409 215.017 681.409C215.577 681.409 215.682 681.409 215.647 682.144C215.647 684.104 215.647 686.065 215.647 687.99C215.647 688.795 215.892 688.935 216.522 688.935H221.633C222.228 688.935 222.473 688.935 222.473 689.776C222.473 691.736 222.473 693.696 222.473 695.657C222.473 696.252 222.473 696.427 223.138 696.427H228.53C229.09 696.427 229.23 696.602 229.23 697.232C229.23 699.193 229.23 701.188 229.23 703.184C229.23 703.779 229.23 703.989 229.93 703.954C231.715 703.954 233.431 703.954 235.216 703.954C235.811 703.954 236.056 703.954 236.021 704.794C236.021 706.649 236.021 708.575 236.021 710.43C236.021 711.235 236.021 711.445 236.896 711.445H275.545C276.175 711.445 276.245 711.2 276.245 710.64C276.245 708.645 276.245 706.684 276.245 704.689C276.245 704.094 276.245 703.954 276.91 703.954H282.337C282.862 703.954 283.037 703.954 283.002 703.219C283.002 701.223 283.002 699.193 283.002 697.162C283.002 696.637 283.002 696.427 283.667 696.427H289.198C289.653 696.427 289.758 696.427 289.758 695.797C289.758 693.766 289.758 691.736 289.758 689.741C289.758 689.04 289.968 688.9 290.528 688.935H295.745C296.375 688.935 296.55 688.935 296.55 688.06C296.55 683.684 296.55 679.343 296.55 675.002C296.55 674.092 296.76 673.882 297.565 673.882H316.714V677.383V688.2C316.714 688.725 316.714 688.83 317.309 688.795C319.165 688.795 320.81 688.795 322.841 688.795C323.331 688.795 323.471 688.795 323.471 689.496C323.471 691.456 323.471 693.451 323.471 695.447C323.471 696.077 323.471 696.287 324.206 696.287C325.991 696.287 327.707 696.287 329.562 696.287C330.122 696.287 330.262 696.462 330.262 697.057C330.262 699.053 330.262 701.048 330.262 703.009C330.262 703.639 330.262 703.849 330.962 703.814C332.783 703.814 334.463 703.814 336.424 703.814C336.879 703.814 337.019 703.814 337.019 704.444C337.019 706.474 337.019 708.505 337.019 710.5C337.019 711.13 337.019 711.305 337.719 711.305C350.742 711.305 363.8 711.305 376.823 711.305C377.453 711.305 377.558 711.06 377.558 710.43C377.558 708.505 377.558 706.544 377.558 704.584C377.558 703.989 377.558 703.779 378.258 703.779C380.008 703.779 381.759 703.779 383.544 703.779C384.244 703.779 384.384 703.499 384.349 702.798C384.349 700.838 384.349 698.913 384.349 696.952C384.349 696.357 384.349 696.217 385.014 696.217C386.8 696.217 388.515 696.217 390.371 696.217C391.001 696.217 391.141 696.007 391.141 695.377C391.141 693.416 391.141 691.456 391.141 689.531C391.141 688.865 391.141 688.725 391.841 688.725H397.022C397.617 688.725 397.757 688.515 397.722 687.92C397.722 685.89 397.722 683.894 397.722 681.864C397.722 681.339 397.722 681.164 398.317 681.199C400.068 681.199 401.818 681.199 403.603 681.199C404.409 681.199 404.514 680.919 404.514 680.148C404.514 673.147 404.514 666.53 404.514 659.739C404.443 659.404 404.443 659.058 404.514 658.724H398.177C397.687 658.899 397.687 659.179 397.687 659.599Z" fill="#0C0D0D"/>
<path d="M233.602 689.147H231.851C230.382 689.147 229.191 687.956 229.191 686.487V683.896C229.191 682.427 230.382 681.236 231.851 681.236H233.602C235.071 681.236 236.263 682.427 236.263 683.896V686.487C236.263 687.956 235.071 689.147 233.602 689.147Z" fill="white"/>
<path d="M240.495 696.919H238.745C237.276 696.919 236.084 695.728 236.084 694.258V691.668C236.084 690.198 237.276 689.007 238.745 689.007H240.495C241.965 689.007 243.156 690.198 243.156 691.668V694.258C243.156 695.728 241.965 696.919 240.495 696.919Z" fill="white"/>
<path d="M247.327 704.618H245.577C244.107 704.618 242.916 703.427 242.916 701.957V699.367C242.916 697.897 244.107 696.706 245.577 696.706H247.327C248.796 696.706 249.988 697.897 249.988 699.367V701.957C249.988 703.427 248.796 704.618 247.327 704.618Z" fill="white"/>
<path d="M247.452 689.147H245.702C244.232 689.147 243.041 687.956 243.041 686.487V683.896C243.041 682.427 244.232 681.236 245.702 681.236H247.452C248.921 681.236 250.113 682.427 250.113 683.896V686.487C250.113 687.956 248.921 689.147 247.452 689.147Z" fill="white"/>
<path d="M254.316 696.919H252.566C251.096 696.919 249.905 695.728 249.905 694.258V691.668C249.905 690.198 251.096 689.007 252.566 689.007H254.316C255.786 689.007 256.977 690.198 256.977 691.668V694.258C256.977 695.728 255.786 696.919 254.316 696.919Z" fill="white"/>
<path d="M261.144 704.618H259.394C257.925 704.618 256.733 703.427 256.733 701.957V699.367C256.733 697.897 257.925 696.706 259.394 696.706H261.144C262.614 696.706 263.805 697.897 263.805 699.367V701.957C263.805 703.427 262.614 704.618 261.144 704.618Z" fill="white"/>
<path d="M334.25 689.147H332.5C331.031 689.147 329.839 687.956 329.839 686.487V683.896C329.839 682.427 331.031 681.236 332.5 681.236H334.25C335.72 681.236 336.911 682.427 336.911 683.896V686.487C336.911 687.956 335.72 689.147 334.25 689.147Z" fill="white"/>
<path d="M341.107 696.919H339.357C337.887 696.919 336.696 695.728 336.696 694.258V691.668C336.696 690.198 337.887 689.007 339.357 689.007H341.107C342.577 689.007 343.768 690.198 343.768 691.668V694.258C343.768 695.728 342.577 696.919 341.107 696.919Z" fill="white"/>
<path d="M347.972 704.618H346.222C344.752 704.618 343.561 703.427 343.561 701.957V699.367C343.561 697.897 344.752 696.706 346.222 696.706H347.972C349.441 696.706 350.633 697.897 350.633 699.367V701.957C350.633 703.427 349.441 704.618 347.972 704.618Z" fill="white"/>
<path d="M348.067 689.147H346.317C344.847 689.147 343.656 687.956 343.656 686.487V683.896C343.656 682.427 344.847 681.236 346.317 681.236H348.067C349.537 681.236 350.728 682.427 350.728 683.896V686.487C350.728 687.956 349.537 689.147 348.067 689.147Z" fill="white"/>
<path d="M354.961 696.919H353.211C351.741 696.919 350.55 695.728 350.55 694.258V691.668C350.55 690.198 351.741 689.007 353.211 689.007H354.961C356.431 689.007 357.622 690.198 357.622 691.668V694.258C357.622 695.728 356.431 696.919 354.961 696.919Z" fill="white"/>
<path d="M361.789 704.618H360.039C358.569 704.618 357.378 703.427 357.378 701.957V699.367C357.378 697.897 358.569 696.706 360.039 696.706H361.789C363.258 696.706 364.45 697.897 364.45 699.367V701.957C364.45 703.427 363.258 704.618 361.789 704.618Z" fill="white"/>
<path d="M209.713 658.968H220.215V669.471H209.713V658.968Z" fill="#0C0D0D"/>
</g>
</svg>
