<svg xmlns="http://www.w3.org/2000/svg" width="23" height="23" viewBox="0 0 23 23" fill="none">
<path fill-rule="evenodd" clip-rule="evenodd" d="M5.93774 14.5353C5.93774 12.8589 9.7517 11.4988 14.4581 11.4988C19.1632 11.4988 22.9771 12.859 22.9771 14.5353V17.3262C22.9771 19.0026 19.1632 20.3628 14.4581 20.3628C9.7517 20.3628 5.93774 19.0026 5.93774 17.3262C5.93774 16.3959 5.93774 15.4656 5.93774 14.5353Z" fill="#FE9923"/>
<path fill-rule="evenodd" clip-rule="evenodd" d="M14.4581 11.4988C19.1632 11.4988 22.9771 12.859 22.9771 14.5353C22.9771 16.213 19.1632 17.5719 14.4581 17.5719C9.7517 17.5719 5.93774 16.213 5.93774 14.5353C5.9377 12.8589 9.7517 11.4988 14.4581 11.4988Z" fill="#FECD3D"/>
<path fill-rule="evenodd" clip-rule="evenodd" d="M14.4586 12.9176C18.202 12.9176 21.236 13.6428 21.236 14.5352C21.236 15.4289 18.202 16.1527 14.4586 16.1527C10.7152 16.1527 7.67993 15.4289 7.67993 14.5352C7.67993 13.6428 10.7152 12.9176 14.4586 12.9176Z" fill="#FEA832"/>
<path d="M10.146 18.6654L10.8738 18.6667V20.0804C10.6242 20.0399 10.3825 19.9942 10.146 19.9445V18.6654ZM20.6746 17.9167V19.4023C20.9372 19.3017 21.1802 19.1959 21.4037 19.0848V17.9154L20.6746 17.9167ZM12.7775 20.3026C13.0179 20.3208 13.2609 20.3339 13.5066 20.3431V18.992L12.7775 18.9934V20.3026ZM7.51318 19.0848C7.73663 19.1959 7.97965 19.3017 8.24227 19.4023V17.9154L7.51318 17.9167V19.0848ZM15.4103 20.3431C15.6572 20.3339 15.8989 20.3195 16.1381 20.3026V18.9934L15.4103 18.992V20.3431ZM18.0431 20.0804C18.2926 20.0399 18.5357 19.9942 18.7709 19.9445V18.6667L18.0431 18.6654V20.0804Z" fill="#C85929"/>
<path d="M2.5235 17.9089V18.8131H3.42639V19.4586H2.5235V20.3627H1.87806V19.4586H0.973877V18.8131H1.87806V17.9089H2.5235Z" fill="#FEA832"/>
<path d="M19.042 8.00623V8.91037H19.9461V9.55455H19.042V10.4587H18.3965V9.55455H17.4937V8.91037H18.3965V8.00623H19.042Z" fill="#FEA832"/>
<path d="M2.95832 2.63733V3.54152H3.8612V4.18565H2.95832V5.08984H2.31283V4.18565H1.40869V3.54152H2.31283V2.63733H2.95832Z" fill="#FEA832"/>
<path fill-rule="evenodd" clip-rule="evenodd" d="M0.178649 12.9569C-0.660177 11.5039 1.96348 8.41903 6.03875 6.06715C10.1141 3.71396 14.0966 2.98488 14.9354 4.43648C15.4006 5.24265 15.8657 6.04752 16.3308 6.85238C17.1697 8.30533 14.546 11.3902 10.4707 13.7421C6.39548 16.0953 2.41293 16.8257 1.5741 15.3727C1.10894 14.5679 0.643815 13.7617 0.178649 12.9569Z" fill="#FE9923"/>
<path fill-rule="evenodd" clip-rule="evenodd" d="M6.03875 6.06715C10.1141 3.71396 14.0966 2.98488 14.9354 4.43648C15.7742 5.88944 13.1506 8.97431 9.07529 11.3262C5.00133 13.6794 1.01748 14.4085 0.178649 12.9568C-0.660177 11.5039 1.96348 8.41903 6.03875 6.06715Z" fill="#FECD3D"/>
<path fill-rule="evenodd" clip-rule="evenodd" d="M6.74826 7.29531C9.98996 5.42427 12.9808 4.53446 13.4276 5.30797C13.8744 6.08148 11.6075 8.2256 8.36585 10.098C5.12416 11.969 2.13465 12.8588 1.68781 12.0853C1.24097 11.3118 3.50656 9.16766 6.74826 7.29531Z" fill="#FEA832"/>
<path d="M8.96083 13.0326L9.63637 14.202C9.41818 14.317 9.20126 14.4268 8.98437 14.5312L8.32977 13.3971L8.96083 13.0326ZM3.23267 15.097L3.81674 16.1083C4.06498 16.0939 4.32894 16.0639 4.60593 16.0195L3.86377 14.7325L3.23267 15.097ZM5.88638 14.4294L6.52661 15.5374C6.75526 15.4629 6.98782 15.3805 7.22433 15.2917L6.51744 14.0661L5.88638 14.4294ZM10.6097 12.0801L11.2853 13.2495C11.493 13.1189 11.6968 12.9856 11.8954 12.851L11.2408 11.7181L10.6097 12.0801ZM15.2613 8.15112L14.6302 8.51697L15.3736 9.80268C15.55 9.58579 15.7081 9.37147 15.8453 9.16371L15.2613 8.15112ZM12.7265 10.4808L13.4333 11.7064C13.6293 11.547 13.8162 11.3863 13.9952 11.2256L13.3563 10.1189L12.7265 10.4808Z" fill="#C85929"/>
</svg>