<svg width="16" height="16" viewBox="0 0 16 16" fill="none" xmlns="http://www.w3.org/2000/svg">
    <path fill-rule="evenodd" clip-rule="evenodd" d="M2.64062 2.09375C2.34109 2.09375 2.09375 2.34109 2.09375 2.64062C2.09375 2.94016 2.34109 3.1875 2.64062 3.1875H11.7188V2.64062C11.7188 2.34109 11.4714 2.09375 11.1719 2.09375H2.64062ZM2.64062 1C1.73703 1 1 1.73703 1 2.64062V6.90625V9.09375V11.2812V12.2656C1 13.7708 2.22925 15 3.73438 15H12.2656C13.1692 15 13.9062 14.263 13.9062 13.3594C13.9062 13.0573 13.6614 12.8125 13.3594 12.8125C13.0573 12.8125 12.8125 13.0573 12.8125 13.3594C12.8125 13.6589 12.5652 13.9062 12.2656 13.9062H3.73438C2.83331 13.9062 2.09375 13.1667 2.09375 12.2656V11.8281H4.71875C5.02078 11.8281 5.26562 12.0729 5.26562 12.375C5.26562 12.677 5.51047 12.9219 5.8125 12.9219C6.11453 12.9219 6.35938 12.677 6.35938 12.375C6.35938 11.4688 5.62477 10.7344 4.71875 10.7344H2.09375V9.64062H6.90625C7.20828 9.64062 7.45312 9.39578 7.45312 9.09375C7.45312 8.79172 7.20828 8.54688 6.90625 8.54688H2.09375V7.45312H4.71875C5.62477 7.45312 6.35938 6.7187 6.35938 5.8125C6.35938 5.51047 6.11453 5.26562 5.8125 5.26562C5.51047 5.26562 5.26562 5.51047 5.26562 5.8125C5.26562 6.11457 5.02078 6.35938 4.71875 6.35938H2.09375V4.18728C2.26493 4.24811 2.44903 4.28125 2.64062 4.28125H12.2656C12.5652 4.28125 12.8125 4.52859 12.8125 4.82812V6.35938H11.2812C10.5335 6.35938 9.84781 6.65841 9.35236 7.16481C8.84592 7.6603 8.54688 8.34598 8.54688 9.09375C8.54688 10.5989 9.77612 11.8281 11.2812 11.8281H13.3594C14.263 11.8281 15 11.0911 15 10.1875V8C15 7.288 14.5424 6.67942 13.9062 6.45334V4.82812C13.9062 4.11612 13.4486 3.50754 12.8125 3.28147V2.64062C12.8125 1.73703 12.0755 1 11.1719 1H2.64062ZM11.2812 7.45312H13.3594C13.6589 7.45312 13.9062 7.70047 13.9062 8V10.1875C13.9062 10.487 13.6589 10.7344 13.3594 10.7344H11.2812C10.3802 10.7344 9.64062 9.99482 9.64062 9.09375C9.64062 8.64104 9.82066 8.23517 10.1204 7.94351L10.1311 7.93289C10.4227 7.63316 10.8285 7.45312 11.2812 7.45312ZM11.2812 9.64062C11.5833 9.64062 11.8281 9.39578 11.8281 9.09375C11.8281 8.79172 11.5833 8.54688 11.2812 8.54688C10.9792 8.54688 10.7344 8.79172 10.7344 9.09375C10.7344 9.39578 10.9792 9.64062 11.2812 9.64062Z" fill="#72EFE8"/>
    <path d="M11.7188 3.1875V3.2875C11.774 3.2875 11.8188 3.24273 11.8188 3.1875H11.7188ZM2.09375 11.8281V11.7281C2.03852 11.7281 1.99375 11.7729 1.99375 11.8281H2.09375ZM2.09375 10.7344H1.99375C1.99375 10.7896 2.03852 10.8344 2.09375 10.8344V10.7344ZM2.09375 9.64062V9.54062C2.03852 9.54062 1.99375 9.5854 1.99375 9.64062H2.09375ZM2.09375 8.54688H1.99375C1.99375 8.6021 2.03852 8.64687 2.09375 8.64687V8.54688ZM2.09375 7.45312V7.35313C2.03852 7.35313 1.99375 7.3979 1.99375 7.45312H2.09375ZM2.09375 6.35938H1.99375C1.99375 6.4146 2.03852 6.45937 2.09375 6.45937V6.35938ZM2.09375 4.18728L2.12724 4.09305C2.09662 4.08217 2.06263 4.08685 2.03608 4.10558C2.00954 4.12432 1.99375 4.15479 1.99375 4.18728H2.09375ZM12.8125 6.35938V6.45937C12.8677 6.45937 12.9125 6.4146 12.9125 6.35938H12.8125ZM9.35236 7.16481L9.42231 7.2363L9.42384 7.23474L9.35236 7.16481ZM13.9062 6.45334H13.8062C13.8062 6.49566 13.8329 6.5334 13.8728 6.54757L13.9062 6.45334ZM12.8125 3.28147H12.7125C12.7125 3.32379 12.7391 3.36153 12.779 3.3757L12.8125 3.28147ZM10.1204 7.94351L10.1902 8.01519L10.1912 8.01422L10.1204 7.94351ZM10.1311 7.93289L10.2018 8.0036L10.2027 8.00262L10.1311 7.93289ZM2.19375 2.64062C2.19375 2.39632 2.39632 2.19375 2.64062 2.19375V1.99375C2.28586 1.99375 1.99375 2.28586 1.99375 2.64062H2.19375ZM2.64062 3.0875C2.39632 3.0875 2.19375 2.88493 2.19375 2.64062H1.99375C1.99375 2.99539 2.28586 3.2875 2.64062 3.2875V3.0875ZM11.7188 3.0875H2.64062V3.2875H11.7188V3.0875ZM11.6187 2.64062V3.1875H11.8188V2.64062H11.6187ZM11.1719 2.19375C11.4162 2.19375 11.6187 2.39632 11.6187 2.64062H11.8188C11.8188 2.28586 11.5266 1.99375 11.1719 1.99375V2.19375ZM2.64062 2.19375H11.1719V1.99375H2.64062V2.19375ZM1.1 2.64062C1.1 1.79226 1.79226 1.1 2.64062 1.1V0.9C1.6818 0.9 0.9 1.6818 0.9 2.64062H1.1ZM1.1 6.90625V2.64062H0.9V6.90625H1.1ZM1.1 9.09375V6.90625H0.9V9.09375H1.1ZM1.1 11.2812V9.09375H0.9V11.2812H1.1ZM1.1 12.2656V11.2812H0.9V12.2656H1.1ZM3.73438 14.9C2.28448 14.9 1.1 13.7155 1.1 12.2656H0.9C0.9 13.826 2.17402 15.1 3.73438 15.1V14.9ZM12.2656 14.9H3.73438V15.1H12.2656V14.9ZM13.8062 13.3594C13.8062 14.2077 13.114 14.9 12.2656 14.9V15.1C13.2244 15.1 14.0063 14.3182 14.0063 13.3594H13.8062ZM13.3594 12.9125C13.6062 12.9125 13.8062 13.1126 13.8062 13.3594H14.0063C14.0063 13.0021 13.7166 12.7125 13.3594 12.7125V12.9125ZM12.9125 13.3594C12.9125 13.1126 13.1126 12.9125 13.3594 12.9125V12.7125C13.0021 12.7125 12.7125 13.0021 12.7125 13.3594H12.9125ZM12.2656 14.0063C12.6204 14.0063 12.9125 13.7141 12.9125 13.3594H12.7125C12.7125 13.6037 12.5099 13.8062 12.2656 13.8062V14.0063ZM3.73438 14.0063H12.2656V13.8062H3.73438V14.0063ZM1.99375 12.2656C1.99375 13.2219 2.77808 14.0063 3.73438 14.0063V13.8062C2.88854 13.8062 2.19375 13.1115 2.19375 12.2656H1.99375ZM1.99375 11.8281V12.2656H2.19375V11.8281H1.99375ZM4.71875 11.7281H2.09375V11.9281H4.71875V11.7281ZM5.36562 12.375C5.36562 12.0177 5.076 11.7281 4.71875 11.7281V11.9281C4.96555 11.9281 5.16563 12.1282 5.16563 12.375H5.36562ZM5.8125 12.8219C5.5657 12.8219 5.36562 12.6218 5.36562 12.375H5.16563C5.16563 12.7323 5.45524 13.0219 5.8125 13.0219V12.8219ZM6.25938 12.375C6.25938 12.6218 6.0593 12.8219 5.8125 12.8219V13.0219C6.16976 13.0219 6.45937 12.7323 6.45937 12.375H6.25938ZM4.71875 10.8344C5.56955 10.8344 6.25938 11.524 6.25938 12.375H6.45937C6.45937 11.4136 5.67999 10.6344 4.71875 10.6344V10.8344ZM2.09375 10.8344H4.71875V10.6344H2.09375V10.8344ZM1.99375 9.64062V10.7344H2.19375V9.64062H1.99375ZM6.90625 9.54062H2.09375V9.74063H6.90625V9.54062ZM7.35313 9.09375C7.35313 9.34055 7.15305 9.54062 6.90625 9.54062V9.74063C7.26351 9.74063 7.55312 9.45101 7.55312 9.09375H7.35313ZM6.90625 8.64687C7.15305 8.64687 7.35313 8.84695 7.35313 9.09375H7.55312C7.55312 8.73649 7.26351 8.44688 6.90625 8.44688V8.64687ZM2.09375 8.64687H6.90625V8.44688H2.09375V8.64687ZM1.99375 7.45312V8.54688H2.19375V7.45312H1.99375ZM4.71875 7.35313H2.09375V7.55312H4.71875V7.35313ZM6.25938 5.8125C6.25938 6.66346 5.56955 7.35313 4.71875 7.35313V7.55312C5.67999 7.55312 6.45937 6.77393 6.45937 5.8125H6.25938ZM5.8125 5.36562C6.0593 5.36562 6.25938 5.5657 6.25938 5.8125H6.45937C6.45937 5.45524 6.16976 5.16563 5.8125 5.16563V5.36562ZM5.36562 5.8125C5.36562 5.5657 5.5657 5.36562 5.8125 5.36562V5.16563C5.45524 5.16563 5.16563 5.45524 5.16563 5.8125H5.36562ZM4.71875 6.45937C5.076 6.45937 5.36562 6.1698 5.36562 5.8125H5.16563C5.16563 6.05933 4.96555 6.25938 4.71875 6.25938V6.45937ZM2.09375 6.45937H4.71875V6.25938H2.09375V6.45937ZM1.99375 4.18728V6.35938H2.19375V4.18728H1.99375ZM2.64062 4.18125C2.46063 4.18125 2.28785 4.15013 2.12724 4.09305L2.06026 4.28151C2.24201 4.3461 2.43743 4.38125 2.64062 4.38125V4.18125ZM12.2656 4.18125H2.64062V4.38125H12.2656V4.18125ZM12.9125 4.82812C12.9125 4.47336 12.6204 4.18125 12.2656 4.18125V4.38125C12.5099 4.38125 12.7125 4.58382 12.7125 4.82812H12.9125ZM12.9125 6.35938V4.82812H12.7125V6.35938H12.9125ZM11.2812 6.45937H12.8125V6.25938H11.2812V6.45937ZM9.42384 7.23474C9.90063 6.74742 10.5606 6.45937 11.2812 6.45937V6.25938C10.5064 6.25938 9.79498 6.56941 9.28088 7.09487L9.42384 7.23474ZM8.64687 9.09375C8.64687 8.3731 8.93492 7.71312 9.4223 7.23629L9.28243 7.09333C8.75692 7.60748 8.44688 8.31886 8.44688 9.09375H8.64687ZM11.2812 11.7281C9.83135 11.7281 8.64687 10.5436 8.64687 9.09375H8.44688C8.44688 10.6541 9.72089 11.9281 11.2812 11.9281V11.7281ZM13.3594 11.7281H11.2812V11.9281H13.3594V11.7281ZM14.9 10.1875C14.9 11.0359 14.2077 11.7281 13.3594 11.7281V11.9281C14.3182 11.9281 15.1 11.1463 15.1 10.1875H14.9ZM14.9 8V10.1875H15.1V8H14.9ZM13.8728 6.54757C14.4705 6.75998 14.9 7.33182 14.9 8H15.1C15.1 7.24418 14.6143 6.59885 13.9397 6.35912L13.8728 6.54757ZM13.8062 4.82812V6.45334H14.0063V4.82812H13.8062ZM12.779 3.3757C13.3767 3.5881 13.8062 4.15994 13.8062 4.82812H14.0063C14.0063 4.07231 13.5206 3.42698 12.846 3.18724L12.779 3.3757ZM12.7125 2.64062V3.28147H12.9125V2.64062H12.7125ZM11.1719 1.1C12.0202 1.1 12.7125 1.79226 12.7125 2.64062H12.9125C12.9125 1.6818 12.1307 0.9 11.1719 0.9V1.1ZM2.64062 1.1H11.1719V0.9H2.64062V1.1ZM13.3594 7.35313H11.2812V7.55312H13.3594V7.35313ZM14.0063 8C14.0063 7.64524 13.7141 7.35313 13.3594 7.35313V7.55312C13.6037 7.55312 13.8062 7.7557 13.8062 8H14.0063ZM14.0063 10.1875V8H13.8062V10.1875H14.0063ZM13.3594 10.8344C13.7141 10.8344 14.0063 10.5423 14.0063 10.1875H13.8062C13.8062 10.4318 13.6037 10.6344 13.3594 10.6344V10.8344ZM11.2812 10.8344H13.3594V10.6344H11.2812V10.8344ZM9.54062 9.09375C9.54062 10.05 10.325 10.8344 11.2812 10.8344V10.6344C10.4354 10.6344 9.74063 9.93959 9.74063 9.09375H9.54062ZM10.0507 7.87183C9.73173 8.18217 9.54062 8.61382 9.54062 9.09375H9.74063C9.74063 8.66825 9.90959 8.28817 10.1902 8.01518L10.0507 7.87183ZM10.0604 7.86218L10.0497 7.8728L10.1912 8.01422L10.2018 8.0036L10.0604 7.86218ZM11.2812 7.35313C10.8013 7.35313 10.3697 7.54423 10.0594 7.86315L10.2027 8.00262C10.4757 7.7221 10.8557 7.55312 11.2812 7.55312V7.35313ZM11.7281 9.09375C11.7281 9.34055 11.5281 9.54062 11.2812 9.54062V9.74063C11.6385 9.74063 11.9281 9.45101 11.9281 9.09375H11.7281ZM11.2812 8.64687C11.5281 8.64687 11.7281 8.84695 11.7281 9.09375H11.9281C11.9281 8.73649 11.6385 8.44688 11.2812 8.44688V8.64687ZM10.8344 9.09375C10.8344 8.84695 11.0344 8.64687 11.2812 8.64687V8.44688C10.924 8.44688 10.6344 8.73649 10.6344 9.09375H10.8344ZM11.2812 9.54062C11.0344 9.54062 10.8344 9.34055 10.8344 9.09375H10.6344C10.6344 9.45101 10.924 9.74063 11.2812 9.74063V9.54062Z" fill="#72EFE8"/>
    </svg>
    