<svg width="16" height="12" viewBox="0 0 16 12" fill="none" xmlns="http://www.w3.org/2000/svg">
    <path fill-rule="evenodd" clip-rule="evenodd"
        d="M4.95596 0.0188101C5.25026 -0.0504368 5.55598 0.0754287 5.71622 0.331804L6.39118 1.4118H9.13818L9.81315 0.331804C9.97338 0.0754287 10.2791 -0.0504368 10.5734 0.0188101L13.5734 0.72469C13.8117 0.780766 14.004 0.956325 14.0814 1.18859L15.1128 4.28283C15.3887 5.11054 15.5294 5.97737 15.5294 6.84983V9.88237C15.5294 10.171 15.3536 10.4306 15.0857 10.5378L11.5562 11.9495C11.2941 12.0544 10.9946 11.9929 10.795 11.7933L9.58995 10.5882H5.93942L4.73442 11.7933C4.53474 11.9929 4.2353 12.0544 3.97312 11.9495L0.443723 10.5378C0.175729 10.4306 0 10.171 0 9.88237V6.84983C0 5.97737 0.140661 5.11054 0.416568 4.28283L1.44799 1.18859C1.52541 0.956325 1.71765 0.780766 1.95597 0.72469L4.95596 0.0188101ZM2.66274 2.0087L1.75588 4.7293C1.52796 5.41301 1.41176 6.12906 1.41176 6.84983V9.40449L4.06528 10.4658L5.14791 9.38324C5.28029 9.25089 5.45983 9.17649 5.64704 9.17649H9.88232C10.0695 9.17649 10.2491 9.25089 10.3815 9.38324L11.4641 10.4658L14.1176 9.40449V6.84983C14.1176 6.12906 14.0014 5.41301 13.7735 4.7293L12.8666 2.0087L10.7423 1.50886L10.128 2.4918C9.99901 2.69818 9.77277 2.82356 9.52938 2.82356H5.99998C5.7566 2.82356 5.53039 2.69818 5.4014 2.4918L4.78706 1.50886L2.66274 2.0087ZM10.2353 6.00004C10.0404 6.00004 9.88234 6.15809 9.88234 6.35298C9.88234 6.54788 10.0404 6.70592 10.2353 6.70592C10.4302 6.70592 10.5882 6.54788 10.5882 6.35298C10.5882 6.15809 10.4302 6.00004 10.2353 6.00004ZM8.47058 6.35298C8.47058 5.37838 9.26067 4.58828 10.2353 4.58828C11.2099 4.58828 12 5.37838 12 6.35298C12 7.32759 11.2099 8.11769 10.2353 8.11769C9.26067 8.11769 8.47058 7.32759 8.47058 6.35298ZM4.94114 6.35298C4.94114 6.15809 5.09916 6.00004 5.29408 6.00004C5.489 6.00004 5.64702 6.15809 5.64702 6.35298C5.64702 6.54788 5.489 6.70592 5.29408 6.70592C5.09916 6.70592 4.94114 6.54788 4.94114 6.35298ZM5.29408 4.58828C4.31946 4.58828 3.52938 5.37838 3.52938 6.35298C3.52938 7.32759 4.31946 8.11769 5.29408 8.11769C6.26869 8.11769 7.05878 7.32759 7.05878 6.35298C7.05878 5.37838 6.26869 4.58828 5.29408 4.58828Z"
        fill="white" />
</svg>
    