<svg width="19" height="20" viewBox="0 0 19 20" fill="none" xmlns="http://www.w3.org/2000/svg">
    <path fill-rule="evenodd" clip-rule="evenodd"
        d="M16.0029 4.92815V11.1782C17.3122 12.0342 18.1818 13.5166 18.1818 15.2023C18.1818 17.8477 16.0441 20 13.4166 20C11.7423 20 10.2699 19.1244 9.41966 17.8062H3.21194C1.44073 17.8062 0 16.3557 0 14.5724V4.92815C0 3.14488 1.44073 1.69434 3.21194 1.69434H4.0558V0.714286C4.0558 0.319824 4.37346 0 4.76525 0C5.15705 0 5.47471 0.319824 5.47471 0.714286V1.69434H10.5282V0.714286C10.5282 0.319824 10.8458 0 11.2376 0C11.6294 0 11.9471 0.319824 11.9471 0.714286V1.69434H12.7909C14.5622 1.69434 16.0029 3.14488 16.0029 4.92815ZM10.0699 15.2023C10.0699 17.0602 11.5712 18.5714 13.4166 18.5714C15.2619 18.5714 16.7629 17.0602 16.7629 15.2023C16.7629 13.3444 15.2619 11.8328 13.4166 11.8328C11.5712 11.8328 10.0699 13.3444 10.0699 15.2023ZM12.7909 3.12291H3.21194C2.22328 3.12291 1.41891 3.93276 1.41891 4.92815V5.64732H14.584V4.92815C14.584 3.93276 13.7796 3.12291 12.7909 3.12291ZM1.41891 14.5724C1.41891 15.5678 2.22328 16.3777 3.21194 16.3777H8.80165C8.70687 16.0008 8.65097 15.6084 8.65097 15.2023C8.65097 12.5565 10.7887 10.4042 13.4166 10.4042C13.82 10.4042 14.2096 10.4605 14.584 10.5559V7.07589H1.41891V14.5724ZM13.558 15.9156C13.3614 15.8361 13.2081 15.774 13.1643 15.7608C12.9027 15.6579 12.7275 15.3799 12.7275 15.0678V13.4611C12.7275 13.0559 13.019 12.7273 13.3785 12.7273C13.738 12.7273 14.0294 13.0559 14.0294 13.4611V14.5464L15.0179 14.9352C15.3574 15.0689 15.5366 15.4874 15.4184 15.8697C15.3246 16.1725 15.0729 16.362 14.8037 16.3624C14.7185 16.3852 14.0191 16.1022 13.558 15.9156Z"
        fill="#65CCC6" />
</svg>
    