<svg width="21" height="20" viewBox="0 0 21 20" fill="none" xmlns="http://www.w3.org/2000/svg">
    <path fill-rule="evenodd" clip-rule="evenodd"
        d="M9.49784 18H2.93466C1.31675 18 0 16.5221 0 14.7058V4.54105V4.53993C0 3.85759 0.185199 3.22297 0.501866 2.6963C1.02985 1.8177 1.92338 1.23901 2.93466 1.23901H3.6597V0.764306C3.6597 0.342221 3.96352 0 4.33897 0C4.71443 0 5.01824 0.342221 5.01824 0.764306V1.23901H10.9798V0.764306C10.9798 0.342221 11.2836 0 11.659 0C12.0345 0 12.3383 0.342221 12.3383 0.764306V1.23901H13.0653C14.6833 1.23901 16 2.72023 16 4.54105V8.1312C16 8.55328 15.6962 8.89551 15.3207 8.89551C14.9453 8.89551 14.6415 8.55328 14.6415 8.1312V6.57796H1.35854V14.7058C1.35854 15.6795 2.06567 16.4714 2.93466 16.4714H9.49784C9.8733 16.4714 10.1771 16.8136 10.1771 17.2357C10.1771 17.6578 9.8733 18 9.49784 18ZM1.35854 5.04935H14.6401V4.53993C14.6401 3.56402 13.9343 2.77024 13.0667 2.77024H12.3383V3.24755C12.3383 3.66964 12.0345 4.01186 11.659 4.01186C11.2836 4.01186 10.9798 3.66964 10.9798 3.24755V2.77024H5.01824V3.24755C5.01824 3.66964 4.71443 4.01186 4.33897 4.01186C3.96352 4.01186 3.6597 3.66964 3.6597 3.24755V2.77024H2.93134C2.38968 2.77024 1.91099 3.08013 1.62794 3.55059C1.45792 3.83361 1.35854 4.17453 1.35854 4.54105V5.04935ZM20.6177 13.426C20.8335 14.0896 20.6571 14.8047 20.1574 15.2915L19.1618 16.2621C19.0982 16.3238 19.0687 16.4132 19.0839 16.5003L19.3193 17.8702C19.4374 18.5588 19.1596 19.241 18.5948 19.6509C18.0307 20.0605 17.2963 20.1139 16.6785 19.7887L15.4483 19.1422C15.3695 19.1013 15.2749 19.1005 15.1977 19.1422L13.9674 19.7891C13.6986 19.9303 13.4079 19.9999 13.1187 19.9999C12.7431 19.9999 12.3699 19.8826 12.0511 19.6509C11.4863 19.241 11.2085 18.5588 11.3266 17.8706L11.5613 16.5006C11.5764 16.4128 11.5477 16.3242 11.4841 16.2625L10.4877 15.2919C9.98805 14.804 9.8124 14.0889 10.0282 13.4253C10.2439 12.7621 10.8065 12.2877 11.4969 12.1874L12.8726 11.9876C12.9604 11.9751 13.0361 11.9198 13.0755 11.8403L13.691 10.5934C13.9999 9.96799 14.6245 9.57922 15.3226 9.57922C16.0206 9.57922 16.6452 9.96799 16.9541 10.5937L17.5697 11.8399C17.609 11.9198 17.6847 11.9751 17.7733 11.9876L19.1482 12.1874C19.8394 12.2877 20.402 12.7625 20.6177 13.426ZM17.556 16.763C17.4546 16.1728 17.6499 15.5705 18.0792 15.1519L19.0748 14.1813C19.1792 14.0798 19.1626 13.9647 19.1429 13.9053C19.124 13.8459 19.0695 13.7429 18.9256 13.7221L17.55 13.5222C16.9564 13.4355 16.4446 13.0634 16.1796 12.5262L15.5641 11.28C15.4997 11.1491 15.3854 11.1298 15.3226 11.1298C15.2605 11.1298 15.1454 11.1491 15.0811 11.2797L14.4655 12.5266C14.2006 13.0634 13.6888 13.4359 13.0952 13.5222L11.7195 13.7221C11.5757 13.7429 11.5219 13.8455 11.5022 13.9049C11.4833 13.9647 11.4659 14.0798 11.5704 14.1816L12.566 15.1515C12.9952 15.569 13.1913 16.1717 13.0891 16.763L12.8544 18.1326C12.8302 18.2764 12.9112 18.3597 12.9619 18.3964C13.0127 18.4331 13.1187 18.4839 13.2451 18.4169L14.4761 17.7695C15.0061 17.4909 15.639 17.4909 16.169 17.7695L17.4001 18.4165C17.5295 18.4846 17.6332 18.4331 17.684 18.3964C17.7347 18.3597 17.8157 18.2764 17.7915 18.1326L17.556 16.763Z"
        fill="#8A96FF" />
</svg>
    