<svg width="11" height="13" viewBox="0 0 11 13" fill="none" xmlns="http://www.w3.org/2000/svg">
    <path
        d="M6.14714 0.25578C5.78921 -0.0852604 5.20793 -0.0852605 4.84999 0.25578L0.26845 4.6211C-0.0894835 4.96214 -0.0894835 5.51599 0.26845 5.85703C0.626383 6.19808 1.20767 6.19808 1.5656 5.85703L4.58369 2.97865L4.58369 11.3492C4.58369 11.8321 4.99317 12.2222 5.5 12.2222C6.00683 12.2222 6.41631 11.8321 6.41631 11.3492L6.41631 2.98138L9.4344 5.85431C9.79233 6.19535 10.3736 6.19535 10.7315 5.85431C11.0895 5.51327 11.0895 4.95942 10.7315 4.61838L6.15001 0.253052L6.14714 0.25578Z"
        fill="#65CC7C" />
</svg>
    