<svg xmlns="http://www.w3.org/2000/svg" width="55" height="54" viewBox="0 0 55 54" fill="none">
  <path fill-rule="evenodd" clip-rule="evenodd" d="M27.5818 0.81435L28.2734 0.844422L28.2895 0.453487L28.9811 0.483559L28.9671 0.858456L29.6467 0.900557L29.6748 0.525659L30.3825 0.583799L30.3384 0.958696L31.018 1.04691L31.0741 0.670005L31.7678 0.77225L31.7096 1.14715L32.3732 1.26342L32.4454 0.900557L33.1391 1.03087L33.0528 1.39173L33.7305 1.55011L33.8167 1.18925L34.4963 1.34963L34.3941 1.71049L35.0597 1.91298L35.1739 1.55011L35.8375 1.7526L35.7232 2.11346L36.3728 2.32998L36.5031 1.98315L37.1667 2.2157L37.0224 2.56253L37.6579 2.83519L37.8022 2.47432L38.4518 2.74898L38.2914 3.09581L38.9129 3.39853L39.0873 3.0517L39.7208 3.35443L39.5344 3.68722L40.1398 4.02002L40.3283 3.68722L40.9477 4.02002L40.7473 4.35081L41.3387 4.71168L41.5392 4.38088L42.1326 4.75578L41.9301 5.07254L42.4934 5.46348L42.71 5.14471L43.2873 5.54968L43.0708 5.85241L43.6181 6.27141L43.8507 5.96868L44.398 6.40172L44.1534 6.69041L44.6867 7.13748L44.9333 6.84879L45.4666 7.30989L45.2059 7.58455L45.7111 8.06169L45.9718 7.78704L46.477 8.26418L46.2023 8.53683L46.6795 9.02801L46.9541 8.76939L47.4433 9.28863L47.1546 9.53321L47.6037 10.0525L47.8924 9.80787L48.3535 10.3432L48.0507 10.5877L48.4697 11.1371L48.7725 10.9045L49.2055 11.4538L48.8867 11.6703L49.2777 12.2477L49.5944 12.0312L49.9994 12.6086L49.6666 12.8111L50.0275 13.4025L50.3603 13.2L50.7211 13.8074L50.3883 13.9939L50.7211 14.5993L51.0539 14.4129L51.3847 15.0344L51.0539 15.2068L51.3426 15.8283L51.6874 15.6539L51.9902 16.2894L51.6453 16.4478L51.904 17.0833L52.2648 16.9389L52.5254 17.5885L52.1786 17.7188L52.4092 18.3684L52.756 18.238L53.0026 18.9016L52.6257 19.0179L52.8282 19.6815L53.189 19.5813L53.3915 20.2448L53.0307 20.3451L53.189 21.0087L53.5499 20.9225L53.7243 21.6021L53.3474 21.6883L53.4777 22.3659L53.8386 22.2937L53.9689 22.9874L53.594 23.0455L53.6942 23.7232L54.0691 23.6811L54.1574 24.3727L53.7804 24.4028L53.8386 25.0945L54.2135 25.0664L54.2576 25.758L53.8827 25.7741L53.9108 26.4657H54.2857L54.3017 27.1594H53.9248L53.9108 27.8511H54.2857L54.2576 28.5587L53.8827 28.5307L53.8386 29.2243L54.2135 29.2524L54.1574 29.9601L53.7804 29.916L53.6942 30.5956L54.0691 30.6518L53.9689 31.3454L53.594 31.2732L53.4777 31.9509L53.8386 32.023L53.7083 32.7167L53.3474 32.6305L53.189 33.3081L53.5499 33.3943L53.3915 34.0739L53.0307 33.9717L52.8282 34.6373L53.189 34.7516L52.9865 35.4151L52.6257 35.3009L52.4092 35.9504L52.756 36.0807L52.5254 36.7443L52.1786 36.6L51.904 37.2355L52.2648 37.3799L51.9902 38.0294L51.6453 37.869L51.3426 38.4905L51.6874 38.6649L51.3847 39.2984L51.0539 39.112L50.7211 39.7174L51.0539 39.9059L50.7211 40.5254L50.3883 40.3249L50.0275 40.9163L50.3603 41.1168L49.9854 41.7102L49.6666 41.5077L49.2777 42.0711L49.5944 42.2876L49.1915 42.865L48.8867 42.6324L48.4697 43.1817L48.7725 43.4123L48.3394 43.9756L48.0507 43.731L47.6037 44.2643L47.8924 44.5109L47.4293 45.0442L47.1546 44.7836L46.6795 45.2888L46.9541 45.5494L46.477 46.0546L46.2023 45.78L45.7111 46.2571L45.9718 46.5318L45.4525 47.0209L45.2059 46.7322L44.6867 47.1813L44.9333 47.47L44.398 47.9311L44.1534 47.6284L43.6181 48.0474L43.8347 48.3501L43.2873 48.7831L43.0708 48.4644L42.4934 48.8553L42.71 49.1721L42.1326 49.563L41.9301 49.2442L41.3387 49.6051L41.5392 49.9379L40.9337 50.2988L40.7473 49.966L40.1398 50.2988L40.3283 50.6316L39.7068 50.9624L39.5344 50.6316L38.9129 50.9203L39.0873 51.2651L38.4518 51.5678L38.2914 51.223L37.6579 51.4816L37.8022 51.8425L37.1527 52.1031L37.0224 51.7422L36.3728 51.9728L36.5031 52.3336L35.8375 52.5642L35.7232 52.2033L35.0597 52.4058L35.1739 52.7667L34.4963 52.9692L34.3941 52.5943L33.7305 52.7667L33.8167 53.1275L33.1391 53.302L33.0528 52.925L32.3732 53.0413L32.4454 53.4162L31.7537 53.5465L31.7096 53.1716L31.018 53.2578L31.0601 53.6468L30.3684 53.735L30.3384 53.3581L29.6467 53.4022L29.6748 53.7911L28.9811 53.8352L28.9671 53.4603L28.2734 53.4744V53.8633L27.5818 53.8793V53.5024L26.8881 53.4744V53.8633L26.1804 53.8352L26.2105 53.4603L25.5168 53.4022L25.4887 53.7911L24.7811 53.735L24.8252 53.3581L24.1455 53.2578L24.0874 53.6327L23.3957 53.5465L23.4679 53.1716L22.7883 53.0413L22.7161 53.4162L22.0245 53.2859L22.1107 52.925L21.431 52.7667L21.3448 53.1275L20.6672 52.9692L20.7675 52.5943L20.1039 52.4058L19.9896 52.7667L19.324 52.5642L19.4403 52.2033L18.7907 51.9728L18.6604 52.3336L17.9968 52.1031L18.1412 51.7422L17.5056 51.4816L17.3613 51.8284L16.7117 51.5678L16.8701 51.223L16.2506 50.9203L16.0762 51.2651L15.4407 50.9624L15.6292 50.6316L15.0217 50.2988L14.8353 50.6316L14.2138 50.2988L14.4163 49.966L13.8248 49.6051L13.6224 49.9379L13.0309 49.563L13.2334 49.2442L12.6701 48.8553L12.4536 49.1721L11.8762 48.7691L12.1067 48.4644L11.5594 48.0474L11.3269 48.3501L10.7655 47.9171L11.0101 47.6284L10.4748 47.1813L10.2302 47.47L9.69696 47.0069L9.95558 46.7322L9.45037 46.2571L9.19175 46.5318L8.68654 46.0546L8.95919 45.78L8.48406 45.2888L8.2094 45.5494L7.71822 45.0302L8.00692 44.7836L7.55984 44.2643L7.27115 44.5109L6.81005 43.9616L7.11277 43.731L6.69377 43.1817L6.39105 43.4123L5.95801 42.865L6.27477 42.6324L5.88584 42.0711L5.56708 42.2876L5.17815 41.7102L5.4949 41.5077L5.13404 40.9163L4.80325 41.1168L4.44238 40.5113L4.77318 40.3249L4.44238 39.7174L4.10959 39.9059L3.77679 39.2844L4.10959 39.112L3.8209 38.4905L3.47407 38.6489L3.17134 38.0134L3.51817 37.869L3.25755 37.2355L2.91072 37.3799L2.63807 36.7303L2.99893 36.6L2.76838 35.9504L2.40551 36.0807L2.17496 35.4151L2.53582 35.3009L2.33534 34.6373L1.97247 34.7375L1.77199 34.0739L2.14689 33.9717L1.97247 33.3081L1.61161 33.3943L1.45323 32.7027L1.8141 32.6305L1.69982 31.9509L1.32292 32.023L1.19461 31.3314L1.56951 31.2732L1.4833 30.5956L1.1064 30.6377L1.00616 29.9461L1.38106 29.916L1.33896 29.2243L0.948023 29.2524L0.905922 28.5447L1.28082 28.5307L1.26679 27.8511H0.87585L0.861816 27.1594H1.23671L1.26679 26.4657L0.87585 26.4517L0.905922 25.758L1.28082 25.7741L1.33896 25.0945L0.948023 25.0664L1.00616 24.3587L1.38106 24.4028L1.4833 23.7232L1.1064 23.665L1.19461 22.9734L1.56951 23.0455L1.69982 22.3659L1.32292 22.2937L1.45323 21.6021L1.8141 21.6883L1.97247 21.0087L1.61161 20.9225L1.77199 20.2448L2.14689 20.3451L2.33534 19.6815L1.97247 19.5672L2.17496 18.9016L2.53582 19.0179L2.76838 18.3684L2.40551 18.238L2.63807 17.5745L2.99893 17.7188L3.25755 17.0833L2.91072 16.9389L3.17134 16.2894L3.51817 16.4478L3.8209 15.8283L3.47407 15.6539L3.77679 15.0183L4.10959 15.2068L4.44238 14.5993L4.10959 14.4129L4.44238 13.7914L4.77318 13.9939L5.13404 13.4025L4.80325 13.2L5.17815 12.6086L5.4949 12.8111L5.88584 12.2477L5.56708 12.0312L5.97204 11.4538L6.27477 11.6703L6.69377 11.1371L6.39105 10.8905L6.82408 10.3432L7.11277 10.5877L7.55984 10.0525L7.27115 9.80787L7.73226 9.2746L8.00692 9.53321L8.48406 9.02801L8.2094 8.76939L8.70057 8.26418L8.95919 8.53683L9.45037 8.06169L9.19175 7.78704L9.71099 7.29586L9.95558 7.58455L10.4748 7.13748L10.2302 6.84879L10.7795 6.38769L11.0101 6.69041L11.5594 6.27141L11.3269 5.96868L11.8762 5.53565L12.1067 5.85241L12.6701 5.46348L12.4536 5.14471L13.0309 4.74175L13.2334 5.07254L13.8248 4.71168L13.6224 4.38088L14.2298 4.02002L14.4163 4.35081L15.0217 4.02002L14.8353 3.68722L15.4567 3.35443L15.6292 3.68722L16.2506 3.39853L16.0903 3.0517L16.7258 2.74898L16.8701 3.09581L17.5056 2.83519L17.3613 2.47432L18.0109 2.2157L18.1412 2.56253L18.7907 2.32998L18.6744 1.98315L19.324 1.73856L19.4403 2.11346L20.1039 1.91298L20.0036 1.55011L20.6672 1.34963L20.7675 1.71049L21.431 1.55011L21.3448 1.18925L22.0385 1.01683L22.1107 1.39173L22.7883 1.26342L22.7161 0.900557L23.4098 0.77225L23.4679 1.14715L24.1455 1.04691L24.1034 0.670005L24.7951 0.583799L24.8252 0.958696L25.5168 0.900557L25.4887 0.525659L26.1964 0.483559L26.2105 0.858456L26.8881 0.844422V0.453487L27.5818 0.439453V0.81435Z" fill="#AD7F27"/>
  <path fill-rule="evenodd" clip-rule="evenodd" d="M27.5818 1.7666C32.604 1.7666 37.5134 3.25586 41.6893 6.04606C45.8651 8.83625 49.1197 12.8021 51.0416 17.442C52.9636 22.0819 53.4664 27.1875 52.4866 32.1133C51.5069 37.039 49.0884 41.5635 45.5372 45.1148C41.9859 48.666 37.4614 51.0844 32.5357 52.0642C27.61 53.044 22.5043 52.5411 17.8644 50.6192C13.2245 48.6973 9.25867 45.4426 6.46848 41.2668C3.67829 37.091 2.18903 32.1816 2.18903 27.1594C2.18745 23.8243 2.84317 20.5216 4.11872 17.4401C5.39426 14.3586 7.26462 11.5587 9.62287 9.20045C11.9811 6.8422 14.781 4.97184 17.8625 3.69629C20.944 2.42075 24.2467 1.76502 27.5818 1.7666Z" fill="#EAAA15" stroke="#DFB01C" stroke-miterlimit="10"/>
  <path d="M27.5816 47.7586C38.9583 47.7586 48.1809 38.536 48.1809 27.1594C48.1809 15.7827 38.9583 6.56006 27.5816 6.56006C16.2049 6.56006 6.9823 15.7827 6.9823 27.1594C6.9823 38.536 16.2049 47.7586 27.5816 47.7586Z" fill="#B98923" stroke="#B98923" stroke-width="0.5" stroke-miterlimit="10"/>
  <path fill-rule="evenodd" clip-rule="evenodd" d="M27.5816 7.03711C31.5614 7.03711 35.4518 8.21725 38.7609 10.4283C42.07 12.6394 44.6491 15.782 46.1721 19.4588C47.6951 23.1357 48.0935 27.1816 47.3171 31.0849C46.5407 34.9882 44.6243 38.5736 41.8101 41.3878C38.996 44.2019 35.4106 46.1184 31.5073 46.8948C27.6039 47.6712 23.5581 47.2727 19.8812 45.7497C16.2044 44.2267 13.0617 41.6476 10.8507 38.3385C8.63962 35.0295 7.45947 31.139 7.45947 27.1593C7.45921 24.5167 7.97951 21.9 8.99064 19.4585C10.0018 17.0171 11.484 14.7987 13.3525 12.9302C15.2211 11.0616 17.4394 9.57942 19.8809 8.56828C22.3223 7.55714 24.9391 7.03685 27.5816 7.03711Z" fill="#EAAA15" stroke="#EAAA15" stroke-width="0.5" stroke-miterlimit="10"/>
  <path fill-rule="evenodd" clip-rule="evenodd" d="M2.96445 25.4273L3.54184 25.4413L3.5278 25.8744L5.80926 25.9465L5.79322 26.6823L3.49773 26.6242V27.0572L2.92035 27.0432L2.96445 25.4273ZM3.15291 23.8535L6.03981 23.7814L5.93757 24.5472L5.41833 24.5171L5.39026 24.7777L5.89547 24.892L5.79322 25.6438L3.00856 24.9221L3.15291 23.8535ZM4.92715 24.475C4.59636 24.475 4.19139 24.459 3.72427 24.4309C4.25755 24.5753 4.64648 24.6755 4.89307 24.7196L4.92715 24.475ZM4.36781 21.7605L4.25153 22.4381L4.03502 22.4101C3.97441 22.3931 3.91104 22.3883 3.84857 22.396C3.8185 22.4101 3.80446 22.4381 3.79043 22.4823C3.7764 22.5264 3.79043 22.5544 3.83253 22.5825C3.87188 22.6211 3.92238 22.6464 3.97688 22.6547C4.05353 22.671 4.13278 22.671 4.20943 22.6547C4.28415 22.6016 4.35156 22.5389 4.40991 22.4682C4.57394 22.2569 4.77839 22.0804 5.01135 21.949C5.21162 21.882 5.42736 21.8764 5.63084 21.9329C5.77933 21.95 5.92232 21.9993 6.04984 22.0773C6.14906 22.1593 6.21934 22.2711 6.25032 22.396C6.2855 22.5525 6.2855 22.7148 6.25032 22.8712C6.22497 23.0469 6.16058 23.2148 6.06187 23.3624C5.97669 23.467 5.8611 23.5427 5.73108 23.5789C5.56223 23.5956 5.39182 23.5861 5.22587 23.5508L5.03742 23.5207L5.16773 22.8431L5.49852 22.9013C5.56803 22.9257 5.64295 22.9306 5.71504 22.9153C5.73373 22.9064 5.7493 22.8921 5.75968 22.8742C5.77006 22.8563 5.77477 22.8357 5.77318 22.815C5.7797 22.795 5.78053 22.7735 5.77557 22.7529C5.77062 22.7324 5.76007 22.7137 5.74511 22.6988C5.69384 22.6629 5.63324 22.6427 5.57069 22.6406C5.46353 22.6037 5.34707 22.6037 5.2399 22.6406C5.18176 22.6847 5.08152 22.785 4.92114 22.9434C4.82085 23.0553 4.71008 23.1573 4.59035 23.2481C4.51866 23.3057 4.43402 23.3449 4.34376 23.3624C4.21886 23.3781 4.09223 23.3733 3.96886 23.3483C3.80257 23.3328 3.64342 23.2733 3.50775 23.1759C3.41719 23.0944 3.3518 22.9886 3.3193 22.8712C3.2911 22.7188 3.2911 22.5625 3.3193 22.4101C3.34053 22.2452 3.39953 22.0874 3.49172 21.949C3.55841 21.8428 3.66192 21.765 3.78241 21.7305C3.94001 21.7004 4.10233 21.7059 4.25755 21.7465L4.36781 21.7605ZM4.15129 19.3548L5.27599 20.1206L6.90789 20.0925L6.70741 20.8283L5.43837 20.7862L6.62121 21.133L6.42073 21.8407L3.67816 21.0609L3.87864 20.3532L4.9472 20.6559L3.96685 20.0143L4.15129 19.3548ZM4.55225 18.2L4.85698 17.5224C4.93007 17.3588 5.02154 17.2041 5.12964 17.0613C5.21651 16.9732 5.32735 16.9125 5.4484 16.8869C5.6343 16.8846 5.81774 16.9295 5.98167 17.0172C6.10254 17.0488 6.20619 17.1265 6.27037 17.2337C6.31434 17.3395 6.31932 17.4574 6.2844 17.5665C6.35967 17.4536 6.47266 17.3711 6.60316 17.3339C6.74887 17.3128 6.89736 17.344 7.02216 17.4221L7.25272 17.5224C7.39375 17.5761 7.52159 17.6595 7.62761 17.767C7.68612 17.841 7.71664 17.9333 7.71382 18.0276C7.67264 18.2235 7.60521 18.413 7.51334 18.5909L7.17453 19.3648L4.55225 18.2ZM5.30405 17.7249L5.88544 17.9795C5.89948 17.9514 5.91351 17.9374 5.91351 17.9073C5.91351 17.8772 5.95762 17.8071 5.92755 17.763C5.84635 17.6984 5.75391 17.6495 5.65489 17.6186C5.60187 17.5867 5.54217 17.5675 5.48048 17.5625C5.44923 17.5606 5.41845 17.5707 5.39427 17.5905C5.37021 17.6026 5.35016 17.6467 5.30806 17.7189L5.30405 17.7249ZM6.30645 18.1719L7.02818 18.5047C7.06294 18.444 7.07767 18.3738 7.07028 18.3043C7.05625 18.2601 6.98407 18.218 6.88383 18.1739L6.63724 18.0577C6.52297 18.0156 6.4508 17.9855 6.42073 18.0015C6.36755 18.0446 6.32731 18.1014 6.30445 18.1659L6.30645 18.1719ZM6.21824 14.7638L7.92232 15.6299C8.05789 15.6962 8.18795 15.7733 8.31125 15.8604C8.39128 15.9214 8.45584 16.0004 8.4997 16.091C8.54819 16.1948 8.56825 16.3096 8.55784 16.4238C8.55308 16.5612 8.51304 16.6952 8.44156 16.8127C8.37811 16.9537 8.28352 17.0784 8.1649 17.1776C8.06958 17.2605 7.95636 17.3202 7.83411 17.352C7.72692 17.3646 7.61828 17.3543 7.51535 17.3219C7.42914 17.2798 7.24269 17.1916 6.954 17.0472L5.43837 16.2694L5.7832 15.6198L7.68976 16.5761C7.75674 16.6165 7.82988 16.6456 7.90628 16.6623C7.91457 16.6665 7.92373 16.6687 7.93302 16.6688C7.94232 16.6689 7.9515 16.6668 7.95986 16.6627C7.96821 16.6586 7.9755 16.6527 7.98116 16.6453C7.98683 16.6379 7.9907 16.6293 7.99249 16.6202C7.99838 16.6126 8.0027 16.6039 8.00519 16.5946C8.00768 16.5854 8.00829 16.5757 8.00698 16.5661C8.00567 16.5566 8.00248 16.5475 7.99758 16.5392C7.99268 16.5309 7.98618 16.5237 7.97845 16.518C7.90959 16.4587 7.83178 16.4106 7.7479 16.3756L5.87141 15.4234L6.21824 14.7638ZM7.43114 12.8873L9.8369 14.431L9.48005 14.9723L8.17693 14.6014L9.27355 15.3071L8.92672 15.8283L6.535 14.2826L6.86579 13.7694L8.17693 14.1102L7.09434 13.4166L7.43114 12.8873ZM8.80243 11.1391L11.0538 12.9013L10.6529 13.4065L9.39585 12.9154L10.3982 13.7173L10.0233 14.1944L7.77597 12.4342L8.1649 11.9651L9.43594 12.4262L8.41149 11.6243L8.80243 11.1391ZM10.2739 9.55933L11.2262 11.2033L11.962 11.925L11.5009 12.4162L10.7491 11.7085L9.07508 10.8284L9.53618 10.3372C9.86207 10.5341 10.1754 10.751 10.4744 10.9867C10.288 10.7422 10.0735 10.4254 9.81084 10.0485L10.2739 9.55933Z" fill="#05091E"/>
  <path fill-rule="evenodd" clip-rule="evenodd" d="M20.2062 29.3386H26.1084V36.167H20.2062V29.3386Z" fill="#054767"/>
  <path d="M26.1581 36.2229H20.1537V29.2883H26.1681L26.1581 36.2229ZM20.2539 36.1227H26.0678V29.3886H20.2539V36.1227Z" fill="#373435"/>
  <path fill-rule="evenodd" clip-rule="evenodd" d="M30.8435 29.2083H36.5893V36.0366H30.8435V29.2083Z" fill="#30B6CA"/>
  <path d="M36.6453 36.0868H30.7933V29.1582H36.6453V36.0868ZM30.8996 35.9865H36.5451V29.2584H30.8936L30.8996 35.9865Z" fill="#373435"/>
  <path fill-rule="evenodd" clip-rule="evenodd" d="M22.5881 21.949L24.4626 22.6847L25.3307 24.2284L22.6162 24.9081L22.5881 21.949Z" fill="#47D7DA"/>
  <path fill-rule="evenodd" clip-rule="evenodd" d="M17.1727 12.4061L19.2517 12.1755L21.1001 15.6839L18.9049 18.7713L17.9666 16.2032L17.1727 12.4061Z" fill="#F5324F"/>
  <path fill-rule="evenodd" clip-rule="evenodd" d="M17.3336 13.7352L17.101 9.46094L18.5044 11.1069L20.006 13.23C18.8913 12.6365 17.4338 11.8867 17.3336 13.7352Z" fill="#6F0930"/>
  <path fill-rule="evenodd" clip-rule="evenodd" d="M21.9947 17.849L22.111 15.1064L22.3415 17.6024L23.1074 20.8642L23.7429 24.3305L23.5264 24.5029L23.2517 24.2283L21.9947 17.849Z" fill="#E8FAF8"/>
  <path fill-rule="evenodd" clip-rule="evenodd" d="M17.1169 15.8563L17.5059 15.323L18.4301 17.5283L19.5127 19.91L23.2216 24.7215L22.7163 24.9681C20.1763 22.2516 17.3756 18.5267 17.1169 15.8563Z" fill="#30B6CA"/>
  <path fill-rule="evenodd" clip-rule="evenodd" d="M16.8118 16.4338L17.1166 15.8564L22.716 24.9803L22.0103 24.6334L18.9209 21.2413L17.6639 19.5954L16.8118 16.4338Z" fill="#97E1E0"/>
  <path fill-rule="evenodd" clip-rule="evenodd" d="M18.4298 17.5301L20.9418 15.1204L23.2213 24.1279L22.8744 24.4166L21.2445 22.5822L19.8292 20.7198L18.4298 17.5301Z" fill="#C7023B"/>
  <path fill-rule="evenodd" clip-rule="evenodd" d="M17.0006 8.35034L23.2516 14.4991L22.0667 14.7737L17.0006 8.35034Z" fill="#054767"/>
  <path d="M22.0462 14.8298L16.96 8.38037L17.0362 8.31421L23.3513 14.5291L22.0462 14.8298ZM17.5334 8.94372L22.0863 14.7175L23.1508 14.4709L17.5334 8.94372Z" fill="#054767"/>
  <path fill-rule="evenodd" clip-rule="evenodd" d="M24.7947 21.1529L24.3757 14.3827L16.2502 6.82056L16.5089 7.48414L17.5494 8.86946L23.251 14.4989L22.0241 14.8157L22.1103 15.0903L23.5678 14.7295L24.0309 21.0085L24.7947 21.1529Z" fill="#46CAD7"/>
  <path d="M24.8488 21.2152L23.9828 21.0508L23.5217 14.7938L22.0762 15.1507L21.9599 14.7818L23.1628 14.473L17.5133 8.90571L16.4628 7.50236L16.1219 6.63428L24.4258 14.3708V14.3908L24.8488 21.2152ZM24.077 20.9666L24.7406 21.0929L24.3276 14.4069L16.3766 7.00717L16.553 7.46025L17.5995 8.83955L23.3593 14.5252L22.0983 14.8519L22.1544 15.0304L23.6139 14.6675L24.077 20.9666Z" fill="#46CAD7"/>
  <path fill-rule="evenodd" clip-rule="evenodd" d="M22.8909 14.8901L23.5685 14.7297L24.0737 21.0088H23.7269L22.8909 14.8901Z" fill="#052747"/>
  <path fill-rule="evenodd" clip-rule="evenodd" d="M22.0966 15.1207L22.8985 14.8901L23.7506 20.8364L23.49 22.9013C23.7488 22.9881 23.98 23.142 24.16 23.3474C24.34 23.5527 24.4623 23.8021 24.5144 24.0701L23.7506 24.3307L23.1151 20.8644L22.3492 17.6026L22.0966 15.1207Z" fill="#054767"/>
  <path fill-rule="evenodd" clip-rule="evenodd" d="M16.1929 9.5192L16.3954 6.96509L16.5096 7.48433L18.6167 10.7602L19.6131 12.5645L17.101 9.46106L16.1929 9.5192Z" fill="#E8FAF8"/>
  <path fill-rule="evenodd" clip-rule="evenodd" d="M18.7184 10.9625L16.5091 7.48413L21.9802 14.7595L22.1105 15.1064L21.9802 18.2379L20.7533 14.6874L18.7184 10.9625Z" fill="#39CAD8"/>
  <path fill-rule="evenodd" clip-rule="evenodd" d="M16.4809 9.50517L16.8418 9.4751L17.5053 15.3231L16.8418 16.2313L16.3506 12.9554L16.4809 9.50517Z" fill="#6DAEB4"/>
  <path d="M22.6818 25.7681L22.4813 25.5676L21.7115 24.7657C20.266 23.2781 18.9047 21.8727 17.4152 19.7677C17.3144 19.5873 17.2466 19.3905 17.2147 19.1863C17.2007 19.1302 17.1886 19.0821 17.1786 19.046C16.1762 16.137 15.7352 11.6723 15.9537 6.81672L15.9777 6.15112L24.6685 14.2385L25.3 24.3507L25.0434 24.4028C24.1393 24.5852 23.4516 25.0985 22.8983 25.5756L22.6818 25.7681ZM16.525 7.48632C16.3807 11.965 16.8318 16.1751 17.746 18.8635C17.762 18.9157 17.778 18.9738 17.7941 19.042C17.8219 19.1705 17.8601 19.2965 17.9084 19.4189C19.3678 21.4878 20.7151 22.8771 22.1465 24.3467L22.7239 24.9481C23.2884 24.4591 23.9506 24.0962 24.6665 23.8836L24.0831 14.5272L16.525 7.48632Z" fill="#05091E"/>
  <path fill-rule="evenodd" clip-rule="evenodd" d="M18.1271 12.9111C20.1619 13.1116 21.7056 18.4544 21.0561 19.0037C19.0493 19.8116 18.3857 17.9352 18.1271 12.9111Z" fill="#E5273A"/>
  <path fill-rule="evenodd" clip-rule="evenodd" d="M17.289 9.67749C20.7252 13.0415 22.3852 18.266 23.0769 24.5471C22.0384 18.9156 20.3062 13.8214 17.289 9.67749Z" fill="#E5273A"/>
  <path d="M23.5097 25.2649L23.0866 24.882C18.4415 20.6659 16.5811 14.0441 16.7976 9.35888L16.8176 8.91382L17.1384 9.22456C21.6592 13.6171 22.4571 18.6471 23.3813 24.4831L23.5097 25.2649ZM17.1865 9.82801C17.1103 14.2426 18.8365 20.1848 22.9323 24.1944C22.0642 18.7193 21.2402 13.9699 17.1865 9.82801Z" fill="#05091E"/>
  <path fill-rule="evenodd" clip-rule="evenodd" d="M18.0393 12.2176L17.9391 11.8167C18.5405 13.1158 18.9415 14.6033 19.2963 16.1029C19.6853 17.7909 20.808 19.4509 21.4094 21.0528L21.0485 20.5616C18.6327 16.9529 18.719 14.7878 18.0393 12.2176Z" fill="#F8F7E5"/>
  <path fill-rule="evenodd" clip-rule="evenodd" d="M18.805 34.6213L19.3383 33.3944L23.8872 33.3663L28.8671 33.2801L34.5106 32.7749L37.2251 33.1919L40.0819 34.926L38.1473 34.6213L37.4256 34.8098L38.7247 36.1089L39.0876 39.1121L37.2251 37.6967L37.4416 39.6313L34.1056 41.8105L30.2384 43.3562L29.8194 44.1642L27.5239 46.1128L25.5893 46.4155L23.2356 45.4492L21.4313 43.9035L21.6057 41.0166L20.1342 40.2508L18.6166 38.7211L18.1996 36.9028L18.805 34.6213Z" fill="#AEB0AC"/>
  <path fill-rule="evenodd" clip-rule="evenodd" d="M34.5683 32.9611C36.7335 32.5281 38.7242 33.741 40.312 35.1664C39.2294 34.6892 37.9885 34.3865 36.978 34.6752C37.9804 34.8336 38.8846 35.844 39.2455 37.5922L37.5855 35.6275C38.6681 36.7261 39.0851 38.0974 39.1152 39.6371C38.9609 39.1598 38.7093 38.7197 38.3763 38.3446C38.0434 37.9695 37.6362 37.6676 37.1805 37.4579L37.5695 39.4206C35.4484 41.3412 33.1108 42.3796 30.4544 43.4482L30.3241 43.0593L29.7467 44.3143C27.6537 46.71 25.1858 47.7064 21.4308 43.8953C21.5331 42.5962 21.9521 41.5577 21.4308 40.878C19.1073 39.9839 17.4774 38.3821 18.5159 35.1904L20.4064 33.4663L34.5683 32.9611Z" fill="#AEB0AC"/>
  <path d="M26.0202 46.7463C24.5307 46.7463 22.9569 45.8842 21.2087 44.114L21.1125 44.0178L21.1225 43.8814C21.1526 43.4925 21.2107 43.1236 21.2628 42.7968C21.3751 42.0851 21.4633 41.5158 21.2268 41.1329C18.3058 39.9761 17.2933 37.9492 18.2196 35.1064L18.2456 35.0303L20.2765 33.1698L34.5226 32.6626C36.4271 32.2917 38.3838 33.0395 40.5049 34.9461L41.8962 36.1991L40.1821 35.4453C39.5265 35.1427 38.8254 34.9503 38.1072 34.8759C38.7768 35.4132 39.282 36.3374 39.5306 37.5343L39.7691 38.693L39.2158 38.0395C39.3354 38.5659 39.3993 39.1035 39.4063 39.6433L39.4403 41.4997L38.8209 39.7496C38.6007 39.0724 38.1719 38.4822 37.5959 38.0635L37.8886 39.5411L37.7623 39.6553C35.5811 41.6281 33.2094 42.6726 30.5571 43.7391L30.2884 43.8474L29.9917 44.4909L29.9637 44.525C28.6726 46.0025 27.4537 46.7102 26.1285 46.7483L26.0202 46.7463ZM21.74 43.7912C23.3639 45.4131 24.7993 46.1729 26.1165 46.1429C27.2532 46.1088 28.3217 45.4773 29.4885 44.1561L30.3646 42.2495L30.6333 43.0515C33.0611 42.0671 35.2443 41.0747 37.2391 39.3125L36.7659 36.9328L37.3052 37.1874C37.818 37.4213 38.2742 37.7632 38.6424 38.1898C38.5004 37.5501 38.2325 36.9449 37.8546 36.4096L37.3513 35.8081L37.7944 35.4072C37.991 35.6054 38.172 35.8185 38.3357 36.0447L38.3858 36.1048C38.0089 35.4593 37.5037 35.0543 36.9283 34.9621L35.5811 34.7516L36.8922 34.3767C37.5244 34.2167 38.1856 34.2098 38.8209 34.3567C37.3393 33.3402 35.958 32.9753 34.6228 33.242H34.5747L20.5251 33.7432L18.7749 35.347C17.973 37.8871 18.8531 39.5571 21.5355 40.5856L21.6157 40.6156L21.6678 40.6838C22.1149 41.2692 21.9986 42.011 21.8683 42.871C21.8202 43.1798 21.7741 43.4785 21.744 43.7912H21.74Z" fill="#05091E"/>
  <path fill-rule="evenodd" clip-rule="evenodd" d="M19.9738 35.1846C19.1719 35.7038 18.7469 37.2054 19.0215 37.5903C19.21 37.863 19.4826 38.4564 19.9457 38.4985C20.1623 38.5125 20.6534 38.1677 21.0283 37.9071C21.2449 37.7487 21.4754 37.7487 21.4894 37.5462C21.5476 36.9448 21.5476 36.6661 21.6057 36.7243L19.9738 35.1846Z" fill="#F5FCF3"/>
  <path fill-rule="evenodd" clip-rule="evenodd" d="M20.8977 34.1881L20.9979 33.4523L25.208 33.2939L24.376 33.6167C24.7617 33.8358 25.1164 34.1055 25.4306 34.4186C25.4747 34.4607 25.4165 34.6913 25.4586 34.7354C25.619 34.8657 25.8195 34.6492 25.9498 34.8076C26.022 34.8938 25.9498 35.2847 26.036 35.3569C26.1222 35.4291 26.3828 35.2847 26.455 35.3709C26.5272 35.4571 26.4129 35.5714 26.4991 35.6596C26.6575 35.7899 27.5516 35.6015 27.9566 35.6295C27.9804 35.6341 28.003 35.6433 28.0232 35.6567C28.0434 35.6701 28.0607 35.6874 28.0742 35.7075C28.0876 35.7277 28.0969 35.7503 28.1015 35.7741C28.1061 35.7979 28.1059 35.8223 28.1009 35.8461C28.0729 36.2069 27.299 36.8284 26.3407 37.2334C25.0557 37.7526 23.0208 37.8529 22.1968 36.9146L22.1387 36.4234L24.0593 34.2021L20.8977 34.1881Z" fill="#F5FCF3"/>
  <path fill-rule="evenodd" clip-rule="evenodd" d="M29.6286 35.7197C30.1197 35.3428 30.7412 35.0701 31.2464 34.7173C31.9822 34.2121 32.6317 33.6768 33.6702 33.6046C33.2349 33.5413 32.8173 33.3891 32.4433 33.1575C34.5363 33.0573 36.2123 33.2157 37.0924 33.9955C36.1822 34.3123 35.0575 34.3965 33.8587 34.4145C35.3302 35.0922 36.1822 36.0304 36.4288 37.2213L35.5046 36.5877C35.244 37.0047 35.2881 37.4237 35.0415 37.7906C33.975 39.2922 32.5455 40.2585 31.2164 41.2549C30.5087 41.7902 29.8751 42.3956 29.2396 42.9309C28.7237 43.3821 28.1734 43.7923 27.5937 44.1579C26.7276 44.6631 25.8174 44.9598 25.0676 44.9217C24.6206 44.8936 22.5416 44.3744 22.281 43.9834C22.1667 43.783 21.6795 44.4024 21.7176 44.2C21.7758 43.9253 21.2124 43.5083 21.4009 43.1314C21.7176 42.554 21.9642 42.2373 22.3391 42.0348C22.4414 42.8006 22.8163 42.9871 23.2774 43.2477C25.6831 44.633 29.1815 42.0067 29.9754 39.9137C30.8856 38.0512 31.8519 36.4775 32.9485 35.3809C32.1566 34.9097 31.0018 35.1122 29.6286 35.7197Z" fill="#F5FCF3"/>
  <path fill-rule="evenodd" clip-rule="evenodd" d="M19.7713 39.1681C20.1723 39.4427 20.5091 38.9676 20.9742 38.5346C21.2629 38.2599 21.6819 38.1336 21.9766 37.8409C21.9906 37.3497 21.8623 37.039 21.4573 36.5137L22.4397 36.3975C22.5259 36.3834 22.2512 36.5418 22.1791 36.7583C22.135 36.8746 22.2653 37.061 22.2653 37.1473C22.2621 37.2478 22.279 37.3481 22.315 37.442C22.3511 37.536 22.4055 37.6218 22.4752 37.6944C22.5448 37.7671 22.6283 37.8251 22.7206 37.865C22.813 37.905 22.9124 37.9261 23.0131 37.9271C23.1995 37.9412 23.5022 38.0294 23.7909 38.0434C24.5928 38.0855 25.6393 38.1436 25.9721 38.0133C26.4275 37.8678 26.8751 37.6992 27.3133 37.5081C28.1373 37.1192 29.0174 36.6721 29.7813 36.2671C30.8217 35.7038 31.7319 35.2647 32.6702 35.359C32.1209 35.5895 31.7319 35.5595 31.327 36.2812C30.7496 37.3357 30.4889 38.9676 29.9116 39.8617C29.3643 40.7278 28.859 41.624 28.2817 42.2013C26.9966 43.4844 25.1201 43.9756 23.807 43.6147C23.3739 43.5005 22.7524 43.2539 22.4778 42.8349C22.3334 42.6183 22.3635 42.3156 22.3334 42.0329L21.8282 42.3357L21.5836 40.9504L20.7015 40.2286C21.1506 40.1705 21.2368 39.8537 20.8759 39.7234C20.6611 39.6904 20.4433 39.681 20.2264 39.6954C19.9457 39.6893 20.076 39.2984 19.7713 39.1681Z" fill="#05091E"/>
  <path fill-rule="evenodd" clip-rule="evenodd" d="M29.8049 38.7931C29.7608 38.8653 29.7889 39.0097 29.6887 39.0959C29.5884 39.1821 29.3559 39.1259 29.3418 39.1981C29.3278 39.2703 29.6165 39.2703 29.6746 39.3705C29.7328 39.4708 29.5884 39.7033 29.5443 39.8036C29.2837 40.2366 28.9088 40.6997 28.6642 41.0606C28.2171 41.7101 27.5676 42.1131 26.9742 42.5461C25.8916 43.348 24.3198 43.6868 23.7424 43.1676C23.0628 41.9266 25.1458 40.2667 27.0904 39.3705C28.4256 38.751 29.7468 38.6067 29.8049 38.7931Z" fill="#D80545"/>
  <path fill-rule="evenodd" clip-rule="evenodd" d="M26.585 40.6335C26.585 41.4856 27.0461 41.8745 26.6291 42.2073C26.0276 42.6824 24.4338 42.8428 23.9426 42.496C23.7983 42.2795 24.4198 41.9327 25.1996 41.4715C25.6327 41.2189 26.0196 40.7719 26.585 40.6335Z" fill="#FA5165"/>
  <path fill-rule="evenodd" clip-rule="evenodd" d="M19.8876 34.3324L22.7885 34.0156L24.0596 34.2041L22.5299 34.8677L20.5091 35.4731L19.8876 34.3324Z" fill="#F4F5EA"/>
  <path fill-rule="evenodd" clip-rule="evenodd" d="M20.0318 34.5932C20.8698 34.8819 21.6637 34.8819 22.4135 34.4629C22.6882 34.3045 23.0931 34.4047 23.3959 34.2764L23.6845 34.0759L24.2319 34.3506L23.5402 35.0202L22.8125 35.2568L22.3794 36.2592L21.8802 36.624L20.7976 35.9163L20.0318 34.5932Z" fill="#D80545"/>
  <path fill-rule="evenodd" clip-rule="evenodd" d="M18.7763 28.8614L19.049 28.4143H20.5947L20.0453 27.851L21.8497 26.1048L24.0148 24.6333L25.33 24.2283L26.6431 23.9537L22.9182 21.3996L23.1628 21.153L25.6026 21.588L28.3312 23.0595L26.1239 20.8502L25.763 19.5371L25.8773 18.9597L28.692 20.9525L30.6407 23.8675L30.8151 22.1654L35.7088 22.9874L33.5136 25.4553L35.9394 27.029L37.0801 30.8401L19.2374 30.8682L18.7763 28.8614Z" fill="#46CAD7"/>
  <path fill-rule="evenodd" clip-rule="evenodd" d="M19.643 29.3828C21.4614 30.1045 21.9946 29.888 21.2869 28.7613C22.1249 28.9778 22.5439 29.7437 23.2376 29.5632C23.8571 29.4048 24.9397 28.236 25.6333 27.9895L25.1141 28.9918L26.3691 28.6751L30.527 27.1294L31.6517 27.1595C31.4793 27.5203 29.689 28.4145 31.6096 28.228L31.754 29.7717L27.4076 30.2088L20.7396 30.8864L19.643 29.3828Z" fill="#30B6CA"/>
  <path fill-rule="evenodd" clip-rule="evenodd" d="M38.2049 6.47388L39.5621 13.5328L38.2771 20.0143L33.3553 25.4553L37.0361 19.06L38.2189 14.8459L38.2049 6.47388Z" fill="#2EAAB7"/>
  <path fill-rule="evenodd" clip-rule="evenodd" d="M37.6139 6.24325L37.9888 5.2168C38.3588 7.08047 38.5429 8.97629 38.5381 10.8763C38.6103 13.9517 38.5662 17.0912 37.5357 19.5651C37.4495 19.7656 37.1027 19.8258 37.0025 20.0142C36.0089 21.9901 34.5672 23.7065 32.7924 25.0262C32.62 25.1425 32.4897 25.2006 32.3173 25.3149C38.2354 18.252 38.6825 14.5431 37.6139 6.24325Z" fill="#054767"/>
  <path fill-rule="evenodd" clip-rule="evenodd" d="M38.047 4.8418L37.8024 6.35742L36.1564 8.11964L32.8365 14.138L32.6921 14.7876L32.0987 15.0041L31.4933 24.4307L31.1043 24.2723L30.7575 23.9114L31.0883 14.1962L34.5245 8.59478L38.047 4.8418Z" fill="#F5FCF3"/>
  <path fill-rule="evenodd" clip-rule="evenodd" d="M37.6136 6.24341C39.3457 13.0276 38.4155 19.2626 33.4035 24.7196L31.527 24.2144L31.9881 15.0625C32.6377 14.7598 32.9565 14.4851 32.3891 14.2826C32.5755 13.7774 32.9504 13.4025 33.1529 12.9414C34.424 10.0245 35.7652 7.67082 37.6136 6.24341Z" fill="#47D7DA"/>
  <path fill-rule="evenodd" clip-rule="evenodd" d="M37.3971 7.42603L37.4974 8.2921L37.5555 9.5471L33.8747 14.0378L34.2075 12.9112L35.693 9.61927L37.3971 7.42603Z" fill="#920735"/>
  <path fill-rule="evenodd" clip-rule="evenodd" d="M33.5583 15.1346C34.7852 12.2176 36.1124 10.0825 37.5137 8.71924L37.7583 12.7028L37.4837 15.9806L36.8341 18.1799L35.7655 20.317L32.6782 22.3218L33.023 18.2801L33.5583 15.1346Z" fill="#D80545"/>
  <path fill-rule="evenodd" clip-rule="evenodd" d="M32.3308 24.4749L32.6616 22.5102C33.263 20.9364 33.9046 20.0282 34.6263 19.6232L35.1155 19.1321C36.3184 18.4825 35.5485 19.934 35.765 20.3169L34.3937 22.3899L33.0946 23.9636L32.3308 24.4749Z" fill="#D80545"/>
  <path fill-rule="evenodd" clip-rule="evenodd" d="M34.222 20.3854L34.8715 17.4543C34.442 18.2283 33.9441 18.9623 33.384 19.6476C33.4722 19.0702 33.7308 18.5951 33.8471 18.0598C34.6991 14.1204 35.9982 11.3337 36.72 11.5061C36.8342 15.2932 37.1811 17.3 34.222 20.3854Z" fill="#FD4956"/>
  <path fill-rule="evenodd" clip-rule="evenodd" d="M35.4769 15.5735C35.6212 15.6176 35.1882 17.2054 34.9717 17.1613C34.7552 17.1172 35.3486 15.5735 35.4769 15.5735Z" fill="#F4CCB1"/>
  <path fill-rule="evenodd" clip-rule="evenodd" d="M32.6479 24.1563C33.1776 22.7734 33.82 21.4364 34.5685 20.1587C34.3941 20.8223 34.2076 21.4999 34.0332 22.1635C33.947 22.5083 34.3219 22.38 34.6687 22.0191L33.095 23.9678L32.6479 24.1563Z" fill="#05091E"/>
  <path d="M31.4808 25.9245L31.9459 24.91C32.4291 23.8575 32.4712 22.6567 32.5113 21.5019C32.5293 20.9867 32.5494 20.4534 32.6075 19.9522C33.3593 13.5689 34.7487 9.77784 37.2466 7.28387L37.5133 7.02124L37.5854 7.38611C37.6718 7.90548 37.7128 8.43139 37.7077 8.95787C37.7077 9.33277 37.7198 9.68562 37.7538 9.98233C37.9263 11.7506 38.0626 13.4627 37.8561 15.0264C37.3348 18.6731 35.6127 21.7886 32.2707 25.1306L31.4808 25.9245ZM37.2587 7.85724C34.9972 10.2871 33.7182 13.9538 33.0065 19.9943C32.9483 20.4774 32.9323 20.9786 32.9123 21.5099C32.9137 22.4128 32.8155 23.313 32.6196 24.1943C35.4824 21.1611 36.984 18.2862 37.4591 14.9723C37.6596 13.4526 37.5253 11.7646 37.3569 10.0244C37.3224 9.67265 37.3057 9.31936 37.3068 8.96589C37.3008 8.59501 37.2947 8.21008 37.2587 7.85724Z" fill="#05091E"/>
  <path d="M21.9245 36.8245C21.4353 36.8245 20.3708 35.6658 20.028 35.2207C19.5809 34.6513 19.5749 34.4368 19.627 34.3025L19.6511 34.2584C19.7633 34.104 19.9979 34.1 20.4229 34.09C20.842 34.0971 21.2605 34.0554 21.6699 33.9657C22.3475 33.7893 23.6747 33.7311 24.1859 34.0419C24.2477 34.0746 24.3021 34.1195 24.3459 34.174C24.3897 34.2285 24.4219 34.2913 24.4405 34.3586V34.4048C24.4405 34.511 24.4405 34.511 23.9313 34.926L23.6146 35.1946C23.514 35.2788 23.4044 35.3514 23.2878 35.4112C23.2142 35.4441 23.1465 35.4888 23.0873 35.5435C22.9546 35.7024 22.8384 35.8743 22.7405 36.0567C22.54 36.4055 22.3295 36.7644 21.9626 36.8125L21.9245 36.8245ZM20.03 34.517C20.2305 34.9902 21.5857 36.3895 21.9205 36.4236C22.0829 36.3995 22.2353 36.1389 22.3956 35.8642C22.5083 35.6537 22.6427 35.4555 22.7966 35.2728C22.8813 35.1908 22.9788 35.1231 23.0853 35.0724C23.1797 35.0241 23.2684 34.9657 23.3499 34.8979L23.6807 34.6273L23.9674 34.3927C23.5845 34.1742 22.4257 34.1922 21.7621 34.3667C21.3217 34.4632 20.8717 34.5089 20.4209 34.503C20.2946 34.495 20.1322 34.497 20.03 34.509V34.517Z" fill="#05091E"/>
  <path fill-rule="evenodd" clip-rule="evenodd" d="M20.0318 28.0253L21.5033 26.3513L23.3237 25.0221L25.9299 23.9836L27.6621 24.3004C26.5213 24.561 25.4568 25.6717 24.284 26.9066C23.8369 27.3697 23.1733 27.7446 22.7102 28.2639C22.9537 27.2835 23.4233 26.3738 24.0815 25.6075C22.8546 26.3152 22.1469 27.1232 20.8738 28.4383L20.0318 28.0253Z" fill="#F5FCF3"/>
  <path fill-rule="evenodd" clip-rule="evenodd" d="M25.4743 27.1153C25.4582 26.9148 24.3616 27.015 24.4057 27.3158C24.4157 27.402 25.4582 27.1875 25.4743 27.1153Z" fill="#F5FCF3"/>
  <path fill-rule="evenodd" clip-rule="evenodd" d="M29.8773 24.6474C29.9775 24.4028 28.534 25.1085 28.5781 25.2107C28.5922 25.2689 29.9194 24.7055 29.8773 24.6474Z" fill="#F5FCF3"/>
  <path fill-rule="evenodd" clip-rule="evenodd" d="M31.2043 27.1291C29.6446 27.3296 28.2733 28.0834 26.9181 28.6889C26.2384 29.0056 25.0837 29.3384 25.0115 29.2522C24.9113 29.0357 25.1558 28.6508 25.5889 28.4723C26.0219 28.2939 26.6434 28.3561 27.1346 28.1836C27.4397 28.0543 27.7381 27.9098 28.0287 27.7506C29.4862 27.087 30.6991 26.8845 31.2043 27.1291Z" fill="#F5FCF3"/>
  <path fill-rule="evenodd" clip-rule="evenodd" d="M18.6465 28.5305L20.8117 28.5726C21.2587 28.7731 21.6336 29.3745 21.3449 29.5269C21.1866 29.5991 21.0563 29.2081 20.6372 29.0638C20.3205 28.9495 19.685 29.0778 19.5707 29.136C19.3702 29.2222 19.9596 30.1384 19.7431 30.2486L19.0494 30.1905L18.6465 28.5305Z" fill="#F5FCF3"/>
  <path d="M28.2633 33.9757L28.0307 33.9536C27.3691 33.8975 26.7557 33.5106 26.1061 33.1016C25.4824 32.6701 24.7989 32.3324 24.0773 32.0992C23.1791 31.8506 21.4009 32.0992 21.1583 32.2716C20.2982 32.873 19.789 33.1457 19.38 32.9592C18.9349 32.7588 18.8708 32.1473 18.7545 31.0407C18.6944 30.4753 18.6202 29.7696 18.4799 28.9296C18.4569 28.8232 18.4603 28.7128 18.4896 28.608C18.519 28.5033 18.5734 28.4072 18.6483 28.3282C18.8808 28.0896 19.2718 28.0355 19.7148 28.0555C19.7024 27.9886 19.7072 27.9196 19.7288 27.855C19.9574 27.0631 23.556 23.8635 25.8635 23.7572C25.6129 23.5948 25.3242 23.4124 25.0616 23.248C22.7401 21.7805 22.3772 21.4838 22.4714 21.1229C22.4943 21.0427 22.5436 20.9726 22.6112 20.9239C22.6789 20.8751 22.761 20.8506 22.8443 20.8543C24.1403 20.799 25.4281 21.0845 26.5792 21.6823C25.9497 20.8443 25.3383 19.8258 25.1899 18.8755L25.1157 18.4124L25.5688 18.5407C27.9144 19.2103 29.0151 20.8683 29.9794 22.3318C30.1458 22.5844 30.3102 22.831 30.4746 23.0636L30.7813 14.1121L30.8174 14.048C32.6678 10.8022 34.7989 7.41211 37.8342 4.62545L38.2131 4.27661L38.3314 4.77781C39.1654 8.31427 39.6525 11.1771 39.869 13.7854V13.8395C39.6385 16.0269 39.1534 18.1799 38.4236 20.2548L38.4055 20.311L38.3654 20.3551C37.9865 20.7881 37.6237 21.2131 37.2608 21.6382C36.2805 22.7849 35.27 23.9657 33.9649 25.2688C35.1798 25.6137 35.8113 26.5599 36.3947 27.5884L36.4088 27.6145C37.1987 29.3887 37.5475 31.0828 37.4432 32.6505L37.4212 33.0013L35.9356 32.6625C34.6325 32.2856 28.5961 33.0074 28.3334 33.7552L28.2633 33.9757ZM23.0508 31.3915C23.4495 31.3826 23.8477 31.4251 24.2356 31.5178C25.0126 31.7673 25.7489 32.1293 26.4209 32.5924C26.9662 32.9352 27.4433 33.2359 27.9064 33.3301C28.3375 32.837 29.6045 32.452 31.6835 32.1834C33.2873 31.9829 35.3683 31.8726 36.094 32.0811L36.8659 32.2576C36.8939 30.8903 36.5591 29.4188 35.8735 27.8711C35.24 26.7604 34.6486 25.8984 33.3234 25.754L32.6879 25.6858L33.145 25.2408C34.6325 23.7953 35.691 22.5564 36.8117 21.2472C37.1646 20.8463 37.5154 20.4233 37.8823 20.0042C38.5873 17.9989 39.0583 15.9189 39.2856 13.8054C39.0852 11.3596 38.6341 8.68316 37.8823 5.41935C35.1277 8.06768 33.1369 11.2333 31.3968 14.2806L31.0319 24.6935L30.5287 24.1061C30.1527 23.6473 29.8052 23.1659 29.4882 22.6646C28.6081 21.3394 27.7019 19.9742 25.9096 19.2865C26.3888 20.742 27.8663 22.3158 28.3876 22.8711C28.6141 23.1137 28.7785 23.2881 28.588 23.5006C28.3976 23.7131 28.1871 23.5527 27.9866 23.3964L27.5014 22.9954C26.339 22.0676 24.9134 21.5302 23.4277 21.4597C23.9289 21.8306 24.799 22.3779 25.3844 22.7488C26.9882 23.7612 27.1185 23.8434 27.0323 24.1381C27.0124 24.206 26.9704 24.2652 26.9131 24.3066C26.8557 24.348 26.7862 24.3691 26.7156 24.3667H25.9818C24.0392 24.3667 20.9397 27.0972 20.3844 27.8951L20.8195 28.1517C20.8943 28.1838 20.9542 28.2429 20.9873 28.3172C21.0204 28.3916 21.0242 28.4757 20.9979 28.5527C20.9097 28.8073 20.6791 28.7752 20.3604 28.7291C19.6246 28.6249 19.1936 28.6309 19.0793 28.7492C19.0673 28.7632 19.0653 28.7913 19.0793 28.8374C19.2256 29.6994 19.2998 30.4132 19.36 30.9885C19.4241 31.59 19.5043 32.3618 19.6366 32.422C19.6888 32.444 19.9053 32.422 20.8195 31.7884C21.1262 31.5539 22.1346 31.3915 23.0548 31.3915H23.0508Z" fill="#05091E"/>
  <path fill-rule="evenodd" clip-rule="evenodd" d="M19.5124 29.3106C19.8592 29.2524 20.0457 29.8579 20.623 30.0884C20.9839 30.2328 21.7497 30.1185 22.0264 29.9742C22.2129 29.8879 21.5934 29.0058 21.7658 29.0499C22.2129 29.1361 22.5677 30.1325 22.8063 30.1185C23.1777 30.0754 23.5418 29.9831 23.8889 29.8438C24.0172 29.7997 24.1916 29.2945 24.4081 29.0419C24.783 28.5788 25.2301 28.2761 25.4105 28.24C25.5548 28.2099 24.7309 29.0038 24.5304 29.5391C24.4422 29.7556 24.8191 29.8559 24.8752 29.8418C25.4967 29.7256 26.1022 29.4529 26.7096 29.2925C27.2544 29.1228 27.7815 28.9005 28.2834 28.6289C28.7585 28.3984 29.1916 28.0816 29.6687 27.9072C30.1343 27.7217 30.6261 27.6101 31.1262 27.5764C30.3764 27.9212 29.5825 28.1237 29.2497 28.9176L29.2637 29.4088L20.0056 30.724L19.5124 29.3106Z" fill="#05091E"/>
  <path fill-rule="evenodd" clip-rule="evenodd" d="M32.2145 26.538C32.6086 26.4325 33.0234 26.4325 33.4174 26.538L32.816 26.105C34.1432 26.4237 35.326 27.1595 35.9475 29.3828L34.7205 28.8616C34.4659 27.5785 33.658 26.7686 32.2145 26.538Z" fill="#052747"/>
  <path fill-rule="evenodd" clip-rule="evenodd" d="M14.6331 31.0847L22.3275 29.9881L22.8748 30.1043L32.981 28.1116L32.8928 31.1729L32.9369 32.456L32.2592 32.5281L31.4072 32.2976L31.321 33.2659L30.902 33.308L31.0884 34.4928L26.5716 35.2426L26.4694 34.8958L30.9441 34.16L30.888 33.9435L26.2529 34.7956L26.0083 34.4628L25.6334 34.5069L25.6193 33.5827L25.3728 33.5105L25.3868 33.727L24.9838 33.8714L25.0119 33.3942L23.9153 33.3661L23.6707 32.2395L22.8327 32.3557L22.7304 33.3361L21.3752 33.6268L21.3311 33.0915H22.3415L22.4858 32.903L21.8363 32.8329L21.7942 32.6003L21.0564 33.0474L20.898 34.1881L20.062 34.3044L19.9598 35.3429L16.7401 35.806L16.7702 35.4311L19.7874 35.0542L19.8014 34.8958L16.684 35.2426V34.9981L16.3792 34.968L16.3071 34.3906L15.427 34.4347L15.3989 33.3802L14.6331 33.4103V31.0847Z" fill="#05091E"/>
  <path fill-rule="evenodd" clip-rule="evenodd" d="M15.1963 31.5037L22.3414 30.363L22.3274 31.5037L23.8871 31.4175L23.7989 30.2347L32.634 28.6028L32.6621 30.2908L32.215 30.4352L32.2872 30.2628L32.3874 30.2347L32.4035 28.8774L24.0314 30.4071L24.2038 32.0089L24.5507 32.1252L24.5787 32.6725L24.8534 32.7748L24.7812 32.9031L24.1597 33.0053V32.9031L24.3622 32.8169L24.3923 32.3257L24.1036 32.3117L23.9873 31.606L22.3715 31.7202L22.3855 32.47L21.7059 32.3417L21.6918 32.2976L22.197 32.3117L22.0968 30.6657L15.4128 31.7202L15.3687 33.0334L15.1963 33.0194V31.5037Z" fill="#F5FCF3"/>
  <path fill-rule="evenodd" clip-rule="evenodd" d="M16.12 32.1253L17.3891 31.8787L17.4472 32.6446L18.0105 32.5143L18.0386 31.7785L18.8044 31.6201L18.7764 32.4561L18.1268 32.5724L18.1689 33.4665L18.8766 33.3362L18.8044 32.4421L19.6425 32.2556L19.6986 33.1638L20.3922 33.2079L20.4364 34.088H19.6705L19.6565 33.3222L19.049 33.4385L19.0069 34.2765L18.3133 34.3627L18.0827 33.5247L17.5194 33.5968L17.4332 34.3326L16.6834 34.493V33.5828L17.3029 33.4806V32.7588L16.6834 32.7308L16.6673 32.9914H16.2203L16.2062 33.8134L16.0479 33.8715L16.12 32.1253Z" fill="#F5FCF3"/>
  <path fill-rule="evenodd" clip-rule="evenodd" d="M24.7948 30.8544L25.4885 30.7401L25.5606 31.8648L26.2824 31.7505L26.2964 30.6659L27.0903 30.5376L27.1043 31.6342L27.8561 31.5039L27.9123 30.4073L28.6641 30.291L28.7643 31.4177L27.9564 31.5621L27.9423 32.5725L28.8084 32.4702L28.7783 31.548L29.6304 31.3596L29.6885 32.3419L30.5826 32.2256V33.2501L29.7025 33.3523L29.6885 32.3419L28.8365 32.4702L28.8806 33.5107L28.0426 33.6551L27.9423 32.5584L27.2066 32.7309L27.1043 31.6342L26.2683 31.7505L26.3686 32.8471L27.1905 32.8331L27.1765 33.6831L26.4127 33.8716L26.3686 32.8471L25.5747 32.9033L25.5606 31.8648L24.7948 31.8949V30.8544Z" fill="#F5FCF3"/>
  <path fill-rule="evenodd" clip-rule="evenodd" d="M32.9084 30.6958L33.153 28.4143L39.2736 31.3453L39.1573 33.0193L32.9084 30.6958Z" fill="#0E4F70"/>
  <path fill-rule="evenodd" clip-rule="evenodd" d="M33.125 30.3069L38.6522 32.3999L38.6683 32.7447L33.0087 30.5795L33.125 30.3069Z" fill="#4CB6CA"/>
  <path fill-rule="evenodd" clip-rule="evenodd" d="M33.7161 29.3826L34.1051 29.5129L34.1492 30.2045L33.8324 30.0903L33.7161 29.3826Z" fill="#FAFCFC"/>
  <path fill-rule="evenodd" clip-rule="evenodd" d="M33.0672 28.5447L33.7308 28.8053L33.5283 29.9881L33.0231 30.2046L33.0672 28.5447Z" fill="#72EFE8"/>
  <path fill-rule="evenodd" clip-rule="evenodd" d="M33.7026 28.9919L38.869 31.3736L38.8409 32.6307L38.7247 32.4863L38.6525 31.5902L33.7167 29.1503L33.7026 28.9919Z" fill="#D8FCF9"/>
  <path d="M39.3396 33.3L32.6917 30.8281L32.9844 28.1116L39.482 31.223L39.3396 33.3ZM33.1247 30.5614L38.9788 32.7386L39.067 31.4676L33.3232 28.719L33.1247 30.5614Z" fill="#05091E"/>
  <path fill-rule="evenodd" clip-rule="evenodd" d="M21.7917 38.629C21.9802 38.4987 22.4132 38.2541 22.4854 38.3984C22.6157 38.7011 22.7881 39.6675 23.0347 40.2889C23.0928 40.4473 21.9361 40.8082 21.8499 40.7941C21.7055 40.7661 21.6915 40.5195 21.6053 40.303C21.4339 39.8977 21.2847 39.4834 21.1582 39.062L21.7917 38.629Z" fill="#B7BCC4"/>
  <path fill-rule="evenodd" clip-rule="evenodd" d="M21.9363 39.0298C22.1248 38.8855 22.3373 38.8133 22.3994 38.9737C22.5578 39.3746 22.5578 39.551 22.7603 40.2006C22.8044 40.359 21.9363 40.802 21.8501 40.792C21.7058 40.7639 21.6917 40.5174 21.6055 40.3008C21.5021 40.093 21.4195 39.8754 21.3589 39.6513L21.9363 39.0298Z" fill="#FBFBEB"/>
  <path fill-rule="evenodd" clip-rule="evenodd" d="M25.2862 38.6067C25.3303 38.8793 25.2281 39.3123 25.214 39.9338C25.2 40.1062 23.8427 40.3348 23.7425 40.3228C23.5982 40.2947 23.4538 40.3388 23.3656 40.1223C23.0769 39.4146 22.7882 38.6067 22.9045 38.3901C22.9486 38.332 23.1351 38.3741 23.3235 38.4042C24.2618 38.5626 25.2722 38.5184 25.2862 38.6067Z" fill="#B7BCC4"/>
  <path fill-rule="evenodd" clip-rule="evenodd" d="M24.7372 38.9815C24.7813 39.2401 24.7532 39.0677 24.7231 39.7032C24.7091 39.8757 23.7207 40.2506 23.6265 40.2365C23.4681 40.2085 23.4541 40.3388 23.3659 40.1222C23.0772 39.4146 22.8607 39.0677 22.991 38.8652C23.0211 38.7931 23.3098 38.751 23.4822 38.779C24.4164 38.9374 24.7231 38.8793 24.7372 38.9815Z" fill="#FBFBEB"/>
  <path fill-rule="evenodd" clip-rule="evenodd" d="M28.4258 39.6733C28.5541 39.8618 27.9928 41.2331 27.0104 41.9127C26.4611 42.2735 25.3505 42.2575 25.178 42.1573C25.0337 42.027 25.3946 41.7964 25.5229 41.5799C25.6512 41.3634 25.3505 41.3794 25.567 41.1609C26.421 40.381 28.2253 39.3846 28.4258 39.6733Z" fill="#E5273A"/>
  <path fill-rule="evenodd" clip-rule="evenodd" d="M35.2421 39.8899L37.2208 38.9817L37.5095 39.3285L35.4586 40.9163L32.6519 41.7523C32.9706 41.6521 33.3595 41.4636 33.8066 41.2772C34.2537 41.0907 34.6446 40.7419 35.0636 40.5695C35.4826 40.3971 35.8275 40.0783 36.0299 39.968C36.3728 39.8177 35.6931 39.9199 35.2421 39.8899Z" fill="#05091E"/>
</svg>