<svg width="16" height="16" viewBox="0 0 16 16" fill="none" xmlns="http://www.w3.org/2000/svg"
    class="svg-fill-secondary pointer">
    <path fill-rule="evenodd" clip-rule="evenodd"
        d="M2.5 8C2.5 4.96243 4.96243 2.5 8 2.5C11.0376 2.5 13.5 4.96243 13.5 8C13.5 11.0376 11.0376 13.5 8 13.5C4.96243 13.5 2.5 11.0376 2.5 8ZM8 1.5C4.41015 1.5 1.5 4.41015 1.5 8C1.5 11.5899 4.41015 14.5 8 14.5C11.5899 14.5 14.5 11.5899 14.5 8C14.5 4.41015 11.5899 1.5 8 1.5ZM8.00004 4.8335C7.7239 4.8335 7.50004 5.05735 7.50004 5.3335C7.50004 5.60964 7.7239 5.8335 8.00004 5.8335H8.00671C8.28285 5.8335 8.50671 5.60964 8.50671 5.3335C8.50671 5.05735 8.28285 4.8335 8.00671 4.8335H8.00004ZM7.33337 7.50016C7.05723 7.50016 6.83337 7.72402 6.83337 8.00016C6.83337 8.27631 7.05723 8.50016 7.33337 8.50016H7.50004V10.6668C7.50004 10.943 7.7239 11.1668 8.00004 11.1668H8.66671C8.94285 11.1668 9.16671 10.943 9.16671 10.6668C9.16671 10.3907 8.94285 10.1668 8.66671 10.1668H8.50004V8.00016C8.50004 7.72402 8.27618 7.50016 8.00004 7.50016H7.33337Z"
        fill="white"></path>
</svg>