<svg width="24" height="24" viewBox="0 0 24 24" fill="none" xmlns="http://www.w3.org/2000/svg">
    <path
        d="M16.6973 5.50003C15.4753 5.44003 14.0183 6.01003 12.8073 7.66003L12.0023 8.75003L11.1963 7.66003C9.98431 6.01003 8.52631 5.44003 7.30431 5.50003C6.06131 5.57003 4.95531 6.28003 4.39431 7.41003C3.84231 8.53003 3.76131 10.19 4.87331 12.23C5.94731 14.2 8.13031 16.5 12.0023 18.84C15.8723 16.5 18.0543 14.2 19.1283 12.23C20.2393 10.19 20.1583 8.53003 19.6053 7.41003C19.0443 6.28003 17.9393 5.57003 16.6973 5.50003ZM20.8843 13.19C19.5333 15.67 16.8833 18.31 12.5053 20.86L12.0023 21.16L11.4983 20.86C7.11931 18.31 4.46931 15.67 3.11631 13.19C1.75631 10.69 1.70631 8.33003 2.60231 6.52003C3.48931 4.73003 5.24931 3.61003 7.20331 3.51003C8.85431 3.42003 10.5713 4.07003 12.0013 5.52003C13.4303 4.07003 15.1473 3.42003 16.7973 3.51003C18.7513 3.61003 20.5113 4.73003 21.3983 6.52003C22.2943 8.33003 22.2443 10.69 20.8843 13.19Z"
        fill="#536471" />
</svg>
    