<svg width="14" height="14" viewBox="0 0 14 14" fill="none" xmlns="http://www.w3.org/2000/svg">
    <path fill-rule="evenodd" clip-rule="evenodd"
        d="M9.79944 6.9996C9.79944 6.50403 9.77354 6.03996 9.73155 5.59968H12.4152C12.5307 6.04766 12.5993 6.51523 12.5993 6.9996C12.5993 7.20959 12.5776 7.41398 12.5531 7.61767C12.5387 7.7984 12.5949 7.97773 12.7099 8.11786C12.825 8.25799 12.9899 8.34808 13.17 8.36922C13.35 8.39035 13.5313 8.3408 13.6756 8.23111C13.8199 8.12136 13.9161 7.95995 13.9439 7.78076C13.974 7.52387 13.9992 7.26489 13.9992 6.9996C13.9992 3.13932 10.8592 0 6.9996 0C3.14002 0 0 3.13932 0 6.9996C0 10.8592 3.14002 13.9992 6.9996 13.9992C6.9996 13.9992 7.68486 14.002 7.75066 13.9971C7.93573 13.9835 8.10778 13.8969 8.22908 13.7565C8.35039 13.616 8.41093 13.4332 8.39742 13.2481C8.38258 13.0635 8.29572 12.8921 8.15559 12.771C8.01545 12.6499 7.83332 12.5887 7.64847 12.6007C7.55257 12.6084 7.0003 12.5993 7.0003 12.5993C6.73222 12.1863 6.21915 11.2554 5.89087 9.79944H6.9996C7.18523 9.79944 7.3633 9.72567 7.49454 9.59443C7.62579 9.46318 7.69956 9.28511 7.69956 9.09948C7.69956 8.91385 7.62579 8.73578 7.49454 8.60454C7.3633 8.4733 7.18523 8.39952 6.9996 8.39952H5.66128C5.56586 7.46865 5.5668 6.53038 5.66408 5.59968H8.32603C8.37222 6.03506 8.39952 6.50053 8.39952 6.9996C8.39952 7.18523 8.4733 7.3633 8.60454 7.49454C8.73578 7.62579 8.91385 7.69956 9.09948 7.69956C9.28511 7.69956 9.46318 7.62579 9.59443 7.49454C9.72567 7.3633 9.79944 7.18523 9.79944 6.9996ZM5.89646 4.19976C6.22125 2.77674 6.72102 1.84929 6.9912 1.42512C7.26279 1.84929 7.76606 2.77674 8.09224 4.19976H5.89646ZM4.25716 8.39952H1.58401C1.46352 7.94259 1.40166 7.47215 1.39992 6.9996C1.39992 6.51523 1.46782 6.04766 1.58401 5.59968H4.25786C4.21353 6.06595 4.19111 6.53404 4.19066 7.0024C4.19066 7.49657 4.21656 7.95925 4.25716 8.39952ZM5.263 12.32C3.95375 11.889 2.84849 10.992 2.15728 9.79944H4.45945C4.62861 10.668 4.89828 11.5139 5.263 12.32ZM5.2658 1.6778C4.97532 2.30777 4.67153 3.14912 4.46085 4.19976H2.15728C2.84885 3.00613 3.95525 2.1085 5.2658 1.6778ZM11.8412 4.19976H9.52786C9.35763 3.328 9.08506 2.47938 8.7159 1.67151C10.0338 2.1001 11.1468 3.00051 11.8412 4.19976ZM8.87066 9.33402L10.6556 13.261C10.7775 13.529 11.1556 13.536 11.2873 13.2727L11.8969 12.0534C11.9308 11.9857 11.9857 11.9307 12.0535 11.8969L13.2727 11.2873C13.536 11.1556 13.529 10.7774 13.261 10.6556L9.33411 8.87057C9.0397 8.73681 8.73683 9.03961 8.87066 9.33402Z"
        fill="#72EFE8" />
</svg>
    