<svg width="50" height="50" viewBox="0 0 50 50" fill="none" xmlns="http://www.w3.org/2000/svg">
    <path fill-rule="evenodd" clip-rule="evenodd"
        d="M25 0.350765L25.6471 0.378902L25.6621 0.0131303L26.3093 0.0412665L26.2961 0.392032L26.932 0.431423L26.9583 0.0806573L27.6204 0.135054L27.5792 0.485819L28.215 0.568352L28.2676 0.215711L28.9166 0.311375L28.8622 0.66214L29.483 0.770933L29.5506 0.431423L30.1996 0.553346L30.1189 0.890981L30.7529 1.03917L30.8336 0.701531L31.4695 0.851591L31.3738 1.18923L31.9965 1.37868L32.1035 1.03917L32.7243 1.22862L32.6174 1.56625L33.2252 1.76883L33.3471 1.44433L33.968 1.66191L33.8329 1.98642L34.4275 2.24152L34.5626 1.90389L35.1703 2.16086L35.0203 2.48537L35.6017 2.76861L35.7649 2.4441L36.3577 2.72734L36.1832 3.03872L36.7497 3.35009L36.926 3.03872L37.5056 3.35009L37.3181 3.65959L37.8714 3.99722L38.059 3.68773L38.6142 4.03849L38.4247 4.33486L38.9518 4.70063L39.1544 4.40239L39.6946 4.78129L39.492 5.06453L40.0041 5.45656L40.2217 5.17332L40.7338 5.57848L40.505 5.84859L41.0039 6.26688L41.2346 5.99677L41.7336 6.4282L41.4897 6.68517L41.9624 7.1316L42.2063 6.87463L42.6789 7.32105L42.422 7.57616L42.8684 8.03571L43.1254 7.79374L43.5831 8.27956L43.313 8.5084L43.7331 8.99422L44.0032 8.76538L44.4346 9.26621L44.1514 9.49505L44.5434 10.009L44.8267 9.79142L45.2318 10.3054L44.9336 10.508L45.2994 11.0482L45.5957 10.8456L45.9746 11.3858L45.6633 11.5753L46.0009 12.1286L46.3123 11.9392L46.6499 12.5075L46.3385 12.6819L46.6499 13.2484L46.9613 13.074L47.2708 13.6555L46.9613 13.8168L47.2314 14.3983L47.554 14.2351L47.8373 14.8297L47.5146 14.9779L47.7566 15.5725L48.0942 15.4374L48.3381 16.0452L48.0136 16.1671L48.2293 16.7748L48.5538 16.6529L48.7845 17.2738L48.4319 17.3826L48.6213 18.0035L48.959 17.9097L49.1484 18.5305L48.8108 18.6243L48.959 19.2452L49.2966 19.1645L49.4598 19.8004L49.1071 19.8811L49.2291 20.5151L49.5667 20.4476L49.6886 21.0966L49.3379 21.151L49.4316 21.785L49.7824 21.7456L49.8649 22.3927L49.5123 22.4208L49.5667 23.068L49.9175 23.0417L49.9587 23.6889L49.608 23.7039L49.6342 24.351H49.985L50 25H49.6474L49.6342 25.6471H49.985L49.9587 26.3093L49.608 26.283L49.5667 26.932L49.9175 26.9583L49.8649 27.6204L49.5123 27.5792L49.4316 28.215L49.7824 28.2676L49.6886 28.9166L49.3379 28.849L49.2291 29.483L49.5667 29.5506L49.4448 30.1996L49.1071 30.1189L48.959 30.7529L49.2966 30.8336L49.1484 31.4695L48.8108 31.3738L48.6213 31.9965L48.959 32.1035L48.7695 32.7243L48.4319 32.6174L48.2293 33.2252L48.5538 33.3471L48.3381 33.968L48.0136 33.8329L47.7566 34.4275L48.0942 34.5626L47.8373 35.1703L47.5146 35.0203L47.2314 35.6017L47.554 35.7649L47.2708 36.3577L46.9613 36.1832L46.6499 36.7497L46.9613 36.926L46.6499 37.5056L46.3385 37.3181L46.0009 37.8714L46.3123 38.059L45.9615 38.6142L45.6633 38.4247L45.2994 38.9518L45.5957 39.1544L45.2187 39.6946L44.9336 39.477L44.5434 39.991L44.8267 40.2067L44.4215 40.7338L44.1514 40.505L43.7331 41.0039L44.0032 41.2346L43.5699 41.7336L43.313 41.4897L42.8684 41.9624L43.1254 42.2063L42.6789 42.6789L42.422 42.422L41.9624 42.8684L42.2063 43.1254L41.7204 43.5831L41.4897 43.313L41.0039 43.7331L41.2346 44.0032L40.7338 44.4346L40.505 44.1514L40.0041 44.5434L40.2067 44.8267L39.6946 45.2318L39.492 44.9336L38.9518 45.2994L39.1544 45.5957L38.6142 45.9615L38.4247 45.6633L37.8714 46.0009L38.059 46.3123L37.4925 46.6499L37.3181 46.3385L36.7497 46.6499L36.926 46.9613L36.3445 47.2708L36.1832 46.9613L35.6017 47.2314L35.7649 47.554L35.1703 47.8373L35.0203 47.5146L34.4275 47.7566L34.5626 48.0942L33.9548 48.3381L33.8329 48.0005L33.2252 48.2162L33.3471 48.5538L32.7243 48.7695L32.6174 48.4319L31.9965 48.6213L32.1035 48.959L31.4695 49.1484L31.3738 48.7976L30.7529 48.959L30.8336 49.2966L30.1996 49.4598L30.1189 49.1071L29.483 49.2159L29.5506 49.5667L28.9034 49.6886L28.8622 49.3379L28.215 49.4185L28.2544 49.7824L27.6073 49.8649L27.5792 49.5123L26.932 49.5536L26.9583 49.9175L26.3093 49.9587L26.2961 49.608L25.6471 49.6211V49.985L25 50V49.6474L24.351 49.6211V49.985L23.6889 49.9587L23.717 49.608L23.068 49.5536L23.0417 49.9175L22.3796 49.8649L22.4208 49.5123L21.785 49.4185L21.7306 49.7693L21.0834 49.6886L21.151 49.3379L20.5151 49.2159L20.4476 49.5667L19.8004 49.4448L19.8811 49.1071L19.2452 48.959L19.1645 49.2966L18.5305 49.1484L18.6243 48.7976L18.0035 48.6213L17.8965 48.959L17.2738 48.7695L17.3826 48.4319L16.7748 48.2162L16.6529 48.5538L16.032 48.3381L16.1671 48.0005L15.5725 47.7566L15.4374 48.0811L14.8297 47.8373L14.9779 47.5146L14.3983 47.2314L14.2351 47.554L13.6405 47.2708L13.8168 46.9613L13.2484 46.6499L13.074 46.9613L12.4925 46.6499L12.6819 46.3385L12.1286 46.0009L11.9392 46.3123L11.3858 45.9615L11.5753 45.6633L11.0482 45.2994L10.8456 45.5957L10.3054 45.2187L10.5211 44.9336L10.009 44.5434L9.79142 44.8267L9.26621 44.4215L9.49505 44.1514L8.99422 43.7331L8.76538 44.0032L8.26643 43.5699L8.5084 43.313L8.03571 42.8684L7.79374 43.1254L7.32105 42.6789L7.57616 42.422L7.1316 41.9624L6.87463 42.2063L6.41507 41.7204L6.68517 41.4897L6.26688 41.0039L5.99677 41.2346L5.56535 40.7207L5.84859 40.505L5.45656 39.991L5.17332 40.2067L4.76816 39.6946L5.06453 39.477L4.70063 38.9518L4.40239 39.1544L4.03849 38.6142L4.33486 38.4247L3.99722 37.8714L3.68773 38.059L3.35009 37.4925L3.65959 37.3181L3.35009 36.7497L3.03872 36.926L2.72734 36.3445L3.03872 36.1832L2.76861 35.6017L2.4441 35.7499L2.16086 35.1553L2.48537 35.0203L2.24152 34.4275L1.91702 34.5626L1.66191 33.9548L1.99955 33.8329L1.78384 33.2252L1.44433 33.3471L1.22862 32.7243L1.56625 32.6174L1.37868 31.9965L1.03917 32.0903L0.851591 31.4695L1.20236 31.3738L1.03917 30.7529L0.701531 30.8336L0.553346 30.1865L0.890981 30.1189L0.784064 29.483L0.431423 29.5506L0.311375 28.9034L0.66214 28.849L0.581483 28.215L0.228842 28.2544L0.135054 27.6073L0.485819 27.5792L0.446429 26.932L0.0806573 26.9583L0.0412665 26.2961L0.392032 26.283L0.378902 25.6471H0.0131303L0 25H0.350765L0.378902 24.351L0.0131303 24.3379L0.0412665 23.6889L0.392032 23.7039L0.446429 23.068L0.0806573 23.0417L0.135054 22.3796L0.485819 22.4208L0.581483 21.785L0.228842 21.7306L0.311375 21.0834L0.66214 21.151L0.784064 20.5151L0.431423 20.4476L0.553346 19.8004L0.890981 19.8811L1.03917 19.2452L0.701531 19.1645L0.851591 18.5305L1.20236 18.6243L1.37868 18.0035L1.03917 17.8965L1.22862 17.2738L1.56625 17.3826L1.78384 16.7748L1.44433 16.6529L1.66191 16.032L1.99955 16.1671L2.24152 15.5725L1.91702 15.4374L2.16086 14.8297L2.48537 14.9779L2.76861 14.3983L2.4441 14.2351L2.72734 13.6405L3.03872 13.8168L3.35009 13.2484L3.03872 13.074L3.35009 12.4925L3.65959 12.6819L3.99722 12.1286L3.68773 11.9392L4.03849 11.3858L4.33486 11.5753L4.70063 11.0482L4.40239 10.8456L4.78129 10.3054L5.06453 10.508L5.45656 10.009L5.17332 9.77829L5.57848 9.26621L5.84859 9.49505L6.26688 8.99422L5.99677 8.76538L6.4282 8.26643L6.68517 8.5084L7.1316 8.03571L6.87463 7.79374L7.33418 7.32105L7.57616 7.57616L8.03571 7.1316L7.79374 6.87463L8.27956 6.41507L8.5084 6.68517L8.99422 6.26688L8.76538 5.99677L9.27934 5.56535L9.49505 5.84859L10.009 5.45656L9.79142 5.17332L10.3054 4.76816L10.5211 5.06453L11.0482 4.70063L10.8456 4.40239L11.3858 4.02536L11.5753 4.33486L12.1286 3.99722L11.9392 3.68773L12.5075 3.35009L12.6819 3.65959L13.2484 3.35009L13.074 3.03872L13.6555 2.72734L13.8168 3.03872L14.3983 2.76861L14.2482 2.4441L14.8428 2.16086L14.9779 2.48537L15.5725 2.24152L15.4374 1.90389L16.0452 1.66191L16.1671 1.98642L16.7748 1.76883L16.666 1.44433L17.2738 1.21549L17.3826 1.56625L18.0035 1.37868L17.9097 1.03917L18.5305 0.851591L18.6243 1.18923L19.2452 1.03917L19.1645 0.701531L19.8135 0.540216L19.8811 0.890981L20.5151 0.770933L20.4476 0.431423L21.0966 0.311375L21.151 0.66214L21.785 0.568352L21.7456 0.215711L22.3927 0.135054L22.4208 0.485819L23.068 0.431423L23.0417 0.0806573L23.7039 0.0412665L23.717 0.392032L24.351 0.378902V0.0131303L25 0V0.350765Z"
        fill="#AD7F27" />
    <path fill-rule="evenodd" clip-rule="evenodd"
        d="M25.0004 1.2417C29.6994 1.2417 34.2928 2.6351 38.1998 5.24569C42.1068 7.85628 45.152 11.5668 46.9502 15.9081C48.7484 20.2493 49.2189 25.0263 48.3022 29.635C47.3855 34.2436 45.1227 38.4769 41.8001 41.7996C38.4774 45.1222 34.2441 47.385 29.6354 48.3017C25.0268 49.2184 20.2498 48.7479 15.9086 46.9497C11.5673 45.1515 7.85677 42.1064 5.24618 38.1993C2.63559 34.2923 1.24219 29.6989 1.24219 25C1.24071 21.8796 1.85423 18.7895 3.04767 15.9063C4.24111 13.0232 5.99107 10.4035 8.19752 8.19703C10.404 5.99058 13.0237 4.24062 15.9068 3.04718C18.79 1.85374 21.88 1.24022 25.0004 1.2417Z"
        fill="#EAAA15" stroke="#DFB01C" stroke-miterlimit="10" />
    <path
        d="M24.9999 44.2734C35.6443 44.2734 44.2732 35.6444 44.2732 25C44.2732 14.3556 35.6443 5.72668 24.9999 5.72668C14.3555 5.72668 5.72656 14.3556 5.72656 25C5.72656 35.6444 14.3555 44.2734 24.9999 44.2734Z"
        fill="#B98923" stroke="#B98923" stroke-width="0.5" stroke-miterlimit="10" />
    <path fill-rule="evenodd" clip-rule="evenodd"
        d="M24.9998 6.17297C28.7234 6.17297 32.3634 7.27715 35.4594 9.34588C38.5555 11.4146 40.9686 14.355 42.3936 17.7951C43.8185 21.2353 44.1913 25.0208 43.4649 28.6728C42.7385 32.3249 40.9454 35.6795 38.3124 38.3125C35.6794 40.9455 32.3248 42.7386 28.6727 43.465C25.0206 44.1915 21.2352 43.8186 17.795 42.3937C14.3548 40.9687 11.4145 38.5556 9.34576 35.4595C7.27703 32.3635 6.17285 28.7235 6.17285 24.9999C6.17261 22.5274 6.65941 20.0791 7.60546 17.7948C8.55152 15.5105 9.93829 13.435 11.6866 11.6867C13.4349 9.93841 15.5104 8.55164 17.7947 7.60559C20.079 6.65953 22.5273 6.17273 24.9998 6.17297Z"
        fill="#EAAA15" stroke="#EAAA15" stroke-width="0.5" stroke-miterlimit="10" />
    <path fill-rule="evenodd" clip-rule="evenodd"
        d="M1.96705 23.3793L2.50726 23.3925L2.49413 23.7976L4.62874 23.8652L4.61373 24.5536L2.466 24.4992V24.9043L1.92578 24.8912L1.96705 23.3793ZM2.14337 21.9069L4.84445 21.8393L4.74879 22.5559L4.26297 22.5277L4.23671 22.7716L4.7094 22.8785L4.61373 23.5819L2.00831 22.9066L2.14337 21.9069ZM3.80341 22.4884C3.49391 22.4884 3.11501 22.4734 2.67796 22.4471C3.17691 22.5821 3.5408 22.6759 3.77152 22.7172L3.80341 22.4884ZM3.28007 19.9486L3.17128 20.5826L2.9687 20.5563C2.91199 20.5404 2.8527 20.536 2.79425 20.5432C2.76612 20.5563 2.75299 20.5826 2.73986 20.6239C2.72673 20.6651 2.73986 20.6914 2.77925 20.7176C2.81606 20.7538 2.86331 20.7774 2.9143 20.7852C2.98602 20.8005 3.06017 20.8005 3.13189 20.7852C3.2018 20.7355 3.26486 20.6769 3.31946 20.6107C3.47293 20.413 3.66423 20.2479 3.88219 20.1249C4.06957 20.0622 4.27142 20.057 4.4618 20.1099C4.60073 20.1259 4.73452 20.172 4.85383 20.245C4.94667 20.3217 5.01241 20.4263 5.0414 20.5432C5.07432 20.6896 5.07432 20.8414 5.0414 20.9878C5.01769 21.1522 4.95744 21.3092 4.86508 21.4473C4.78539 21.5453 4.67724 21.6161 4.55558 21.6499C4.39761 21.6656 4.23816 21.6567 4.08289 21.6236L3.90657 21.5955L4.0285 20.9615L4.338 21.0159C4.40303 21.0388 4.47313 21.0433 4.54058 21.029C4.55807 21.0207 4.57263 21.0073 4.58235 20.9906C4.59206 20.9738 4.59646 20.9545 4.59497 20.9352C4.60108 20.9164 4.60185 20.8963 4.59722 20.8771C4.59258 20.8579 4.58271 20.8404 4.56871 20.8264C4.52074 20.7929 4.46404 20.774 4.40552 20.772C4.30526 20.7375 4.19629 20.7375 4.09602 20.772C4.04163 20.8133 3.94784 20.9071 3.79778 21.0553C3.70395 21.16 3.60031 21.2555 3.48828 21.3404C3.42121 21.3943 3.34202 21.431 3.25756 21.4473C3.14071 21.462 3.02223 21.4576 2.9068 21.4342C2.75122 21.4197 2.60231 21.364 2.47538 21.2729C2.39064 21.1966 2.32946 21.0977 2.29906 20.9878C2.27267 20.8452 2.27267 20.6989 2.29906 20.5563C2.31892 20.402 2.37412 20.2544 2.46037 20.1249C2.52278 20.0256 2.61962 19.9528 2.73235 19.9205C2.87981 19.8923 3.03168 19.8975 3.17691 19.9355L3.28007 19.9486ZM3.07749 17.6977L4.12979 18.4142L5.65665 18.388L5.46907 19.0764L4.28172 19.037L5.38842 19.3615L5.20084 20.0236L2.63482 19.294L2.82239 18.6318L3.82216 18.9151L2.90492 18.3148L3.07749 17.6977ZM3.45264 16.6173L3.73776 15.9833C3.80614 15.8302 3.89172 15.6855 3.99286 15.5518C4.07414 15.4694 4.17785 15.4126 4.2911 15.3886C4.46504 15.3866 4.63667 15.4285 4.79005 15.5106C4.90314 15.5401 5.00012 15.6129 5.06016 15.7131C5.10131 15.8121 5.10596 15.9225 5.07329 16.0245C5.14371 15.9189 5.24944 15.8417 5.37153 15.8069C5.50786 15.7871 5.64679 15.8164 5.76357 15.8895L5.97928 15.9833C6.11123 16.0336 6.23084 16.1116 6.33004 16.2121C6.38478 16.2814 6.41334 16.3677 6.4107 16.4559C6.37217 16.6393 6.30908 16.8166 6.22313 16.983L5.90612 17.7071L3.45264 16.6173ZM4.15605 16.1727L4.70002 16.4109C4.71315 16.3847 4.72628 16.3715 4.72628 16.3434C4.72628 16.3153 4.76754 16.2496 4.73941 16.2083C4.66344 16.148 4.57695 16.1022 4.4843 16.0733C4.43469 16.0434 4.37884 16.0254 4.32111 16.0208C4.29188 16.0191 4.26308 16.0284 4.24046 16.047C4.21795 16.0583 4.19919 16.0996 4.1598 16.1671L4.15605 16.1727ZM5.09392 16.591L5.76919 16.9024C5.80172 16.8455 5.8155 16.7799 5.80858 16.7148C5.79545 16.6735 5.72793 16.6341 5.63414 16.5929L5.40342 16.4841C5.2965 16.4447 5.22898 16.4166 5.20084 16.4316C5.15109 16.4718 5.11343 16.525 5.09205 16.5854L5.09392 16.591ZM5.01139 13.4022L6.60578 14.2125C6.73262 14.2747 6.85431 14.3468 6.96967 14.4283C7.04455 14.4853 7.10495 14.5592 7.146 14.644C7.19136 14.7411 7.21013 14.8486 7.20039 14.9553C7.19594 15.084 7.15847 15.2093 7.0916 15.3192C7.03223 15.4511 6.94373 15.5679 6.83274 15.6606C6.74356 15.7382 6.63763 15.7941 6.52325 15.8238C6.42296 15.8356 6.32131 15.826 6.225 15.7957C6.14434 15.7563 5.9699 15.6738 5.69979 15.5387L4.28172 14.8109L4.60435 14.2032L6.38819 15.0979C6.45086 15.1357 6.51929 15.1629 6.59077 15.1786C6.59853 15.1825 6.6071 15.1846 6.61579 15.1846C6.62449 15.1847 6.63308 15.1827 6.6409 15.1789C6.64872 15.1751 6.65554 15.1695 6.66084 15.1626C6.66613 15.1557 6.66976 15.1477 6.67143 15.1392C6.67695 15.1321 6.68099 15.1239 6.68332 15.1152C6.68565 15.1066 6.68621 15.0975 6.68499 15.0886C6.68377 15.0797 6.68078 15.0711 6.67619 15.0633C6.67161 15.0556 6.66553 15.0489 6.6583 15.0435C6.59387 14.988 6.52106 14.9431 6.44259 14.9103L4.68689 14.0193L5.01139 13.4022ZM6.14622 11.6465L8.39712 13.0908L8.06324 13.5973L6.844 13.2503L7.87003 13.9106L7.54553 14.3982L5.30776 12.952L5.61726 12.4719L6.844 12.7907L5.83109 12.1417L6.14622 11.6465ZM7.42923 10.0109L9.5357 11.6597L9.16055 12.1323L7.98446 11.6728L8.92233 12.4231L8.57157 12.8695L6.46885 11.2226L6.83274 10.7837L8.02197 11.2151L7.06346 10.4648L7.42923 10.0109ZM8.80603 8.53278L9.69702 10.0709L10.3854 10.7462L9.95399 11.2057L9.25059 10.5436L7.68434 9.72013L8.11576 9.26057C8.42067 9.44479 8.71385 9.64776 8.99361 9.86831C8.81916 9.63947 8.61846 9.3431 8.37274 8.99046L8.80603 8.53278Z"
        fill="#05091E" />
    <path fill-rule="evenodd" clip-rule="evenodd"
        d="M18.0996 27.0388H23.6218V33.4276H18.0996V27.0388Z" fill="#054767" />
    <path
        d="M23.6677 33.4802H18.0498V26.9919H23.6771L23.6677 33.4802ZM18.1436 33.3864H23.5833V27.0857H18.1436V33.3864Z"
        fill="#373435" />
    <path fill-rule="evenodd" clip-rule="evenodd"
        d="M28.0518 26.9171H33.4277V33.3059H28.0518V26.9171Z" fill="#30B6CA" />
    <path
        d="M33.4802 33.3527H28.0049V26.8701H33.4802V33.3527ZM28.1043 33.2589H33.3864V26.9639H28.0987L28.1043 33.2589Z"
        fill="#373435" />
    <path fill-rule="evenodd" clip-rule="evenodd"
        d="M20.3281 20.125L22.082 20.8134L22.8942 22.2577L20.3544 22.8936L20.3281 20.125Z"
        fill="#47D7DA" />
    <path fill-rule="evenodd" clip-rule="evenodd"
        d="M15.2607 11.1964L17.2059 10.9807L18.9353 14.2633L16.8814 17.1519L16.0035 14.7491L15.2607 11.1964Z"
        fill="#F5324F" />
    <path fill-rule="evenodd" clip-rule="evenodd"
        d="M15.4119 12.44L15.1943 8.44092L16.5074 9.98091L17.9123 11.9673C16.8694 11.4121 15.5057 10.7106 15.4119 12.44Z"
        fill="#6F0930" />
    <path fill-rule="evenodd" clip-rule="evenodd"
        d="M19.7725 16.289L19.8813 13.723L20.097 16.0583L20.8135 19.1101L21.4081 22.3533L21.2055 22.5146L20.9486 22.2576L19.7725 16.289Z"
        fill="#E8FAF8" />
    <path fill-rule="evenodd" clip-rule="evenodd"
        d="M15.209 14.4244L15.5729 13.9255L16.4376 15.9888L17.4505 18.2172L20.9206 22.719L20.448 22.9497C18.0714 20.4081 15.451 16.9229 15.209 14.4244Z"
        fill="#30B6CA" />
    <path fill-rule="evenodd" clip-rule="evenodd"
        d="M14.9238 14.9648L15.2089 14.4246L20.4479 22.9611L19.7876 22.6366L16.8971 19.4628L15.721 17.9228L14.9238 14.9648Z"
        fill="#97E1E0" />
    <path fill-rule="evenodd" clip-rule="evenodd"
        d="M16.4375 15.9907L18.7878 13.7361L20.9205 22.1638L20.596 22.4339L19.0711 20.7176L17.7468 18.9751L16.4375 15.9907Z"
        fill="#C7023B" />
    <path fill-rule="evenodd" clip-rule="evenodd"
        d="M15.0996 7.40161L20.9482 13.1545L19.8396 13.4115L15.0996 7.40161Z" fill="#054767" />
    <path
        d="M19.8203 13.4641L15.0615 7.42982L15.1328 7.36792L21.0414 13.1827L19.8203 13.4641ZM15.598 7.95691L19.8578 13.3591L20.8538 13.1283L15.598 7.95691Z"
        fill="#054767" />
    <path fill-rule="evenodd" clip-rule="evenodd"
        d="M22.3919 19.3802L21.9999 13.0458L14.3975 5.97046L14.6394 6.59133L15.6129 7.88748L20.9476 13.1546L19.7996 13.451L19.8803 13.7079L21.2439 13.3703L21.6772 19.2451L22.3919 19.3802Z"
        fill="#46CAD7" />
    <path
        d="M22.4435 19.4385L21.6331 19.2847L21.2017 13.4304L19.8493 13.7643L19.7405 13.4192L20.866 13.1303L15.5801 7.92137L14.5972 6.60834L14.2783 5.79614L22.0477 13.0347V13.0534L22.4435 19.4385ZM21.7213 19.2059L22.3422 19.3241L21.9558 13.0684L14.5165 6.14503L14.6816 6.56895L15.6607 7.85947L21.0498 13.1791L19.8699 13.4848L19.9225 13.6518L21.288 13.3123L21.7213 19.2059Z"
        fill="#46CAD7" />
    <path fill-rule="evenodd" clip-rule="evenodd"
        d="M20.6113 13.5204L21.2453 13.3704L21.718 19.2452H21.3935L20.6113 13.5204Z" fill="#052747" />
    <path fill-rule="evenodd" clip-rule="evenodd"
        d="M19.8682 13.7362L20.6185 13.5204L21.4157 19.0839L21.1718 21.0159C21.414 21.0972 21.6303 21.2412 21.7987 21.4333C21.9671 21.6254 22.0815 21.8587 22.1303 22.1095L21.4157 22.3534L20.821 19.1102L20.1045 16.0583L19.8682 13.7362Z"
        fill="#054767" />
    <path fill-rule="evenodd" clip-rule="evenodd"
        d="M14.3438 8.49517L14.5332 6.10547L14.6401 6.59129L16.6115 9.65626L17.5438 11.3444L15.1935 8.44078L14.3438 8.49517Z"
        fill="#E8FAF8" />
    <path fill-rule="evenodd" clip-rule="evenodd"
        d="M16.7067 9.84574L14.6396 6.59131L19.7586 13.3984L19.8805 13.7229L19.7586 16.6528L18.6106 13.3309L16.7067 9.84574Z"
        fill="#39CAD8" />
    <path fill-rule="evenodd" clip-rule="evenodd"
        d="M14.6141 8.48199L14.9517 8.45386L15.5726 13.9254L14.9517 14.7751L14.4922 11.7102L14.6141 8.48199Z"
        fill="#6DAEB4" />
    <path
        d="M20.4156 23.6982L20.228 23.5106L19.5077 22.7603C18.1553 21.3685 16.8817 20.0536 15.488 18.0841C15.3937 17.9153 15.3302 17.7311 15.3004 17.5401C15.2873 17.4876 15.276 17.4426 15.2666 17.4088C14.3288 14.6871 13.9161 10.5098 14.1206 5.96674L14.1431 5.34399L22.2745 12.9108L22.8653 22.3721L22.6252 22.4208C21.7793 22.5915 21.1359 23.0717 20.6182 23.5181L20.4156 23.6982ZM14.6552 6.59324C14.5201 10.7837 14.9421 14.7227 15.7975 17.2381C15.8125 17.2869 15.8275 17.3413 15.8425 17.4051C15.8685 17.5253 15.9043 17.6433 15.9494 17.7577C17.315 19.6935 18.5755 20.9934 19.9148 22.3683L20.455 22.931C20.9831 22.4735 21.6028 22.134 22.2726 21.935L21.7267 13.1809L14.6552 6.59324Z"
        fill="#05091E" />
    <path fill-rule="evenodd" clip-rule="evenodd"
        d="M16.1543 11.6689C18.0582 11.8565 19.5025 16.8554 18.8948 17.3694C17.0171 18.1253 16.3963 16.3696 16.1543 11.6689Z"
        fill="#E5273A" />
    <path fill-rule="evenodd" clip-rule="evenodd"
        d="M15.3701 8.64355C18.5852 11.7911 20.1383 16.6793 20.7854 22.556C19.8138 17.287 18.1931 12.5207 15.3701 8.64355Z"
        fill="#E5273A" />
    <path
        d="M21.1903 23.2276L20.7945 22.8693C16.4484 18.9246 14.7077 12.729 14.9103 8.34537L14.929 7.92896L15.2292 8.2197C19.459 12.3295 20.2055 17.0357 21.0702 22.496L21.1903 23.2276ZM15.2742 8.7843C15.2029 12.9147 16.8179 18.4744 20.6501 22.2259C19.8379 17.1032 19.0669 12.6596 15.2742 8.7843Z"
        fill="#05091E" />
    <path fill-rule="evenodd" clip-rule="evenodd"
        d="M16.0713 11.0199L15.9775 10.6448C16.5403 11.8603 16.9154 13.2521 17.2474 14.6551C17.6113 16.2345 18.6617 17.7876 19.2245 19.2864L18.8868 18.8268C16.6265 15.4504 16.7072 13.4246 16.0713 11.0199Z"
        fill="#F8F7E5" />
    <path fill-rule="evenodd" clip-rule="evenodd"
        d="M16.7882 31.9815L17.2871 30.8335L21.5432 30.8073L26.2025 30.7266L31.4828 30.2539L34.0226 30.6441L36.6955 32.2666L34.8854 31.9815L34.2101 32.1578L35.4256 33.3733L35.7651 36.1832L34.0226 34.8589L34.2251 36.669L31.1039 38.7079L27.4856 40.1541L27.0935 40.91L24.9458 42.7333L23.1357 43.0165L20.9336 42.1124L19.2454 40.6662L19.4086 37.9651L18.0318 37.2486L16.6118 35.8174L16.2217 34.1161L16.7882 31.9815Z"
        fill="#AEB0AC" />
    <path fill-rule="evenodd" clip-rule="evenodd"
        d="M31.5368 30.4284C33.5626 30.0232 35.4253 31.1581 36.9109 32.4917C35.8979 32.0453 34.7369 31.762 33.7915 32.0322C34.7294 32.1803 35.5753 33.1257 35.913 34.7614L34.3598 32.9231C35.3727 33.951 35.7629 35.2341 35.791 36.6746C35.6467 36.2281 35.4113 35.8163 35.0998 35.4654C34.7882 35.1144 34.4072 34.8319 33.9809 34.6357L34.3448 36.4721C32.3603 38.269 30.1732 39.2407 27.6878 40.2404L27.5659 39.8765L27.0257 41.0508C25.0674 43.2923 22.7583 44.2245 19.245 40.6587C19.3407 39.4432 19.7327 38.4716 19.245 37.8357C17.071 36.9991 15.5461 35.5004 16.5177 32.5142L18.2865 30.9011L31.5368 30.4284Z"
        fill="#AEB0AC" />
    <path
        d="M23.5391 43.326C22.1455 43.326 20.673 42.5194 19.0373 40.8631L18.9473 40.7731L18.9567 40.6456C18.9848 40.2817 19.0392 39.9365 19.088 39.6308C19.193 38.9649 19.2756 38.4322 19.0542 38.0739C16.3213 36.9916 15.374 35.0952 16.2406 32.4354L16.265 32.3641L18.1651 30.6234L31.4942 30.1489C33.2762 29.8018 35.1069 30.5015 37.0914 32.2853L38.3932 33.4577L36.7894 32.7524C36.176 32.4693 35.5201 32.2893 34.848 32.2197C35.4745 32.7224 35.9472 33.5871 36.1798 34.7069L36.403 35.7911L35.8853 35.1796C35.9973 35.6722 36.057 36.1752 36.0635 36.6802L36.0954 38.4172L35.5158 36.7796C35.3098 36.146 34.9086 35.5939 34.3697 35.2021L34.6436 36.5846L34.5254 36.6915C32.4846 38.5372 30.2656 39.5145 27.784 40.5124L27.5326 40.6137L27.255 41.2158L27.2287 41.2477C26.0208 42.6301 24.8803 43.2922 23.6404 43.3279L23.5391 43.326ZM19.5344 40.5611C21.0538 42.0786 22.3968 42.7895 23.6292 42.7614C24.6927 42.7295 25.6925 42.1387 26.7842 40.9025L27.6039 39.1187L27.8552 39.869C30.1268 38.948 32.1695 38.0195 34.0358 36.3707L33.5932 34.1442L34.0977 34.3824C34.5775 34.6012 35.0043 34.9212 35.3489 35.3203C35.2159 34.7217 34.9653 34.1555 34.6117 33.6546L34.1409 33.0919L34.5554 32.7168C34.7394 32.9022 34.9087 33.1017 35.0619 33.3133L35.1088 33.3695C34.7561 32.7655 34.2834 32.3866 33.7451 32.3003L32.4846 32.1034L33.7113 31.7526C34.3028 31.6029 34.9214 31.5965 35.5158 31.7339C34.1296 30.7829 32.8372 30.4415 31.588 30.691H31.543L18.3977 31.1599L16.7602 32.6605C16.0099 35.0371 16.8333 36.5996 19.3431 37.5618L19.4181 37.59L19.4669 37.6537C19.8852 38.2015 19.7764 38.8955 19.6545 39.7002C19.6094 39.989 19.5663 40.2685 19.5382 40.5611H19.5344Z"
        fill="#05091E" />
    <path fill-rule="evenodd" clip-rule="evenodd"
        d="M17.8822 32.5085C17.1319 32.9944 16.7342 34.3993 16.9912 34.7594C17.1675 35.0145 17.4226 35.5698 17.8559 35.6092C18.0585 35.6223 18.5181 35.2997 18.8688 35.0558C19.0714 34.9076 19.2871 34.9076 19.3002 34.7182C19.3546 34.1555 19.3546 33.8947 19.409 33.9491L17.8822 32.5085Z"
        fill="#F5FCF3" />
    <path fill-rule="evenodd" clip-rule="evenodd"
        d="M18.7461 31.5763L18.8399 30.8879L22.779 30.7397L22.0005 31.0417C22.3614 31.2467 22.6932 31.499 22.9872 31.792C23.0284 31.8314 22.974 32.0471 23.0134 32.0884C23.1635 32.2103 23.3511 32.0078 23.473 32.1559C23.5405 32.2366 23.473 32.6024 23.5536 32.6699C23.6343 32.7374 23.8781 32.6024 23.9457 32.683C24.0132 32.7637 23.9063 32.8706 23.9869 32.9531C24.1351 33.0751 24.9717 32.8987 25.3506 32.925C25.3729 32.9292 25.3941 32.9379 25.413 32.9504C25.4318 32.963 25.448 32.9791 25.4606 32.998C25.4732 33.0168 25.4819 33.038 25.4862 33.0603C25.4905 33.0825 25.4903 33.1054 25.4857 33.1276C25.4594 33.4652 24.7354 34.0467 23.8388 34.4256C22.6364 34.9114 20.7325 35.0052 19.9616 34.1274L19.9072 33.6678L21.7042 31.5895L18.7461 31.5763Z"
        fill="#F5FCF3" />
    <path fill-rule="evenodd" clip-rule="evenodd"
        d="M26.915 33.0093C27.3746 32.6567 27.956 32.4016 28.4287 32.0714C29.1171 31.5988 29.7249 31.0979 30.6965 31.0304C30.2892 30.9712 29.8985 30.8288 29.5485 30.6121C31.5068 30.5183 33.075 30.6665 33.8984 31.3962C33.0468 31.6925 31.9945 31.7713 30.8728 31.7882C32.2496 32.4222 33.0468 33.3001 33.2775 34.4142L32.4128 33.8215C32.169 34.2117 32.2102 34.6037 31.9795 34.947C30.9816 36.3519 29.6442 37.256 28.4006 38.1883C27.7384 38.6891 27.1457 39.2556 26.5511 39.7564C26.0684 40.1785 25.5535 40.5623 25.0111 40.9043C24.2008 41.377 23.3492 41.6546 22.6477 41.619C22.2294 41.5927 20.2842 41.1069 20.0404 40.7412C19.9335 40.5536 19.4776 41.1332 19.5133 40.9437C19.5677 40.6868 19.0406 40.2966 19.2169 39.944C19.5133 39.4037 19.744 39.1074 20.0948 38.9179C20.1904 39.6345 20.5412 39.8089 20.9726 40.0528C23.2235 41.3489 26.4967 38.8917 27.2395 36.9334C28.0911 35.1908 28.9952 33.7183 30.0212 32.6923C29.2803 32.2515 28.1999 32.441 26.915 33.0093Z"
        fill="#F5FCF3" />
    <path fill-rule="evenodd" clip-rule="evenodd"
        d="M17.6924 36.2358C18.0675 36.4928 18.3827 36.0482 18.8178 35.6431C19.0879 35.3861 19.48 35.2679 19.7557 34.9941C19.7688 34.5345 19.6488 34.2438 19.2699 33.7523L20.189 33.6435C20.2697 33.6304 20.0127 33.7786 19.9452 33.9811C19.9039 34.0899 20.0258 34.2644 20.0258 34.345C20.0228 34.4392 20.0386 34.5329 20.0724 34.6208C20.1061 34.7088 20.157 34.789 20.2222 34.857C20.2874 34.925 20.3654 34.9792 20.4519 35.0166C20.5383 35.054 20.6313 35.0738 20.7255 35.0747C20.8999 35.0878 21.1832 35.1704 21.4533 35.1835C22.2036 35.2229 23.1827 35.2773 23.4941 35.1554C23.9201 35.0192 24.339 34.8614 24.749 34.6827C25.5199 34.3188 26.3433 33.9005 27.058 33.5216C28.0315 32.9945 28.8831 32.5837 29.761 32.6719C29.247 32.8876 28.8831 32.8594 28.5042 33.5347C27.964 34.5214 27.7201 36.0482 27.1799 36.8848C26.6678 37.6951 26.1952 38.5336 25.6549 39.0738C24.4526 40.2743 22.6969 40.7338 21.4683 40.3962C21.0631 40.2893 20.4816 40.0586 20.2246 39.6665C20.0896 39.464 20.1177 39.1807 20.0896 38.9162L19.6169 39.1995L19.3881 37.9033L18.5627 37.2281C18.9829 37.1737 19.0636 36.8773 18.7259 36.7554C18.5249 36.7245 18.3211 36.7156 18.1182 36.7291C17.8556 36.7235 17.9775 36.3577 17.6924 36.2358Z"
        fill="#05091E" />
    <path fill-rule="evenodd" clip-rule="evenodd"
        d="M27.0804 35.8849C27.0391 35.9525 27.0654 36.0875 26.9716 36.1682C26.8778 36.2488 26.6602 36.1963 26.6471 36.2638C26.6339 36.3314 26.904 36.3314 26.9584 36.4251C27.0128 36.5189 26.8778 36.7365 26.8365 36.8303C26.5927 37.2355 26.2419 37.6688 26.0131 38.0064C25.5948 38.6141 24.987 38.9912 24.4318 39.3963C23.4189 40.1466 21.9483 40.4636 21.4081 39.9778C20.7722 38.8167 22.7211 37.2636 24.5406 36.4251C25.7898 35.8455 27.026 35.7105 27.0804 35.8849Z"
        fill="#D80545" />
    <path fill-rule="evenodd" clip-rule="evenodd"
        d="M24.067 37.6069C24.067 38.4041 24.4985 38.768 24.1083 39.0794C23.5456 39.524 22.0544 39.674 21.5948 39.3495C21.4597 39.1469 22.0412 38.8224 22.7709 38.391C23.176 38.1547 23.5381 37.7364 24.067 37.6069Z"
        fill="#FA5165" />
    <path fill-rule="evenodd" clip-rule="evenodd"
        d="M17.8008 31.7114L20.515 31.415L21.7042 31.5914L20.273 32.2122L18.3823 32.7787L17.8008 31.7114Z"
        fill="#F4F5EA" />
    <path fill-rule="evenodd" clip-rule="evenodd"
        d="M17.9355 31.9551C18.7196 32.2252 19.4624 32.2252 20.1639 31.8332C20.4209 31.685 20.7998 31.7788 21.0831 31.6588L21.3532 31.4712L21.8652 31.7282L21.2181 32.3547L20.5372 32.576L20.1321 33.5139L19.665 33.8553L18.6521 33.1931L17.9355 31.9551Z"
        fill="#D80545" />
    <path fill-rule="evenodd" clip-rule="evenodd"
        d="M16.7617 26.5925L17.0168 26.1742H18.463L17.9491 25.6471L19.6372 24.0133L21.6631 22.6365L22.8935 22.2576L24.1222 22.0006L20.637 19.6109L20.8659 19.3802L23.1486 19.7872L25.7015 21.164L23.6363 19.097L23.2987 17.8683L23.4056 17.3281L26.0392 19.1926L27.8624 21.92L28.0256 20.3274L32.6043 21.0965L30.5504 23.4056L32.82 24.878L33.8873 28.4438L17.1931 28.4701L16.7617 26.5925Z"
        fill="#46CAD7" />
    <path fill-rule="evenodd" clip-rule="evenodd"
        d="M17.5723 27.0802C19.2736 27.7555 19.7725 27.5529 19.1104 26.4987C19.8944 26.7013 20.2865 27.4178 20.9355 27.249C21.5151 27.1008 22.528 26.0073 23.177 25.7766L22.6912 26.7144L23.8654 26.4181L27.7557 24.9719L28.808 25C28.6467 25.3376 26.9717 26.1742 28.7686 25.9998L28.9037 27.4441L24.837 27.853L18.5983 28.487L17.5723 27.0802Z"
        fill="#30B6CA" />
    <path fill-rule="evenodd" clip-rule="evenodd"
        d="M34.9388 5.646L36.2087 12.2505L35.0063 18.3148L30.4014 23.4056L33.8452 17.422L34.9519 13.4791L34.9388 5.646Z"
        fill="#2EAAB7" />
    <path fill-rule="evenodd" clip-rule="evenodd"
        d="M34.3864 5.43029L34.7372 4.46991C35.0834 6.21362 35.2555 7.98741 35.2511 9.76515C35.3186 12.6426 35.2774 15.58 34.3132 17.8947C34.2326 18.0822 33.9081 18.1385 33.8143 18.3148C32.8847 20.1636 31.5357 21.7694 29.8752 23.0042C29.7139 23.113 29.592 23.1674 29.4307 23.2743C34.9679 16.666 35.3862 13.1959 34.3864 5.43029Z"
        fill="#054767" />
    <path fill-rule="evenodd" clip-rule="evenodd"
        d="M34.7919 4.11914L34.5631 5.53721L33.0231 7.18599L29.9168 12.817L29.7818 13.4247L29.2266 13.6273L28.6601 22.4471L28.2962 22.2989L27.9717 21.9613L28.2812 12.8714L31.4962 7.63055L34.7919 4.11914Z"
        fill="#F5FCF3" />
    <path fill-rule="evenodd" clip-rule="evenodd"
        d="M34.3862 5.4303C36.0068 11.7778 35.1365 17.6114 30.4471 22.7172L28.6914 22.2445L29.1228 13.6817C29.7306 13.3985 30.0288 13.1415 29.498 12.9521C29.6724 12.4794 30.0232 12.1286 30.2126 11.6972C31.4019 8.96796 32.6567 6.76583 34.3862 5.4303Z"
        fill="#47D7DA" />
    <path fill-rule="evenodd" clip-rule="evenodd"
        d="M34.1834 6.53693L34.2772 7.34725L34.3316 8.52147L30.8877 12.7232L31.1991 11.669L32.589 8.589L34.1834 6.53693Z"
        fill="#920735" />
    <path fill-rule="evenodd" clip-rule="evenodd"
        d="M30.592 13.7492C31.74 11.02 32.9817 9.02234 34.2929 7.74683L34.5217 11.4739L34.2647 14.5408L33.657 16.5985L32.6572 18.598L29.7686 20.4738L30.0912 16.6923L30.592 13.7492Z"
        fill="#D80545" />
    <path fill-rule="evenodd" clip-rule="evenodd"
        d="M29.4434 22.4884L29.7529 20.6501C30.3156 19.1777 30.9158 18.328 31.5911 17.9491L32.0488 17.4895C33.1742 16.8817 32.4539 18.2398 32.6565 18.5981L31.3735 20.5376L30.158 22.0101L29.4434 22.4884Z"
        fill="#D80545" />
    <path fill-rule="evenodd" clip-rule="evenodd"
        d="M31.2128 18.6619L31.8205 15.9195C31.4186 16.6436 30.9528 17.3304 30.4287 17.9716C30.5112 17.4314 30.7532 16.9869 30.862 16.486C31.6592 12.8002 32.8747 10.1929 33.55 10.3542C33.6569 13.8975 33.9814 15.7751 31.2128 18.6619Z"
        fill="#FD4956" />
    <path fill-rule="evenodd" clip-rule="evenodd"
        d="M32.3868 14.1599C32.5219 14.2012 32.1167 15.6868 31.9142 15.6455C31.7116 15.6042 32.2668 14.1599 32.3868 14.1599Z"
        fill="#F4CCB1" />
    <path fill-rule="evenodd" clip-rule="evenodd"
        d="M29.7402 22.1902C30.2358 20.8964 30.8369 19.6454 31.5372 18.45C31.374 19.0708 31.1996 19.7048 31.0364 20.3257C30.9557 20.6483 31.3065 20.5283 31.631 20.1906L30.1585 22.0139L29.7402 22.1902Z"
        fill="#05091E" />
    <path
        d="M28.6484 23.8447L29.0836 22.8955C29.5357 21.9108 29.5751 20.7872 29.6126 19.7067C29.6295 19.2247 29.6482 18.7257 29.7026 18.2568C30.406 12.2844 31.7059 8.73736 34.0431 6.40393L34.2926 6.1582L34.3601 6.49959C34.4409 6.98553 34.4792 7.47759 34.4745 7.97018C34.4745 8.32094 34.4858 8.65108 34.5177 8.92869C34.679 10.5831 34.8065 12.185 34.6133 13.6481C34.1256 17.0601 32.5144 19.975 29.3875 23.1019L28.6484 23.8447ZM34.0543 6.94039C31.9385 9.2138 30.7418 12.6445 30.0759 18.2962C30.0215 18.7482 30.0065 19.2172 29.9877 19.7142C29.9891 20.559 29.8972 21.4013 29.7139 22.2259C32.3924 19.3879 33.7974 16.698 34.2419 13.5974C34.4295 12.1756 34.3038 10.5962 34.1463 8.96808C34.114 8.63894 34.0984 8.30839 34.0994 7.97768C34.0937 7.63067 34.0881 7.27052 34.0543 6.94039Z"
        fill="#05091E" />
    <path
        d="M19.7065 34.0428C19.2488 34.0428 18.2528 32.9586 17.9321 32.5422C17.5138 32.0095 17.5081 31.8088 17.5569 31.6831L17.5794 31.6419C17.6845 31.4974 17.9039 31.4937 18.3016 31.4843C18.6937 31.491 19.0852 31.452 19.4683 31.368C20.1023 31.2029 21.3441 31.1485 21.8224 31.4393C21.8802 31.4699 21.9311 31.5119 21.9721 31.5629C22.013 31.6139 22.0432 31.6726 22.0606 31.7357V31.7788C22.0606 31.8782 22.0606 31.8782 21.5842 32.2665L21.2878 32.5178C21.1937 32.5965 21.0912 32.6645 20.982 32.7204C20.9132 32.7513 20.8499 32.7931 20.7945 32.8442C20.6703 32.9929 20.5616 33.1538 20.47 33.3244C20.2824 33.6508 20.0854 33.9866 19.7422 34.0316L19.7065 34.0428ZM17.9339 31.8838C18.1215 32.3265 19.3895 33.6358 19.7028 33.6677C19.8547 33.6452 19.9973 33.4013 20.1473 33.1444C20.2528 32.9473 20.3785 32.7619 20.5225 32.591C20.6018 32.5143 20.693 32.4509 20.7926 32.4034C20.8809 32.3583 20.9639 32.3036 21.0402 32.2402L21.3497 31.987L21.6179 31.7675C21.2596 31.5631 20.1755 31.58 19.5546 31.7432C19.1425 31.8335 18.7215 31.8763 18.2997 31.8707C18.1815 31.8632 18.0296 31.8651 17.9339 31.8763V31.8838Z"
        fill="#05091E" />
    <path fill-rule="evenodd" clip-rule="evenodd"
        d="M17.9355 25.8103L19.3123 24.2441L21.0155 23.0004L23.454 22.0288L25.0747 22.3252C24.0074 22.569 23.0113 23.6082 21.914 24.7637C21.4957 25.197 20.8748 25.5477 20.4415 26.0335C20.6694 25.1163 21.1088 24.2651 21.7246 23.5482C20.5766 24.2103 19.9145 24.9662 18.7234 26.1967L17.9355 25.8103Z"
        fill="#F5FCF3" />
    <path fill-rule="evenodd" clip-rule="evenodd"
        d="M23.0283 24.9588C23.0133 24.7712 21.9873 24.865 22.0286 25.1464C22.0379 25.227 23.0133 25.0263 23.0283 24.9588Z"
        fill="#F5FCF3" />
    <path fill-rule="evenodd" clip-rule="evenodd"
        d="M27.1481 22.6495C27.2418 22.4206 25.8913 23.0809 25.9326 23.1765C25.9457 23.2309 27.1874 22.7039 27.1481 22.6495Z"
        fill="#F5FCF3" />
    <path fill-rule="evenodd" clip-rule="evenodd"
        d="M28.3893 24.9717C26.93 25.1593 25.647 25.8646 24.379 26.4311C23.7431 26.7274 22.6627 27.0388 22.5951 26.9582C22.5014 26.7556 22.7302 26.3954 23.1354 26.2285C23.5405 26.0616 24.122 26.1197 24.5816 25.9584C24.867 25.8374 25.1462 25.7022 25.4181 25.5532C26.7818 24.9324 27.9166 24.7429 28.3893 24.9717Z"
        fill="#F5FCF3" />
    <path fill-rule="evenodd" clip-rule="evenodd"
        d="M16.6396 26.2829L18.6655 26.3223C19.0838 26.5099 19.4345 27.0726 19.1644 27.2151C19.0162 27.2827 18.8943 26.9169 18.5023 26.7818C18.2059 26.6749 17.6113 26.795 17.5044 26.8494C17.3168 26.93 17.8683 27.7872 17.6657 27.8904L17.0167 27.836L16.6396 26.2829Z"
        fill="#F5FCF3" />
    <path
        d="M25.6374 31.3776L25.4199 31.3569C24.8009 31.3044 24.2269 30.9424 23.6191 30.5597C23.0356 30.1561 22.3961 29.8401 21.7209 29.6219C20.8805 29.3893 19.2167 29.6219 18.9898 29.7832C18.1851 30.3459 17.7086 30.601 17.326 30.4266C16.9096 30.239 16.8495 29.6669 16.7408 28.6315C16.6845 28.1025 16.6151 27.4422 16.4838 26.6563C16.4623 26.5568 16.4655 26.4535 16.4929 26.3555C16.5204 26.2574 16.5713 26.1675 16.6413 26.0936C16.8589 25.8704 17.2247 25.8197 17.6392 25.8385C17.6276 25.7759 17.6321 25.7113 17.6524 25.6509C17.8662 24.91 21.2332 21.9163 23.3922 21.8169C23.1577 21.6649 22.8876 21.4942 22.6419 21.3404C20.4697 19.9674 20.1302 19.6898 20.2184 19.3521C20.2398 19.2771 20.2859 19.2115 20.3492 19.1659C20.4125 19.1203 20.4893 19.0974 20.5673 19.1008C21.7798 19.049 22.9847 19.3161 24.0618 19.8755C23.4728 19.0914 22.9007 18.1385 22.7619 17.2494L22.6925 16.8161L23.1164 16.9362C25.3111 17.5627 26.3408 19.1139 27.2431 20.4832C27.3988 20.7196 27.5526 20.9503 27.7064 21.1679L27.9934 12.7926L28.0271 12.7326C29.7585 9.69578 31.7524 6.52388 34.5923 3.91659L34.9468 3.59021L35.0575 4.05915C35.8378 7.36797 36.2936 10.0465 36.4962 12.4869V12.5375C36.2804 14.5841 35.8265 16.5986 35.1437 18.5399L35.1269 18.5925L35.0893 18.6337C34.7348 19.0389 34.3953 19.4365 34.0558 19.8342C33.1386 20.9071 32.1932 22.012 30.9721 23.2312C32.1088 23.5538 32.6996 24.4392 33.2455 25.4014L33.2586 25.4258C33.9977 27.0859 34.324 28.6709 34.2265 30.1377L34.2059 30.466L32.8159 30.149C31.5967 29.7963 25.9488 30.4716 25.7031 31.1712L25.6374 31.3776ZM20.7605 28.9597C21.1335 28.9515 21.5061 28.9912 21.8691 29.0779C22.596 29.3113 23.2849 29.6501 23.9136 30.0833C24.4238 30.4041 24.8703 30.6854 25.3036 30.7736C25.7068 30.3122 26.8923 29.952 28.8375 29.7007C30.3381 29.5131 32.2851 29.4099 32.9641 29.605L33.6863 29.7701C33.7125 28.4908 33.3993 27.114 32.7578 25.6659C32.165 24.6267 31.6117 23.8202 30.3718 23.6851L29.7772 23.6213L30.2049 23.2049C31.5967 21.8525 32.5871 20.6933 33.6356 19.4684C33.9658 19.0933 34.294 18.6975 34.6373 18.3055C35.297 16.4292 35.7376 14.4831 35.9503 12.5057C35.7627 10.2172 35.3407 7.71311 34.6373 4.65939C32.06 7.13725 30.1974 10.0991 28.5692 12.9502L28.2278 22.6929L27.757 22.1433C27.4052 21.7141 27.0801 21.2637 26.7835 20.7946C25.9601 19.5547 25.1122 18.2773 23.4353 17.634C23.8836 18.9957 25.266 20.4682 25.7537 20.9878C25.9657 21.2148 26.1195 21.3779 25.9413 21.5768C25.7631 21.7756 25.5662 21.6255 25.3786 21.4792L24.9247 21.1041C23.837 20.236 22.5032 19.7332 21.1131 19.6673C21.5821 20.0143 22.3961 20.5264 22.9439 20.8734C24.4445 21.8206 24.5664 21.8975 24.4857 22.1733C24.467 22.2367 24.4278 22.2922 24.3741 22.3309C24.3205 22.3696 24.2555 22.3894 24.1894 22.3871H23.5028C21.6852 22.3871 18.7853 24.9419 18.2657 25.6884L18.6728 25.9285C18.7428 25.9585 18.7989 26.0138 18.8298 26.0834C18.8608 26.1529 18.8643 26.2316 18.8397 26.3037C18.7572 26.5419 18.5415 26.5119 18.2432 26.4687C17.5548 26.3712 17.1515 26.3768 17.0446 26.4875C17.0334 26.5006 17.0315 26.5269 17.0446 26.57C17.1816 27.3766 17.251 28.0444 17.3072 28.5827C17.3673 29.1454 17.4423 29.8676 17.5661 29.9239C17.6149 29.9445 17.8174 29.9239 18.6728 29.3311C18.9598 29.1117 19.9033 28.9597 20.7642 28.9597H20.7605Z"
        fill="#05091E" />
    <path fill-rule="evenodd" clip-rule="evenodd"
        d="M17.4502 27.0127C17.7747 26.9583 17.9491 27.5248 18.4894 27.7405C18.827 27.8756 19.5435 27.7687 19.8024 27.6336C19.9768 27.5529 19.3972 26.7276 19.5585 26.7689C19.9768 26.8495 20.3088 27.7818 20.5321 27.7687C20.8796 27.7284 21.2202 27.6419 21.545 27.5117C21.665 27.4704 21.8282 26.9977 22.0308 26.7614C22.3815 26.3281 22.7998 26.0448 22.9687 26.0111C23.1037 25.9829 22.3328 26.7257 22.1452 27.2266C22.0627 27.4291 22.4153 27.5229 22.4678 27.5098C23.0493 27.401 23.6158 27.1459 24.1841 26.9958C24.6939 26.837 25.187 26.6291 25.6566 26.375C26.1012 26.1593 26.5063 25.8629 26.9527 25.6997C27.3884 25.5261 27.8485 25.4217 28.3164 25.3902C27.6149 25.7128 26.8721 25.9023 26.5607 26.6451L26.5738 27.1046L17.9116 28.3351L17.4502 27.0127Z"
        fill="#05091E" />
    <path fill-rule="evenodd" clip-rule="evenodd"
        d="M29.335 24.4186C29.7036 24.3199 30.0918 24.3199 30.4604 24.4186L29.8977 24.0134C31.1394 24.3117 32.2461 25.0001 32.8276 27.0803L31.6796 26.5926C31.4414 25.3921 30.6855 24.6343 29.335 24.4186Z"
        fill="#052747" />
    <path fill-rule="evenodd" clip-rule="evenodd"
        d="M12.8848 28.6726L20.0839 27.6466L20.596 27.7554L30.0516 25.8909L29.9691 28.7551L30.0104 29.9556L29.3764 30.0231L28.5792 29.8074L28.4985 30.7134L28.1065 30.7528L28.2809 31.8614L24.0549 32.5629L23.9592 32.2384L28.1459 31.55L28.0934 31.3474L23.7566 32.1446L23.5278 31.8332L23.177 31.8745L23.1639 31.0098L22.9332 30.9423L22.9463 31.1448L22.5693 31.2799L22.5955 30.8335L21.5695 30.8072L21.3406 29.753L20.5566 29.8618L20.4609 30.7791L19.1929 31.0511L19.1516 30.5502H20.097L20.2321 30.3739L19.6243 30.3083L19.5849 30.0907L18.8947 30.509L18.7465 31.5763L17.9643 31.6851L17.8686 32.6567L14.8562 33.09L14.8843 32.7392L17.7073 32.3866L17.7205 32.2384L14.8037 32.5629V32.3341L14.5185 32.3059L14.451 31.7657L13.6276 31.807L13.6013 30.8203L12.8848 30.8485V28.6726Z"
        fill="#05091E" />
    <path fill-rule="evenodd" clip-rule="evenodd"
        d="M13.4121 29.0648L20.0973 27.9975L20.0842 29.0648L21.5435 28.9841L21.461 27.8774L29.7274 26.3506L29.7536 27.93L29.3354 28.065L29.4029 27.9037L29.4967 27.8774L29.5117 26.6076L21.6785 28.0388L21.8399 29.5375L22.1644 29.6463L22.1906 30.1584L22.4476 30.254L22.3801 30.3741L21.7986 30.4697V30.3741L21.988 30.2934L22.0162 29.8339L21.7461 29.8207L21.6373 29.1605L20.1254 29.2674L20.1385 29.9689L19.5027 29.8489L19.4895 29.8076L19.9622 29.8207L19.8684 28.2807L13.6147 29.2674L13.5734 30.496L13.4121 30.4829V29.0648Z"
        fill="#F5FCF3" />
    <path fill-rule="evenodd" clip-rule="evenodd"
        d="M14.2765 29.6463L15.4639 29.4156L15.5183 30.1321L16.0453 30.0102L16.0716 29.3218L16.7881 29.1736L16.7619 29.9558L16.1541 30.0646L16.1935 30.9012L16.8557 30.7792L16.7881 29.9426L17.5722 29.7682L17.6247 30.6179L18.2737 30.6592L18.315 31.4826H17.5985L17.5853 30.7661L17.017 30.8749L16.9776 31.659L16.3286 31.7396L16.1129 30.9555L15.5858 31.0231L15.5051 31.7115L14.8036 31.8615V31.0099L15.3832 30.9143V30.239L14.8036 30.2128L14.7886 30.4566H14.3703L14.3572 31.2257L14.209 31.2801L14.2765 29.6463Z"
        fill="#F5FCF3" />
    <path fill-rule="evenodd" clip-rule="evenodd"
        d="M22.3926 28.457L23.0416 28.3501L23.1091 29.4024L23.7844 29.2955L23.7975 28.2807L24.5403 28.1606L24.5534 29.1867L25.2568 29.0648L25.3094 28.0387L26.0128 27.9299L26.1066 28.9841L25.3506 29.1192L25.3375 30.0645L26.1478 29.9689L26.1197 29.106L26.9169 28.9297L26.9713 29.8488L27.8079 29.74V30.6985L26.9844 30.7942L26.9713 29.8488L26.1741 29.9689L26.2154 30.9424L25.4313 31.0774L25.3375 30.0514L24.6491 30.2127L24.5534 29.1867L23.7713 29.2955L23.865 30.3215L24.6341 30.3084L24.621 31.1037L23.9063 31.28L23.865 30.3215L23.1222 30.374L23.1091 29.4024L22.3926 29.4305V28.457Z"
        fill="#F5FCF3" />
    <path fill-rule="evenodd" clip-rule="evenodd"
        d="M29.9834 28.3087L30.2122 26.1741L35.9389 28.9164L35.8301 30.4827L29.9834 28.3087Z"
        fill="#0E4F70" />
    <path fill-rule="evenodd" clip-rule="evenodd"
        d="M30.1869 27.9448L35.3584 29.9031L35.3734 30.2257L30.0781 28.1999L30.1869 27.9448Z"
        fill="#4CB6CA" />
    <path fill-rule="evenodd" clip-rule="evenodd"
        d="M30.7393 27.0801L31.1032 27.202L31.1444 27.8491L30.8481 27.7422L30.7393 27.0801Z"
        fill="#FAFCFC" />
    <path fill-rule="evenodd" clip-rule="evenodd"
        d="M30.1321 26.2961L30.753 26.54L30.5635 27.6467L30.0908 27.8493L30.1321 26.2961Z"
        fill="#72EFE8" />
    <path fill-rule="evenodd" clip-rule="evenodd"
        d="M30.7266 26.7144L35.5604 28.9427L35.5341 30.1188L35.4253 29.9838L35.3578 29.1453L30.7397 26.8625L30.7266 26.7144Z"
        fill="#D8FCF9" />
    <path
        d="M36.0012 30.7453L29.7812 28.4325L30.0551 25.8909L36.1344 28.802L36.0012 30.7453ZM30.1864 28.183L35.6636 30.2201L35.7461 29.0309L30.3721 26.4592L30.1864 28.183Z"
        fill="#05091E" />
    <path fill-rule="evenodd" clip-rule="evenodd"
        d="M19.583 35.7312C19.7593 35.6092 20.1645 35.3804 20.232 35.5154C20.3539 35.7987 20.5152 36.7028 20.7459 37.2843C20.8003 37.4325 19.718 37.7701 19.6374 37.757C19.5023 37.7307 19.4892 37.5 19.4085 37.2974C19.2482 36.9182 19.1086 36.5306 18.9902 36.1363L19.583 35.7312Z"
        fill="#B7BCC4" />
    <path fill-rule="evenodd" clip-rule="evenodd"
        d="M19.7179 36.1063C19.8943 35.9712 20.0931 35.9037 20.1512 36.0537C20.2994 36.4289 20.2994 36.594 20.4889 37.2017C20.5301 37.3499 19.7179 37.7644 19.6373 37.755C19.5022 37.7288 19.4891 37.4981 19.4085 37.2955C19.3117 37.101 19.2344 36.8975 19.1777 36.6877L19.7179 36.1063Z"
        fill="#FBFBEB" />
    <path fill-rule="evenodd" clip-rule="evenodd"
        d="M22.8527 35.7105C22.894 35.9656 22.7983 36.3707 22.7852 36.9522C22.772 37.1135 21.5022 37.3274 21.4084 37.3161C21.2733 37.2899 21.1383 37.3311 21.0557 37.1285C20.7856 36.4664 20.5155 35.7105 20.6243 35.5079C20.6656 35.4535 20.84 35.4929 21.0163 35.521C21.8942 35.6692 22.8396 35.6279 22.8527 35.7105Z"
        fill="#B7BCC4" />
    <path fill-rule="evenodd" clip-rule="evenodd"
        d="M22.338 36.0612C22.3793 36.3032 22.353 36.1418 22.3249 36.7365C22.3118 36.8978 21.387 37.2485 21.2989 37.2354C21.1507 37.2091 21.1376 37.3311 21.055 37.1285C20.7849 36.4663 20.5823 36.1418 20.7043 35.9524C20.7324 35.8849 21.0025 35.8455 21.1638 35.8717C22.0379 36.0199 22.3249 35.9655 22.338 36.0612Z"
        fill="#FBFBEB" />
    <path fill-rule="evenodd" clip-rule="evenodd"
        d="M25.7898 36.7084C25.9098 36.8848 25.3846 38.1678 24.4655 38.8036C23.9516 39.1413 22.9124 39.1263 22.7511 39.0325C22.616 38.9106 22.9537 38.6949 23.0737 38.4923C23.1938 38.2897 22.9124 38.3047 23.115 38.1002C23.914 37.3706 25.6022 36.4383 25.7898 36.7084Z"
        fill="#E5273A" />
    <path fill-rule="evenodd" clip-rule="evenodd"
        d="M32.1676 36.911L34.019 36.0613L34.2891 36.3858L32.3702 37.8714L29.7441 38.6536C30.0424 38.5598 30.4063 38.3835 30.8246 38.209C31.2429 38.0346 31.6086 37.7082 32.0007 37.5469C32.3927 37.3856 32.7153 37.0873 32.9048 36.9841C33.2255 36.8435 32.5897 36.9391 32.1676 36.911Z"
        fill="#05091E" />
</svg>
    