<svg width="26" height="26" viewBox="0 0 26 26" fill="none" xmlns="http://www.w3.org/2000/svg">
<g id="Group 3781">
<path id="Vector" d="M26 13C26 5.8203 20.1797 0 13 0C5.8203 0 0 5.8203 0 13C0 20.1797 5.8203 26 13 26C20.1797 26 26 20.1797 26 13Z" fill="url(#paint0_linear_188_46)"/>
<path id="Vector_2" d="M16.6773 15.7367L20.2747 13.6656C20.4649 13.5559 20.5833 13.3517 20.5833 13.1323V8.98939C20.5833 8.7704 20.4649 8.56587 20.2747 8.45618L16.6773 6.38506C16.487 6.27537 16.2503 6.2757 16.0601 6.38506L12.4627 8.45618C12.2724 8.56587 12.1541 8.77007 12.1541 8.98939V16.3925L9.63155 17.8445L7.10906 16.3925V13.4874L9.63155 12.0353L11.2956 12.9931V11.0445L9.94019 10.2643C9.84665 10.2105 9.73994 10.1823 9.63155 10.1823C9.52322 10.1823 9.41646 10.2105 9.32296 10.2643L5.72527 12.3358C5.53498 12.4454 5.41663 12.6497 5.41663 12.869V17.0116C5.41663 17.2306 5.53498 17.4351 5.72527 17.5449L9.32264 19.6162C9.51287 19.7256 9.74925 19.7256 9.93987 19.6162L13.5372 17.5452C13.7275 17.4354 13.8458 17.2309 13.8458 17.0119V9.60884L13.8913 9.58279L16.3684 8.1568L18.8908 9.60917V12.5139L16.3684 13.9663L14.7069 13.0098V14.9585L16.0597 15.7377C16.25 15.8471 16.4867 15.8471 16.677 15.7377L16.6773 15.7367Z" fill="white"/>
</g>
<defs>
<linearGradient id="paint0_linear_188_46" x1="0" y1="0" x2="22.5972" y2="28.6812" gradientUnits="userSpaceOnUse">
<stop offset="0.145" stop-color="#982ECC"/>
<stop offset="0.853" stop-color="#7C3FE4"/>
</linearGradient>
</defs>
</svg>
