<svg xmlns="http://www.w3.org/2000/svg" width="100" height="100" viewBox="0 0 100 100" fill="none">
  <g clip-path="url(#clip0_42_7044)">
    <path d="M76.8859 99.8046H29.7157C28.4225 99.8046 27.375 98.7563 27.375 97.4639V6.87182C27.375 5.57941 28.4225 4.53113 29.7157 4.53113H97.66C98.9524 4.53113 100.001 5.57941 100.001 6.87182V76.6891C100.001 78.2066 99.3979 79.6615 98.3252 80.735L80.931 98.1284C79.8583 99.2019 78.4034 99.8046 76.8859 99.8046Z" fill="url(#paint0_linear_42_7044)"/>
    <path d="M27.375 89.1738V97.4639C27.375 98.7563 28.4225 99.8046 29.7157 99.8046H76.8859C78.4034 99.8046 79.8583 99.2019 80.931 98.1284L89.8856 89.1738H27.375Z" fill="url(#paint1_linear_42_7044)"/>
    <path d="M79.2539 81.0142V99.2889C79.8711 99.0074 80.4403 98.6175 80.9293 98.1285L98.3236 80.735C98.8118 80.246 99.2025 79.6768 99.4832 79.0588H81.2086C80.129 79.0588 79.2539 79.9347 79.2539 81.0142Z" fill="url(#paint2_linear_42_7044)"/>
    <path d="M100.001 52.1683V6.87182C100.001 5.57941 98.9531 4.53113 97.66 4.53113H29.7157C28.4225 4.53113 27.375 5.57941 27.375 6.87182V52.1683H100.001Z" fill="url(#paint3_linear_42_7044)"/>
    <path d="M80.931 98.1284L98.3252 80.735C99.3979 79.6623 100.001 78.2066 100.001 76.6891V65.0757L43.4593 8.53427C42.073 7.01678 40.5006 5.67096 38.7802 4.53113H29.7157C28.4225 4.53113 27.375 5.57941 27.375 6.87182V73.9418L53.2371 99.8046H76.8859C78.4034 99.8046 79.8583 99.2019 80.931 98.1284Z" fill="url(#paint4_linear_42_7044)"/>
    <path d="M61.4431 17.0006H87.9681C88.9821 17.0006 89.8038 17.8223 89.8038 18.8362V45.3613C89.8038 46.3753 88.9821 47.197 87.9681 47.197H61.4431C60.4291 47.197 59.6074 46.3753 59.6074 45.3613V18.8362C59.6074 17.8231 60.4291 17.0006 61.4431 17.0006Z" fill="url(#paint5_linear_42_7044)"/>
    <path d="M59.6074 24.6834V45.3621C59.6074 46.3753 60.4291 47.197 61.4431 47.197H82.121L59.6074 24.6834Z" fill="url(#paint6_linear_42_7044)"/>
    <path d="M38.6094 58.9882H90.1169V61.8881H38.6094V58.9882Z" fill="url(#paint7_linear_42_7044)"/>
    <path d="M37.8359 69.1277H90.1171V72.0276H37.8359V69.1277Z" fill="url(#paint8_linear_42_7044)"/>
    <path d="M37.2559 79.2671H73.3451V82.167H37.2559V79.2671Z" fill="url(#paint9_linear_42_7044)"/>
    <path d="M37.2559 89.4058H73.3451V92.3057H37.2559V89.4058Z" fill="url(#paint10_linear_42_7044)"/>
    <path d="M49.9978 25.3899C49.9978 11.699 38.9916 0.578363 25.3442 0.392969C11.3725 0.20376 0.0382399 11.3472 9.30538e-05 25.3205C-0.0212692 33.236 3.63702 40.2977 9.35983 44.8921C12.8205 47.67 14.8301 51.87 14.8301 56.3072V58.1345H35.1678V56.2859C35.1678 51.8189 37.2452 47.6387 40.7166 44.828C46.3784 40.2458 49.9978 33.2405 49.9978 25.3899Z" fill="url(#paint11_linear_42_7044)"/>
    <path d="M14.8164 59.0698H35.1815V64.7812H14.8164V59.0698Z" fill="url(#paint12_linear_42_7044)"/>
    <path d="M14.8164 59.0698V60.305L19.2926 64.7812H35.1815V59.0698H14.8164Z" fill="url(#paint13_linear_42_7044)"/>
    <path d="M15.6211 66.8602C16.6549 71.0808 20.4604 74.2134 24.9991 74.2134C29.5386 74.2134 33.3442 71.0808 34.3772 66.8602H15.6211Z" fill="url(#paint14_linear_42_7044)"/>
    <path d="M11.291 46.7621C13.5554 49.3957 14.8295 52.7756 14.8295 56.3072V58.1344H35.1672V56.2858C35.1672 52.7527 36.468 49.4003 38.7286 46.7621H11.291Z" fill="url(#paint15_linear_42_7044)"/>
    <path d="M35.7472 60.2264H14.2514C13.8341 60.2264 13.4961 59.8885 13.4961 59.4711V56.929C13.4961 56.5117 13.8341 56.1737 14.2514 56.1737H35.7472C36.1645 56.1737 36.5025 56.5117 36.5025 56.929V59.4711C36.5025 59.8877 36.1645 60.2264 35.7472 60.2264Z" fill="url(#paint16_linear_42_7044)"/>
    <path d="M35.7472 67.6772H14.2514C13.8341 67.6772 13.4961 67.3393 13.4961 66.9219V64.3798C13.4961 63.9625 13.8341 63.6245 14.2514 63.6245H35.7472C36.1645 63.6245 36.5025 63.9625 36.5025 64.3798V66.9219C36.5025 67.3385 36.1645 67.6772 35.7472 67.6772Z" fill="url(#paint17_linear_42_7044)"/>
    <path d="M33.8835 13.2859C33.6005 12.7511 32.981 12.3109 32.022 11.966C31.0835 11.6288 30.0833 11.3984 29.0259 11.2679C28.9786 11.2184 27.4291 9.62839 27.1865 9.4491C26.9347 9.26447 26.6646 9.17139 26.3739 9.17139C26.3678 9.17139 24.6611 9.17139 24.6558 9.17139C24.4971 9.17139 24.3498 9.19504 24.214 9.24081C24.079 9.28735 23.9546 9.35678 23.8425 9.4491C23.6739 9.58795 23.5686 9.7413 23.5266 9.90991C23.5129 9.96561 23.506 10.0236 23.506 10.0831V11.2321C22.1678 11.3809 20.967 11.715 19.9034 12.2353C19.2649 12.5474 18.6751 12.9266 18.1357 13.3721C16.6953 14.5615 15.9758 16.3041 15.9758 18.599C15.9758 19.4161 16.0681 20.1615 16.2528 20.8337C16.4382 21.5066 16.7418 22.0933 17.1645 22.5938C17.3758 22.8448 17.5826 23.0767 17.784 23.2911C17.784 23.2911 23.461 28.959 23.4938 28.9872C23.4984 28.9918 23.5022 28.9963 23.506 29.0002V35.3387C23.0155 35.1891 22.5569 34.9892 22.1305 34.7367C21.2393 34.2095 20.5382 33.7151 20.0286 33.2535C19.5182 32.792 19.1062 32.5608 18.7926 32.5608C18.7865 32.5608 17.079 32.5608 17.0745 32.5608C16.7197 32.5608 16.3947 32.7019 16.0987 32.9842C16.0002 33.0781 15.9049 33.1879 15.8133 33.3131C15.4456 33.8135 15.2617 34.3148 15.2617 34.816C15.2617 34.8824 15.2648 34.9488 15.2716 35.0152C15.309 35.4142 15.4586 35.8102 15.721 36.2031C15.7889 36.3045 15.866 36.406 15.9491 36.5075C16.0262 36.6021 16.1078 36.6967 16.1986 36.7905L35.179 55.7587C35.3354 51.4916 37.3824 47.5281 40.7172 44.8281C45.4634 40.9859 48.773 35.4409 49.7191 29.1222L33.8835 13.2859Z" fill="url(#paint18_linear_42_7044)"/>
    <path d="M26.3732 41.6313C26.6638 41.6313 26.9339 41.5398 27.1857 41.3582C27.4367 41.1766 27.5618 40.9691 27.5618 40.7356V39.4112C29.769 39.093 31.5161 38.2378 32.804 36.8462C34.0918 35.4538 34.7357 33.5777 34.7357 31.2164C34.7357 29.9248 34.5381 28.7972 34.1445 27.8351C33.75 26.8723 33.1656 26.075 32.3905 25.4418C31.6153 24.8093 30.8791 24.3149 30.1825 23.9586C29.4867 23.6023 28.6131 23.2269 27.5618 22.831V15.1055C28.002 15.2313 28.4308 15.3939 28.8489 15.5922C29.7949 16.0416 30.374 16.2659 30.5846 16.2659H32.3027C32.836 16.2659 33.2625 16.008 33.5822 15.493C33.9018 14.9781 34.0621 14.4821 34.0621 14.0068C34.0621 13.1348 33.3815 12.455 32.0204 11.966C30.6593 11.4769 29.1731 11.2061 27.5618 11.1534V10.083C27.5618 9.84576 27.4359 9.63443 27.1849 9.44904C26.9339 9.2644 26.6631 9.17133 26.3732 9.17133C26.3671 9.17133 24.6596 9.17133 24.6543 9.17133C24.3376 9.17133 24.066 9.2644 23.8417 9.44904C23.6174 9.63443 23.5053 9.845 23.5053 10.083V11.2328C21.3652 11.4701 19.5746 12.1834 18.1349 13.3728C16.6945 14.5615 15.9751 16.304 15.9751 18.599C15.9751 19.4168 16.0674 20.1615 16.2528 20.8344C16.4374 21.5065 16.7411 22.0932 17.1645 22.5937C17.5864 23.095 17.99 23.5237 18.373 23.88C18.756 24.2356 19.2977 24.5789 19.998 24.9085C20.6977 25.2381 21.2599 25.4883 21.6826 25.6592C22.1045 25.8309 22.7126 26.062 23.5053 26.3519V35.3394C23.0155 35.1898 22.5562 34.9892 22.1297 34.7366C21.2386 34.2102 20.5374 33.7158 20.0278 33.2535C19.5174 32.7919 19.1054 32.5615 18.7918 32.5615C18.7857 32.5615 17.0783 32.5615 17.0737 32.5615C16.6007 32.5615 16.1803 32.8117 15.8126 33.313C15.4448 33.8142 15.2617 34.3147 15.2617 34.816C15.2617 35.8818 16.0605 36.927 17.6596 37.9524C19.258 38.9778 21.2065 39.5035 23.5053 39.5302V40.7364C23.5053 40.9699 23.6174 41.1774 23.8425 41.3589C24.066 41.5398 24.3376 41.6313 24.655 41.6313H26.3732ZM27.3245 28.1716C27.6511 28.4073 27.9372 28.6575 28.1821 28.923C28.7894 29.5822 29.0938 30.4916 29.0938 31.6513C29.0938 33.21 28.5033 34.3201 27.3245 34.9831V28.1716ZM23.7433 21.3242C23.2787 21.0762 22.8903 20.8206 22.5783 20.5574C21.9374 20.0173 21.617 19.233 21.617 18.2038C21.617 16.7893 22.3258 15.8135 23.7433 15.2756V21.3242Z" fill="url(#paint19_linear_42_7044)"/>
    <path d="M15.2617 34.816C15.2617 34.3147 15.4448 33.8142 15.8126 33.313C16.1803 32.8117 16.6007 32.5615 17.0737 32.5615C17.3873 32.5615 17.7985 32.7919 18.3089 33.2535C18.8193 33.7158 19.5197 34.2094 20.4116 34.7366C21.3034 35.2646 22.3342 35.5675 23.5053 35.6468V26.3519C22.7126 26.062 22.1045 25.8316 21.6826 25.66C21.2592 25.4891 20.6977 25.2381 19.998 24.9085C19.2977 24.5789 18.756 24.2363 18.373 23.88C17.99 23.5237 17.5864 23.095 17.1645 22.5945C16.7411 22.0932 16.4374 21.5065 16.2528 20.8344C16.0674 20.1615 15.9751 19.4168 15.9751 18.5997C15.9751 16.304 16.6945 14.5615 18.1349 13.3728C19.5754 12.1834 21.3652 11.4701 23.5053 11.2328V10.083C23.5053 9.84576 23.6174 9.63443 23.8425 9.44904C24.0668 9.2644 24.3376 9.17133 24.655 9.17133C24.9449 9.17133 25.2158 9.2644 25.4675 9.44904C25.7186 9.63443 25.8437 9.84576 25.8437 10.083V11.1534C27.455 11.2061 28.9412 11.4769 30.3023 11.966C31.6634 12.455 32.3439 13.1348 32.3439 14.0068C32.3439 14.4821 32.1829 14.9781 31.864 15.493C31.5444 16.008 31.1179 16.2659 30.5853 16.2659C30.3748 16.2659 29.7957 16.0416 28.8497 15.5922C27.9021 15.1428 26.9003 14.8789 25.8437 14.7995V22.8317C26.895 23.2269 27.7686 23.6031 28.4644 23.9594C29.1609 24.3149 29.8972 24.8093 30.6723 25.4425C31.4475 26.075 32.0326 26.873 32.4263 27.8351C32.82 28.7979 33.0176 29.9255 33.0176 31.2172C33.0176 33.5777 32.3737 35.4538 31.0858 36.8462C29.798 38.2385 28.0509 39.0938 25.8437 39.4119V40.7356C25.8437 40.9699 25.7186 41.1766 25.4675 41.3589C25.2158 41.5405 24.9457 41.6313 24.655 41.6313C24.3376 41.6313 24.0668 41.5405 23.8425 41.3597C23.6182 41.1774 23.5053 40.9699 23.5053 40.7364V39.5309C21.2073 39.5042 19.258 38.9786 17.6596 37.9532C16.0605 36.927 15.2617 35.8818 15.2617 34.816ZM19.8989 18.2038C19.8989 19.233 20.2193 20.0173 20.8594 20.5574C21.5003 21.0983 22.4616 21.6057 23.7433 22.0802V14.8751C21.1798 15.1924 19.8989 16.3018 19.8989 18.2038ZM25.6064 35.5675C27.9311 35.1456 29.0938 33.8402 29.0938 31.6513C29.0938 30.4916 28.7894 29.5822 28.1821 28.923C27.574 28.2639 26.7157 27.697 25.6056 27.2217V35.5675H25.6064Z" fill="url(#paint20_linear_42_7044)"/>
  </g>
  <defs>
    <linearGradient id="paint0_linear_42_7044" x1="36.4262" y1="23.3871" x2="124.928" y2="116.821" gradientUnits="userSpaceOnUse">
      <stop stop-color="#FFFCF8"/>
      <stop offset="0.1875" stop-color="#FAF8F6"/>
      <stop offset="0.4041" stop-color="#ECEEF2"/>
      <stop offset="0.6353" stop-color="#D5DCEA"/>
      <stop offset="0.875" stop-color="#B5C4DF"/>
      <stop offset="1" stop-color="#A1B5D8"/>
    </linearGradient>
    <linearGradient id="paint1_linear_42_7044" x1="58.6304" y1="96.0075" x2="58.6304" y2="103.231" gradientUnits="userSpaceOnUse">
      <stop stop-color="#A1B5D8" stop-opacity="0"/>
      <stop offset="0.2632" stop-color="#8EA0BA" stop-opacity="0.262745"/>
      <stop offset="0.5306" stop-color="#808FA3" stop-opacity="0.529412"/>
      <stop offset="0.7822" stop-color="#778595" stop-opacity="0.780392"/>
      <stop offset="1" stop-color="#748290"/>
    </linearGradient>
    <linearGradient id="paint2_linear_42_7044" x1="81.8724" y1="81.2599" x2="93.9693" y2="94.031" gradientUnits="userSpaceOnUse">
      <stop stop-color="#FFFCF8"/>
      <stop offset="0.1875" stop-color="#FAF8F6"/>
      <stop offset="0.4041" stop-color="#ECEEF2"/>
      <stop offset="0.6353" stop-color="#D5DCEA"/>
      <stop offset="0.875" stop-color="#B5C4DF"/>
      <stop offset="1" stop-color="#A1B5D8"/>
    </linearGradient>
    <linearGradient id="paint3_linear_42_7044" x1="43.6604" y1="5.11775" x2="107.775" y2="81.8787" gradientUnits="userSpaceOnUse">
      <stop stop-color="#FFFCF8"/>
      <stop offset="0.1875" stop-color="#FAF8F6"/>
      <stop offset="0.4041" stop-color="#ECEEF2"/>
      <stop offset="0.6353" stop-color="#D5DCEA"/>
      <stop offset="0.875" stop-color="#B5C4DF"/>
      <stop offset="1" stop-color="#A1B5D8"/>
    </linearGradient>
    <linearGradient id="paint4_linear_42_7044" x1="55.9507" y1="58.3817" x2="5.75466" y2="27.0091" gradientUnits="userSpaceOnUse">
      <stop stop-color="#A1B5D8" stop-opacity="0"/>
      <stop offset="0.2632" stop-color="#8EA0BA" stop-opacity="0.262745"/>
      <stop offset="0.5306" stop-color="#808FA3" stop-opacity="0.529412"/>
      <stop offset="0.7822" stop-color="#778595" stop-opacity="0.780392"/>
      <stop offset="1" stop-color="#748290"/>
    </linearGradient>
    <linearGradient id="paint5_linear_42_7044" x1="68.121" y1="21.9429" x2="90.4795" y2="56.428" gradientUnits="userSpaceOnUse">
      <stop stop-color="#445EA0"/>
      <stop offset="0.3216" stop-color="#415A9B"/>
      <stop offset="0.6926" stop-color="#364D8D"/>
      <stop offset="1" stop-color="#2A3D7C"/>
    </linearGradient>
    <linearGradient id="paint6_linear_42_7044" x1="75.1899" y1="47.8884" x2="46.1703" y2="24.7511" gradientUnits="userSpaceOnUse">
      <stop stop-color="#2A3D7C" stop-opacity="0"/>
      <stop offset="0.3949" stop-color="#273A77" stop-opacity="0.396078"/>
      <stop offset="0.8504" stop-color="#1E3069" stop-opacity="0.85098"/>
      <stop offset="1" stop-color="#1A2B63"/>
    </linearGradient>
    <linearGradient id="paint7_linear_42_7044" x1="38.6094" y1="60.4381" x2="90.1166" y2="60.4381" gradientUnits="userSpaceOnUse">
      <stop stop-color="#FF4974"/>
      <stop offset="0.3262" stop-color="#FE4672"/>
      <stop offset="0.5324" stop-color="#FB3E6C"/>
      <stop offset="0.7054" stop-color="#F52F60"/>
      <stop offset="0.8591" stop-color="#EE1A51"/>
      <stop offset="1" stop-color="#E4003D"/>
    </linearGradient>
    <linearGradient id="paint8_linear_42_7044" x1="37.8363" y1="70.5775" x2="90.1168" y2="70.5775" gradientUnits="userSpaceOnUse">
      <stop stop-color="#FF4974"/>
      <stop offset="0.3262" stop-color="#FE4672"/>
      <stop offset="0.5324" stop-color="#FB3E6C"/>
      <stop offset="0.7054" stop-color="#F52F60"/>
      <stop offset="0.8591" stop-color="#EE1A51"/>
      <stop offset="1" stop-color="#E4003D"/>
    </linearGradient>
    <linearGradient id="paint9_linear_42_7044" x1="37.2561" y1="80.7168" x2="73.345" y2="80.7168" gradientUnits="userSpaceOnUse">
      <stop stop-color="#FF4974"/>
      <stop offset="0.3262" stop-color="#FE4672"/>
      <stop offset="0.5324" stop-color="#FB3E6C"/>
      <stop offset="0.7054" stop-color="#F52F60"/>
      <stop offset="0.8591" stop-color="#EE1A51"/>
      <stop offset="1" stop-color="#E4003D"/>
    </linearGradient>
    <linearGradient id="paint10_linear_42_7044" x1="37.2561" y1="90.856" x2="73.345" y2="90.856" gradientUnits="userSpaceOnUse">
      <stop stop-color="#FF4974"/>
      <stop offset="0.3262" stop-color="#FE4672"/>
      <stop offset="0.5324" stop-color="#FB3E6C"/>
      <stop offset="0.7054" stop-color="#F52F60"/>
      <stop offset="0.8591" stop-color="#EE1A51"/>
      <stop offset="1" stop-color="#E4003D"/>
    </linearGradient>
    <linearGradient id="paint11_linear_42_7044" x1="10.0046" y1="14.1754" x2="39.2351" y2="43.406" gradientUnits="userSpaceOnUse">
      <stop stop-color="#FFD00D"/>
      <stop offset="0.2378" stop-color="#FFCB0E"/>
      <stop offset="0.5353" stop-color="#FFBB11"/>
      <stop offset="0.8632" stop-color="#FFA215"/>
      <stop offset="1" stop-color="#FF9517"/>
    </linearGradient>
    <linearGradient id="paint12_linear_42_7044" x1="20.0096" y1="56.9361" x2="29.743" y2="66.6695" gradientUnits="userSpaceOnUse">
      <stop stop-color="#445EA0"/>
      <stop offset="0.3216" stop-color="#415A9B"/>
      <stop offset="0.6926" stop-color="#364D8D"/>
      <stop offset="1" stop-color="#2A3D7C"/>
    </linearGradient>
    <linearGradient id="paint13_linear_42_7044" x1="25.6148" y1="66.3197" x2="24.3403" y2="52.5942" gradientUnits="userSpaceOnUse">
      <stop stop-color="#2A3D7C" stop-opacity="0"/>
      <stop offset="0.5139" stop-color="#20326D" stop-opacity="0.513725"/>
      <stop offset="1" stop-color="#1A2B63"/>
    </linearGradient>
    <linearGradient id="paint14_linear_42_7044" x1="19.7023" y1="62.5495" x2="30.3454" y2="73.1925" gradientUnits="userSpaceOnUse">
      <stop stop-color="#FFFCF8"/>
      <stop offset="0.1875" stop-color="#FAF8F6"/>
      <stop offset="0.4041" stop-color="#ECEEF2"/>
      <stop offset="0.6353" stop-color="#D5DCEA"/>
      <stop offset="0.875" stop-color="#B5C4DF"/>
      <stop offset="1" stop-color="#A1B5D8"/>
    </linearGradient>
    <linearGradient id="paint15_linear_42_7044" x1="25.0099" y1="51.1738" x2="25.0099" y2="59.5072" gradientUnits="userSpaceOnUse">
      <stop stop-color="#FF9517" stop-opacity="0"/>
      <stop offset="0.3074" stop-color="#EE8421" stop-opacity="0.305882"/>
      <stop offset="0.6784" stop-color="#E07728" stop-opacity="0.678431"/>
      <stop offset="1" stop-color="#DB722B"/>
    </linearGradient>
    <linearGradient id="paint16_linear_42_7044" x1="19.9913" y1="53.192" x2="29.7611" y2="62.9618" gradientUnits="userSpaceOnUse">
      <stop stop-color="#445EA0"/>
      <stop offset="0.3216" stop-color="#415A9B"/>
      <stop offset="0.6926" stop-color="#364D8D"/>
      <stop offset="1" stop-color="#2A3D7C"/>
    </linearGradient>
    <linearGradient id="paint17_linear_42_7044" x1="19.9913" y1="60.6429" x2="29.7611" y2="70.4127" gradientUnits="userSpaceOnUse">
      <stop stop-color="#445EA0"/>
      <stop offset="0.3216" stop-color="#415A9B"/>
      <stop offset="0.6926" stop-color="#364D8D"/>
      <stop offset="1" stop-color="#2A3D7C"/>
    </linearGradient>
    <linearGradient id="paint18_linear_42_7044" x1="45.9451" y1="40.6387" x2="18.6811" y2="25.5718" gradientUnits="userSpaceOnUse">
      <stop stop-color="#FF9517" stop-opacity="0"/>
      <stop offset="0.3074" stop-color="#EE8421" stop-opacity="0.305882"/>
      <stop offset="0.6784" stop-color="#E07728" stop-opacity="0.678431"/>
      <stop offset="1" stop-color="#DB722B"/>
    </linearGradient>
    <linearGradient id="paint19_linear_42_7044" x1="51.6391" y1="25.4013" x2="31.124" y2="25.4013" gradientUnits="userSpaceOnUse">
      <stop stop-color="#FFD00D"/>
      <stop offset="0.2378" stop-color="#FFCB0E"/>
      <stop offset="0.5353" stop-color="#FFBB11"/>
      <stop offset="0.8632" stop-color="#FFA215"/>
      <stop offset="1" stop-color="#FF9517"/>
    </linearGradient>
    <linearGradient id="paint20_linear_42_7044" x1="14.3878" y1="25.4013" x2="37.2912" y2="25.4013" gradientUnits="userSpaceOnUse">
      <stop stop-color="#FFD00D"/>
      <stop offset="0.2378" stop-color="#FFCB0E"/>
      <stop offset="0.5353" stop-color="#FFBB11"/>
      <stop offset="0.8632" stop-color="#FFA215"/>
      <stop offset="1" stop-color="#FF9517"/>
    </linearGradient>
    <clipPath id="clip0_42_7044">
      <rect width="100" height="100" fill="white"/>
    </clipPath>
  </defs>
</svg>