<svg width="22" height="18" viewBox="0 0 22 18" fill="none" xmlns="http://www.w3.org/2000/svg">
    <path fill-rule="evenodd" clip-rule="evenodd"
        d="M3.18556 15.6156H7.57285C8.00351 15.6156 8.35268 15.9644 8.35268 16.3954C8.35268 16.8265 8.00351 17.1752 7.57285 17.1752H3.18556C1.42905 17.1752 0 15.7496 0 13.9973V4.35989C0 3.92109 0.0892918 3.50272 0.250645 3.12204C0.734848 1.97885 1.86803 1.17509 3.18556 1.17509H3.90409V0.779842C3.90409 0.348805 4.25326 1.52588e-05 4.68391 1.52588e-05C5.11457 1.52588e-05 5.46374 0.348805 5.46374 0.779842V1.17509H11.7126V0.779842C11.7126 0.348805 12.0618 1.52588e-05 12.4925 1.52588e-05C12.9231 1.52588e-05 13.2723 0.348805 13.2723 0.779842V1.17509H13.9927C15.7488 1.17509 17.1779 2.60375 17.1779 4.36065V8.53927C17.1779 8.97031 16.8287 9.3191 16.3981 9.3191C15.9674 9.3191 15.6182 8.97031 15.6182 8.53927V6.34677H1.55965V13.9973C1.55965 14.8898 2.28922 15.6156 3.18556 15.6156ZM1.55965 4.78712H15.6167V4.35989C15.6167 3.46507 14.8887 2.73703 13.9939 2.73703H13.2723V3.13379C13.2723 3.56483 12.9231 3.91362 12.4925 3.91362C12.0618 3.91362 11.7126 3.56483 11.7126 3.13379V2.73703H5.46374V3.13379C5.46374 3.56483 5.11457 3.91362 4.68391 3.91362C4.25326 3.91362 3.90409 3.56483 3.90409 3.13379V2.73703H3.18252C2.62344 2.73703 2.12944 3.02123 1.83748 3.45279C1.66213 3.71224 1.55965 4.02471 1.55965 4.36065V4.78712ZM17.3539 10.5366L20.1942 10.5366C20.6698 10.5366 21.0553 10.9222 21.0553 11.3978V14.238C21.0553 14.4664 20.9646 14.6854 20.8031 14.8469C20.2605 15.3895 19.3328 15.0051 19.333 14.2378L19.3333 13.3615L16.3432 16.3513C16.0386 16.6559 15.5451 16.6559 15.2405 16.3513L13.3888 14.4999L10.1172 17.7716C9.96486 17.9239 9.76534 18 9.56581 18C9.36629 18 9.16676 17.9239 9.01445 17.7716C8.70983 17.4669 8.70983 16.9734 9.01445 16.6688L12.8374 12.8458C13.1421 12.5412 13.6355 12.5412 13.9402 12.8458L15.7919 14.6972L18.2307 12.2586L17.3542 12.2589C16.5869 12.2591 16.2024 11.3314 16.745 10.7888C16.9065 10.6273 17.1255 10.5366 17.3539 10.5366Z"
        fill="#CFE160" />
</svg>
    