<svg width="24" height="24" viewBox="0 0 24 24" fill="none" xmlns="http://www.w3.org/2000/svg">
    <path
        d="M4.50036 3.88L8.93236 8.02001L7.56836 9.48L5.50036 7.55V16C5.50036 17.1 6.39636 18 7.50036 18H13.0004V20H7.50036C5.29136 20 3.50036 18.21 3.50036 16V7.55L1.43236 9.48L0.0683594 8.02001L4.50036 3.88ZM16.5004 6H11.0004V4H16.5004C18.7094 4 20.5004 5.79 20.5004 8V16.45L22.5684 14.52L23.9324 15.98L19.5004 20.12L15.0684 15.98L16.4324 14.52L18.5004 16.45V8C18.5004 6.9 17.6044 6 16.5004 6Z"
        fill="#536471" />
</svg>
    