<svg width="22" height="22" viewBox="0 0 22 22" fill="none" xmlns="http://www.w3.org/2000/svg">
    <path fill-rule="evenodd" clip-rule="evenodd"
        d="M18.7686 3.21807C18.7714 3.21957 18.7742 3.22107 18.7766 3.22344C18.7789 3.22581 18.7804 3.22862 18.7819 3.23143C18.7834 3.23412 18.7848 3.23682 18.787 3.23912C20.7712 5.22988 22 7.97388 22 11C22 14.0261 20.7712 16.7702 18.787 18.7609C18.7848 18.7632 18.7834 18.7659 18.7819 18.7686C18.7804 18.7714 18.7789 18.7742 18.7766 18.7766C18.7742 18.779 18.7714 18.7805 18.7686 18.782C18.7659 18.7834 18.7632 18.7848 18.7609 18.787C16.7701 20.7712 14.0261 22 11 22C7.97387 22 5.22986 20.7712 3.23911 18.787C3.2368 18.7848 3.23411 18.7834 3.23141 18.782C3.22861 18.7805 3.2258 18.779 3.22342 18.7766C3.22105 18.7742 3.21955 18.7714 3.21805 18.7686C3.21661 18.7659 3.21518 18.7632 3.21297 18.7609C1.22883 16.7702 0 14.0261 0 11C0 7.97388 1.22883 5.22988 3.21297 3.23912C3.21518 3.23682 3.21661 3.23413 3.21805 3.23143C3.21955 3.22862 3.22105 3.22581 3.22342 3.22344C3.2258 3.22107 3.22861 3.21957 3.23141 3.21807C3.23411 3.21663 3.2368 3.21519 3.23911 3.21298C5.22986 1.22884 7.97387 1.52588e-05 11 1.52588e-05C14.0261 1.52588e-05 16.7701 1.22884 18.7609 3.21298C18.7632 3.21519 18.7659 3.21663 18.7686 3.21807ZM17.08 15.9689L18.193 17.082C19.4255 15.6267 20.2218 13.7954 20.3888 11.7857H18.8173C18.6599 13.3635 18.0333 14.8047 17.08 15.9689ZM3.18271 11.7857H1.61123C1.77822 13.7954 2.57448 15.6267 3.80695 17.082L4.92002 15.9689C3.9667 14.8047 3.34015 13.3635 3.18271 11.7857ZM4.92002 6.03108L3.80695 4.91802C2.57448 6.3733 1.77822 8.2046 1.61123 10.2143H3.18271C3.34015 8.63649 3.9667 7.19536 4.92002 6.03108ZM15.4441 15.4405C15.4444 15.4403 15.4448 15.4401 15.4451 15.4398C16.5817 14.3018 17.2857 12.7316 17.2857 11C17.2857 9.26846 16.5817 7.69828 15.4451 6.56028C15.4446 6.5598 15.4441 6.5595 15.4435 6.5592C15.4429 6.5589 15.4424 6.5586 15.4419 6.55812C15.4414 6.55764 15.4411 6.55708 15.4408 6.55651C15.4405 6.55595 15.4402 6.55539 15.4397 6.55491C14.3017 5.4183 12.7316 4.7143 11 4.7143C9.26845 4.7143 7.69826 5.4183 6.56026 6.55491C6.55978 6.55539 6.55948 6.55595 6.55918 6.55651C6.55888 6.55708 6.55859 6.55764 6.55811 6.55812C6.5576 6.55863 6.557 6.55893 6.55641 6.55925C6.55587 6.55953 6.55535 6.55983 6.55489 6.56028C5.41828 7.69828 4.71429 9.26846 4.71429 11C4.71429 12.7316 5.41828 14.3018 6.55489 15.4398C6.55554 15.4404 6.55634 15.4407 6.55709 15.4412C6.55745 15.4414 6.5578 15.4416 6.55811 15.4419C6.55859 15.4424 6.55889 15.443 6.55919 15.4435C6.55948 15.4441 6.55978 15.4446 6.56026 15.4451C7.69826 16.5817 9.26845 17.2857 11 17.2857C12.7316 17.2857 14.3017 16.5817 15.4397 15.4451C15.4402 15.4446 15.4405 15.4441 15.4408 15.4435C15.4411 15.443 15.4414 15.4424 15.4419 15.4419C15.4425 15.4413 15.4433 15.441 15.4441 15.4405ZM11.7857 3.18272C13.3635 3.34016 14.8047 3.96671 15.9689 4.92003L17.082 3.80697C15.6267 2.5745 13.7954 1.77823 11.7857 1.61125V3.18272ZM6.03107 4.92003C7.19535 3.96671 8.63648 3.34016 10.2143 3.18272V1.61125C8.20459 1.77823 6.37328 2.5745 4.918 3.80697L6.03107 4.92003ZM10.2143 18.8173C8.63648 18.6599 7.19535 18.0333 6.03107 17.08L4.918 18.1931C6.37328 19.4255 8.20459 20.2218 10.2143 20.3888V18.8173ZM15.9689 17.08C14.8047 18.0333 13.3635 18.6599 11.7857 18.8173V20.3888C13.7954 20.2218 15.6267 19.4255 17.082 18.1931L15.9689 17.08ZM17.08 6.03108C18.0333 7.19536 18.6599 8.63649 18.8173 10.2143H20.3888C20.2218 8.2046 19.4255 6.3733 18.193 4.91802L17.08 6.03108ZM12.894 8.65367L13.9613 8.81557C14.5628 8.90227 15.0539 9.31585 15.2419 9.89439C15.4307 10.4737 15.2772 11.0967 14.8414 11.5218L14.0764 12.2669L14.2528 13.3311C14.3557 13.9311 14.114 14.5258 13.6214 14.8834C13.1295 15.2409 12.4896 15.287 11.9502 15.0031L11.0072 14.5082C11.0064 14.5074 10.9987 14.5074 10.9934 14.5082H10.9918L10.048 15.0038C9.81402 15.1266 9.56081 15.1872 9.30837 15.1872C8.98074 15.1872 8.6554 15.0852 8.37764 14.8834C7.88503 14.5258 7.64333 13.9311 7.74615 13.3311L7.92647 12.2799L7.1584 11.5226C6.72181 11.0967 6.56835 10.4737 6.7571 9.89439C6.94509 9.31585 7.43616 8.90227 8.03773 8.81557L9.09276 8.66211L9.57693 7.69685C9.84625 7.1513 10.391 6.81215 10.9995 6.81215C11.608 6.81215 12.1528 7.1513 12.4221 7.69685L12.894 8.65367ZM12.5241 12.5454C12.4359 12.0306 12.6062 11.5057 12.9799 11.1413L13.7449 10.3962L12.6807 10.2167C12.162 10.1407 11.7154 9.81689 11.4852 9.34884L11.0133 8.39202L10.5138 9.34884C10.2836 9.81689 9.83704 10.1407 9.31988 10.2167L8.26331 10.3701L9.01833 11.1405C9.39278 11.5057 9.56312 12.0306 9.47488 12.5454L9.29456 13.5966L10.2614 13.117C10.4923 12.995 10.7455 12.9344 10.9995 12.9344C11.2535 12.9344 11.5067 12.995 11.7384 13.117L12.6814 13.612L12.5241 12.5454Z"
        fill="#F6A87D" />
</svg>
    