<svg xmlns="http://www.w3.org/2000/svg" width="22" height="22" viewBox="0 0 22 22" fill="none">
  <path d="M11 22C17.0751 22 22 17.0751 22 11C22 4.92487 17.0751 0 11 0C4.92487 0 0 4.92487 0 11C0 17.0751 4.92487 22 11 22Z" fill="#BEC2D1"/>
  <path d="M11.0247 20.2269C16.107 20.2269 20.2269 16.107 20.2269 11.0247C20.2269 5.94244 16.107 1.82245 11.0247 1.82245C5.94244 1.82245 1.82245 5.94244 1.82245 11.0247C1.82245 16.107 5.94244 20.2269 11.0247 20.2269Z" fill="#E2E4EC"/>
  <mask id="mask0_42_2959" style="mask-type:alpha" maskUnits="userSpaceOnUse" x="1" y="1" width="20" height="20">
    <path d="M11.0247 20.2269C16.107 20.2269 20.2269 16.107 20.2269 11.0247C20.2269 5.94244 16.107 1.82245 11.0247 1.82245C5.94244 1.82245 1.82245 5.94244 1.82245 11.0247C1.82245 16.107 5.94244 20.2269 11.0247 20.2269Z" fill="#E5E7EF"/>
  </mask>
  <g mask="url(#mask0_42_2959)">
    <path fill-rule="evenodd" clip-rule="evenodd" d="M9.85116 7.34048C4.78848 -5.41765 23.738 -9.20535 26.6316 -9.93115C20.9893 -2.09082 12.339 -3.65282 10.9799 6.82028L9.85116 7.34048Z" fill="#C6C6C6"/>
    <path fill-rule="evenodd" clip-rule="evenodd" d="M26.8012 -10.0471L26.6879 -9.88962C24.3851 -6.68976 21.5799 -5.04768 18.9834 -3.52784C18.387 -3.17873 17.8016 -2.83607 17.2359 -2.48247C15.7198 -1.53486 14.3434 -0.508751 13.2608 0.929826C12.1789 2.36754 11.3874 4.22163 11.049 6.82949L11.0439 6.86839L9.81153 7.43637L9.7839 7.36674C8.51141 4.16002 8.74593 1.50963 9.86595 -0.670829C10.9843 -2.84809 12.9815 -4.54885 15.2204 -5.86852C19.258 -8.24825 24.1051 -9.40143 26.0762 -9.87038C26.2908 -9.92143 26.4713 -9.96438 26.613 -9.99991L26.8012 -10.0471ZM9.88837 7.24467L10.9133 6.7723C11.2573 4.16398 12.0542 2.29725 13.1474 0.844483C14.2454 -0.614633 15.639 -1.65175 17.1607 -2.60283C17.7319 -2.95987 18.321 -3.30481 18.9197 -3.65538C21.4712 -5.14934 24.1971 -6.74542 26.4586 -9.81584C26.3548 -9.79073 26.2377 -9.76287 26.1084 -9.73208C24.1349 -9.2624 19.3098 -8.11404 15.2925 -5.74624C13.0653 -4.43349 11.0934 -2.74982 9.9922 -0.605977C8.9007 1.51896 8.66048 4.10381 9.88837 7.24467Z" fill="#1D1D1B"/>
    <path fill-rule="evenodd" clip-rule="evenodd" d="M24.8379 -8.31128C19.4854 -2.64008 11.9335 -2.81394 10.3135 5.34928C9.24412 -3.53146 18.5016 -6.36706 24.8379 -8.31128Z" fill="white"/>
    <path fill-rule="evenodd" clip-rule="evenodd" d="M24.8664 -8.32992C24.8749 -8.31624 24.8731 -8.29855 24.862 -8.28684C22.8363 -6.14045 20.4942 -4.8286 18.2822 -3.58957C17.5671 -3.18906 16.8657 -2.79616 16.1929 -2.38514C13.4376 -0.701905 11.1539 1.28835 10.3467 5.35627C10.3433 5.37338 10.328 5.38549 10.3105 5.38482C10.2931 5.38416 10.2787 5.37093 10.2767 5.35361C10.0085 3.12674 10.3876 1.27704 11.2077 -0.274834C12.0276 -1.82629 13.2871 -3.07803 14.7767 -4.11127C17.7508 -6.17423 21.6484 -7.37015 24.8131 -8.3412L24.8258 -8.34512C24.8412 -8.34984 24.8579 -8.3436 24.8664 -8.32992ZM10.3224 5.12328C11.1728 1.17509 13.4418 -0.787659 16.1559 -2.4457C16.833 -2.85934 17.5372 -3.25383 18.2539 -3.65531C20.43 -4.87427 22.7213 -6.15772 24.7171 -8.23753C21.5718 -7.27223 17.7442 -6.08331 14.8171 -4.05296C13.334 -3.02418 12.0836 -1.78036 11.2705 -0.241675C10.4849 1.2449 10.1064 3.00864 10.3224 5.12328Z" fill="#1D1D1B"/>
    <path fill-rule="evenodd" clip-rule="evenodd" d="M10.382 6.18459L10.295 5.34564L10.3303 5.34198L10.4173 6.18093L10.382 6.18459Z" fill="#1D1D1B"/>
    <path fill-rule="evenodd" clip-rule="evenodd" d="M8.17897 7.60131C-1.10884 -2.09078 14.6643 -12.8537 17.01 -14.6475C14.9265 -5.30171 6.47898 -3.53687 9.11175 6.32633C9.37116 6.09589 9.71888 6.12487 10.0956 5.86408C10.4775 5.51229 10.9662 5.29855 11.4837 5.25694C11.165 5.51635 11.1939 5.60328 10.8766 5.86408C11.3526 5.45978 12.7159 5.28316 13.439 5.37285C12.8015 5.4308 11.5872 5.60466 11.3844 6.06277C11.7031 5.74403 12.8305 5.68607 13.2072 5.85994C12.9464 5.83096 11.9915 5.88892 11.848 6.14833C11.906 6.49605 12.3392 6.98866 13.0899 7.97112C13.2651 8.18085 13.2361 8.29538 13.5604 8.18085C13.7329 8.20983 13.9937 9.74285 14.3704 10.7267C14.7457 11.8844 14.9223 12.4625 15.5557 13.4464C13.7329 15.9922 10.5799 14.662 7.02127 12.2321C7.47938 9.94431 7.42143 8.75763 8.17897 7.60131Z" fill="#C6C6C6"/>
    <path fill-rule="evenodd" clip-rule="evenodd" d="M17.1204 -14.822L17.078 -14.6318C16.214 -10.7565 14.258 -8.17631 12.4551 -5.79812C12.0756 -5.29753 11.7029 -4.8059 11.3486 -4.31302C10.3287 -2.89427 9.46038 -1.46522 9.00942 0.220886C8.56508 1.88223 8.52466 3.79826 9.15189 6.20533C9.27242 6.12522 9.40482 6.08209 9.53643 6.03927L9.54094 6.0378C9.70516 5.98437 9.87417 5.92938 10.0499 5.80864C10.4429 5.44814 10.9451 5.22911 11.4767 5.18637L11.7042 5.16808L11.5272 5.31215C11.3944 5.42024 11.3247 5.49657 11.2627 5.56999C11.2916 5.55874 11.3213 5.54785 11.3514 5.53732C11.5621 5.46367 11.8038 5.40564 12.052 5.36342C12.5474 5.27914 13.0762 5.25666 13.4464 5.30259L14.1019 5.38389L13.4441 5.44369C13.1269 5.47253 12.6685 5.53005 12.2655 5.63653C12.1241 5.67389 11.991 5.71691 11.8739 5.76616C11.9986 5.73784 12.1324 5.71795 12.2665 5.7061C12.4545 5.68948 12.6449 5.6885 12.813 5.70292C12.9796 5.71721 13.1303 5.74708 13.2356 5.79567L13.6327 5.97893L13.198 5.93064C13.0757 5.91705 12.7784 5.9236 12.4928 5.96634C12.3505 5.98764 12.2147 6.01742 12.1072 6.0566C12.0124 6.09117 11.9519 6.12872 11.922 6.16399C11.9558 6.31504 12.0671 6.50626 12.2654 6.78027C12.3932 6.95698 12.553 7.16272 12.7442 7.40897C12.865 7.56452 12.9983 7.73623 13.144 7.92699C13.1829 7.97358 13.2124 8.01607 13.2363 8.05041C13.2406 8.05649 13.2446 8.06231 13.2485 8.06786C13.2762 8.1073 13.2931 8.12815 13.31 8.14055C13.3327 8.15726 13.3726 8.17162 13.5355 8.1141L13.5528 8.10799L13.5709 8.11103C13.6054 8.11684 13.6301 8.13893 13.6458 8.15673C13.6625 8.1758 13.6774 8.19978 13.6909 8.22549C13.7179 8.2772 13.7451 8.34758 13.7728 8.43016C13.8282 8.59596 13.8894 8.82341 13.9561 9.07784C13.9669 9.11886 13.9778 9.1606 13.9889 9.20293C14.116 9.6887 14.2637 10.2531 14.4354 10.7015L14.436 10.7032L14.4366 10.705C14.4487 10.7424 14.4606 10.7792 14.4724 10.8154C14.8236 11.8997 15.0064 12.4643 15.614 13.4081L15.6401 13.4487L15.6121 13.4879C15.1486 14.1352 14.5977 14.5396 13.974 14.7401C13.3514 14.9403 12.6619 14.9355 11.923 14.7747C10.4477 14.4535 8.76016 13.5064 6.97995 12.2909L6.94116 12.2644L6.95038 12.2183C7.06462 11.6478 7.14672 11.1458 7.21749 10.6951C7.23044 10.6126 7.24303 10.5318 7.25536 10.4526C7.31034 10.0994 7.36045 9.7775 7.4168 9.47939C7.55135 8.76763 7.72276 8.18396 8.0877 7.61001C5.78302 5.18613 5.02863 2.69085 5.23866 0.282346C5.44955 -2.13602 6.63197 -4.45859 8.17372 -6.52717C10.9261 -10.22 14.8396 -13.1235 16.4793 -14.34C16.6762 -14.486 16.8403 -14.6078 16.9656 -14.7037L17.1204 -14.822ZM10.8459 5.79644C10.8403 5.80098 10.8348 5.80555 10.8293 5.81015L10.9203 5.91908C10.9256 5.91472 10.9308 5.91041 10.936 5.90614C11.0453 5.81808 11.2047 5.73893 11.3982 5.67131C11.5996 5.60093 11.8332 5.54461 12.0758 5.50335C12.1831 5.48509 12.2917 5.46984 12.3998 5.45764C12.3423 5.47063 12.2853 5.4845 12.2292 5.49931C12.0223 5.554 11.8257 5.62219 11.6665 5.70747C11.509 5.7919 11.3784 5.89824 11.3182 6.03421L11.164 6.38234L11.4333 6.11312C11.5007 6.0457 11.6176 5.98655 11.77 5.94023C11.9206 5.89446 12.0981 5.86347 12.279 5.84749C12.3151 5.84429 12.3513 5.8417 12.3874 5.83971C12.2697 5.86052 12.1556 5.8879 12.0586 5.92324C11.9431 5.96535 11.834 6.0249 11.7846 6.11414L11.7726 6.13578L11.7767 6.16016C11.8088 6.35265 11.9419 6.57531 12.1504 6.86346C12.2794 7.04185 12.4418 7.25094 12.6345 7.49912C12.7553 7.65479 12.8881 7.82585 13.0322 8.01437L13.0331 8.0156L13.0341 8.01678C13.0691 8.05867 13.0952 8.09612 13.1193 8.1307C13.1237 8.13704 13.128 8.14327 13.1323 8.14943C13.1586 8.18687 13.1876 8.22682 13.2259 8.25495C13.3069 8.31439 13.405 8.30667 13.5467 8.26022C13.5519 8.26762 13.558 8.27777 13.5651 8.29126C13.5868 8.33278 13.6112 8.39461 13.6382 8.47519C13.6919 8.63573 13.7518 8.85846 13.8189 9.11388C13.8297 9.15517 13.8407 9.19729 13.8519 9.2401C13.9784 9.72349 14.1278 10.2947 14.3021 10.7505C14.3143 10.7882 14.3263 10.8252 14.3382 10.8617C14.6843 11.9304 14.8716 12.5088 15.4685 13.4441C15.0268 14.0467 14.5096 14.4188 13.9306 14.605C13.3382 14.7954 12.6753 14.7932 11.9532 14.636C10.5172 14.3233 8.86266 13.4015 7.09875 12.2001C7.2088 11.6457 7.28873 11.1564 7.35771 10.7172C7.37075 10.6341 7.38338 10.5529 7.39576 10.4735C7.45072 10.1204 7.50038 9.80139 7.55627 9.50575C7.69294 8.78275 7.86557 8.20738 8.23703 7.64037L8.26797 7.59314L8.22891 7.55238C5.91997 5.14293 5.17269 2.67273 5.38006 0.294676C5.58774 -2.08695 6.75375 -4.38448 8.28752 -6.44235C11.026 -10.1166 14.921 -13.0069 16.5628 -14.2252C16.6874 -14.3176 16.799 -14.4004 16.8961 -14.4732C16.0189 -10.7358 14.1184 -8.22818 12.3465 -5.89021C11.9657 -5.38776 11.5908 -4.89316 11.2333 -4.39586C10.21 -2.97229 9.32989 -1.52666 8.8723 0.184214C8.4144 1.89626 8.38093 3.86865 9.04188 6.3448L9.07156 6.45597L9.15758 6.37955C9.2746 6.27561 9.41219 6.22895 9.58034 6.17424L9.58925 6.17134C9.75316 6.11803 9.9403 6.05717 10.1347 5.92259L10.1387 5.91978L10.1424 5.91644C10.4571 5.62652 10.8467 5.43331 11.2646 5.35712C11.2069 5.41513 11.165 5.46526 11.1238 5.51474L11.1222 5.51671C11.0541 5.59837 10.9876 5.6783 10.8459 5.79644Z" fill="#1D1D1B"/>
    <path fill-rule="evenodd" clip-rule="evenodd" d="M9.21484 11.2166C9.53221 12.9524 9.2728 12.1714 9.2728 12.5468C9.793 12.6847 10.1117 12.7496 10.6609 12.9235C11.0942 12.6047 11.297 12.4598 11.2681 11.9106C10.4871 10.7819 10.0828 9.82706 9.21484 11.2207V11.2166Z" fill="white"/>
    <path fill-rule="evenodd" clip-rule="evenodd" d="M11.0295 11.5249C11.1101 11.646 11.1942 11.7724 11.2828 11.9005C11.2847 11.9032 11.2858 11.9063 11.2859 11.9096C11.3006 12.1867 11.2568 12.3645 11.1525 12.5136C11.0511 12.6585 10.8932 12.7746 10.6833 12.9291L10.6716 12.9377C10.667 12.941 10.6611 12.942 10.6557 12.9403C10.2745 12.8196 10.0049 12.7516 9.70103 12.675C9.56754 12.6413 9.42745 12.606 9.26841 12.5638C9.26063 12.5618 9.25522 12.5547 9.25522 12.5467C9.25522 12.4992 9.25925 12.4679 9.2668 12.4469C9.27065 12.4362 9.27564 12.4277 9.282 12.421C9.28849 12.4143 9.29567 12.4103 9.30275 12.4078C9.30936 12.4055 9.31597 12.4046 9.32081 12.4039L9.32097 12.4039C9.32637 12.4032 9.3298 12.4027 9.3329 12.4017C9.33558 12.4008 9.33756 12.3997 9.33938 12.3979C9.34131 12.396 9.34386 12.3925 9.34634 12.3857C9.3515 12.3716 9.35536 12.3464 9.35507 12.3014C9.35478 12.2567 9.35045 12.194 9.34033 12.1059C9.32023 11.931 9.27748 11.6574 9.1992 11.2287C9.19796 11.2263 9.19727 11.2235 9.19727 11.2206V11.2165C9.19727 11.2099 9.2009 11.2041 9.20635 11.201C9.42105 10.8582 9.60915 10.6562 9.78402 10.566C9.87276 10.5202 9.95827 10.5031 10.0419 10.5112C10.1253 10.5193 10.2055 10.5524 10.2841 10.605C10.4406 10.7097 10.5931 10.8938 10.7544 11.1203C10.8421 11.2434 10.9332 11.3803 11.0295 11.5249ZM9.23428 11.2233C9.44908 10.8796 9.63366 10.6835 9.80029 10.5975C9.88371 10.5545 9.96243 10.5392 10.0384 10.5465C10.1146 10.5539 10.1893 10.5842 10.2643 10.6345C10.415 10.7353 10.5643 10.9145 10.7255 11.1409C10.8133 11.2641 10.9036 11.3999 10.9993 11.5436C11.0789 11.6633 11.1622 11.7885 11.2508 11.9165C11.2643 12.1857 11.2211 12.3537 11.1235 12.4932C11.0254 12.6333 10.8717 12.7464 10.6582 12.9035L10.6578 12.9037C10.2801 12.7844 10.0108 12.7165 9.70877 12.6403C9.5792 12.6077 9.44359 12.5735 9.29083 12.5331C9.29155 12.495 9.29533 12.4724 9.30018 12.459C9.3028 12.4517 9.3055 12.4478 9.30762 12.4456C9.30962 12.4435 9.31172 12.4423 9.31433 12.4414C9.31731 12.4403 9.32071 12.4398 9.32592 12.4391L9.32677 12.4389C9.33136 12.4383 9.33758 12.4374 9.34371 12.4355C9.35065 12.4332 9.35787 12.4295 9.36441 12.423C9.37085 12.4166 9.37584 12.4083 9.37965 12.3979C9.38708 12.3776 9.39085 12.3472 9.39055 12.3011C9.39025 12.2546 9.38577 12.1905 9.37558 12.1018C9.35535 11.9259 9.31248 11.6516 9.23428 11.2233Z" fill="#1D1D1B"/>
    <path fill-rule="evenodd" clip-rule="evenodd" d="M13.3221 12.5771C13.5829 14.0232 13.438 13.7348 13.438 14.0232C13.8713 14.1391 14.1279 14.197 14.5943 14.3419C14.942 14.0811 14.8841 13.5319 14.8551 13.0697C14.248 12.5771 14.0741 11.854 13.3221 12.5771Z" fill="white"/>
    <path fill-rule="evenodd" clip-rule="evenodd" d="M14.492 12.6595C14.6056 12.7855 14.7286 12.921 14.878 13.0422C14.8857 13.0485 14.8904 13.0577 14.891 13.0676C14.8927 13.0937 14.8944 13.1202 14.8962 13.1469C14.9098 13.3552 14.9246 13.5802 14.9017 13.7854C14.8759 14.0174 14.8013 14.2315 14.6161 14.3704C14.607 14.3772 14.5952 14.3793 14.5843 14.3759C14.2451 14.2705 14.0175 14.2113 13.7509 14.142C13.6517 14.1162 13.5471 14.089 13.4293 14.0575C13.4138 14.0534 13.403 14.0393 13.403 14.0233C13.403 13.9471 13.4128 13.9079 13.4228 13.87C13.423 13.869 13.4233 13.868 13.4235 13.8671C13.4325 13.8331 13.4412 13.8 13.4429 13.7335C13.4464 13.593 13.4182 13.3071 13.2877 12.5835C13.2856 12.5718 13.2894 12.5598 13.298 12.5516C13.4879 12.369 13.6457 12.2732 13.7871 12.245C13.9308 12.2164 14.0518 12.2588 14.164 12.3387C14.2722 12.4157 14.375 12.5298 14.4848 12.6515C14.4872 12.6542 14.4896 12.6569 14.492 12.6595ZM13.3609 12.5897C13.5405 12.4196 13.6822 12.3383 13.8009 12.3146C13.9203 12.2909 14.0217 12.3244 14.1228 12.3965C14.2246 12.469 14.3229 12.578 14.4358 12.7031L14.4393 12.7071C14.5497 12.8294 14.6724 12.9649 14.8212 13.0875C14.8225 13.1087 14.8239 13.1301 14.8253 13.1516C14.839 13.3608 14.8533 13.579 14.8312 13.7775C14.8071 13.9943 14.7402 14.1804 14.5877 14.3026C14.2564 14.2001 14.0302 14.1413 13.7677 14.0731C13.6763 14.0493 13.5806 14.0244 13.4745 13.9961C13.4764 13.9458 13.4836 13.9175 13.4914 13.888L13.492 13.8857C13.5016 13.8491 13.5119 13.81 13.5138 13.7352C13.5175 13.5876 13.4883 13.2984 13.3609 12.5897Z" fill="#1D1D1B"/>
    <path fill-rule="evenodd" clip-rule="evenodd" d="M10.4898 12.8406C10.7506 12.8117 10.9534 12.4653 10.8665 11.8858C10.8086 11.3076 10.6057 11.3076 10.3463 11.3338C9.85371 11.2759 9.94064 11.6802 9.99859 11.9989C10.0276 12.3466 10.0565 13.0407 10.4898 12.8379V12.8406Z" fill="#1D1D1B"/>
    <path fill-rule="evenodd" clip-rule="evenodd" d="M10.9021 11.8815C10.946 12.1755 10.9172 12.4139 10.8413 12.5842C10.7653 12.7549 10.6404 12.8598 10.4941 12.876C10.4933 12.8761 10.4925 12.8762 10.4918 12.8762C10.3816 12.9242 10.2894 12.9197 10.2152 12.8711C10.1411 12.8225 10.0927 12.7346 10.0593 12.6364C9.99983 12.4611 9.98168 12.2308 9.96833 12.0614C9.96674 12.0413 9.96522 12.022 9.9637 12.0037C9.96228 11.9959 9.96085 11.9881 9.9594 11.9802C9.94621 11.9081 9.93209 11.8309 9.92424 11.7562C9.91548 11.673 9.91411 11.5896 9.93185 11.5168C9.94983 11.4431 9.98799 11.3786 10.0586 11.3379C10.1273 11.2982 10.2217 11.2841 10.3469 11.2983C10.4731 11.2856 10.6017 11.2771 10.7038 11.3551C10.8067 11.4337 10.8729 11.5916 10.9021 11.8815ZM10.4993 12.8037C10.6088 12.7863 10.7102 12.7041 10.7765 12.5554C10.8454 12.4006 10.8745 12.1764 10.8318 11.8912L10.8315 11.8895L10.8315 11.8894C10.8027 11.6018 10.7385 11.4709 10.6608 11.4115C10.5832 11.3523 10.4822 11.3559 10.3502 11.3693C10.3476 11.3695 10.3451 11.3695 10.3425 11.3692C10.2233 11.3552 10.1451 11.3699 10.0941 11.3994C10.0443 11.4281 10.0154 11.4737 10.0008 11.5337C9.98593 11.5946 9.98637 11.6684 9.99482 11.7488C10.0024 11.8206 10.016 11.895 10.0292 11.9675C10.0308 11.9759 10.0323 11.9843 10.0338 11.9927C10.034 11.9938 10.0342 11.995 10.0343 11.9961C10.0359 12.0152 10.0375 12.0353 10.0391 12.0561C10.0526 12.2269 10.0701 12.4474 10.1265 12.6136C10.1582 12.707 10.2001 12.7763 10.2541 12.8117C10.3051 12.8451 10.3745 12.8529 10.4751 12.8059C10.4828 12.8023 10.4914 12.8016 10.4993 12.8037Z" fill="#1D1D1B"/>
    <path fill-rule="evenodd" clip-rule="evenodd" d="M14.2822 13.8796C14.4851 13.8506 14.601 13.6188 14.572 13.3276C14.543 13.0682 14.2532 12.4017 14.0518 12.4307C13.4143 12.0844 13.733 12.8944 13.791 13.1538C13.82 13.4435 13.9069 14.0507 14.2822 13.8782V13.8796Z" fill="#1D1D1B"/>
    <path fill-rule="evenodd" clip-rule="evenodd" d="M14.0596 12.3945C14.0909 12.3932 14.1212 12.4034 14.1491 12.4198C14.1807 12.4382 14.2114 12.4658 14.2408 12.4986C14.2996 12.5642 14.3572 12.6558 14.4085 12.7548C14.5107 12.9521 14.5925 13.188 14.6076 13.3238L14.6077 13.3242L14.6077 13.3242C14.6227 13.4749 14.6005 13.6129 14.5459 13.7183C14.4912 13.8241 14.4028 13.8982 14.288 13.9147C14.1895 13.9573 14.1042 13.9519 14.0332 13.9089C13.9626 13.8662 13.9119 13.7894 13.8746 13.7035C13.8002 13.5323 13.7708 13.3043 13.7563 13.1595C13.7481 13.1232 13.7351 13.0772 13.7202 13.0245C13.7087 12.9838 13.6961 12.9391 13.6837 12.8917C13.6556 12.7845 13.6293 12.6665 13.6255 12.5665C13.6236 12.5165 13.6272 12.4687 13.6405 12.428C13.6539 12.3868 13.678 12.3509 13.7177 12.3298C13.7568 12.3091 13.8056 12.3055 13.8626 12.317C13.9173 12.328 13.9825 12.3533 14.0596 12.3945ZM14.2868 13.843C14.3704 13.828 14.438 13.7725 14.4829 13.6857C14.5297 13.5952 14.551 13.4718 14.5371 13.3314C14.5232 13.2078 14.4457 12.9808 14.3455 12.7874C14.2955 12.691 14.2411 12.6052 14.1879 12.5459C14.1614 12.5162 14.1362 12.4944 14.1133 12.481C14.0903 12.4676 14.0719 12.4638 14.0572 12.4659C14.0497 12.467 14.042 12.4656 14.0352 12.462C13.9572 12.4196 13.896 12.3961 13.8486 12.3866C13.8012 12.3771 13.7707 12.382 13.751 12.3925C13.7318 12.4027 13.7174 12.421 13.708 12.45C13.6984 12.4795 13.6947 12.518 13.6964 12.5638C13.6999 12.6555 13.7244 12.767 13.7524 12.8737C13.7639 12.9176 13.7761 12.9612 13.7876 13.0018C13.8034 13.0578 13.8176 13.1083 13.826 13.1461C13.8263 13.1475 13.8266 13.1489 13.8267 13.1503C13.8412 13.2954 13.8699 13.5145 13.9397 13.6753C13.9746 13.7558 14.0178 13.8166 14.07 13.8482C14.1195 13.8783 14.1827 13.8852 14.2678 13.846C14.2738 13.8433 14.2804 13.8423 14.2868 13.843Z" fill="#1D1D1B"/>
    <path fill-rule="evenodd" clip-rule="evenodd" d="M11.6278 19.3384C10.3349 19.3384 7.9022 18.8016 6.50717 17.3197C6.16725 16.9706 5.89962 16.5579 5.71966 16.1051C5.53969 15.6524 5.45093 15.1685 5.45848 14.6814C5.44054 14.7407 5.42122 14.8194 5.39914 14.9339C5.39701 14.9459 5.39164 14.9572 5.38362 14.9664C5.3756 14.9756 5.36523 14.9825 5.35361 14.9863C5.34632 14.9878 5.33882 14.9878 5.33153 14.9863C5.31526 14.9865 5.29949 14.9806 5.28738 14.9698C5.16595 14.8677 5.20596 14.5779 5.26116 14.3543C5.31188 14.1522 5.38404 13.9561 5.47642 13.7693L5.2653 13.9832C5.25182 13.9959 5.23415 14.0033 5.21562 14.0039C5.20606 14.0058 5.19621 14.0058 5.18665 14.0039C5.1739 13.9976 5.16329 13.9877 5.15617 13.9754C5.14905 13.9632 5.14573 13.949 5.14663 13.9349C5.16595 13.7113 5.50953 13.2863 5.83656 12.9938C5.76618 13.0366 5.69857 13.0835 5.63786 13.1318C5.62564 13.1402 5.61129 13.145 5.59646 13.1456C5.57782 13.1456 5.55995 13.1381 5.54679 13.1249C5.5361 13.1124 5.53023 13.0965 5.53023 13.0801C5.53023 13.0636 5.5361 13.0477 5.54679 13.0352C5.8338 12.6516 6.58996 12.2804 7.00115 12.17C7.34232 12.0664 7.69746 12.0161 8.05398 12.021C9.48903 12.021 11.2925 12.7109 12.7745 13.8272C13.1884 13.4975 14.1543 13.3498 14.9353 13.3498C15.5287 13.3498 16.0185 13.4285 16.2807 13.5651C16.5061 13.6973 16.6958 13.8825 16.8334 14.1047C16.9709 14.3269 17.0521 14.5793 17.07 14.8401C17.0697 14.8553 17.0646 14.87 17.0555 14.8822C17.0463 14.8944 17.0335 14.9033 17.0189 14.9077H17.001C16.9887 14.9078 16.9766 14.9047 16.9659 14.8987C16.9552 14.8926 16.9464 14.8838 16.9402 14.8732C17.0506 15.1491 17.1307 15.4431 17.0989 15.5838C17.0959 15.598 17.0884 15.6108 17.0774 15.6203C17.0664 15.6297 17.0527 15.6353 17.0382 15.6362C17.0242 15.6361 17.0106 15.6319 16.9991 15.624C16.9875 15.6162 16.9786 15.605 16.9734 15.5921L16.9554 15.5479C16.9692 15.8032 16.9251 16.0999 16.8257 16.1937C16.8196 16.2003 16.8121 16.2056 16.8038 16.2092C16.7954 16.2127 16.7865 16.2145 16.7774 16.2144C16.767 16.2141 16.7566 16.2117 16.7471 16.2075C16.7342 16.2011 16.7236 16.1909 16.7167 16.1784C16.7098 16.1658 16.7069 16.1514 16.7084 16.1371V16.1068C15.8805 17.7405 13.7611 19.0238 12.1549 19.3094C11.9805 19.3353 11.804 19.345 11.6278 19.3384Z" fill="white"/>
    <path d="M8.04973 12.0817C9.5041 12.0817 11.3214 12.8034 12.773 13.9087C13.14 13.5747 14.0907 13.4119 14.9311 13.4119C15.483 13.4119 15.9811 13.4823 16.2433 13.6189C16.4577 13.7457 16.6382 13.9225 16.7694 14.1341C16.9006 14.3458 16.9786 14.5862 16.9967 14.8346C16.9007 14.6455 16.7541 14.4869 16.5731 14.3764C16.7249 14.4703 17.0823 15.3023 17.0257 15.5576C16.9167 15.2816 16.8339 15.0912 16.729 15.0912H16.7069C16.9388 15.2071 16.9098 15.9881 16.7649 16.133C16.7939 15.9012 16.7939 15.8143 16.7649 15.7853C16.0998 17.4411 13.9293 18.9106 12.1355 19.2349C11.9692 19.2635 11.8006 19.2765 11.6318 19.2735C9.75523 19.2735 5.33004 18.0979 5.53978 14.462H5.52322C5.44595 14.462 5.38523 14.6566 5.33694 14.927C5.1341 14.7545 5.53978 13.4809 5.9151 13.394C5.91073 13.3897 5.90554 13.3865 5.89984 13.3843C5.89414 13.3822 5.88806 13.3812 5.88198 13.3816C5.76055 13.3816 5.45561 13.71 5.22103 13.9445C5.24863 13.6106 6.10414 12.7703 6.32491 12.7551H6.34975H6.33181H6.30284C6.1 12.7551 5.81161 12.9152 5.59773 13.0766C5.85714 12.7289 6.58157 12.3522 7.01484 12.2377C7.35001 12.1347 7.69913 12.0844 8.04973 12.0886M8.04973 11.9507C7.68515 11.9464 7.3221 11.9985 6.97345 12.1052C6.55949 12.2156 5.78401 12.5978 5.48734 12.9938C5.46763 13.0203 5.45804 13.0529 5.46032 13.0858C5.4626 13.1187 5.47659 13.1497 5.49976 13.1732C5.51075 13.1848 5.52386 13.1942 5.5384 13.2008C5.3535 13.4009 5.10236 13.71 5.08443 13.9321C5.08172 13.9604 5.08783 13.9889 5.10191 14.0136C5.11599 14.0383 5.13735 14.058 5.16308 14.0701C5.18126 14.0786 5.20098 14.0833 5.22103 14.0839C5.24368 14.0838 5.26595 14.0781 5.28588 14.0674C5.2526 14.1578 5.22404 14.2499 5.20033 14.3433C5.1134 14.6966 5.12858 14.927 5.24725 15.0333C5.27224 15.0546 5.30405 15.0664 5.33694 15.0664C5.35201 15.0689 5.3674 15.0689 5.38247 15.0664L5.40731 15.054C5.47573 15.9293 5.84875 16.753 6.46152 17.3818C7.87587 18.8789 10.3251 19.4226 11.6318 19.4226C11.8093 19.4248 11.9866 19.4114 12.1617 19.3826C13.7403 19.1066 15.8142 17.8647 16.6945 16.2696H16.7042C16.7231 16.2788 16.7439 16.2835 16.7649 16.2834C16.7831 16.2835 16.8011 16.28 16.8179 16.2732C16.8347 16.2663 16.85 16.2562 16.8629 16.2434C16.9622 16.1427 17.0008 15.9191 17.0133 15.7039H17.0367C17.066 15.7013 17.0937 15.6895 17.1158 15.6702C17.1378 15.6508 17.1532 15.6249 17.1595 15.5962C17.1711 15.3823 17.1324 15.1687 17.0464 14.9725C17.0723 14.9625 17.0946 14.9449 17.1104 14.922C17.1261 14.8991 17.1346 14.872 17.1347 14.8442C17.1162 14.5707 17.0311 14.3059 16.8868 14.0729C16.7425 13.8398 16.5434 13.6456 16.3068 13.5071C16.0308 13.3691 15.5341 13.2836 14.9269 13.2836C14.208 13.2836 13.2421 13.4064 12.7661 13.7431C11.2814 12.6392 9.48202 11.9493 8.04559 11.9493L8.04973 11.9507Z" fill="#1D1D1B"/>
    <path fill-rule="evenodd" clip-rule="evenodd" d="M11.3833 13.7926C9.29976 13.3869 8.28833 13.4449 7.67981 13.5028C8.63467 14.8054 10.7762 15.9038 12.0195 16.0197C13.9871 16.1646 14.6232 14.862 15.665 14.4867C15.0869 14.4577 14.7681 14.1969 13.9581 14.4287C13.2931 15.1186 10.6603 14.6895 11.3833 13.7926Z" fill="white"/>
    <path fill-rule="evenodd" clip-rule="evenodd" d="M7.67495 13.45C8.28858 13.3916 9.30514 13.3339 11.3937 13.7405C11.412 13.7441 11.4271 13.757 11.4335 13.7745C11.4399 13.7921 11.4367 13.8117 11.425 13.8262C11.34 13.9315 11.3091 14.024 11.3125 14.1037C11.3158 14.1831 11.3538 14.2588 11.4249 14.33C11.5693 14.4744 11.8389 14.5879 12.161 14.6538C12.4811 14.7192 12.844 14.7359 13.1669 14.6939C13.4918 14.6517 13.7663 14.5514 13.92 14.392C13.9265 14.3852 13.9347 14.3803 13.9437 14.3777C14.3569 14.2595 14.6469 14.2666 14.907 14.3075C14.9972 14.3217 15.0847 14.3401 15.171 14.3584C15.2071 14.366 15.2431 14.3736 15.279 14.3808C15.4017 14.4055 15.5271 14.4266 15.6679 14.4337C15.6932 14.435 15.7141 14.4539 15.7179 14.479C15.7216 14.5041 15.7071 14.5283 15.6833 14.5369C15.4301 14.6281 15.1999 14.7763 14.9641 14.9481C14.8856 15.0054 14.806 15.0655 14.7248 15.127C14.5644 15.2484 14.3974 15.3747 14.219 15.4928C13.6767 15.852 13.0142 16.1465 12.0157 16.073L12.0147 16.0729L12.0147 16.0729C11.3829 16.014 10.5294 15.7068 9.71574 15.2529C8.90178 14.7989 8.12062 14.1941 7.63707 13.5345C7.62575 13.519 7.6236 13.4987 7.63143 13.4812C7.63927 13.4638 7.65589 13.4518 7.67495 13.45ZM7.77999 13.5473C8.25473 14.1612 8.99304 14.7279 9.7676 15.16C10.574 15.6098 11.4126 15.9097 12.0241 15.9668C12.993 16.0381 13.6323 15.7537 14.1602 15.4041C14.3361 15.2876 14.498 15.1651 14.6567 15.045C14.7387 14.983 14.8197 14.9216 14.9014 14.8621C15.0801 14.7319 15.2599 14.6118 15.4518 14.5193C15.3847 14.5096 15.3206 14.4977 15.258 14.4852C15.22 14.4775 15.1828 14.4697 15.1461 14.4619C15.061 14.444 14.9778 14.4264 14.8904 14.4127C14.6469 14.3743 14.376 14.3667 13.9864 14.4763C13.8063 14.6553 13.5075 14.757 13.1806 14.7995C12.8454 14.8431 12.4706 14.8257 12.1397 14.7581C11.8109 14.6908 11.5163 14.5719 11.3496 14.4052C11.2652 14.3208 11.2109 14.2212 11.2061 14.1082C11.2023 14.0175 11.2305 13.9241 11.2915 13.8292C9.37215 13.4618 8.38468 13.4946 7.77999 13.5473Z" fill="#1D1D1B"/>
    <path fill-rule="evenodd" clip-rule="evenodd" d="M7.73165 13.4891C7.7393 13.5175 7.7225 13.5467 7.69412 13.5543L6.9421 13.7572C6.91372 13.7648 6.8845 13.748 6.87685 13.7196C6.86919 13.6913 6.886 13.6621 6.91438 13.6544L7.6664 13.4516C7.69478 13.4439 7.72399 13.4607 7.73165 13.4891Z" fill="#1D1D1B"/>
    <path fill-rule="evenodd" clip-rule="evenodd" d="M15.6145 14.4686C15.6246 14.441 15.6551 14.4268 15.6828 14.4368L16.0015 14.5527C16.0291 14.5628 16.0434 14.5933 16.0333 14.6209C16.0233 14.6486 15.9928 14.6628 15.9651 14.6528L15.6464 14.5369C15.6188 14.5268 15.6045 14.4963 15.6145 14.4686Z" fill="#1D1D1B"/>
    <path fill-rule="evenodd" clip-rule="evenodd" d="M8.90448 13.4228C8.93281 13.3957 8.97773 13.3967 9.00482 13.4251C9.63116 14.0799 10.6324 14.6824 11.7504 14.9968C11.7881 15.0074 11.8101 15.0466 11.7995 15.0843C11.7889 15.122 11.7497 15.144 11.712 15.1334C10.5725 14.813 9.54813 14.1985 8.90225 13.5232C8.87516 13.4948 8.87616 13.4499 8.90448 13.4228ZM14.8543 14.2948C14.8804 14.324 14.8779 14.3689 14.8486 14.395C14.2893 14.8942 13.7561 15.1345 13.3021 15.1649C13.2629 15.1675 13.2291 15.1379 13.2265 15.0988C13.2239 15.0597 13.2535 15.0259 13.2926 15.0232C13.7051 14.9957 14.2096 14.7751 14.7541 14.2891C14.7833 14.263 14.8282 14.2655 14.8543 14.2948Z" fill="#1D1D1B"/>
    <path fill-rule="evenodd" clip-rule="evenodd" d="M13.5254 15.2968L12.743 17.0906L11.904 17.6688L11.123 17.2051L11.3838 15.2678L12.6864 14.8042L13.5254 15.2968Z" fill="white"/>
    <path fill-rule="evenodd" clip-rule="evenodd" d="M12.6691 14.7538C12.6839 14.7485 12.7003 14.7501 12.7139 14.7581L13.5528 15.2507C13.576 15.2643 13.5854 15.2932 13.5747 15.3178L12.7923 17.1117C12.7883 17.1208 12.7819 17.1286 12.7737 17.1342L11.9347 17.7124C11.9176 17.7242 11.8952 17.7249 11.8774 17.7143L11.0964 17.2507C11.078 17.2398 11.0679 17.219 11.0708 17.1978L11.3316 15.2605C11.3342 15.2407 11.3477 15.2241 11.3665 15.2174L12.6691 14.7538ZM11.4328 15.3069L11.181 17.1771L11.9024 17.6054L12.7008 17.0552L13.4582 15.3186L12.6814 14.8624L11.4328 15.3069Z" fill="#1D1D1B"/>
    <path fill-rule="evenodd" clip-rule="evenodd" d="M13.959 14.4289C13.959 14.6607 13.93 15.036 13.7272 15.1809C13.207 15.5576 12.6578 15.3189 12.6233 15.0429C12.3045 16.1137 10.192 15.0429 11.3814 13.801L13.9562 14.4371L13.959 14.4289Z" fill="white"/>
    <path fill-rule="evenodd" clip-rule="evenodd" d="M11.4317 13.7413C11.46 13.7684 11.461 13.8133 11.434 13.8417C11.1485 14.1404 11.0695 14.4195 11.1019 14.6516C11.1346 14.8858 11.283 15.0867 11.4804 15.2229C11.6783 15.3595 11.9174 15.4251 12.1206 15.3971C12.3191 15.3698 12.4859 15.2536 12.5564 15.0145C12.566 14.9819 12.5973 14.9607 12.6311 14.9639C12.6649 14.967 12.6918 14.9937 12.6951 15.0275C12.7053 15.1291 12.814 15.2439 13.0057 15.2868C13.1912 15.3283 13.4392 15.2956 13.6866 15.1152L13.6885 15.1138C13.7671 15.0604 13.8197 14.9527 13.8512 14.8158C13.8821 14.6816 13.8892 14.5342 13.8892 14.4205C13.8892 14.3813 13.921 14.3495 13.9602 14.3495C13.9994 14.3495 14.0312 14.3813 14.0312 14.4205C14.0312 14.5385 14.0239 14.6982 13.9895 14.8476C13.9559 14.9938 13.8929 15.1458 13.7693 15.2305C13.4912 15.4331 13.2021 15.4762 12.9747 15.4253C12.8286 15.3926 12.7004 15.318 12.6246 15.217C12.5165 15.4081 12.339 15.5103 12.14 15.5377C11.8953 15.5714 11.6212 15.4925 11.3998 15.3398C11.1779 15.1867 11.0008 14.9537 10.9613 14.6712C10.9215 14.3864 11.0234 14.0658 11.3313 13.7436C11.3584 13.7153 11.4033 13.7143 11.4317 13.7413Z" fill="#1D1D1B"/>
    <path fill-rule="evenodd" clip-rule="evenodd" d="M12.6983 14.7523C12.7268 14.7595 12.7442 14.7884 12.737 14.8169L12.6791 15.0487C12.672 15.0772 12.6431 15.0946 12.6145 15.0874C12.586 15.0803 12.5687 15.0514 12.5758 15.0229L12.6338 14.7911C12.6409 14.7625 12.6698 14.7452 12.6983 14.7523Z" fill="#1D1D1B"/>
    <path fill-rule="evenodd" clip-rule="evenodd" d="M11.0812 13.7514C9.22671 13.1837 7.16539 12.9722 5.60482 13.3806C5.57638 13.388 5.54729 13.371 5.53985 13.3426C5.53241 13.3141 5.54943 13.285 5.57787 13.2776C7.24529 12.8413 9.46076 13.1023 11.396 13.7397C11.421 13.7421 11.4414 13.7619 11.4438 13.7876C11.4466 13.8154 11.4273 13.8406 11.3997 13.8452C10.9998 13.9124 10.6113 13.9971 10.2349 14.1014L10.1087 14.3649C10.096 14.3914 10.0642 14.4026 10.0377 14.3899C10.0112 14.3772 9.99999 14.3454 10.0127 14.3189L10.0983 14.1402C9.8562 14.211 9.61929 14.29 9.38773 14.378L9.09168 14.8068C9.07497 14.831 9.04182 14.837 9.01764 14.8203C8.99345 14.8036 8.98738 14.7705 9.00408 14.7463L9.21032 14.4476C8.08255 14.9041 7.08596 15.581 6.24413 16.5474C6.22482 16.5695 6.1912 16.5718 6.16904 16.5525C6.14687 16.5332 6.14456 16.4996 6.16386 16.4774C7.05507 15.4544 8.11672 14.7522 9.31888 14.2904L9.51677 14.0038C8.96173 14.0774 8.39303 14.1747 7.84325 14.293C6.635 14.553 5.52469 14.913 4.85135 15.3416C4.82655 15.3574 4.79365 15.3501 4.77786 15.3253C4.76208 15.3005 4.76938 15.2676 4.79418 15.2519C5.48414 14.8126 6.60988 14.4495 7.82086 14.189C8.62549 14.0158 9.47063 13.8873 10.2555 13.812L10.359 13.5959C10.3717 13.5693 10.4035 13.5581 10.43 13.5708C10.4565 13.5835 10.4677 13.6153 10.455 13.6418L10.379 13.8005C10.6204 13.7789 10.8554 13.7625 11.0812 13.7514ZM10.6566 13.8845C10.5477 13.8927 10.4373 13.9019 10.3255 13.9123L10.2957 13.9745C10.4148 13.9426 10.5351 13.9126 10.6566 13.8845ZM10.1598 14.0118L10.2017 13.9242C10.0078 13.9435 9.81037 13.9659 9.6109 13.9915C9.62405 14.0093 9.62515 14.0342 9.61188 14.0534L9.49304 14.2255C9.71088 14.1468 9.93318 14.0758 10.1598 14.0118ZM13.9361 14.3821C15.1113 13.7424 16.4612 13.4737 17.4861 13.9163C17.5131 13.928 17.5255 13.9593 17.5139 13.9863C17.5022 14.0133 17.4709 14.0257 17.4439 14.0141C16.556 13.6306 15.3966 13.8009 14.3231 14.3053C14.3312 14.3138 14.3365 14.3251 14.3375 14.3378L14.3422 14.3986C14.4799 14.4118 14.622 14.4303 14.7669 14.4538L14.7519 14.3494C14.7478 14.3203 14.768 14.2934 14.7971 14.2892C14.8262 14.285 14.8532 14.3052 14.8573 14.3343L14.8771 14.4726C15.2877 14.5458 15.7168 14.6584 16.1285 14.8052C16.8622 15.0668 17.5473 15.4392 17.9757 15.8965C17.9958 15.9179 17.9947 15.9516 17.9733 15.9717C17.9518 15.9918 17.9182 15.9907 17.8981 15.9693C17.4862 15.5296 16.8191 15.1645 16.0928 14.9055C15.6976 14.7646 15.2868 14.6558 14.893 14.5836L14.9154 14.7401C15.7737 15.1919 16.533 15.96 17.1437 17.1238C17.1574 17.1498 17.1473 17.182 17.1213 17.1956C17.0953 17.2093 17.0631 17.1993 17.0494 17.1732C16.4641 16.0578 15.7438 15.3164 14.9342 14.8711L14.9442 14.9415C14.9484 14.9706 14.9282 14.9975 14.8991 15.0017C14.87 15.0059 14.843 14.9857 14.8389 14.9566L14.8178 14.8095C14.6675 14.7328 14.5142 14.666 14.3583 14.6085L14.3665 14.7145C14.3687 14.7438 14.3468 14.7694 14.3175 14.7717C14.2882 14.7739 14.2626 14.752 14.2603 14.7227L14.2486 14.5698C14.1495 14.5363 14.0493 14.5066 13.9482 14.4803C13.927 14.4749 13.9114 14.457 13.9087 14.4353C13.906 14.4136 13.9169 14.3925 13.9361 14.3821ZM14.404 14.5119C14.5379 14.5616 14.6698 14.6179 14.7995 14.6813L14.7827 14.5643C14.6539 14.5428 14.5273 14.5253 14.404 14.5119ZM14.1611 14.3842C14.1845 14.3724 14.2081 14.3607 14.2316 14.3492L14.2347 14.3894C14.21 14.3875 14.1855 14.3858 14.1611 14.3842ZM10.6261 14.5825C10.6533 14.5937 10.6662 14.6249 10.6549 14.652L10.3072 15.491C10.2959 15.5181 10.2648 15.531 10.2376 15.5198C10.2105 15.5085 10.1976 15.4774 10.2088 15.4502L10.5566 14.6113C10.5678 14.5841 10.599 14.5712 10.6261 14.5825ZM14.0186 14.8381C14.0478 14.8353 14.0738 14.8568 14.0766 14.886L14.1346 15.4945C14.1374 15.5238 14.1159 15.5498 14.0866 15.5526C14.0574 15.5554 14.0314 15.5339 14.0286 15.5046L13.9706 14.8961C13.9679 14.8669 13.9893 14.8409 14.0186 14.8381ZM12.7474 15.0572C12.7753 15.0664 12.7905 15.0965 12.7813 15.1244L11.9671 17.5902C11.9579 17.6181 11.9278 17.6333 11.8999 17.6241C11.872 17.6148 11.8568 17.5847 11.8661 17.5568L12.6802 15.091C12.6894 15.0631 12.7195 15.048 12.7474 15.0572Z" fill="#1D1D1B"/>
    <path fill-rule="evenodd" clip-rule="evenodd" d="M11.2667 11.9066C11.0363 10.2052 10.661 8.81572 9.99451 7.74634C9.76333 8.22506 9.47164 8.67211 9.12658 9.07652C9.02934 9.97673 9.08486 10.8869 9.29078 11.7686C9.29906 11.799 9.34321 11.8611 9.31562 11.8555C9.95449 12.0046 10.5216 11.8555 11.2667 11.9149V11.9066Z" fill="#C6C6C6"/>
    <path fill-rule="evenodd" clip-rule="evenodd" d="M9.99089 7.67285L10.025 7.72751C10.6953 8.80319 11.0715 10.1986 11.3022 11.9018L11.3025 11.9041V11.9532L11.2642 11.9502C10.9555 11.9256 10.6779 11.937 10.4108 11.948C10.3578 11.9502 10.3052 11.9524 10.2529 11.9542C9.93756 11.9655 9.63214 11.9657 9.30789 11.89L9.32291 11.8207C9.32291 11.8207 9.31113 11.818 9.2999 11.8278C9.28854 11.8376 9.28941 11.85 9.28948 11.851C9.28951 11.8514 9.28953 11.8516 9.2895 11.8516C9.28938 11.8517 9.28854 11.8485 9.28479 11.8404C9.28228 11.835 9.27965 11.8297 9.27675 11.8239C9.2748 11.82 9.27271 11.8159 9.27047 11.8113C9.26567 11.8014 9.25993 11.7891 9.25688 11.7779L9.25654 11.7766C9.0497 10.891 8.99397 9.97683 9.09163 9.07264L9.09281 9.06175L9.09992 9.05342C9.443 8.65132 9.73303 8.20683 9.96289 7.73084L9.99089 7.67285ZM9.99839 7.81975C9.77219 8.27604 9.49099 8.70302 9.16102 9.09113C9.06586 9.98356 9.12145 10.8857 9.32549 11.7597C9.32667 11.7638 9.32953 11.7704 9.33427 11.7802C9.33576 11.7832 9.33752 11.7868 9.33938 11.7905C9.34272 11.7972 9.34635 11.8044 9.34919 11.8106C9.35131 11.8151 9.35414 11.8214 9.35643 11.8282C9.65913 11.8943 9.94702 11.8941 10.2504 11.8833C10.302 11.8815 10.3541 11.8793 10.4068 11.8772C10.6619 11.8666 10.9307 11.8556 11.2271 11.8762C11.0005 10.2217 10.6355 8.86805 9.99839 7.81975Z" fill="#1D1D1B"/>
    <path fill-rule="evenodd" clip-rule="evenodd" d="M14.8552 13.0698C14.6814 11.7382 13.8424 10.1128 13.3222 9.28485C13.1194 9.66017 13.583 10.644 13.2643 11.0207C13.1773 11.6568 13.1483 12.0625 13.3222 12.5827C14.1032 12.4958 14.4509 12.8145 14.8552 13.0753V13.0698Z" fill="#C6C6C6"/>
    <path fill-rule="evenodd" clip-rule="evenodd" d="M13.3204 9.21436L13.3528 9.26584C13.8737 10.0949 14.716 11.7257 14.8909 13.0651L14.8912 13.0674V13.1403L14.8365 13.105C14.7863 13.0726 14.7374 13.0397 14.6888 13.0069C14.5387 12.9058 14.3913 12.8065 14.2164 12.7311C13.9871 12.6321 13.7112 12.575 13.3266 12.6178L13.2982 12.621L13.2891 12.5938C13.1125 12.0654 13.1425 11.6529 13.2296 11.0158L13.231 11.0055L13.2377 10.9977C13.3097 10.9125 13.3399 10.7901 13.3443 10.6421C13.3487 10.4946 13.3275 10.3274 13.3021 10.1574C13.2975 10.1265 13.2928 10.0955 13.288 10.0645C13.2668 9.92622 13.2457 9.78848 13.2375 9.66365C13.2275 9.51181 13.2357 9.37112 13.2915 9.26785L13.3204 9.21436ZM13.3291 9.36201C13.305 9.44077 13.3006 9.54163 13.3083 9.65898C13.3163 9.78045 13.3368 9.91436 13.358 10.0525C13.3628 10.0838 13.3676 10.1153 13.3723 10.1469C13.3976 10.3168 13.4199 10.4897 13.4152 10.6443C13.4107 10.7944 13.3808 10.9329 13.2986 11.0354C13.2144 11.6535 13.1871 12.0478 13.3475 12.5443C13.7292 12.5061 14.0095 12.5645 14.2445 12.6659C14.4261 12.7442 14.5809 12.8486 14.7323 12.9506C14.7585 12.9682 14.7846 12.9858 14.8107 13.0032C14.6225 11.7238 13.8408 10.1895 13.3291 9.36201Z" fill="#1D1D1B"/>
    <path fill-rule="evenodd" clip-rule="evenodd" d="M10.1284 7.46313L10.0125 7.7529L9.97954 7.73972L10.0954 7.44995L10.1284 7.46313ZM8.85547 9.29508L9.11488 9.06326L9.13853 9.08972L8.87911 9.32153L8.85547 9.29508Z" fill="#1D1D1B"/>
    <path d="M13.5603 8.18105C13.4883 8.20835 13.4233 8.25123 13.3699 8.30662C13.3203 8.36024 13.2743 8.41692 13.2319 8.47634C13.1402 8.60677 13.0392 8.73036 12.9297 8.84614C12.9546 8.6809 13.0211 8.52469 13.1229 8.39217C13.175 8.32326 13.2396 8.26475 13.3133 8.21969C13.3496 8.19664 13.3903 8.18131 13.4328 8.17466C13.4753 8.16801 13.5187 8.17019 13.5603 8.18105Z" fill="#1D1D1B"/>
    <path d="M11.6442 6.93893C11.597 6.94057 11.5499 6.9315 11.5067 6.91238C11.4634 6.89326 11.4251 6.8646 11.3945 6.82854C11.3342 6.75279 11.3012 6.659 11.3006 6.56223C11.2818 6.44655 11.242 6.33527 11.1833 6.23382C11.1245 6.13714 11.0314 6.06619 10.9226 6.03512C10.8142 6.01121 10.7012 6.01863 10.5969 6.0565C10.4926 6.09437 10.4012 6.16113 10.3334 6.249C10.1029 6.48357 9.86972 6.71401 9.65447 6.96238C9.43921 7.21076 9.22395 7.45775 9.02801 7.71992C8.82684 7.97971 8.64248 8.2521 8.47607 8.53542C8.39508 8.67784 8.3214 8.8243 8.2553 8.97421C8.18798 9.124 8.14155 9.28232 8.11731 9.44474C8.12384 9.27833 8.15643 9.11397 8.2139 8.95765C8.23736 8.87762 8.27185 8.80173 8.30083 8.72308C8.32981 8.64443 8.36844 8.57129 8.40708 8.49816C8.55757 8.20157 8.73055 7.91695 8.92453 7.64679C9.11815 7.3767 9.32636 7.11736 9.54822 6.86993C9.769 6.62156 10.0036 6.38698 10.2381 6.15931V6.16621C10.3208 6.06069 10.4333 5.98244 10.561 5.9416C10.6887 5.90076 10.8257 5.89921 10.9543 5.93715C11.0816 5.97904 11.1882 6.06785 11.2523 6.18553C11.3112 6.30088 11.3451 6.42737 11.3517 6.55671C11.3448 6.64443 11.3677 6.73192 11.4165 6.80508C11.4423 6.84276 11.4761 6.87428 11.5154 6.89742C11.5548 6.92055 11.5988 6.93473 11.6442 6.93893Z" fill="#1D1D1B"/>
    <path d="M11.8477 13.2712C12.1119 13.0801 12.431 12.9799 12.757 12.9856C12.9269 12.9887 13.0918 13.043 13.2303 13.1415C13.2966 13.1901 13.352 13.252 13.3928 13.3233C13.4337 13.3946 13.4592 13.4737 13.4676 13.5555C13.4053 13.4174 13.3016 13.3022 13.1709 13.2257C13.0434 13.1576 12.9015 13.1207 12.757 13.118C12.6061 13.1127 12.4551 13.1252 12.3071 13.1553C12.1512 13.1898 12.0022 13.2312 11.8477 13.2712Z" fill="#1D1D1B"/>
    <path d="M11.7657 12.9538C11.928 12.7831 12.1456 12.6755 12.3797 12.6502C12.4964 12.6356 12.6149 12.6447 12.728 12.6769C12.8411 12.7092 12.9465 12.7639 13.0379 12.8379C12.8281 12.7842 12.6105 12.7674 12.3949 12.7882C12.179 12.8166 11.9676 12.8722 11.7657 12.9538Z" fill="#1D1D1B"/>
    <path d="M11.6738 12.519C11.8111 12.3754 11.9903 12.2788 12.1858 12.2431C12.2859 12.2259 12.3886 12.2311 12.4866 12.2582C12.5827 12.2821 12.6714 12.3295 12.7446 12.3962C12.6534 12.3779 12.5613 12.365 12.4686 12.3576C12.3815 12.3525 12.294 12.3571 12.2078 12.3714C12.034 12.4045 11.8656 12.4749 11.6738 12.519Z" fill="#1D1D1B"/>
    <path fill-rule="evenodd" clip-rule="evenodd" d="M15.9846 -12.448C13.2939 -5.85229 6.46637 -2.7559 8.17877 6.09724C3.7177 -1.62856 10.9219 -8.16631 15.9846 -12.448Z" fill="white"/>
    <path fill-rule="evenodd" clip-rule="evenodd" d="M16.0038 -12.4766C16.0171 -12.467 16.022 -12.4496 16.0159 -12.4345C15.3416 -10.7817 14.4084 -9.34877 13.416 -7.99169C13.0388 -7.4758 12.6534 -6.97141 12.2704 -6.47015C11.6448 -5.65129 11.0255 -4.84075 10.4583 -4.00196C8.63252 -1.30176 7.35814 1.67611 8.212 6.09059C8.21529 6.1076 8.20581 6.12451 8.18957 6.13057C8.17334 6.13663 8.1551 6.13008 8.14643 6.11507C5.9078 2.23814 6.59726 -1.34182 8.47822 -4.48506C10.3579 -7.62616 13.4291 -10.3345 15.9601 -12.475C15.9726 -12.4856 15.9906 -12.4862 16.0038 -12.4766ZM8.10321 5.89465C7.32449 1.57072 8.59593 -1.37434 10.3995 -4.04171C10.9675 -4.88173 11.5894 -5.69568 12.2162 -6.51609C12.5989 -7.01704 12.9835 -7.5204 13.3587 -8.03358C14.3226 -9.35158 15.228 -10.738 15.8943 -12.3264C13.3847 -10.2004 10.3845 -7.53241 8.53912 -4.44862C6.69758 -1.37127 6.00764 2.11691 8.10321 5.89465Z" fill="#1D1D1B"/>
    <path d="M9.19681 11.1766C9.19681 11.2539 9.19681 11.3311 9.19681 11.4084C9.19681 11.4388 9.20508 11.4457 9.2313 11.4457H11.7647H16.3182C16.3734 11.4457 16.372 11.4457 16.3734 11.3849C16.3748 11.3242 16.3734 11.229 16.3734 11.1504H16.6121C16.6287 11.1504 16.6384 11.1504 16.6384 11.1752C16.6384 11.4512 16.6384 11.7304 16.6384 12.0128C16.6384 12.0321 16.6384 12.0362 16.6149 12.0362C16.5418 12.0362 16.4686 12.0362 16.3969 12.0362C16.3748 12.0362 16.3707 12.0362 16.372 12.0652C16.372 12.1425 16.372 12.2198 16.372 12.2956C16.372 12.3274 16.3624 12.3329 16.3376 12.3329H16.1361C16.1126 12.3329 16.103 12.3329 16.103 12.366C16.103 12.4433 16.103 12.5206 16.103 12.5978C16.103 12.6213 16.103 12.6282 16.0768 12.6282H15.8643C15.8422 12.6282 15.8367 12.6351 15.8367 12.6599C15.8367 12.7372 15.8367 12.8159 15.8367 12.8945C15.8367 12.918 15.8367 12.9262 15.8091 12.9249C15.7387 12.9249 15.6711 12.9249 15.6007 12.9249C15.5773 12.9249 15.5676 12.9249 15.569 12.958C15.569 13.0311 15.569 13.107 15.569 13.1801C15.569 13.2119 15.569 13.2201 15.5345 13.2201H14.0111C13.9863 13.2201 13.9835 13.2105 13.9835 13.1884C13.9835 13.1098 13.9835 13.0325 13.9835 12.9538C13.9835 12.9304 13.9835 12.9249 13.9573 12.9249H13.7434C13.7227 12.9249 13.7158 12.9249 13.7172 12.8959C13.7172 12.8172 13.7172 12.7372 13.7172 12.6572C13.7172 12.6365 13.7172 12.6282 13.691 12.6282H13.473C13.455 12.6282 13.4509 12.6282 13.4509 12.6034C13.4509 12.5233 13.4509 12.4433 13.4509 12.3646C13.4509 12.337 13.4426 12.3315 13.4205 12.3329H13.2149C13.1901 12.3329 13.1832 12.3329 13.1832 12.2984C13.1832 12.1259 13.1832 11.9548 13.1832 11.7837C13.1832 11.7478 13.1749 11.7396 13.1432 11.7396H12.3884V11.8776V12.3039C12.3884 12.3246 12.3884 12.3288 12.365 12.3274C12.2918 12.3274 12.227 12.3274 12.1469 12.3274C12.1276 12.3274 12.1221 12.3274 12.1221 12.355C12.1221 12.4323 12.1221 12.5109 12.1221 12.5896C12.1221 12.6144 12.1221 12.6227 12.0931 12.6227C12.0227 12.6227 11.9551 12.6227 11.882 12.6227C11.8599 12.6227 11.8544 12.6296 11.8544 12.653C11.8544 12.7317 11.8544 12.8103 11.8544 12.8876C11.8544 12.9124 11.8544 12.9207 11.8268 12.9193C11.7551 12.9193 11.6888 12.9193 11.6116 12.9193C11.5936 12.9193 11.5881 12.9193 11.5881 12.9442C11.5881 13.0242 11.5881 13.1042 11.5881 13.1829C11.5881 13.2077 11.5881 13.2146 11.5605 13.2146C11.0472 13.2146 10.5325 13.2146 10.0192 13.2146C9.99436 13.2146 9.99022 13.205 9.99022 13.1801C9.99022 13.1042 9.99022 13.027 9.99022 12.9497C9.99022 12.9262 9.99022 12.918 9.96263 12.918C9.89363 12.918 9.82464 12.918 9.75427 12.918C9.72667 12.918 9.72115 12.9069 9.72253 12.8793C9.72253 12.8021 9.72253 12.7262 9.72253 12.6489C9.72253 12.6254 9.72253 12.6199 9.69631 12.6199C9.62594 12.6199 9.55833 12.6199 9.4852 12.6199C9.46036 12.6199 9.45484 12.6116 9.45484 12.5868C9.45484 12.5095 9.45484 12.4323 9.45484 12.3564C9.45484 12.3301 9.45484 12.3246 9.42724 12.3246H9.22302C9.19957 12.3246 9.19405 12.3163 9.19543 12.2929C9.19543 12.2129 9.19543 12.1342 9.19543 12.0542C9.19543 12.0335 9.19543 12.0266 9.17197 12.028C9.10298 12.028 9.03398 12.028 8.96361 12.028C8.93187 12.028 8.92773 12.0169 8.92773 11.9866C8.92773 11.7106 8.92773 11.4498 8.92773 11.1821C8.93053 11.1689 8.93053 11.1553 8.92773 11.1421H9.17749C9.19681 11.149 9.19681 11.16 9.19681 11.1766Z" fill="#0C0D0D"/>
    <path d="M15.6638 12.3412H15.7328C15.7908 12.3412 15.8377 12.2942 15.8377 12.2363V12.1342C15.8377 12.0763 15.7908 12.0293 15.7328 12.0293H15.6638C15.6059 12.0293 15.559 12.0763 15.559 12.1342V12.2363C15.559 12.2942 15.6059 12.3412 15.6638 12.3412Z" fill="white"/>
    <path d="M15.3925 12.6475H15.4615C15.5195 12.6475 15.5664 12.6005 15.5664 12.5426V12.4405C15.5664 12.3826 15.5195 12.3356 15.4615 12.3356H15.3925C15.3346 12.3356 15.2877 12.3826 15.2877 12.4405V12.5426C15.2877 12.6005 15.3346 12.6475 15.3925 12.6475Z" fill="white"/>
    <path d="M15.123 12.951H15.1919C15.2499 12.951 15.2968 12.904 15.2968 12.8461V12.744C15.2968 12.6861 15.2499 12.6391 15.1919 12.6391H15.123C15.065 12.6391 15.0181 12.6861 15.0181 12.744V12.8461C15.0181 12.904 15.065 12.951 15.123 12.951Z" fill="white"/>
    <path d="M15.1191 12.3411H15.1881C15.246 12.3411 15.293 12.2941 15.293 12.2362V12.1341C15.293 12.0762 15.246 12.0292 15.1881 12.0292H15.1191C15.0612 12.0292 15.0142 12.0762 15.0142 12.1341V12.2362C15.0142 12.2941 15.0612 12.3411 15.1191 12.3411Z" fill="white"/>
    <path d="M14.8476 12.6475H14.9166C14.9745 12.6475 15.0215 12.6005 15.0215 12.5426V12.4405C15.0215 12.3826 14.9745 12.3356 14.9166 12.3356H14.8476C14.7897 12.3356 14.7428 12.3826 14.7428 12.4405V12.5426C14.7428 12.6005 14.7897 12.6475 14.8476 12.6475Z" fill="white"/>
    <path d="M14.5781 12.9509H14.6471C14.705 12.9509 14.752 12.904 14.752 12.8461V12.7439C14.752 12.686 14.705 12.6391 14.6471 12.6391H14.5781C14.5202 12.6391 14.4732 12.686 14.4732 12.7439V12.8461C14.4732 12.904 14.5202 12.9509 14.5781 12.9509Z" fill="white"/>
    <path d="M11.6972 12.3411H11.7662C11.8241 12.3411 11.8711 12.2941 11.8711 12.2362V12.1341C11.8711 12.0762 11.8241 12.0292 11.7662 12.0292H11.6972C11.6393 12.0292 11.5924 12.0762 11.5924 12.1341V12.2362C11.5924 12.2941 11.6393 12.3411 11.6972 12.3411Z" fill="white"/>
    <path d="M11.4257 12.6475H11.4947C11.5527 12.6475 11.5996 12.6005 11.5996 12.5426V12.4405C11.5996 12.3826 11.5527 12.3356 11.4947 12.3356H11.4257C11.3678 12.3356 11.3209 12.3826 11.3209 12.4405V12.5426C11.3209 12.6005 11.3678 12.6475 11.4257 12.6475Z" fill="white"/>
    <path d="M11.1562 12.9509H11.2252C11.2831 12.9509 11.3301 12.904 11.3301 12.8461V12.7439C11.3301 12.686 11.2831 12.6391 11.2252 12.6391H11.1562C11.0983 12.6391 11.0513 12.686 11.0513 12.7439V12.8461C11.0513 12.904 11.0983 12.9509 11.1562 12.9509Z" fill="white"/>
    <path d="M11.1523 12.3411H11.2213C11.2792 12.3411 11.3262 12.2941 11.3262 12.2362V12.1341C11.3262 12.0762 11.2792 12.0292 11.2213 12.0292H11.1523C11.0944 12.0292 11.0474 12.0762 11.0474 12.1341V12.2362C11.0474 12.2941 11.0944 12.3411 11.1523 12.3411Z" fill="white"/>
    <path d="M10.8808 12.6475H10.9498C11.0077 12.6475 11.0547 12.6005 11.0547 12.5426V12.4405C11.0547 12.3826 11.0077 12.3356 10.9498 12.3356H10.8808C10.8229 12.3356 10.776 12.3826 10.776 12.4405V12.5426C10.776 12.6005 10.8229 12.6475 10.8808 12.6475Z" fill="white"/>
    <path d="M10.6113 12.9509H10.6803C10.7382 12.9509 10.7852 12.904 10.7852 12.8461V12.7439C10.7852 12.686 10.7382 12.6391 10.6803 12.6391H10.6113C10.5534 12.6391 10.5064 12.686 10.5064 12.7439V12.8461C10.5064 12.904 10.5534 12.9509 10.6113 12.9509Z" fill="white"/>
    <path d="M16.6054 11.1519H16.1914V11.5658H16.6054V11.1519Z" fill="#0C0D0D"/>
  </g>
</svg>