<svg width="15" height="14" viewBox="0 0 15 14" fill="none" xmlns="http://www.w3.org/2000/svg">
    <path
        d="M11.8 13C11.6952 13 11.5912 12.969 11.5019 12.9084L8.12863 10.6203L6.31941 11.9221C6.17752 12.0242 5.99462 12.0499 5.82986 11.991C5.66531 11.9319 5.54034 11.7956 5.49573 11.6266L4.5873 8.18389L1.34137 6.94274C1.13702 6.86457 1.0015 6.66908 1.00001 6.45029C0.998525 6.2315 1.13136 6.03417 1.33471 5.95324L13.6769 1.04217C13.7329 1.01838 13.7922 1.00465 13.852 1.00096C13.8734 0.99969 13.8948 0.99969 13.9161 1.00089C14.0399 1.00826 14.1615 1.05867 14.2563 1.15171C14.2662 1.16134 14.2755 1.17118 14.2844 1.18145C14.363 1.27123 14.4062 1.38069 14.4143 1.49221C14.4163 1.52025 14.4161 1.54864 14.4137 1.57704C14.412 1.59729 14.4091 1.61747 14.405 1.63751L12.3217 12.5684C12.2882 12.744 12.1686 12.891 12.0035 12.9594C11.938 12.9866 11.8689 13 11.8 13ZM8.42481 9.53783L11.4296 11.576L13.0506 3.07054L7.19591 8.70424L8.41065 9.52827C8.41553 9.53131 8.42021 9.53457 8.42481 9.53783ZM5.92347 9.0846L6.32578 10.609L7.19258 9.98532L6.05757 9.21538C6.00482 9.1797 5.95965 9.13523 5.92347 9.0846ZM2.99219 6.43677L5.221 7.28891C5.38067 7.34994 5.50118 7.48419 5.5448 7.64945L5.82745 8.72066C5.84041 8.59711 5.89642 8.48085 5.9874 8.39326L11.5661 3.02522L2.99219 6.43677Z"
        fill="white" stroke="white" stroke-width="0.3" />
</svg>
    