<svg width="46" height="46" viewBox="0 0 46 46" fill="none" xmlns="http://www.w3.org/2000/svg">
    <circle cx="23" cy="23" r="23" fill="#3A535E" />
    <path fill-rule="evenodd" clip-rule="evenodd"
        d="M27.5696 31.4451C28.8517 30.7497 29.9584 29.7713 30.8058 28.5841C30.8976 28.4561 31.0138 28.3474 31.1476 28.2643C31.2815 28.1812 31.4304 28.1252 31.5859 28.0996C31.7413 28.0741 31.9003 28.0794 32.0537 28.1153C32.2072 28.1511 32.352 28.2169 32.48 28.3087C32.608 28.4006 32.7167 28.5168 32.7998 28.6506C32.8829 28.7845 32.9389 28.9334 32.9644 29.0888C32.99 29.2443 32.9847 29.4033 32.9488 29.5567C32.913 29.7101 32.8472 29.855 32.7554 29.983C31.7042 31.4523 30.3348 32.6653 28.7493 33.5314C27.1638 34.3975 25.4032 34.8944 23.5989 34.9849C21.7945 35.0755 19.993 34.7573 18.3288 34.0543C16.6645 33.3512 15.1806 32.2814 13.9876 30.9247C12.7947 29.5679 11.9235 27.9593 11.4392 26.2188C10.9548 24.4783 10.8698 22.6509 11.1905 20.873C11.5111 19.095 12.2292 17.4125 13.291 15.9508C14.3529 14.4892 15.7311 13.2862 17.3228 12.4317C18.2934 11.9129 19.3281 11.5244 20.4002 11.2763C21.0824 11.1245 21.7765 11.0322 22.4746 11.0004C22.7908 10.9926 23.0977 11.1073 23.3311 11.3207C23.5646 11.534 23.7065 11.8294 23.7272 12.1449C23.7415 12.462 23.6296 12.7719 23.416 13.0066C23.2024 13.2414 22.9044 13.3819 22.5874 13.3975C22.0293 13.4226 21.4745 13.4965 20.9293 13.6183C20.1656 13.7968 19.4252 14.0633 18.723 14.4125C17.4167 15.0614 16.2756 15.9995 15.3862 17.1555C14.4968 18.3116 13.8826 19.6551 13.5901 21.084C13.2977 22.5129 13.3348 23.9897 13.6986 25.4022C14.0624 26.8146 14.7433 28.1256 15.6896 29.2355C16.6359 30.3454 17.8227 31.225 19.1599 31.8076C20.4971 32.3901 21.9494 32.6602 23.4066 32.5974C24.8638 32.5346 26.2875 32.1406 27.5696 31.4451ZM30.194 17.4029C29.0785 16.1529 27.7008 15.1646 26.1592 14.5085H26.1621C25.8208 14.3613 25.5515 14.0851 25.413 13.7402C25.2745 13.3953 25.2781 13.0097 25.4228 12.6673C25.5676 12.325 25.8419 12.0538 26.1858 11.913C26.5297 11.7721 26.9154 11.7729 27.2587 11.9153C29.1835 12.7349 30.9038 13.9688 32.2973 15.5291C32.5457 15.808 32.6732 16.1742 32.6517 16.5471C32.6302 16.92 32.4614 17.2691 32.1825 17.5176C31.9036 17.7661 31.5374 17.8936 31.1645 17.8721C30.7916 17.8506 30.4425 17.6818 30.194 17.4029ZM33.9621 20.1837C33.9015 19.9084 33.8304 19.6371 33.754 19.3698C33.7112 19.1978 33.6341 19.0362 33.5273 18.8947C33.4206 18.7532 33.2863 18.6348 33.1327 18.5464C32.979 18.458 32.8091 18.4016 32.6331 18.3804C32.4571 18.3593 32.2787 18.3739 32.1084 18.4234C31.9382 18.4729 31.7798 18.5563 31.6425 18.6685C31.5053 18.7807 31.3922 18.9194 31.3098 19.0764C31.2275 19.2334 31.1778 19.4054 31.1635 19.5821C31.1493 19.7588 31.1708 19.9365 31.2269 20.1046C31.2862 20.3167 31.3415 20.5287 31.3915 20.7526C31.5575 21.5064 31.6409 22.276 31.6404 23.0479C31.6419 23.8367 31.5535 24.6231 31.377 25.392C31.338 25.5605 31.3325 25.7351 31.361 25.9057C31.3894 26.0763 31.4512 26.2397 31.5428 26.3865C31.6344 26.5332 31.754 26.6605 31.8948 26.761C32.0356 26.8615 32.1948 26.9333 32.3634 26.9722C32.4609 26.9952 32.5608 27.0067 32.661 27.0065C32.9587 27.0064 33.2475 26.9054 33.4805 26.7201C33.7134 26.5347 33.8767 26.2759 33.9437 25.9859C34.3833 24.0775 34.3896 22.0948 33.9621 20.1837ZM21.2929 23.1806V19.1813C21.2929 18.8278 21.4333 18.4887 21.6833 18.2387C21.9333 17.9887 22.2724 17.8482 22.626 17.8482C22.9796 17.8482 23.3186 17.9887 23.5686 18.2387C23.8186 18.4887 23.9591 18.8278 23.9591 19.1813V22.2195L27.0466 23.2446C27.3825 23.3563 27.6602 23.5969 27.8187 23.9134C27.9772 24.2299 28.0035 24.5965 27.8918 24.9323C27.78 25.2682 27.5395 25.546 27.2229 25.7045C26.9064 25.863 26.5399 25.8893 26.204 25.7775L22.2047 24.4444C21.9394 24.356 21.7086 24.1864 21.5449 23.9596C21.3813 23.7328 21.2931 23.4603 21.2929 23.1806Z"
        fill="#FFB200" />
</svg>
    