<svg xmlns="http://www.w3.org/2000/svg" width="8" height="10" viewBox="0 0 8 10" fill="none">
  <path d="M4.47065 0.195236C4.21033 -0.0650789 3.78758 -0.0650789 3.52727 0.195236L0.195236 3.52727C-0.0650789 3.78758 -0.0650789 4.21033 0.195236 4.47065C0.455551 4.73096 0.878303 4.73096 1.13862 4.47065L3.33359 2.27359L3.33359 8.66276C3.33359 9.03137 3.63139 9.32917 4 9.32917C4.36861 9.32917 4.66641 9.03137 4.66641 8.66276L4.66641 2.27567L6.86138 4.46857C7.1217 4.72888 7.54445 4.72888 7.80476 4.46857C8.06508 4.20825 8.06508 3.7855 7.80476 3.52518L4.47273 0.193154L4.47065 0.195236Z" fill="#65CC7C"/>
</svg>