<svg xmlns="http://www.w3.org/2000/svg" width="18" height="18" viewBox="0 0 18 18" fill="none">
<path fill-rule="evenodd" clip-rule="evenodd" d="M4.48416 4.34072C3.80545 4.93864 3.69416 5.96804 3.29644 6.78044C3.21626 6.94422 3.10847 7.09714 2.97196 7.23365C2.29907 7.90654 1.17757 7.90654 0.504673 7.23365C-0.168224 6.56075 -0.168224 5.43925 0.504673 4.76636C0.650092 4.62094 0.814368 4.50946 0.989675 4.43094C1.88909 4.02812 3.07592 4.09286 3.8067 3.43168C4.48868 2.81465 4.58399 1.74205 5.03017 0.937849C5.09519 0.820648 5.17548 0.712375 5.27103 0.616823C5.94393 -0.0560745 7.06542 -0.0560745 7.73832 0.616823C7.83973 0.718229 7.92528 0.828692 7.99545 0.945481C8.48596 1.76192 8.60104 2.88151 9.31572 3.51111L9.82472 3.95952C10.2244 4.31164 10.8217 4.33785 11.3544 4.3319C11.9086 4.3257 12.5019 4.29671 12.9172 3.92971L13.47 3.44118C14.1767 2.81667 14.2862 1.73255 14.7324 0.901673C14.809 0.759056 14.9073 0.625442 15.028 0.504673C15.7009 -0.168224 16.8224 -0.168224 17.4953 0.504673C18.1682 1.17757 18.1682 2.29907 17.4953 2.97196C17.3449 3.12239 17.1743 3.24054 16.9922 3.32531C16.1065 3.73761 14.9258 3.6882 14.1927 4.33401C13.5094 4.93599 13.3982 5.97405 12.9929 6.78955C12.9132 6.94989 12.8069 7.09967 12.6729 7.23365C12 7.90654 10.8785 7.90654 10.2056 7.23365C10.0897 7.11776 9.99158 6.9871 9.91254 6.84708C9.4512 6.02991 9.33188 4.90318 8.62773 4.28286L8.14548 3.85802C7.73601 3.4973 7.13449 3.50467 6.58879 3.50467C6.04308 3.50467 5.44157 3.49729 5.03209 3.85802L4.48416 4.34072ZM4.82249 7.79448C4.82249 6.83443 5.60077 6.05616 6.56082 6.05616C7.52087 6.05616 8.29915 6.83443 8.29915 7.79449V16.2617C8.29915 17.2217 7.52087 18 6.56082 18C5.60077 18 4.82249 17.2217 4.82249 16.2617V7.79448ZM0 12C0 11.04 0.778275 10.2617 1.73833 10.2617C2.69838 10.2617 3.47665 11.04 3.47665 12V16.2617C3.47665 17.2217 2.69838 18 1.73833 18C0.778275 18 0 17.2217 0 16.2617V12ZM13.1212 12.0001C13.1212 11.04 12.3429 10.2617 11.3829 10.2617C10.4228 10.2617 9.64453 11.04 9.64453 12.0001V16.2617C9.64453 17.2218 10.4228 18 11.3829 18C12.3429 18 13.1212 17.2218 13.1212 16.2617V12.0001ZM14.4668 7.79449C14.4668 6.83444 15.2451 6.05617 16.2051 6.05617C17.1652 6.05617 17.9434 6.83444 17.9434 7.7945V16.2617C17.9434 17.2217 17.1652 18 16.2051 18C15.2451 18 14.4668 17.2217 14.4668 16.2617V7.79449Z" fill="url(#paint0_linear_42_3047)"/>
<defs>
<linearGradient id="paint0_linear_42_3047" x1="0.0406842" y1="9.14887" x2="25.7931" y2="11.7018" gradientUnits="userSpaceOnUse">
<stop stop-color="#8B2D9C"/>
<stop offset="0.375" stop-color="#E6464E"/>
<stop offset="0.635" stop-color="#FB6824"/>
<stop offset="0.97" stop-color="#F2A901"/>
</linearGradient>
</defs>
</svg>