<svg width="22" height="18" viewBox="0 0 22 18" fill="none" xmlns="http://www.w3.org/2000/svg">
    <path fill-rule="evenodd" clip-rule="evenodd"
        d="M6.7299 7.53556C8.67679 7.53556 10.261 5.96411 10.261 4.0325C10.261 2.10088 8.67679 0.529434 6.7299 0.529434C4.78301 0.529434 3.1995 2.10088 3.1995 4.0325C3.1995 5.96411 4.78301 7.53556 6.7299 7.53556ZM6.7299 2.03017C7.84293 2.03017 8.74843 2.92856 8.74843 4.0325C8.74843 5.13643 7.84293 6.03482 6.7299 6.03482C5.6176 6.03482 4.7121 5.13643 4.7121 4.0325C4.7121 2.92856 5.6176 2.03017 6.7299 2.03017ZM18.8008 4.0325C18.8008 5.96411 17.2173 7.53556 15.2704 7.53556C13.3236 7.53556 11.7393 5.96411 11.7393 4.0325C11.7393 2.10089 13.3236 0.529438 15.2704 0.529438C17.2173 0.529438 18.8008 2.10089 18.8008 4.0325ZM15.2704 6.03482C16.3827 6.03482 17.2882 5.13643 17.2882 4.0325C17.2882 2.92856 16.3827 2.03017 15.2704 2.03017C14.1574 2.03017 13.2519 2.92856 13.2519 4.0325C13.2519 5.13643 14.1574 6.03482 15.2704 6.03482ZM13.2495 8.9975C13.881 8.77437 14.562 8.66115 15.274 8.66115C16.9631 8.66115 18.5496 9.31223 19.7409 10.4942C20.9322 11.6765 21.5888 13.2506 21.5888 14.9268C21.5888 15.6068 21.3222 16.2454 20.8377 16.7258C20.3539 17.2057 19.7128 17.4707 19.0326 17.4707H14.9638C14.5457 17.4707 14.2075 17.1347 14.2075 16.7203C14.2075 16.3587 14.4704 16.071 14.8138 16C14.83 15.9966 14.8459 15.9923 14.8617 15.988L14.8617 15.988L14.8617 15.988C14.8948 15.9789 14.9278 15.9699 14.9638 15.9699H19.0326C19.3088 15.9699 19.5696 15.8615 19.7682 15.6647C19.9669 15.4672 20.0762 15.2056 20.0762 14.9268C20.0762 13.6514 19.5769 12.454 18.6714 11.5553C17.766 10.6569 16.5591 10.1619 15.274 10.1619C14.7356 10.1619 14.2252 10.2458 13.7577 10.411C13.7374 10.4182 13.7169 10.4196 13.6965 10.421H13.6965C13.6823 10.422 13.6682 10.4229 13.6541 10.4258C13.2898 10.4992 12.919 10.3122 12.7909 9.95598C12.6513 9.56577 12.8566 9.13636 13.2495 8.9975ZM10.49 17.468H2.97054C1.55986 17.468 0.412109 16.3293 0.412109 14.9297C0.412109 11.4731 3.24603 8.66109 6.7299 8.66109C10.2138 8.66109 13.0484 11.4731 13.0484 14.9297C13.0484 16.3293 11.9007 17.468 10.49 17.468ZM11.5358 14.9297C11.5358 12.3008 9.37992 10.1618 6.7299 10.1618C4.08062 10.1618 1.92472 12.3008 1.92472 14.9297C1.92472 15.502 2.39371 15.9673 2.97054 15.9673H10.49C11.0668 15.9673 11.5358 15.502 11.5358 14.9297Z"
        fill="#65CC7C" />
</svg>
    