<svg width="14" height="16" viewBox="0 0 14 16" fill="none" xmlns="http://www.w3.org/2000/svg">
    <path fill-rule="evenodd" clip-rule="evenodd"
        d="M7.07524 1C7.35611 1 7.62659 1.10378 7.83481 1.29124L10.6785 3.85081C10.9172 4.06551 11.0541 4.37232 11.0541 4.69405V11.8649C11.0541 12.6711 10.4009 13.3243 9.59459 13.3243H2.45946C1.65319 13.3243 1 12.6711 1 11.8649V2.45946C1 2.07222 1.15373 1.70119 1.42746 1.42746C1.70119 1.15373 2.07222 1 2.45946 1H7.07524ZM7.07524 1.97297H2.45946C2.33038 1.97297 2.20649 2.02422 2.11568 2.11568C2.02422 2.20649 1.97297 2.33038 1.97297 2.45946V11.8649C1.97297 12.1334 2.19092 12.3514 2.45946 12.3514H9.59459C9.86314 12.3514 10.0811 12.1334 10.0811 11.8649V4.69405C10.0811 4.648 10.0616 4.60454 10.0272 4.57405L7.18422 2.01449C7.15438 1.98789 7.11546 1.97297 7.07524 1.97297Z"
        fill="white" stroke="white" stroke-width="0.3" />
    <path fill-rule="evenodd" clip-rule="evenodd"
        d="M10.8935 4.56308L12.6248 6.12113C12.8635 6.33584 13.0003 6.64265 13.0003 6.96438V14.1352C13.0003 14.9415 12.3472 15.5946 11.5409 15.5946H4.40575C3.59948 15.5946 2.94629 14.9415 2.94629 14.1352V12.8379C2.94629 12.5693 3.16424 12.3514 3.43278 12.3514H9.59494C9.86348 12.3514 10.0814 12.1335 10.0814 11.8649V4.92438C10.0814 4.73238 10.1943 4.55789 10.3701 4.48005C10.5452 4.40157 10.7508 4.434 10.8935 4.56308ZM11.0544 6.0167V11.8649C11.0544 12.6712 10.4012 13.3244 9.59494 13.3244H3.91926V14.1352C3.91926 14.4037 4.13721 14.6217 4.40575 14.6217H11.5409C11.8094 14.6217 12.0274 14.4037 12.0274 14.1352V6.96438C12.0274 6.91832 12.0079 6.87486 11.9735 6.84438L11.0544 6.0167Z"
        fill="white" stroke="white" stroke-width="0.3" />
    <path fill-rule="evenodd" clip-rule="evenodd"
        d="M6.83789 1.81083C6.83789 1.54229 7.05584 1.32434 7.32438 1.32434C7.59292 1.32434 7.81086 1.54229 7.81086 1.81083V3.75677C7.81086 3.84629 7.88351 3.91894 7.97303 3.91894H10.2433C10.5118 3.91894 10.7298 4.13688 10.7298 4.40542C10.7298 4.67396 10.5118 4.89191 10.2433 4.89191H7.97303C7.34643 4.89191 6.83789 4.38402 6.83789 3.75677V1.81083Z"
        fill="white" stroke="white" stroke-width="0.3" />
    <path fill-rule="evenodd" clip-rule="evenodd"
        d="M3.75699 6.83784C3.48845 6.83784 3.27051 6.6199 3.27051 6.35135C3.27051 6.08281 3.48845 5.86487 3.75699 5.86487H8.29753C8.56608 5.86487 8.78402 6.08281 8.78402 6.35135C8.78402 6.6199 8.56608 6.83784 8.29753 6.83784H3.75699Z"
        fill="white" stroke="white" stroke-width="0.3" />
    <path fill-rule="evenodd" clip-rule="evenodd"
        d="M3.75699 8.78383C3.48845 8.78383 3.27051 8.56588 3.27051 8.29734C3.27051 8.0288 3.48845 7.81085 3.75699 7.81085H6.02726C6.29581 7.81085 6.51375 8.0288 6.51375 8.29734C6.51375 8.56588 6.29581 8.78383 6.02726 8.78383H3.75699Z"
        fill="white" stroke="white" stroke-width="0.3" />
    <path fill-rule="evenodd" clip-rule="evenodd"
        d="M3.75699 10.7297C3.48845 10.7297 3.27051 10.5118 3.27051 10.2433C3.27051 9.97472 3.48845 9.75677 3.75699 9.75677H7.32456C7.5931 9.75677 7.81105 9.97472 7.81105 10.2433C7.81105 10.5118 7.5931 10.7297 7.32456 10.7297H3.75699Z"
        fill="white" stroke="white" stroke-width="0.3" />
</svg>
    