<svg width="1104" height="1665" viewBox="0 0 1104 1665" fill="none"
    xmlns="http://www.w3.org/2000/svg">
    <mask id="mask0_64_7068" style="mask-type:alpha" maskUnits="userSpaceOnUse" x="0" y="0"
        width="1104" height="886">
        <path d="M1104 0H0V886H1104V0Z" fill="url(#paint0_linear_64_7068)" />
    </mask>
    <g mask="url(#mask0_64_7068)">
        <path d="M80.2125 129.724H1023.79" stroke="#3C356D" />
        <path d="M138 113.689H965.138" stroke="#3C356D" />
        <path d="M199.237 96.0515H904.762" stroke="#3C356D" />
        <path d="M231.15 87.2329H871.987" stroke="#3C356D" />
        <path d="M257.025 56.6361H846.975" stroke="#3C356D" />
        <path
            d="M1.725 422.559V167.722C1.725 158.2 11.8827 149.423 28.2715 144.786L230.479 87.5633C246.866 82.9256 257.025 74.1489 257.025 64.6261V-255.011"
            stroke="#3C356D" />
        <path
            d="M1102.27 422.559V167.722C1102.27 158.2 1092.12 149.423 1075.73 144.786L873.521 87.5633C857.134 82.9256 846.975 74.1489 846.975 64.6261V-255.011"
            stroke="#3C356D" />
        <path
            d="M183.229 422.153V164.096C183.229 156.279 190.093 148.867 201.953 143.878L336.332 87.3475C348.191 82.3582 355.055 74.9467 355.055 67.1287V-255.376"
            stroke="#3C356D" />
        <path
            d="M920.711 422.153V164.097C920.711 156.279 913.849 148.867 901.988 143.878L767.61 87.3477C755.749 82.3583 748.886 74.9468 748.886 67.1289V-255.376"
            stroke="#3C356D" />
        <path
            d="M365.698 422.153V159.093C365.698 154.196 368.396 149.396 373.488 145.236L446.102 85.906C451.194 81.7461 453.892 76.9464 453.892 72.0494V-256.148"
            stroke="#3C356D" />
        <path
            d="M738.242 422.153V159.093C738.242 154.196 735.544 149.396 730.451 145.236L657.838 85.906C652.745 81.7461 650.047 76.9464 650.047 72.0494V-256.148"
            stroke="#3C356D" />
        <path d="M551.21 -255.376L551.209 184.214V422.153" stroke="#3C356D" />
        <path d="M11.2125 152.931H1093.65" stroke="#3C356D" />
        <path d="M1.725 240.473H1102.28" stroke="#3C356D" />
        <path d="M1.725 328.014H1102.28" stroke="#3C356D" />
        <path d="M1.725 415.555H1102.28" stroke="#3C356D" />
        <path d="M1.725 503.096H1102.28" stroke="#3C356D" />
        <path d="M1.725 590.638H1102.28" stroke="#3C356D" />
        <path d="M1.725 678.179H1102.28" stroke="#3C356D" />
        <path d="M9.4875 765.72H1095.37" stroke="#3C356D" />
        <path d="M81.075 789.74H1023.79" stroke="#3C356D" />
        <path d="M137.138 805.687H967.725" stroke="#3C356D" />
        <path d="M200.1 823.229H905.625" stroke="#3C356D" />
        <path d="M230.288 832H874.575" stroke="#3C356D" />
        <path d="M257.025 862.016H846.975" stroke="#3C356D" />
        <path
            d="M1.725 400.673V751.936C1.725 761.461 11.8855 770.238 28.2778 774.875L230.472 832.075C246.865 836.713 257.025 845.49 257.025 855.014V1174.54"
            stroke="#3C356D" />
        <path
            d="M1102.27 381.414V752.154C1102.27 761.68 1092.11 770.46 1075.71 775.096L873.538 832.259C857.14 836.895 846.975 845.674 846.975 855.201V1174.54"
            stroke="#3C356D" />
        <path
            d="M183.229 402.424V755.275C183.229 763.093 190.093 770.504 201.953 775.493L336.332 832.024C348.191 837.013 355.055 844.425 355.055 852.243V1174.75"
            stroke="#3C356D" />
        <path
            d="M920.711 383.165V755.275C920.711 763.093 913.849 770.504 901.988 775.493L767.61 832.024C755.749 837.013 748.886 844.425 748.886 852.243V1174.75"
            stroke="#3C356D" />
        <path
            d="M365.698 371.785V760.279C365.698 765.176 368.396 769.976 373.488 774.136L446.102 833.466C451.194 837.626 453.892 842.425 453.892 847.322V1175.52"
            stroke="#3C356D" />
        <path
            d="M738.242 403.299V760.279C738.242 765.176 735.544 769.976 730.451 774.136L657.838 833.466C652.745 837.626 650.047 842.425 650.047 847.322V1175.52"
            stroke="#3C356D" />
        <path d="M551.21 1174.75L551.209 735.158V385.354" stroke="#3C356D" />
    </g>
    <mask id="mask1_64_7068" style="mask-type:alpha" maskUnits="userSpaceOnUse" x="0" y="776"
        width="1104" height="889">
        <path d="M0.0078125 1665H1103.96V776H0.0078125V1665Z" fill="url(#paint1_linear_64_7068)" />
    </mask>
    <g mask="url(#mask1_64_7068)">
        <path d="M1023.75 1529.55H80.2158" stroke="#3C356D" />
        <path d="M965.969 1545.59H138.864" stroke="#3C356D" />
        <path d="M904.734 1563.23H199.237" stroke="#3C356D" />
        <path d="M872.822 1572.05H232.01" stroke="#3C356D" />
        <path d="M846.948 1602.65H257.021" stroke="#3C356D" />
        <path
            d="M1102.24 1236.68V1491.55C1102.24 1501.07 1092.08 1509.85 1075.69 1514.49L873.493 1571.72C857.107 1576.36 846.948 1585.14 846.948 1594.66V1914.34"
            stroke="#3C356D" />
        <path
            d="M1.73151 1236.68V1491.55C1.73151 1501.07 11.8896 1509.85 28.2764 1514.49L230.476 1571.72C246.863 1576.36 257.021 1585.14 257.021 1594.66V1914.34"
            stroke="#3C356D" />
        <path
            d="M920.742 1237.08V1495.18C920.742 1502.99 913.878 1510.41 902.02 1515.4L767.646 1571.93C755.787 1576.92 748.923 1584.34 748.923 1592.16V1914.7"
            stroke="#3C356D" />
        <path
            d="M183.289 1237.08V1495.18C183.289 1502.99 190.151 1510.41 202.011 1515.4L336.383 1571.93C348.244 1576.92 355.108 1584.34 355.108 1592.16V1914.7"
            stroke="#3C356D" />
        <path
            d="M738.279 1237.08V1500.18C738.279 1505.08 735.581 1509.88 730.489 1514.04L657.878 1573.38C652.786 1577.54 650.088 1582.34 650.088 1587.23V1915.48"
            stroke="#3C356D" />
        <path
            d="M365.751 1237.08V1500.18C365.751 1505.08 368.449 1509.88 373.541 1514.04L446.152 1573.38C451.244 1577.54 453.942 1582.34 453.942 1587.23V1915.48"
            stroke="#3C356D" />
        <path d="M552.775 1914.7L552.776 1475.06V1237.08" stroke="#3C356D" />
        <path d="M1092.75 1506.34H10.3555" stroke="#3C356D" />
        <path d="M1102.24 1418.79H1.73197" stroke="#3C356D" />
        <path d="M1102.24 1331.24H1.73197" stroke="#3C356D" />
        <path d="M1102.24 1243.68H1.73197" stroke="#3C356D" />
        <path d="M1102.24 1156.13H1.73197" stroke="#3C356D" />
        <path d="M1102.24 1068.58H1.73197" stroke="#3C356D" />
        <path d="M1102.24 981.025H1.73197" stroke="#3C356D" />
        <path d="M1094.48 893.472H8.63173" stroke="#3C356D" />
        <path d="M1022.89 869.449H80.2164" stroke="#3C356D" />
        <path d="M966.831 853.5H136.276" stroke="#3C356D" />
        <path d="M903.87 835.955H198.373" stroke="#3C356D" />
        <path d="M873.684 827.183H229.422" stroke="#3C356D" />
        <path d="M846.948 797.164H257.021" stroke="#3C356D" />
        <path
            d="M1102.24 1258.57V907.258C1102.24 897.732 1092.08 888.953 1075.69 884.316L873.5 827.109C857.108 822.47 846.948 813.692 846.948 804.166V484.6"
            stroke="#3C356D" />
        <path
            d="M1.73151 1277.83V907.04C1.73151 897.512 11.8965 888.732 28.2937 884.095L230.459 826.925C246.856 822.288 257.021 813.507 257.021 803.98V484.6"
            stroke="#3C356D" />
        <path
            d="M920.742 1256.82V903.919C920.742 896.099 913.878 888.687 902.02 883.697L767.646 827.159C755.787 822.17 748.923 814.757 748.923 806.938V484.39"
            stroke="#3C356D" />
        <path
            d="M183.289 1276.08V903.919C183.289 896.099 190.151 888.687 202.011 883.697L336.383 827.159C348.244 822.17 355.108 814.757 355.108 806.938V484.39"
            stroke="#3C356D" />
        <path
            d="M738.279 1287.46V898.914C738.279 894.017 735.581 889.216 730.489 885.055L657.878 825.717C652.786 821.557 650.088 816.757 650.088 811.859V483.619"
            stroke="#3C356D" />
        <path
            d="M365.751 1255.94V898.914C365.751 894.016 368.449 889.216 373.541 885.055L446.152 825.717C451.244 821.557 453.942 816.757 453.942 811.859V483.619"
            stroke="#3C356D" />
        <path d="M552.775 484.39L552.776 924.038V1273.89" stroke="#3C356D" />
    </g>
    <defs>
        <linearGradient id="paint0_linear_64_7068" x1="552" y1="17.9726" x2="552" y2="859.639"
            gradientUnits="userSpaceOnUse">
            <stop stop-color="#D9D9D9" stop-opacity="0" />
            <stop offset="0.169369" stop-color="#D9D9D9" />
            <stop offset="0.736397" stop-color="#D9D9D9" />
            <stop offset="0.987273" stop-color="#D9D9D9" stop-opacity="0" />
        </linearGradient>
        <linearGradient id="paint1_linear_64_7068" x1="551.986" y1="1646.97" x2="551.986"
            y2="802.45" gradientUnits="userSpaceOnUse">
            <stop stop-color="#D9D9D9" stop-opacity="0" />
            <stop offset="0.169369" stop-color="#D9D9D9" />
            <stop offset="0.736397" stop-color="#D9D9D9" />
            <stop offset="0.987273" stop-color="#D9D9D9" stop-opacity="0" />
        </linearGradient>
    </defs>
</svg>