<svg width="1102" height="886" viewBox="0 0 1102 886" fill="none" xmlns="http://www.w3.org/2000/svg">
<path d="M79.2125 129.724H1022.79" stroke="#3C356D"/>
<path d="M137 113.689H964.138" stroke="#3C356D"/>
<path d="M198.237 96.0515H903.762" stroke="#3C356D"/>
<path d="M230.15 87.2329H870.987" stroke="#3C356D"/>
<path d="M256.025 56.6361H845.975" stroke="#3C356D"/>
<path d="M0.724998 422.559V167.722C0.724998 158.2 10.8827 149.423 27.2715 144.786L229.479 87.5633C245.866 82.9256 256.025 74.1489 256.025 64.6261V-255.011" stroke="#3C356D"/>
<path d="M1101.27 422.559V167.722C1101.27 158.2 1091.12 149.423 1074.73 144.786L872.521 87.5633C856.134 82.9256 845.975 74.1489 845.975 64.6261V-255.011" stroke="#3C356D"/>
<path d="M182.229 422.153V164.096C182.229 156.279 189.093 148.867 200.953 143.878L335.332 87.3475C347.191 82.3582 354.055 74.9467 354.055 67.1287V-255.376" stroke="#3C356D"/>
<path d="M919.711 422.153V164.097C919.711 156.279 912.849 148.867 900.988 143.878L766.61 87.3477C754.749 82.3583 747.886 74.9468 747.886 67.1289V-255.376" stroke="#3C356D"/>
<path d="M364.698 422.153V159.093C364.698 154.196 367.396 149.396 372.488 145.236L445.102 85.906C450.194 81.7461 452.892 76.9464 452.892 72.0494V-256.148" stroke="#3C356D"/>
<path d="M737.242 422.153V159.093C737.242 154.196 734.544 149.396 729.451 145.236L656.838 85.906C651.745 81.7461 649.047 76.9464 649.047 72.0494V-256.148" stroke="#3C356D"/>
<path d="M550.21 -255.376L550.209 184.214V422.153" stroke="#3C356D"/>
<path d="M10.2125 152.931H1092.65" stroke="#3C356D"/>
<path d="M0.724998 240.473H1101.28" stroke="#3C356D"/>
<path d="M0.724998 328.014H1101.28" stroke="#3C356D"/>
<path d="M0.724998 415.555H1101.28" stroke="#3C356D"/>
<path d="M0.724998 503.096H1101.28" stroke="#3C356D"/>
<path d="M0.724998 590.638H1101.28" stroke="#3C356D"/>
<path d="M0.724998 678.179H1101.28" stroke="#3C356D"/>
<path d="M8.4875 765.72H1094.37" stroke="#3C356D"/>
<path d="M80.075 789.74H1022.79" stroke="#3C356D"/>
<path d="M136.138 805.687H966.725" stroke="#3C356D"/>
<path d="M199.1 823.229H904.625" stroke="#3C356D"/>
<path d="M229.288 832H873.575" stroke="#3C356D"/>
<path d="M256.025 862.016H845.975" stroke="#3C356D"/>
<path d="M0.724998 400.673V751.936C0.724998 761.461 10.8855 770.238 27.2778 774.875L229.472 832.075C245.865 836.713 256.025 845.49 256.025 855.014V1174.54" stroke="#3C356D"/>
<path d="M1101.27 381.414V752.154C1101.27 761.68 1091.11 770.46 1074.71 775.096L872.538 832.259C856.14 836.895 845.975 845.674 845.975 855.201V1174.54" stroke="#3C356D"/>
<path d="M182.229 402.424V755.275C182.229 763.093 189.093 770.504 200.953 775.493L335.332 832.024C347.191 837.013 354.055 844.425 354.055 852.243V1174.75" stroke="#3C356D"/>
<path d="M919.711 383.165V755.275C919.711 763.093 912.849 770.504 900.988 775.493L766.61 832.024C754.749 837.013 747.886 844.425 747.886 852.243V1174.75" stroke="#3C356D"/>
<path d="M364.698 371.785V760.279C364.698 765.176 367.396 769.976 372.488 774.136L445.102 833.466C450.194 837.626 452.892 842.425 452.892 847.322V1175.52" stroke="#3C356D"/>
<path d="M737.242 403.299V760.279C737.242 765.176 734.544 769.976 729.451 774.136L656.838 833.466C651.745 837.626 649.047 842.425 649.047 847.322V1175.52" stroke="#3C356D"/>
<path d="M550.21 1174.75L550.209 735.158V385.354" stroke="#3C356D"/>
</svg>
