<svg width="51" height="51" viewBox="0 0 51 51" fill="none" xmlns="http://www.w3.org/2000/svg">
    <path
        d="M25.5 51C39.5833 51 51 39.5833 51 25.5C51 11.4167 39.5833 0 25.5 0C11.4167 0 0 11.4167 0 25.5C0 39.5833 11.4167 51 25.5 51Z"
        fill="#BEC2D1" />
    <path
        d="M25.5573 46.8901C37.3389 46.8901 46.8898 37.3392 46.8898 25.5576C46.8898 13.776 37.3389 4.2251 25.5573 4.2251C13.7757 4.2251 4.22485 13.776 4.22485 25.5576C4.22485 37.3392 13.7757 46.8901 25.5573 46.8901Z"
        fill="#E2E4EC" />
    <mask id="mask0_90_148" style="mask-type:alpha" maskUnits="userSpaceOnUse" x="4" y="4"
        width="43" height="43">
        <path
            d="M25.5573 46.8901C37.3389 46.8901 46.8898 37.3392 46.8898 25.5576C46.8898 13.776 37.3389 4.2251 25.5573 4.2251C13.7757 4.2251 4.22485 13.776 4.22485 25.5576C4.22485 37.3392 13.7757 46.8901 25.5573 46.8901Z"
            fill="#E5E7EF" />
    </mask>
    <g mask="url(#mask0_90_148)">
        <path fill-rule="evenodd" clip-rule="evenodd"
            d="M22.8351 17.0168C11.0989 -12.5589 55.0274 -21.3394 61.7351 -23.022C48.6554 -4.84666 28.6025 -8.46765 25.4517 15.8109L22.8351 17.0168Z"
            fill="#C6C6C6" />
        <path fill-rule="evenodd" clip-rule="evenodd"
            d="M62.1315 -23.291L61.8688 -22.9259C56.5306 -15.508 50.0275 -11.7014 44.0084 -8.17813C42.6259 -7.36884 41.2688 -6.5745 39.9573 -5.75477C36.4428 -3.55806 33.2519 -1.17934 30.7424 2.15554C28.2344 5.48842 26.3995 9.78654 25.6149 15.832L25.6032 15.9222L22.7463 17.2389L22.6823 17.0775C19.7324 9.64373 20.2761 3.49963 22.8725 -1.55507C25.4651 -6.60235 30.0948 -10.545 35.2852 -13.6043C44.6449 -19.1209 55.8814 -21.7942 60.4509 -22.8813C60.9484 -22.9996 61.3668 -23.0992 61.6952 -23.1816L62.1315 -23.291ZM22.9245 16.7945L25.3004 15.6995C26.0978 9.65289 27.9453 5.32547 30.4795 1.9577C33.0248 -1.4248 36.2555 -3.82902 39.783 -6.03379C41.1072 -6.86149 42.4729 -7.66113 43.8608 -8.4738C49.7755 -11.9371 56.0946 -15.6371 61.3372 -22.7549C61.0966 -22.6967 60.8252 -22.6321 60.5253 -22.5607C55.9504 -21.4719 44.765 -18.8098 35.4522 -13.3208C30.2891 -10.2776 25.718 -6.37455 23.1652 -1.40473C20.6349 3.52127 20.078 9.51341 22.9245 16.7945Z"
            fill="#1D1D1B" />
        <path fill-rule="evenodd" clip-rule="evenodd"
            d="M57.5768 -19.2668C45.1689 -6.11997 27.6621 -6.52301 23.9067 12.4008C21.4277 -8.18637 42.8881 -14.7598 57.5768 -19.2668Z"
            fill="white" />
        <path fill-rule="evenodd" clip-rule="evenodd"
            d="M57.6467 -19.3103C57.6664 -19.2786 57.6623 -19.2375 57.6366 -19.2104C52.9406 -14.2347 47.5112 -11.1936 42.3833 -8.32128C40.7257 -7.39282 39.0996 -6.48201 37.5399 -5.52919C31.1527 -1.62715 25.8588 2.98663 23.9874 12.4168C23.9795 12.4565 23.944 12.4845 23.9036 12.483C23.8632 12.4815 23.8299 12.4508 23.8251 12.4106C23.2034 7.24834 24.0824 2.96041 25.9835 -0.637117C27.8841 -4.23367 30.8039 -7.13543 34.257 -9.53067C41.1515 -14.313 50.1867 -17.0853 57.5231 -19.3364L57.5527 -19.3455C57.5884 -19.3564 57.627 -19.342 57.6467 -19.3103ZM23.9311 11.8767C25.9025 2.72407 31.1625 -1.82594 37.4541 -5.66958C39.0237 -6.62847 40.6563 -7.54296 42.3178 -8.47368C47.3624 -11.2994 52.6739 -14.2747 57.3007 -19.0961C50.0092 -16.8584 41.1362 -14.1022 34.3508 -9.39549C30.9126 -7.01059 28.014 -4.1272 26.129 -0.560249C24.3078 2.88591 23.4304 6.97458 23.9311 11.8767Z"
            fill="#1D1D1B" />
        <path fill-rule="evenodd" clip-rule="evenodd"
            d="M24.0674 14.3371L23.8658 12.3923L23.9477 12.3838L24.1492 14.3286L24.0674 14.3371Z"
            fill="#1D1D1B" />
        <path fill-rule="evenodd" clip-rule="evenodd"
            d="M18.9583 17.6211C-2.57251 -4.84691 33.9924 -29.7972 39.4303 -33.9556C34.6002 -12.2904 15.0174 -8.1992 21.1207 14.6655C21.722 14.1313 22.5281 14.1985 23.4014 13.5939C24.2866 12.7784 25.4195 12.2829 26.6193 12.1865C25.8804 12.7878 25.9476 12.9893 25.2119 13.5939C26.3154 12.6567 29.4758 12.2472 31.1519 12.4551C29.6741 12.5895 26.8592 12.9925 26.389 14.0545C27.1279 13.3156 29.7413 13.1813 30.6146 13.5843C30.01 13.5171 27.7965 13.6515 27.4638 14.2529C27.5981 15.0589 28.6025 16.2009 30.3427 18.4784C30.7489 18.9646 30.6817 19.2301 31.4334 18.9646C31.8333 19.0318 32.4378 22.5856 33.3111 24.8663C34.1812 27.5501 34.5906 28.8903 36.0588 31.1711C31.8333 37.0728 24.5241 33.9892 16.2745 28.3562C17.3365 23.0526 17.2022 20.3017 18.9583 17.6211Z"
            fill="#C6C6C6" />
        <path fill-rule="evenodd" clip-rule="evenodd"
            d="M39.6891 -34.3604L39.5909 -33.9195C37.588 -24.9357 33.0536 -18.9544 28.8741 -13.4413C27.9944 -12.2809 27.1304 -11.1412 26.309 -9.99857C23.9448 -6.70965 21.9318 -3.39686 20.8864 0.511841C19.8564 4.36313 19.7626 8.80484 21.2167 14.3849C21.4961 14.1992 21.803 14.0992 22.1081 13.9999L22.1186 13.9965C22.4993 13.8726 22.8911 13.7452 23.2985 13.4653C24.2095 12.6296 25.3736 12.1218 26.6061 12.0227L27.1335 11.9803L26.7231 12.3143C26.4152 12.5649 26.2536 12.7418 26.1098 12.912C26.177 12.886 26.2457 12.8607 26.3155 12.8363C26.804 12.6656 27.3643 12.531 27.9396 12.4332C29.0881 12.2378 30.3139 12.1857 31.1722 12.2921L32.6916 12.4806L31.1668 12.6193C30.4314 12.6861 29.3688 12.8194 28.4346 13.0663C28.1069 13.1529 27.7983 13.2526 27.5269 13.3668C27.8158 13.3011 28.1261 13.255 28.4369 13.2276C28.8728 13.189 29.3141 13.1868 29.7038 13.2202C30.09 13.2533 30.4394 13.3226 30.6835 13.4352L31.6039 13.86L30.5964 13.7481C30.3129 13.7166 29.6235 13.7318 28.9615 13.8308C28.6317 13.8802 28.3169 13.9493 28.0677 14.0401C27.8478 14.1202 27.7076 14.2073 27.6383 14.289C27.7167 14.6392 27.9748 15.0825 28.4343 15.7177C28.7307 16.1273 29.101 16.6043 29.5443 17.1751C29.8242 17.5357 30.1333 17.9338 30.4712 18.376C30.5612 18.484 30.6298 18.5825 30.6852 18.6621C30.695 18.6762 30.7043 18.6897 30.7134 18.7026C30.7776 18.794 30.8167 18.8423 30.8558 18.8711C30.9086 18.9098 31.0011 18.9431 31.3786 18.8098L31.4187 18.7956L31.4607 18.8026C31.5408 18.8161 31.5981 18.8673 31.6344 18.9086C31.6732 18.9528 31.7077 19.0084 31.7389 19.068C31.8015 19.1878 31.8646 19.351 31.9287 19.5424C32.0573 19.9268 32.199 20.454 32.3538 21.0439C32.3788 21.139 32.4041 21.2357 32.4298 21.3339C32.7244 22.4599 33.0668 23.7684 33.4647 24.8078L33.4662 24.8118L33.4676 24.8158C33.4957 24.9026 33.5233 24.9879 33.5505 25.0719C34.3647 27.5854 34.7886 28.8942 36.1971 31.0823L36.2576 31.1762L36.1926 31.2671C35.118 32.7678 33.841 33.7052 32.3953 34.17C30.9518 34.6341 29.3534 34.623 27.6407 34.2501C24.2207 33.5056 20.3086 31.3102 16.1817 28.4923L16.0918 28.4309L16.1132 28.3241C16.378 27.0016 16.5683 25.8379 16.7324 24.7931C16.7624 24.6018 16.7916 24.4144 16.8202 24.2307C16.9476 23.4119 17.0638 22.6658 17.1944 21.9747C17.5064 20.3247 17.9037 18.9717 18.7497 17.6412C13.407 12.0222 11.6582 6.23766 12.1451 0.654316C12.634 -4.9519 15.3751 -10.336 18.9491 -15.1314C25.3296 -23.6921 34.4018 -30.4229 38.2029 -33.2429C38.6593 -33.5815 39.0397 -33.8637 39.3303 -34.086L39.6891 -34.3604ZM25.1437 13.437C25.1307 13.4475 25.1179 13.4581 25.1053 13.4688L25.3163 13.7213C25.3286 13.7112 25.3406 13.7012 25.3525 13.6913C25.6059 13.4871 25.9755 13.3037 26.4241 13.1469C26.8909 12.9838 27.4325 12.8532 27.9947 12.7575C28.2435 12.7152 28.4954 12.6799 28.7458 12.6516C28.6126 12.6817 28.4804 12.7139 28.3506 12.7482C27.8707 12.875 27.415 13.033 27.046 13.2307C26.6808 13.4265 26.3781 13.673 26.2385 13.9882L25.8812 14.7952L26.5053 14.1711C26.6616 14.0148 26.9327 13.8777 27.286 13.7703C27.635 13.6642 28.0466 13.5924 28.4659 13.5553C28.5497 13.5479 28.6336 13.5419 28.7172 13.5373C28.4443 13.5855 28.1799 13.649 27.9551 13.7309C27.6872 13.8285 27.4342 13.9666 27.3198 14.1735L27.292 14.2236L27.3015 14.2802C27.3758 14.7264 27.6845 15.2426 28.1677 15.9105C28.4669 16.3241 28.8432 16.8088 29.2899 17.3841C29.5701 17.745 29.878 18.1415 30.2119 18.5785L30.2141 18.5814L30.2164 18.5842C30.2975 18.6812 30.358 18.7681 30.4138 18.8482C30.424 18.8629 30.4341 18.8774 30.4441 18.8916C30.505 18.9784 30.5723 19.0711 30.6611 19.1363C30.8487 19.2741 31.0762 19.2562 31.4047 19.1485C31.4166 19.1656 31.4309 19.1892 31.4473 19.2204C31.4976 19.3167 31.5541 19.46 31.6167 19.6468C31.7412 20.019 31.8801 20.5353 32.0356 21.1274C32.0607 21.2231 32.0862 21.3208 32.1122 21.42C32.4053 22.5406 32.7517 23.8648 33.1559 24.9214C33.1842 25.0087 33.212 25.0946 33.2394 25.1792C34.0418 27.6566 34.4761 28.9975 35.8598 31.1657C34.8357 32.5626 33.6369 33.4252 32.2946 33.8568C30.9214 34.2983 29.3846 34.2931 27.7107 33.9286C24.3817 33.2039 20.5462 31.067 16.4571 28.2818C16.7123 26.9967 16.8976 25.8624 17.0574 24.8441C17.0877 24.6516 17.117 24.4634 17.1456 24.2792C17.2731 23.4607 17.3882 22.7212 17.5177 22.0359C17.8346 20.3598 18.2348 19.026 19.0959 17.7116L19.1676 17.6021L19.077 17.5076C13.7245 11.922 11.9922 6.19566 12.4729 0.682899C12.9543 -4.83814 15.6574 -10.1642 19.2129 -14.9348C25.5613 -23.4524 34.5906 -30.1525 38.3966 -32.9768C38.6853 -33.191 38.944 -33.383 39.1692 -33.5517C37.1356 -24.8878 32.7299 -19.0746 28.6223 -13.6548C27.7395 -12.49 26.8706 -11.3434 26.0419 -10.1906C23.6696 -6.89051 21.6293 -3.5393 20.5685 0.426826C19.5071 4.39567 19.4295 8.96803 20.9617 14.7082L21.0305 14.9659L21.2299 14.7887C21.5011 14.5478 21.8201 14.4396 22.2099 14.3128L22.2306 14.3061C22.6105 14.1825 23.0444 14.0414 23.495 13.7294L23.5044 13.7229L23.5128 13.7152C24.2424 13.0431 25.1455 12.5952 26.1144 12.4186C25.9806 12.553 25.8835 12.6692 25.7879 12.784L25.7841 12.7885C25.6264 12.9778 25.4721 13.1631 25.1437 13.437Z"
            fill="#1D1D1B" />
        <path fill-rule="evenodd" clip-rule="evenodd"
            d="M21.3606 26.0019C22.0963 30.0259 21.4949 28.2154 21.4949 29.0855C22.7009 29.4054 23.4398 29.5557 24.7129 29.9588C25.7173 29.2198 26.1875 28.884 26.1203 27.6109C24.3098 24.9943 23.3726 22.7808 21.3606 26.0115V26.0019Z"
            fill="white" />
        <path fill-rule="evenodd" clip-rule="evenodd"
            d="M25.5667 26.717C25.7536 26.9977 25.9487 27.2908 26.154 27.5876C26.1584 27.5939 26.1609 27.6012 26.1613 27.6088C26.1952 28.251 26.0937 28.6634 25.852 29.0088C25.6169 29.3449 25.2509 29.6141 24.7642 29.9721L24.7371 29.992C24.7265 29.9998 24.7129 30.0021 24.7003 29.9981C23.8167 29.7183 23.1915 29.5607 22.4872 29.3831C22.1777 29.305 21.853 29.2232 21.4843 29.1254C21.4662 29.1206 21.4537 29.1043 21.4537 29.0856C21.4537 28.9756 21.463 28.9029 21.4805 28.8544C21.4895 28.8296 21.501 28.8097 21.5158 28.7943C21.5308 28.7786 21.5475 28.7694 21.5639 28.7637C21.5792 28.7585 21.5945 28.7563 21.6057 28.7547L21.6061 28.7547C21.6186 28.7529 21.6266 28.7517 21.6338 28.7494C21.64 28.7475 21.6446 28.7449 21.6488 28.7407C21.6533 28.7362 21.6592 28.7281 21.6649 28.7124C21.6769 28.6798 21.6858 28.6214 21.6852 28.5169C21.6845 28.4133 21.6744 28.268 21.651 28.0638C21.6044 27.6583 21.5053 27.0241 21.3238 26.0303C21.3209 26.0246 21.3193 26.0183 21.3193 26.0116V26.002C21.3193 25.9867 21.3278 25.9732 21.3404 25.9661C21.8381 25.1714 22.2742 24.7032 22.6795 24.494C22.8852 24.3879 23.0835 24.3483 23.2773 24.367C23.4707 24.3858 23.6567 24.4625 23.8388 24.5844C24.2017 24.8273 24.5551 25.2539 24.9291 25.779C25.1323 26.0643 25.3437 26.3818 25.5667 26.717ZM21.4051 26.0177C21.9031 25.2211 22.331 24.7664 22.7173 24.5671C22.9106 24.4674 23.0931 24.4318 23.2693 24.4489C23.4459 24.466 23.6191 24.5363 23.793 24.6527C24.1423 24.8865 24.4883 25.3019 24.8621 25.8268C25.0655 26.1123 25.275 26.4271 25.4968 26.7604C25.6814 27.0378 25.8745 27.3279 26.0797 27.6248C26.1112 28.2489 26.011 28.6382 25.7846 28.9617C25.5574 29.2865 25.2011 29.5486 24.7061 29.9127L24.7052 29.9134C23.8296 29.6368 23.2053 29.4793 22.5051 29.3028C22.2047 29.227 21.8904 29.1477 21.5362 29.054C21.5379 28.9659 21.5467 28.9135 21.5579 28.8823C21.564 28.8655 21.5702 28.8564 21.5752 28.8512C21.5798 28.8464 21.5847 28.8436 21.5907 28.8415C21.5976 28.8391 21.6055 28.8378 21.6176 28.8361L21.6196 28.8358C21.6302 28.8344 21.6446 28.8323 21.6588 28.8278C21.6749 28.8226 21.6916 28.8141 21.7068 28.799C21.7217 28.7841 21.7333 28.7648 21.7421 28.7407C21.7594 28.6938 21.7681 28.6233 21.7674 28.5164C21.7667 28.4086 21.7563 28.2599 21.7327 28.0544C21.6858 27.6464 21.5864 27.0107 21.4051 26.0177Z"
            fill="#1D1D1B" />
        <path fill-rule="evenodd" clip-rule="evenodd"
            d="M30.8832 29.1559C31.4877 32.5082 31.1519 31.8397 31.1519 32.5082C32.1563 32.7769 32.7513 32.9113 33.8324 33.2471C34.6385 32.6426 34.5042 31.3695 34.437 30.2979C33.0295 29.1559 32.6265 27.4798 30.8832 29.1559Z"
            fill="white" />
        <path fill-rule="evenodd" clip-rule="evenodd"
            d="M33.5942 29.3469C33.8574 29.6388 34.1426 29.9531 34.4888 30.234C34.5067 30.2485 34.5176 30.2698 34.5191 30.2927C34.5229 30.3533 34.5269 30.4147 34.531 30.4767C34.5627 30.9595 34.5969 31.4811 34.5439 31.9568C34.484 32.4945 34.3111 32.991 33.8818 33.3129C33.8607 33.3288 33.8332 33.3335 33.808 33.3257C33.0216 33.0814 32.4941 32.9442 31.8761 32.7836C31.6461 32.7238 31.4036 32.6607 31.1306 32.5877C31.0946 32.5781 31.0696 32.5455 31.0696 32.5082C31.0696 32.3317 31.0922 32.2407 31.1153 32.1529C31.1159 32.1506 31.1165 32.1484 31.1171 32.1462C31.1379 32.0675 31.1581 31.9906 31.162 31.8364C31.1701 31.5107 31.1047 30.848 30.8022 29.1705C30.7973 29.1434 30.8063 29.1157 30.8262 29.0966C31.2663 28.6734 31.6322 28.4512 31.9599 28.386C32.2932 28.3196 32.5737 28.4179 32.8337 28.6031C33.0845 28.7817 33.3228 29.046 33.5774 29.3283C33.583 29.3345 33.5886 29.3407 33.5942 29.3469ZM30.972 29.1849C31.3883 28.7907 31.7168 28.6021 31.9921 28.5473C32.2687 28.4922 32.5037 28.5701 32.7383 28.7371C32.9742 28.9051 33.2022 29.1579 33.4637 29.4479L33.472 29.4571C33.7277 29.7406 34.0123 30.0548 34.3571 30.3389C34.3603 30.3882 34.3635 30.4378 34.3668 30.4876C34.3985 30.9725 34.4317 31.4785 34.3804 31.9385C34.3245 32.4411 34.1694 32.8726 33.8159 33.1559C33.048 32.9183 32.5235 32.7819 31.915 32.6237C31.7032 32.5686 31.4812 32.5109 31.2353 32.4454C31.2397 32.3287 31.2565 32.263 31.2744 32.1948L31.2759 32.1893C31.2982 32.1046 31.3221 32.0138 31.3265 31.8405C31.335 31.4983 31.2674 30.828 30.972 29.1849Z"
            fill="#1D1D1B" />
        <path fill-rule="evenodd" clip-rule="evenodd"
            d="M24.3162 29.7669C24.9207 29.6997 25.391 28.8968 25.1894 27.5534C25.0551 26.2131 24.5849 26.2131 23.9835 26.2739C22.8415 26.1395 23.0431 27.0767 23.1774 27.8157C23.2446 28.6217 23.3118 30.2307 24.3162 29.7605V29.7669Z"
            fill="#1D1D1B" />
        <path fill-rule="evenodd" clip-rule="evenodd"
            d="M25.2712 27.5432C25.3731 28.2247 25.3062 28.7774 25.1303 29.1723C24.9542 29.5679 24.6646 29.8111 24.3254 29.8487C24.3236 29.8489 24.3218 29.8491 24.32 29.8492C24.0647 29.9604 23.8509 29.9499 23.679 29.8373C23.5071 29.7247 23.3948 29.521 23.3175 29.2932C23.1796 28.8868 23.1376 28.353 23.1066 27.9603C23.1029 27.9136 23.0994 27.8688 23.0959 27.8266C23.0926 27.8085 23.0893 27.7903 23.0859 27.772C23.0553 27.6049 23.0226 27.4259 23.0044 27.2528C22.9841 27.0598 22.9809 26.8665 23.022 26.6979C23.0637 26.5269 23.1522 26.3774 23.3159 26.283C23.4752 26.1911 23.694 26.1583 23.9842 26.1912C24.2768 26.1618 24.5749 26.1422 24.8116 26.3229C25.0502 26.505 25.2036 26.8712 25.2712 27.5432ZM24.3376 29.6811C24.5914 29.6408 24.8265 29.4502 24.9801 29.1054C25.1399 28.7466 25.2074 28.2268 25.1082 27.5657L25.1076 27.5617L25.1077 27.5617C25.0408 26.8947 24.892 26.5913 24.7118 26.4537C24.5319 26.3164 24.2978 26.3249 23.9919 26.3558C23.9859 26.3564 23.9799 26.3563 23.974 26.3557C23.6977 26.3231 23.5164 26.3573 23.3981 26.4255C23.2826 26.4921 23.2158 26.5979 23.1819 26.7369C23.1474 26.8782 23.1484 27.0493 23.168 27.2356C23.1855 27.4021 23.2171 27.5746 23.2478 27.7426C23.2514 27.7621 23.2549 27.7816 23.2585 27.801C23.2589 27.8036 23.2593 27.8063 23.2595 27.8089C23.2632 27.8532 23.2669 27.8997 23.2707 27.9479C23.3021 28.3438 23.3426 28.8551 23.4733 29.2404C23.5468 29.4568 23.6438 29.6175 23.7691 29.6996C23.8874 29.7771 24.0483 29.7952 24.2814 29.6861C24.2992 29.6778 24.3191 29.6762 24.3376 29.6811Z"
            fill="#1D1D1B" />
        <path fill-rule="evenodd" clip-rule="evenodd"
            d="M33.1095 32.1756C33.5798 32.1084 33.8485 31.571 33.7813 30.8961C33.7141 30.2947 33.0424 28.7497 32.5754 28.8169C31.0975 28.014 31.8364 29.8917 31.9708 30.493C32.038 31.1648 32.2395 32.5722 33.1095 32.1724V32.1756Z"
            fill="#1D1D1B" />
        <path fill-rule="evenodd" clip-rule="evenodd"
            d="M32.5927 28.7327C32.6652 28.7296 32.7355 28.7534 32.8002 28.7913C32.8733 28.8341 32.9446 28.8979 33.0127 28.9739C33.149 29.126 33.2825 29.3385 33.4014 29.5679C33.6384 30.0253 33.828 30.5721 33.8631 30.8869L33.8632 30.8879L33.8632 30.8879C33.898 31.2373 33.8466 31.5571 33.7201 31.8015C33.5931 32.0469 33.3883 32.2185 33.1221 32.2569C32.8937 32.3556 32.6959 32.3431 32.5315 32.2434C32.3678 32.1443 32.2502 31.9664 32.1637 31.7673C31.9914 31.3703 31.9233 30.8419 31.8895 30.5062C31.8705 30.422 31.8404 30.3153 31.8059 30.1931C31.7793 30.0988 31.7501 29.9951 31.7213 29.8854C31.6561 29.6367 31.5952 29.3632 31.5864 29.1314C31.582 29.0155 31.5904 28.9046 31.6211 28.8103C31.6522 28.7147 31.708 28.6317 31.8 28.5828C31.8908 28.5346 32.0038 28.5265 32.1359 28.5531C32.2628 28.5786 32.4138 28.6373 32.5927 28.7327ZM33.1194 32.0907C33.3131 32.0557 33.4698 31.9272 33.574 31.7259C33.6825 31.5162 33.7319 31.23 33.6996 30.9047C33.6674 30.618 33.4876 30.0919 33.2553 29.6436C33.1395 29.42 33.0133 29.2212 32.8902 29.0837C32.8286 29.0149 32.7703 28.9644 32.7171 28.9332C32.6639 28.9021 32.6213 28.8934 32.5872 28.8983C32.5696 28.9008 32.5518 28.8976 32.5362 28.8891C32.3553 28.7909 32.2133 28.7364 32.1035 28.7143C31.9937 28.6923 31.923 28.7038 31.8773 28.7281C31.8328 28.7517 31.7994 28.7941 31.7775 28.8613C31.7552 28.9297 31.7468 29.019 31.7508 29.1252C31.7588 29.3377 31.8155 29.5962 31.8804 29.8436C31.9071 29.9452 31.9355 30.0463 31.9621 30.1406C31.9987 30.2704 32.0316 30.3874 32.0512 30.4751C32.0519 30.4783 32.0524 30.4815 32.0527 30.4848C32.0864 30.8211 32.1528 31.329 32.3146 31.7018C32.3957 31.8885 32.4958 32.0295 32.6167 32.1027C32.7316 32.1724 32.8779 32.1883 33.0753 32.0976C33.0893 32.0912 33.1046 32.0889 33.1194 32.0907Z"
            fill="#1D1D1B" />
        <path fill-rule="evenodd" clip-rule="evenodd"
            d="M26.9552 44.83C23.9579 44.83 18.3185 43.5856 15.0846 40.1502C14.2966 39.341 13.6762 38.3842 13.259 37.3347C12.8418 36.2851 12.6361 35.1635 12.6536 34.0342C12.612 34.1717 12.5672 34.354 12.516 34.6195C12.5111 34.6474 12.4986 34.6735 12.48 34.6949C12.4614 34.7163 12.4374 34.7323 12.4104 34.7411C12.3936 34.7444 12.3762 34.7444 12.3593 34.7411C12.3215 34.7416 12.285 34.7279 12.2569 34.7027C11.9754 34.466 12.0682 33.7943 12.1961 33.2761C12.3137 32.8075 12.481 32.3528 12.6951 31.9198L12.2057 32.4156C12.1745 32.4451 12.1335 32.4622 12.0906 32.4636C12.0684 32.468 12.0456 32.468 12.0234 32.4636C11.9938 32.4491 11.9693 32.4261 11.9527 32.3977C11.9362 32.3692 11.9285 32.3365 11.9306 32.3036C11.9754 31.7854 12.7719 30.8002 13.53 30.1221C13.3669 30.2212 13.2101 30.33 13.0694 30.442C13.0411 30.4615 13.0078 30.4725 12.9734 30.4739C12.9302 30.4738 12.8888 30.4566 12.8583 30.426C12.8335 30.397 12.8199 30.3601 12.8199 30.322C12.8199 30.2839 12.8335 30.247 12.8583 30.218C13.5236 29.3288 15.2765 28.4683 16.2298 28.2124C17.0206 27.9722 17.8439 27.8556 18.6704 27.867C21.9971 27.867 26.1779 29.4663 29.6133 32.0541C30.573 31.2896 32.8121 30.9474 34.6226 30.9474C35.9981 30.9474 37.1336 31.1297 37.7414 31.4464C38.264 31.7528 38.7038 32.1822 39.0227 32.6973C39.3415 33.2124 39.5298 33.7976 39.5711 34.402C39.5705 34.4373 39.5588 34.4715 39.5375 34.4997C39.5162 34.5279 39.4865 34.5486 39.4527 34.5588H39.4111C39.3827 34.5591 39.3546 34.5519 39.3299 34.5379C39.3051 34.5238 39.2846 34.5034 39.2704 34.4788C39.5263 35.1185 39.7118 35.7999 39.6382 36.1261C39.6313 36.159 39.6138 36.1887 39.5884 36.2107C39.5629 36.2326 39.531 36.2456 39.4975 36.2477C39.4651 36.2475 39.4335 36.2376 39.4067 36.2194C39.38 36.2012 39.3592 36.1754 39.3471 36.1453L39.3056 36.043C39.3376 36.6347 39.2352 37.3225 39.0049 37.54C38.9906 37.5554 38.9733 37.5676 38.954 37.5758C38.9347 37.5841 38.9139 37.5882 38.8929 37.588C38.8687 37.5872 38.8448 37.5818 38.8226 37.572C38.7928 37.5572 38.7682 37.5336 38.7522 37.5044C38.7362 37.4753 38.7295 37.4419 38.733 37.4088V37.3385C36.8137 41.1258 31.9005 44.1006 28.1771 44.7628C27.7727 44.8228 27.3637 44.8453 26.9552 44.83Z"
            fill="white" />
        <path
            d="M18.6607 28.0075C22.0322 28.0075 26.245 29.6805 29.6101 32.2427C30.4609 31.4686 32.6649 31.0911 34.6129 31.0911C35.8924 31.0911 37.0472 31.2543 37.6549 31.5709C38.1519 31.8648 38.5703 32.2746 38.8745 32.7654C39.1786 33.2561 39.3594 33.8132 39.4014 34.389C39.179 33.9508 38.839 33.5831 38.4194 33.327C38.7713 33.5446 39.5998 35.4734 39.4686 36.0652C39.2159 35.4254 39.024 34.984 38.7809 34.984H38.7297C39.2671 35.2527 39.1999 37.0632 38.864 37.3991C38.9312 36.8617 38.9312 36.6601 38.864 36.593C37.3223 40.4315 32.2906 43.8381 28.1322 44.5899C27.7467 44.6562 27.3558 44.6862 26.9647 44.6794C22.6144 44.6794 12.356 41.9541 12.8422 33.5254H12.8038C12.6247 33.5254 12.4839 33.9764 12.372 34.6033C11.9018 34.2035 12.8422 31.2511 13.7123 31.0495C13.7021 31.0397 13.6901 31.0321 13.6769 31.0271C13.6637 31.0222 13.6496 31.02 13.6355 31.0207C13.354 31.0207 12.6471 31.782 12.1033 32.3258C12.1673 31.5517 14.1505 29.6037 14.6623 29.5685H14.7199H14.6783H14.6111C14.1409 29.5685 13.4723 29.9396 12.9765 30.3138C13.5779 29.5077 15.2573 28.6345 16.2617 28.369C17.0386 28.1303 17.848 28.0138 18.6607 28.0235M18.6607 27.7036C17.8156 27.6938 16.9739 27.8146 16.1657 28.0619C15.2061 28.3178 13.4084 29.2039 12.7206 30.1219C12.6749 30.1832 12.6527 30.2589 12.658 30.3351C12.6633 30.4114 12.6957 30.4833 12.7494 30.5377C12.7749 30.5646 12.8053 30.5863 12.839 30.6017C12.4104 31.0655 11.8282 31.782 11.7866 32.297C11.7803 32.3627 11.7945 32.4286 11.8271 32.4858C11.8598 32.5431 11.9093 32.5889 11.9689 32.6169C12.0111 32.6366 12.0568 32.6475 12.1033 32.6489C12.1558 32.6486 12.2074 32.6355 12.2536 32.6105C12.1765 32.8202 12.1103 33.0337 12.0553 33.2503C11.8538 34.0692 11.889 34.6034 12.1641 34.8497C12.222 34.8992 12.2957 34.9264 12.372 34.9264C12.4069 34.9323 12.4426 34.9323 12.4775 34.9264L12.5351 34.8976C12.6937 36.9268 13.5584 38.8362 14.979 40.2939C18.2577 43.7646 23.9355 45.0249 26.9647 45.0249C27.3761 45.03 27.7871 44.999 28.193 44.9321C31.8524 44.2924 36.6601 41.4135 38.7009 37.7157H38.7233C38.7672 37.737 38.8153 37.7479 38.864 37.7477C38.9061 37.748 38.9479 37.7399 38.9869 37.724C39.0258 37.7081 39.0613 37.6846 39.0912 37.655C39.3215 37.4214 39.411 36.9033 39.4398 36.4042H39.4942C39.562 36.3984 39.6262 36.371 39.6774 36.3261C39.7286 36.2813 39.7642 36.2212 39.7789 36.1547C39.8058 35.6589 39.716 35.1637 39.5166 34.7089C39.5767 34.6857 39.6284 34.6449 39.665 34.5918C39.7015 34.5387 39.7211 34.4759 39.7213 34.4114C39.6784 33.7774 39.4811 33.1636 39.1466 32.6233C38.8121 32.083 38.3505 31.6328 37.8021 31.3118C37.1623 30.992 36.0108 30.7936 34.6033 30.7936C32.9368 30.7936 30.6976 31.0783 29.5941 31.8588C26.1522 29.2998 21.981 27.7004 18.6511 27.7004L18.6607 27.7036Z"
            fill="#1D1D1B" />
        <path fill-rule="evenodd" clip-rule="evenodd"
            d="M26.3889 31.974C21.5588 31.0336 19.2141 31.1679 17.8035 31.3023C20.017 34.3219 24.9815 36.8681 27.8635 37.1368C32.425 37.4727 33.8996 34.453 36.3147 33.583C34.9744 33.5158 34.2355 32.9112 32.3578 33.4486C30.816 35.048 24.7128 34.0532 26.3889 31.974Z"
            fill="white" />
        <path fill-rule="evenodd" clip-rule="evenodd"
            d="M17.7919 31.1795C19.2144 31.0441 21.5709 30.9103 26.4126 31.853C26.4551 31.8613 26.4901 31.8912 26.5049 31.9318C26.5198 31.9724 26.5122 32.0179 26.4851 32.0515C26.2882 32.2957 26.2164 32.5102 26.2243 32.6948C26.2321 32.8789 26.3201 33.0544 26.485 33.2193C26.8197 33.5542 27.4447 33.8172 28.1915 33.97C28.9335 34.1218 29.7748 34.1604 30.5232 34.0631C31.2765 33.9652 31.9128 33.7326 32.2691 33.3631C32.2841 33.3475 32.3031 33.3361 32.3239 33.3301C33.2818 33.056 33.9542 33.0724 34.557 33.1673C34.7662 33.2002 34.9689 33.243 35.1691 33.2852C35.2529 33.3029 35.3362 33.3205 35.4194 33.3372C35.704 33.3944 35.9947 33.4435 36.3209 33.4598C36.3796 33.4628 36.4281 33.5067 36.4368 33.5649C36.4454 33.623 36.4119 33.6792 36.3566 33.6992C35.7697 33.9106 35.2361 34.254 34.6895 34.6524C34.5075 34.7851 34.323 34.9246 34.1348 35.067C33.7628 35.3484 33.3758 35.6412 32.9622 35.9151C31.7049 36.7477 30.1691 37.4304 27.8546 37.2599L27.8522 37.2598L27.8522 37.2597C26.3877 37.1232 24.409 36.4111 22.5228 35.359C20.6359 34.3065 18.825 32.9045 17.7041 31.3753C17.6778 31.3395 17.6728 31.2924 17.691 31.2519C17.7092 31.2114 17.7477 31.1837 17.7919 31.1795ZM18.0354 31.4051C19.1359 32.8282 20.8474 34.1419 22.643 35.1435C24.5124 36.1862 26.4564 36.8815 27.8739 37.0139C30.1201 37.1791 31.602 36.5199 32.826 35.7093C33.2335 35.4394 33.6089 35.1554 33.9769 34.8769C34.1668 34.7332 34.3548 34.591 34.5442 34.4529C34.9584 34.1511 35.3752 33.8728 35.8199 33.6582C35.6644 33.6358 35.5158 33.6083 35.3708 33.5791C35.2826 33.5614 35.1965 33.5432 35.1113 33.5253C34.914 33.4836 34.7213 33.443 34.5187 33.4111C33.954 33.3222 33.326 33.3045 32.4229 33.5585C32.0054 33.9736 31.3127 34.2093 30.555 34.3078C29.7778 34.4088 28.909 34.3687 28.142 34.2118C27.3798 34.0558 26.6968 33.7803 26.3105 33.3938C26.1148 33.1981 25.9889 32.9672 25.9777 32.7053C25.9688 32.4951 26.0343 32.2785 26.1757 32.0586C21.7263 31.2067 19.4371 31.2828 18.0354 31.4051Z"
            fill="#1D1D1B" />
        <path fill-rule="evenodd" clip-rule="evenodd"
            d="M17.9226 31.2702C17.9404 31.336 17.9014 31.4038 17.8356 31.4215L16.0923 31.8917C16.0265 31.9095 15.9588 31.8705 15.9411 31.8047C15.9233 31.7389 15.9623 31.6712 16.0281 31.6535L17.7714 31.1832C17.8372 31.1655 17.9049 31.2044 17.9226 31.2702Z"
            fill="#1D1D1B" />
        <path fill-rule="evenodd" clip-rule="evenodd"
            d="M36.1987 33.541C36.222 33.4769 36.2928 33.4439 36.3569 33.4672L37.0958 33.7359C37.1598 33.7592 37.1929 33.83 37.1696 33.894C37.1463 33.958 37.0755 33.9911 37.0115 33.9678L36.2725 33.6991C36.2085 33.6758 36.1755 33.605 36.1987 33.541Z"
            fill="#1D1D1B" />
        <path fill-rule="evenodd" clip-rule="evenodd"
            d="M20.6422 31.1162C20.7079 31.0534 20.812 31.0557 20.8748 31.1214C22.3268 32.6395 24.6479 34.0362 27.2396 34.7649C27.327 34.7895 27.378 34.8803 27.3534 34.9678C27.3288 35.0552 27.238 35.1062 27.1505 35.0816C24.509 34.3389 22.1343 32.9143 20.6371 31.3488C20.5743 31.2831 20.5766 31.179 20.6422 31.1162ZM34.435 33.1375C34.4955 33.2053 34.4896 33.3093 34.4218 33.3698C33.1251 34.5271 31.8891 35.0842 30.8366 35.1546C30.7459 35.1606 30.6675 35.092 30.6615 35.0014C30.6554 34.9107 30.724 34.8323 30.8146 34.8263C31.7709 34.7623 32.9404 34.251 34.2027 33.1243C34.2705 33.0638 34.3745 33.0698 34.435 33.1375Z"
            fill="#1D1D1B" />
        <path fill-rule="evenodd" clip-rule="evenodd"
            d="M31.3535 35.4608L29.5398 39.6192L27.5949 40.9595L25.7844 39.8847L26.389 35.3936L29.4086 34.3188L31.3535 35.4608Z"
            fill="white" />
        <path fill-rule="evenodd" clip-rule="evenodd"
            d="M29.3673 34.2025C29.4017 34.1902 29.4397 34.1938 29.4712 34.2123L31.416 35.3543C31.4699 35.3859 31.4916 35.4527 31.4667 35.51L29.653 39.6684C29.6438 39.6895 29.6288 39.7076 29.6099 39.7206L27.665 41.0609C27.6254 41.0882 27.5734 41.09 27.532 41.0654L25.7215 39.9906C25.679 39.9654 25.6556 39.9171 25.6622 39.8681L26.2668 35.377C26.273 35.3312 26.3042 35.2927 26.3477 35.2772L29.3673 34.2025ZM26.5013 35.4845L25.9177 39.8201L27.5901 40.8129L29.4408 39.5374L31.1967 35.5116L29.3959 34.4542L26.5013 35.4845Z"
            fill="#1D1D1B" />
        <path fill-rule="evenodd" clip-rule="evenodd"
            d="M32.3579 33.4486C32.3579 33.986 32.2907 34.856 31.8205 35.1919C30.6146 36.0652 29.3415 35.5118 29.2615 34.872C28.5226 37.3543 23.6253 34.872 26.3826 31.9932L32.3515 33.4678L32.3579 33.4486Z"
            fill="white" />
        <path fill-rule="evenodd" clip-rule="evenodd"
            d="M26.5027 31.8551C26.5684 31.9179 26.5707 32.0221 26.508 32.0877C25.8463 32.7802 25.663 33.4273 25.7382 33.9652C25.8141 34.5082 26.158 34.974 26.6156 35.2897C27.0744 35.6062 27.6287 35.7584 28.0997 35.6935C28.5599 35.6301 28.9467 35.3609 29.1101 34.8065C29.1323 34.731 29.2049 34.6818 29.2832 34.6892C29.3616 34.6965 29.4238 34.7583 29.4316 34.8366C29.4552 35.0722 29.7072 35.3383 30.1515 35.4377C30.5816 35.534 31.1566 35.4583 31.7299 35.0399L31.7344 35.0368C31.9166 34.9129 32.0386 34.6634 32.1116 34.3459C32.1831 34.0349 32.1998 33.6933 32.1998 33.4295C32.1998 33.3387 32.2734 33.265 32.3643 33.265C32.4551 33.265 32.5288 33.3387 32.5288 33.4295C32.5288 33.7032 32.5119 34.0733 32.4323 34.4196C32.3543 34.7585 32.2082 35.111 31.9218 35.3073C31.277 35.7769 30.6069 35.8768 30.0796 35.7588C29.7409 35.683 29.4438 35.5101 29.2681 35.2761C29.0175 35.7189 28.6059 35.956 28.1446 36.0195C27.5774 36.0976 26.9419 35.9146 26.4287 35.5606C25.9143 35.2057 25.5039 34.6657 25.4123 34.0107C25.3201 33.3506 25.5563 32.6074 26.2701 31.8604C26.3328 31.7947 26.437 31.7924 26.5027 31.8551Z"
            fill="#1D1D1B" />
        <path fill-rule="evenodd" clip-rule="evenodd"
            d="M29.4386 34.199C29.5047 34.2156 29.5449 34.2825 29.5283 34.3487L29.394 34.886C29.3775 34.9522 29.3105 34.9924 29.2444 34.9758C29.1783 34.9593 29.1381 34.8923 29.1546 34.8262L29.2889 34.2888C29.3055 34.2227 29.3725 34.1825 29.4386 34.199Z"
            fill="#1D1D1B" />
        <path fill-rule="evenodd" clip-rule="evenodd"
            d="M25.6903 31.8782C21.3913 30.5622 16.6128 30.072 12.9951 31.0186C12.9291 31.0358 12.8617 30.9964 12.8445 30.9304C12.8272 30.8645 12.8667 30.7971 12.9326 30.7798C16.798 29.7684 21.9338 30.3735 26.4201 31.8512C26.4781 31.8568 26.5252 31.9027 26.531 31.962C26.5373 32.0266 26.4926 32.0849 26.4286 32.0957C25.5015 32.2514 24.6009 32.4477 23.7285 32.6895L23.4359 33.3004C23.4064 33.3619 23.3327 33.3878 23.2713 33.3584C23.2098 33.3289 23.1839 33.2553 23.2133 33.1938L23.4117 32.7796C22.8505 32.9436 22.3013 33.1269 21.7645 33.3308L21.0782 34.3248C21.0395 34.3809 20.9627 34.395 20.9066 34.3562C20.8505 34.3175 20.8364 34.2407 20.8752 34.1846L21.3533 33.4922C18.7389 34.5504 16.4286 36.1196 14.4771 38.3598C14.4323 38.4112 14.3544 38.4165 14.303 38.3718C14.2516 38.327 14.2463 38.2491 14.291 38.1977C16.357 35.8261 18.8181 34.1983 21.6049 33.1277L22.0637 32.4633C20.777 32.634 19.4586 32.8596 18.1842 33.1338C15.3832 33.7365 12.8093 34.571 11.2484 35.5647C11.1909 35.6013 11.1146 35.5844 11.078 35.5269C11.0414 35.4694 11.0584 35.3931 11.1159 35.3566C12.7153 34.3383 15.325 33.4966 18.1322 32.8926C19.9975 32.4912 21.9567 32.1934 23.7762 32.0187L24.0162 31.5177C24.0456 31.4562 24.1193 31.4302 24.1808 31.4597C24.2422 31.4891 24.2682 31.5628 24.2388 31.6243L24.0625 31.9922C24.6221 31.942 25.1669 31.9039 25.6903 31.8782ZM24.706 32.1868C24.4536 32.2057 24.1975 32.2272 23.9384 32.2513L23.8694 32.3954C24.1456 32.3214 24.4245 32.252 24.706 32.1868ZM23.5543 32.482L23.6516 32.2788C23.202 32.3235 22.7443 32.3756 22.2819 32.4348C22.3124 32.4761 22.3149 32.5337 22.2842 32.5783L22.0087 32.9773C22.5137 32.7949 23.029 32.6302 23.5543 32.482ZM32.3085 33.3402C35.0328 31.8575 38.1622 31.2344 40.538 32.2606C40.6006 32.2876 40.6294 32.3602 40.6024 32.4228C40.5753 32.4853 40.5027 32.5141 40.4402 32.4871C38.3819 31.5981 35.6942 31.993 33.2055 33.1622C33.2243 33.1821 33.2367 33.2082 33.239 33.2376L33.2498 33.3787C33.5692 33.4092 33.8986 33.452 34.2344 33.5065L34.1998 33.2646C34.1901 33.1971 34.2369 33.1346 34.3044 33.125C34.3719 33.1153 34.4344 33.1622 34.444 33.2296L34.4899 33.55C35.4418 33.7198 36.4364 33.9809 37.391 34.3212C39.0916 34.9276 40.6799 35.7908 41.6731 36.8509C41.7197 36.9006 41.7172 36.9787 41.6674 37.0253C41.6177 37.0719 41.5396 37.0693 41.493 37.0196C40.5382 36.0005 38.9917 35.154 37.3081 34.5537C36.392 34.227 35.4397 33.9748 34.5268 33.8075L34.5787 34.1703C36.5684 35.2176 38.3287 36.9983 39.7443 39.696C39.7759 39.7564 39.7527 39.831 39.6924 39.8626C39.632 39.8943 39.5574 39.871 39.5258 39.8107C38.1689 37.2248 36.499 35.5063 34.6222 34.474L34.6456 34.6371C34.6552 34.7045 34.6084 34.767 34.5409 34.7767C34.4734 34.7864 34.4109 34.7395 34.4013 34.672L34.3524 34.331C34.004 34.1532 33.6487 33.9984 33.2873 33.8652L33.3062 34.1109C33.3114 34.1788 33.2605 34.2382 33.1926 34.2434C33.1247 34.2486 33.0653 34.1978 33.0601 34.1298L33.0329 33.7755C32.8031 33.6979 32.5709 33.6288 32.3365 33.5681C32.2875 33.5553 32.2512 33.514 32.245 33.4637C32.2388 33.4134 32.264 33.3645 32.3085 33.3402ZM33.3933 33.6413C33.7036 33.7564 34.0093 33.887 34.3099 34.0339L34.2711 33.7627C33.9725 33.7127 33.679 33.6722 33.3933 33.6413ZM32.8301 33.3452C32.8844 33.3178 32.9389 33.2907 32.9935 33.2639L33.0007 33.3572C32.9434 33.3528 32.8866 33.3488 32.8301 33.3452ZM24.6353 33.8049C24.6983 33.8309 24.7282 33.9031 24.7021 33.9661L23.896 35.9109C23.8699 35.9739 23.7977 36.0038 23.7348 35.9777C23.6718 35.9516 23.6419 35.8794 23.668 35.8164L24.4741 33.8716C24.5002 33.8086 24.5724 33.7788 24.6353 33.8049ZM32.4997 34.3974C32.5675 34.3909 32.6278 34.4407 32.6342 34.5085L32.7686 35.9192C32.775 35.987 32.7253 36.0472 32.6575 36.0537C32.5896 36.0601 32.5294 36.0104 32.5229 35.9426L32.3886 34.5319C32.3821 34.4641 32.4319 34.4038 32.4997 34.3974ZM29.5529 34.9052C29.6176 34.9266 29.6527 34.9964 29.6313 35.0611L27.7441 40.7773C27.7227 40.842 27.6529 40.8771 27.5882 40.8557C27.5235 40.8344 27.4884 40.7646 27.5097 40.6999L29.397 34.9837C29.4184 34.919 29.4881 34.8839 29.5529 34.9052Z"
            fill="#1D1D1B" />
        <path fill-rule="evenodd" clip-rule="evenodd"
            d="M26.1203 27.6015C25.5861 23.6575 24.7161 20.4363 23.1711 17.9573C22.6352 19.067 21.959 20.1034 21.1591 21.0409C20.9336 23.1277 21.0623 25.2377 21.5397 27.2816C21.5589 27.352 21.6613 27.496 21.5973 27.4832C23.0783 27.8286 24.393 27.4832 26.1203 27.6207V27.6015Z"
            fill="#C6C6C6" />
        <path fill-rule="evenodd" clip-rule="evenodd"
            d="M23.1619 17.7869L23.2409 17.9136C24.795 20.4072 25.6671 23.6419 26.2018 27.5903L26.2026 27.5958V27.7096L26.1138 27.7025C25.3981 27.6455 24.7546 27.672 24.1353 27.6975C24.0125 27.7026 23.8906 27.7076 23.7694 27.7119C23.0383 27.7379 22.3303 27.7384 21.5786 27.5631L21.6134 27.4023C21.6134 27.4023 21.5861 27.3962 21.5601 27.4187C21.5337 27.4415 21.5358 27.4702 21.5359 27.4725C21.536 27.4735 21.536 27.474 21.536 27.4741C21.5357 27.4741 21.5337 27.4667 21.525 27.4479C21.5192 27.4354 21.5131 27.4232 21.5064 27.4098C21.5019 27.4008 21.4971 27.3911 21.4918 27.3804C21.4807 27.3576 21.4674 27.329 21.4604 27.3031L21.4596 27.3002C20.9801 25.2472 20.8509 23.1279 21.0773 21.0318L21.08 21.0066L21.0965 20.9873C21.8918 20.0551 22.5642 19.0247 23.097 17.9213L23.1619 17.7869ZM23.1793 18.1274C22.6549 19.1852 22.0031 20.175 21.2381 21.0747C21.0175 23.1435 21.1464 25.2348 21.6194 27.261C21.6221 27.2703 21.6288 27.2858 21.6398 27.3084C21.6432 27.3155 21.6473 27.3237 21.6516 27.3323C21.6593 27.3478 21.6678 27.3646 21.6743 27.3788C21.6792 27.3894 21.6858 27.4039 21.6911 27.4198C22.3928 27.573 23.0602 27.5725 23.7635 27.5475C23.8832 27.5432 24.004 27.5383 24.1262 27.5332C24.7173 27.5088 25.3407 27.4831 26.0277 27.5311C25.5024 23.6955 24.6563 20.5576 23.1793 18.1274Z"
            fill="#1D1D1B" />
        <path fill-rule="evenodd" clip-rule="evenodd"
            d="M34.437 30.2981C34.034 27.2113 32.0891 23.4432 30.8832 21.5239C30.413 22.394 31.4878 24.6747 30.7489 25.548C30.5473 27.0226 30.4802 27.963 30.8832 29.1689C32.6937 28.9674 33.4998 29.7063 34.437 30.3109V30.2981Z"
            fill="#C6C6C6" />
        <path fill-rule="evenodd" clip-rule="evenodd"
            d="M30.8779 21.3606L30.9529 21.48C32.1604 23.4018 34.1132 27.1823 34.5186 30.2872L34.5193 30.2925V30.4616L34.3924 30.3798C34.276 30.3047 34.1627 30.2284 34.05 30.1525C33.702 29.918 33.3604 29.6878 32.955 29.513C32.4235 29.2837 31.7837 29.1513 30.8923 29.2505L30.8263 29.2578L30.8052 29.1948C30.3958 27.9699 30.4655 27.0135 30.6674 25.5366L30.6706 25.5129L30.6861 25.4946C30.853 25.2973 30.9229 25.0135 30.9332 24.6705C30.9435 24.3284 30.8942 23.9409 30.8354 23.5467C30.8247 23.475 30.8137 23.4031 30.8027 23.3313C30.7537 23.0108 30.7048 22.6915 30.6857 22.4021C30.6624 22.0501 30.6815 21.724 30.8108 21.4846L30.8779 21.3606ZM30.898 21.7029C30.842 21.8855 30.8319 22.1193 30.8498 22.3913C30.8684 22.6729 30.9159 22.9833 30.9649 23.3035C30.976 23.376 30.9872 23.4491 30.9981 23.5224C31.0569 23.9163 31.1084 24.317 31.0977 24.6754C31.0872 25.0235 31.0179 25.3445 30.8272 25.582C30.632 27.015 30.5688 27.929 30.9406 29.08C31.8256 28.9914 32.4753 29.1268 33.0202 29.3619C33.4409 29.5434 33.8 29.7854 34.1508 30.0218C34.2115 30.0628 34.272 30.1035 34.3326 30.1438C33.8964 27.1778 32.0842 23.6212 30.898 21.7029Z"
            fill="#1D1D1B" />
        <path fill-rule="evenodd" clip-rule="evenodd"
            d="M23.4811 17.3006L23.2124 17.9723L23.1361 17.9418L23.4048 17.27L23.4811 17.3006ZM20.5303 21.5474L21.1316 21.01L21.1864 21.0713L20.5851 21.6087L20.5303 21.5474Z"
            fill="#1D1D1B" />
        <path
            d="M31.4334 18.9647C31.2666 19.028 31.1158 19.1274 30.992 19.2558C30.8772 19.3801 30.7703 19.5115 30.6721 19.6492C30.4596 19.9516 30.2255 20.2381 29.9716 20.5065C30.0293 20.1234 30.1834 19.7613 30.4194 19.4541C30.5402 19.2944 30.6899 19.1587 30.8608 19.0543C30.945 19.0008 31.0393 18.9653 31.1378 18.9499C31.2363 18.9345 31.3369 18.9395 31.4334 18.9647Z"
            fill="#1D1D1B" />
        <path
            d="M26.9935 16.0859C26.884 16.0897 26.775 16.0687 26.6747 16.0244C26.5744 15.9801 26.4855 15.9136 26.4145 15.83C26.2749 15.6544 26.1983 15.437 26.197 15.2127C26.1533 14.9445 26.0612 14.6865 25.9251 14.4514C25.7887 14.2272 25.5729 14.0628 25.3206 13.9907C25.0693 13.9353 24.8075 13.9525 24.5656 14.0403C24.3238 14.1281 24.1119 14.2829 23.9547 14.4865C23.4205 15.0303 22.8799 15.5645 22.3809 16.1403C21.8819 16.7161 21.3829 17.2887 20.9287 17.8964C20.4623 18.4987 20.035 19.1301 19.6492 19.7869C19.4614 20.117 19.2906 20.4566 19.1374 20.8041C18.9813 21.1513 18.8737 21.5183 18.8175 21.8949C18.8326 21.5091 18.9082 21.1281 19.0414 20.7657C19.0958 20.5802 19.1758 20.4042 19.2429 20.2219C19.3101 20.0396 19.3997 19.87 19.4892 19.7005C19.8381 19.013 20.2391 18.3532 20.6888 17.7269C21.1376 17.1008 21.6203 16.4996 22.1346 15.926C22.6464 15.3502 23.1902 14.8064 23.734 14.2786V14.2946C23.9257 14.05 24.1864 13.8686 24.4824 13.7739C24.7785 13.6793 25.0961 13.6757 25.3941 13.7636C25.6893 13.8607 25.9363 14.0666 26.0851 14.3394C26.2215 14.6068 26.3 14.9 26.3154 15.1999C26.2994 15.4032 26.3524 15.606 26.4657 15.7756C26.5255 15.863 26.6038 15.9361 26.695 15.9897C26.7862 16.0433 26.8881 16.0762 26.9935 16.0859Z"
            fill="#1D1D1B" />
        <path
            d="M27.4637 30.765C28.0762 30.322 28.8159 30.0896 29.5717 30.1028C29.9655 30.11 30.3479 30.236 30.6689 30.4643C30.8226 30.5769 30.951 30.7205 31.0457 30.8858C31.1405 31.0511 31.1996 31.2344 31.2191 31.4239C31.0747 31.1039 30.8344 30.8367 30.5314 30.6594C30.2357 30.5016 29.9068 30.4161 29.5717 30.4099C29.2219 30.3974 28.8719 30.4264 28.5289 30.4963C28.1675 30.5762 27.822 30.6722 27.4637 30.765Z"
            fill="#1D1D1B" />
        <path
            d="M27.275 30.0293C27.6512 29.6336 28.1556 29.3843 28.6985 29.3256C28.969 29.2916 29.2436 29.3127 29.5058 29.3874C29.7679 29.4622 30.0123 29.5891 30.2243 29.7606C29.7378 29.6362 29.2334 29.5973 28.7337 29.6454C28.2332 29.7112 27.743 29.8402 27.275 30.0293Z"
            fill="#1D1D1B" />
        <path
            d="M27.0607 29.0218C27.3789 28.6888 27.7943 28.4649 28.2474 28.3821C28.4796 28.3423 28.7177 28.3543 28.9447 28.4173C29.1676 28.4727 29.3731 28.5826 29.5429 28.7371C29.3316 28.6947 29.118 28.6648 28.9031 28.6476C28.7011 28.6357 28.4983 28.6464 28.2986 28.6796C27.8955 28.7563 27.5053 28.9195 27.0607 29.0218Z"
            fill="#1D1D1B" />
        <path fill-rule="evenodd" clip-rule="evenodd"
            d="M37.0537 -28.8567C30.8161 -13.5667 14.9887 -6.38865 18.9583 14.1345C8.61677 -3.77527 25.3175 -18.931 37.0537 -28.8567Z"
            fill="white" />
        <path fill-rule="evenodd" clip-rule="evenodd"
            d="M37.1019 -28.923C37.1326 -28.9008 37.1441 -28.8605 37.1297 -28.8254C35.5667 -24.9938 33.4034 -21.6721 31.1029 -18.5261C30.2283 -17.3302 29.335 -16.1609 28.4471 -14.9989C26.9968 -13.1007 25.5611 -11.2217 24.2463 -9.2772C20.0138 -3.01765 17.0596 3.8856 19.039 14.1192C19.0466 14.1586 19.0246 14.1978 18.987 14.2118C18.9494 14.2259 18.9071 14.2107 18.887 14.1759C13.6974 5.18848 15.2957 -3.11051 19.6561 -10.3971C24.0136 -17.6788 31.1332 -23.9571 37.0005 -28.9193C37.0294 -28.9437 37.0713 -28.9453 37.1019 -28.923ZM18.7868 13.6649C16.9816 3.64128 19.929 -3.18591 24.1101 -9.36936C25.4268 -11.3167 26.8684 -13.2035 28.3214 -15.1054C29.2086 -16.2667 30.1001 -17.4336 30.9701 -18.6232C33.2044 -21.6786 35.3034 -24.8925 36.848 -28.5747C31.0304 -23.6464 24.0753 -17.4614 19.7973 -10.3126C15.5283 -3.17878 13.9289 4.90744 18.7868 13.6649Z"
            fill="#1D1D1B" />
        <path
            d="M21.3221 25.9093C21.3221 26.0884 21.3221 26.2676 21.3221 26.4467C21.3221 26.5171 21.3413 26.5331 21.4021 26.5331H27.275H37.8309C37.9588 26.5331 37.9556 26.5331 37.9588 26.3923C37.962 26.2516 37.9588 26.0309 37.9588 25.8485H38.5122C38.5506 25.8485 38.573 25.8485 38.573 25.9061C38.573 26.5459 38.573 27.1931 38.573 27.8478C38.573 27.8925 38.573 27.9021 38.5186 27.9021C38.3491 27.9021 38.1796 27.9021 38.0132 27.9021C37.962 27.9021 37.9524 27.9021 37.9556 27.9693C37.9556 28.1484 37.9556 28.3276 37.9556 28.5035C37.9556 28.5771 37.9332 28.5899 37.8757 28.5899H37.4086C37.3543 28.5899 37.3319 28.5899 37.3319 28.6666C37.3319 28.8458 37.3319 29.0249 37.3319 29.204C37.3319 29.2584 37.3319 29.2744 37.2711 29.2744H36.7785C36.7273 29.2744 36.7145 29.2904 36.7145 29.348C36.7145 29.5271 36.7145 29.7094 36.7145 29.8918C36.7145 29.9461 36.7145 29.9653 36.6505 29.9621C36.4874 29.9621 36.3307 29.9621 36.1675 29.9621C36.1132 29.9621 36.0908 29.9621 36.094 30.0389C36.094 30.2084 36.094 30.3844 36.094 30.5539C36.094 30.6275 36.094 30.6467 36.014 30.6467H32.4826C32.425 30.6467 32.4186 30.6243 32.4186 30.5731C32.4186 30.3908 32.4186 30.2116 32.4186 30.0293C32.4186 29.9749 32.4186 29.9621 32.3578 29.9621H31.862C31.814 29.9621 31.798 29.9621 31.8012 29.895C31.8012 29.7126 31.8012 29.5271 31.8012 29.3416C31.8012 29.2936 31.8012 29.2744 31.7405 29.2744H31.2351C31.1935 29.2744 31.1839 29.2744 31.1839 29.2168C31.1839 29.0313 31.1839 28.8458 31.1839 28.6634C31.1839 28.5995 31.1647 28.5867 31.1135 28.5899H30.6369C30.5793 28.5899 30.5633 28.5899 30.5633 28.5099C30.5633 28.1101 30.5633 27.7134 30.5633 27.3168C30.5633 27.2336 30.5441 27.2144 30.4706 27.2144H28.7208V27.5343V28.5227C28.7208 28.5707 28.7208 28.5803 28.6665 28.5771C28.4969 28.5771 28.3466 28.5771 28.1611 28.5771C28.1163 28.5771 28.1035 28.5771 28.1035 28.641C28.1035 28.8202 28.1035 29.0025 28.1035 29.1848C28.1035 29.2424 28.1035 29.2616 28.0363 29.2616C27.8732 29.2616 27.7164 29.2616 27.5469 29.2616C27.4957 29.2616 27.4829 29.2776 27.4829 29.332C27.4829 29.5143 27.4829 29.6966 27.4829 29.8758C27.4829 29.9333 27.4829 29.9525 27.4189 29.9493C27.2526 29.9493 27.0991 29.9493 26.9199 29.9493C26.8784 29.9493 26.8656 29.9493 26.8656 30.0069C26.8656 30.1924 26.8656 30.378 26.8656 30.5603C26.8656 30.6179 26.8656 30.6339 26.8016 30.6339C25.6116 30.6339 24.4185 30.6339 23.2286 30.6339C23.171 30.6339 23.1614 30.6115 23.1614 30.5539C23.1614 30.378 23.1614 30.1988 23.1614 30.0197C23.1614 29.9653 23.1614 29.9461 23.0974 29.9461C22.9375 29.9461 22.7776 29.9461 22.6144 29.9461C22.5504 29.9461 22.5376 29.9206 22.5408 29.8566C22.5408 29.6774 22.5408 29.5015 22.5408 29.3224C22.5408 29.268 22.5408 29.2552 22.4801 29.2552C22.3169 29.2552 22.1602 29.2552 21.9907 29.2552C21.9331 29.2552 21.9203 29.236 21.9203 29.1784C21.9203 28.9993 21.9203 28.8202 21.9203 28.6442C21.9203 28.5835 21.9203 28.5707 21.8563 28.5707H21.3829C21.3285 28.5707 21.3157 28.5515 21.3189 28.4971C21.3189 28.3116 21.3189 28.1292 21.3189 27.9437C21.3189 27.8957 21.3189 27.8797 21.2645 27.8829C21.1046 27.8829 20.9447 27.8829 20.7815 27.8829C20.708 27.8829 20.6984 27.8574 20.6984 27.787C20.6984 27.1472 20.6984 26.5427 20.6984 25.9221C20.7048 25.8915 20.7048 25.8599 20.6984 25.8293H21.2773C21.3221 25.8453 21.3221 25.8709 21.3221 25.9093Z"
            fill="#0C0D0D" />
        <path
            d="M36.3114 28.6089H36.4714C36.6056 28.6089 36.7145 28.5 36.7145 28.3658V28.1291C36.7145 27.9948 36.6056 27.886 36.4714 27.886H36.3114C36.1772 27.886 36.0683 27.9948 36.0683 28.1291V28.3658C36.0683 28.5 36.1772 28.6089 36.3114 28.6089Z"
            fill="white" />
        <path
            d="M35.6846 29.3191H35.8445C35.9788 29.3191 36.0876 29.2102 36.0876 29.076V28.8393C36.0876 28.705 35.9788 28.5962 35.8445 28.5962H35.6846C35.5503 28.5962 35.4415 28.705 35.4415 28.8393V29.076C35.4415 29.2102 35.5503 29.3191 35.6846 29.3191Z"
            fill="white" />
        <path
            d="M35.0577 30.0227H35.2176C35.3519 30.0227 35.4607 29.9139 35.4607 29.7796V29.5429C35.4607 29.4086 35.3519 29.2998 35.2176 29.2998H35.0577C34.9234 29.2998 34.8145 29.4086 34.8145 29.5429V29.7796C34.8145 29.9139 34.9234 30.0227 35.0577 30.0227Z"
            fill="white" />
        <path
            d="M35.048 28.6089H35.2079C35.3422 28.6089 35.451 28.5 35.451 28.3658V28.1291C35.451 27.9948 35.3422 27.886 35.2079 27.886H35.048C34.9137 27.886 34.8049 27.9948 34.8049 28.1291V28.3658C34.8049 28.5 34.9137 28.6089 35.048 28.6089Z"
            fill="white" />
        <path
            d="M34.4211 29.3191H34.581C34.7153 29.3191 34.8241 29.2102 34.8241 29.076V28.8393C34.8241 28.705 34.7153 28.5962 34.581 28.5962H34.4211C34.2868 28.5962 34.1779 28.705 34.1779 28.8393V29.076C34.1779 29.2102 34.2868 29.3191 34.4211 29.3191Z"
            fill="white" />
        <path
            d="M33.7941 30.0227H33.954C34.0883 30.0227 34.1971 29.9139 34.1971 29.7796V29.5429C34.1971 29.4086 34.0883 29.2998 33.954 29.2998H33.7941C33.6598 29.2998 33.551 29.4086 33.551 29.5429V29.7796C33.551 29.9139 33.6598 30.0227 33.7941 30.0227Z"
            fill="white" />
        <path
            d="M27.1151 28.6089H27.2751C27.4093 28.6089 27.5182 28.5 27.5182 28.3658V28.1291C27.5182 27.9948 27.4093 27.886 27.2751 27.886H27.1151C26.9809 27.886 26.872 27.9948 26.872 28.1291V28.3658C26.872 28.5 26.9809 28.6089 27.1151 28.6089Z"
            fill="white" />
        <path
            d="M26.4882 29.3191H26.6481C26.7824 29.3191 26.8912 29.2102 26.8912 29.076V28.8393C26.8912 28.705 26.7824 28.5962 26.6481 28.5962H26.4882C26.3539 28.5962 26.2451 28.705 26.2451 28.8393V29.076C26.2451 29.2102 26.3539 29.3191 26.4882 29.3191Z"
            fill="white" />
        <path
            d="M25.8612 30.0227H26.0212C26.1554 30.0227 26.2643 29.9139 26.2643 29.7796V29.5429C26.2643 29.4086 26.1554 29.2998 26.0212 29.2998H25.8612C25.727 29.2998 25.6181 29.4086 25.6181 29.5429V29.7796C25.6181 29.9139 25.727 30.0227 25.8612 30.0227Z"
            fill="white" />
        <path
            d="M25.8516 28.6089H26.0115C26.1458 28.6089 26.2546 28.5 26.2546 28.3658V28.1291C26.2546 27.9948 26.1458 27.886 26.0115 27.886H25.8516C25.7173 27.886 25.6085 27.9948 25.6085 28.1291V28.3658C25.6085 28.5 25.7173 28.6089 25.8516 28.6089Z"
            fill="white" />
        <path
            d="M25.2246 29.3191H25.3846C25.5188 29.3191 25.6277 29.2102 25.6277 29.076V28.8393C25.6277 28.705 25.5188 28.5962 25.3846 28.5962H25.2246C25.0904 28.5962 24.9815 28.705 24.9815 28.8393V29.076C24.9815 29.2102 25.0904 29.3191 25.2246 29.3191Z"
            fill="white" />
        <path
            d="M24.5977 30.0227H24.7576C24.8919 30.0227 25.0007 29.9139 25.0007 29.7796V29.5429C25.0007 29.4086 24.8919 29.2998 24.7576 29.2998H24.5977C24.4634 29.2998 24.3546 29.4086 24.3546 29.5429V29.7796C24.3546 29.9139 24.4634 30.0227 24.5977 30.0227Z"
            fill="white" />
        <path d="M38.4964 25.8518H37.5367V26.8114H38.4964V25.8518Z" fill="#0C0D0D" />
    </g>
</svg>