<svg width="14" height="14" viewBox="0 0 14 14" fill="none" xmlns="http://www.w3.org/2000/svg">
<path d="M9.87734 8.74786L9.62521 9.09341L9.92756 9.39599L13.3893 12.8604L13.3894 12.8606C13.5359 13.0071 13.5359 13.2456 13.3894 13.3921C13.2429 13.5387 13.0044 13.5387 12.8579 13.3921L9.39627 9.92784L9.09311 9.62443L8.7471 9.8779C7.88971 10.506 6.83328 10.875 5.6875 10.875C2.82185 10.875 0.5 8.55315 0.5 5.6875C0.5 2.82185 2.82185 0.5 5.6875 0.5C8.55315 0.5 10.875 2.82185 10.875 5.6875C10.875 6.83258 10.5037 7.88947 9.87734 8.74786ZM8.82529 2.54971L8.47173 2.90327L8.82529 2.54971C8.41323 2.13765 7.92404 1.81079 7.38566 1.58778C6.84728 1.36478 6.27024 1.25 5.6875 1.25C5.10476 1.25 4.52772 1.36478 3.98934 1.58778C3.45096 1.81079 2.96177 2.13765 2.54971 2.54971C2.13765 2.96177 1.81079 3.45096 1.58778 3.98934C1.36478 4.52772 1.25 5.10476 1.25 5.6875C1.25 6.27024 1.36478 6.84728 1.58778 7.38566C1.81079 7.92404 2.13765 8.41323 2.54971 8.82529L2.90327 8.47173L2.54971 8.82529C2.96177 9.23735 3.45096 9.56421 3.98934 9.78722C4.52772 10.0102 5.10476 10.125 5.6875 10.125C6.27024 10.125 6.84728 10.0102 7.38566 9.78722C7.92404 9.56421 8.41323 9.23735 8.82529 8.82529C9.23735 8.41323 9.56421 7.92404 9.78722 7.38566C10.0102 6.84728 10.125 6.27024 10.125 5.6875C10.125 5.10476 10.0102 4.52772 9.78722 3.98934C9.56421 3.45096 9.23735 2.96177 8.82529 2.54971Z" fill="#AB89A8" stroke="#8F8F8F"/>
</svg>
